<svg class="picture" xmlns="http://www.w3.org/2000/svg" xmlns:xlink="http://www.w3.org/1999/xlink" viewBox="0 0 196 296">
    <path id="background" d="M12 55h172v207H12z" fill="#4a5eb2"/>
    <path id="texture" d="M13 57v2.2c3.8 4 7.8 8.1 12 12a6185 5599 0 0 0 21 21c-10-14-17-23-26-36zm10 0c2.5 2.9 4.8 5.6 7.4 8.8a12178 11025 0 0 0 19 23 10000 9330 0 0 0-20-32zm11 0c.49.68.88 1.2 1.4 1.9 10 14 18 25 18 25a5635 5102 0 0 0-14-27zm10 0a25963 23505 0 0 1 14 23 4606 4170 0 0 0-11-23zm8.4 0c3.9 7.1 9.2 17 9.2 17a4000 3612 0 0 0-6.4-17zm9.5 0c4.5 9.1 8 16 8 16a3640 3295 0 0 0-5.1-16zm6.2 0a11146 10000 0 0 1 4.6 13c-1-4.4-2-8.5-3.1-13H68zm6.8 0a9275 8397 0 0 1 3.7 12 3644 3299 0 0 0-2-12h-1.8zm10 0c1.7 6 2.8 10 2.8 10-.56-3.5-1.1-6.7-1.6-10zm6.2 0c1.2 5.3 2 8.9 2 8.9-.26-3-.52-6-.78-8.9zm4.4 0 1 7.9c.004-2.6-.008-5.3-.007-7.9zm4 0c.25 6.4.4 11 .4 11 .3-3.3.65-7.1.97-11zm4.3 0-.38 7c.35-1.9.86-4.8 1.2-7h-.87zm6.7 0-.34 3.2.77-3.2zm7.2 0c-.36 2.5-1.5 10-1.5 10 1.4-5.3 1.8-6.5 2.7-10zm6 0-2.4 12c1.1-2.9 2.8-7.7 4.2-12zm5.5 0c-2.2 7.2-3.9 12-3.9 12a3878 3511 0 0 1 5.5-12zm7.1 0c-3.1 8.8-5.6 16-5.6 16 3.2-6 5.9-11 8.5-16zm6.9 0c-4.4 9.4-7.9 17-7.9 17a2604 2358 0 0 1 11-17zm11 0c-7.4 15-13 27-13 27 6.3-9.6 12-18 18-27zm6.1 0c-9.2 14-17 26-17 26 8.3-9.2 15-17 24-26zm12 0c-1.7 2.1-2.9 3.7-4.8 6-11 13-19 24-19 24 9.6-10 18-19 29-30h-5.1zm8.3 0c-3.1 3.7-6.3 7.4-9.3 11a2109 1910 0 0 0-19 23c9.6-8.6 18-16 29-25v-8.6zm-169 6.2V72c2.4 2.2 4.8 4.4 7.3 6.7a4192 3795 0 0 0 22 19c-8.2-10-18-22-29-35zm169 8.1c-1.5 1.6-3.1 3.2-4.4 4.6a1757 1591 0 0 0-20 22c8.2-6.6 16-13 25-19zm-169 6v8.2l.064.049c13 9.7 23 17 23 17a9107 8244 0 0 1-23-26zm169 6.2c-12 11-21 20-21 20a1140 1000 0 0 1 21-15v-4.6zm-169 6.8v5.4a2137 1935 0 0 0 21 13 4000 3604 0 0 1-21-18zm169 3.7c-11 9-19 16-19 16a916 829 0 0 1 19-11v-5.4zm-169 7v4.4a1637 1482 0 0 0 18 9.1c-5.7-4.2-12-8.7-18-13zm169 1.8c-10 6.4-17 11-17 11a801 726 0 0 1 17-8zm0 8.9c-8.7 4.9-15 8.5-15 8.5a716 648 0 0 1 15-5.9zm-169 .059v3.9c9.3 3.7 16 6.2 16 6.2a2130 1928 0 0 1-16-10zm169 9.9c-7.3 3.8-12 6.6-12 6.6a623 564 0 0 1 12-3.2zm-169 .65v2.2c5.9 1.8 10 2.9 10 2.9-3.2-1.6-6.6-3.4-10-5.2zm169 6.8a677 613 0 0 0-12 3.9c3.9-.51 7.8-1 12-1.5zm-169 1.5v3.2c6.7.81 11 1.3 11 1.3-3.6-1.4-7.4-3-11-4.5zm169 7c-6.2 1.3-10 2.3-10 2.3 3.4-.2 6.8-.38 10-.53v-1.7zm-169 1.1v.79c5.5.63 9 .99 9 .99-2.9-.56-5.9-1.2-9-1.8zm0 7.3v2.8c7.4-.055 13-.16 13-.16a1345 1218 0 0 1-13-2.7zm169 1.1c-2.8.49-4.8.85-4.8.85 1.6.026 3.2.06 4.8.1zm0 5.6c-6.2.29-10 .57-10 .57 3.4.61 6.8 1.2 10 1.9zm-169 1.2v1.2c4-.44 6.8-.76 6.8-.76-2.2-.13-4.5-.3-6.8-.45zm159 6.6c3.3.74 6.6 1.5 9.9 2.3v-1.4c-6-.62-9.9-.95-9.9-.95zm-159 2.7v1.1c4.2-.58 7.1-1 7.1-1-2.2-.012-4.7-.04-7.1-.064zm160 4.1a721 653 0 0 1 9.6 3.3v-1.9c-5.8-.87-9.6-1.4-9.6-1.4zm-158 2.3c-.66.04-1.4.075-2.1.11v.4c.4-.1 2.1-.51 2.1-.51zm157 5.1a804 728 0 0 1 11 4.3v-1.8a728 659 0 0 0-11-2.5zm-152 3.1c-2.2.29-4.7.59-7.1.88v1.6c3.8-1.4 7.1-2.5 7.1-2.5zm150 3.4a964 873 0 0 1 13 6.6v-2.7c-7.4-2.4-13-3.9-13-3.9zm-4.9 6.3a1113 1000 0 0 1 18 11v-3.5c-10-4.3-18-7.1-18-7.1zm-144 2.5c-2.4.47-5 .96-7.6 1.4v1.4c4.4-1.6 7.6-2.9 7.6-2.9zm-.54.72c-2.2.84-4.7 1.7-7.1 2.6v1.9c4-2.6 7.1-4.5 7.1-4.5zm147 1.3a1538 1392 0 0 1 15 12v-3.5a1187 1075 0 0 0-15-8.6zm-144 5.3a3223 2918 0 0 1-9.6 5v1.4l9.6-6.4zm142 3.8a1948 1763 0 0 1 18 15v-4.3c-10-6.5-18-11-18-11zm-139 3.3a3279 3000 0 0 1-13 7v3.5c7.2-5.8 13-10 13-10zm135 3.1a2655 2403 0 0 1 21 21v-5.7c-12-8.8-21-15-21-15zm-135 2.5c-4.3 3.1-8.7 6.3-13 9.5v2.8zm138 4.8a4456 4000 0 0 1 19 23v-5.9c-10-9.8-19-17-19-17zm-130 1.2c-5.1 5.1-13 13-20 21v8.8c11-16 20-30 20-30zm-2.7.69a6496 5881 0 0 1-18 14v4.6c8.4-8.8 18-18 18-18zm120 2.3a9237 8363 0 0 1 26 42h5.4v-2.8c-3-3.7-5.9-7.4-8.8-11a4798 4344 0 0 0-23-28zm5.5.97c8.3 11 17 22 26 35v-9.1l-3-3.1a3228 2923 0 0 0-23-23zm-121 6.9c-6.6 8-14 18-22 27v3.9c.74-1 1.4-1.9 2.1-3 11-15 20-28 20-28zm113 3.8c5.2 9.1 11 19 17 30h5.8c-.87-1.2-1.7-2.2-2.6-3.4-11-15-20-27-20-27zm-107 2.1c-6.6 7.7-16 18-24 28h6.4c9.8-15 18-28 18-28zm8 2.2a6000 5441 0 0 0-15 26h3.4a2805 2540 0 0 1 12-26zm95 .18c3.2 7 7.5 16 12 26h4.8a12188 11034 0 0 0-17-26zm-100 1.4a10740 9723 0 0 0-18 24h4.4c7.3-14 13-24 13-24zm9.3 2.1a5723 5181 0 0 0-12 22h2.9a2168 2000 0 0 1 8.6-22zm85 .79a40000 36185 0 0 0 9 21h2.9zm-11 6.4a9000 8137 0 0 0 4.3 15h2.1c-3.6-8.5-6.4-15-6.4-15zm11 .27c2.4 7.7 3.2 10 4.6 15h2.2zm-78 2.1a6902 6249 0 0 0-6.2 13h2.2a1840 1666 0 0 1 4.1-13zm3.8 1.5a4387 4000 0 0 0-4.1 11h1.3c1.7-6.8 2.8-11 2.8-11zm53 1.5c.49 3.2.99 6.4 1.5 9.6h1.3a6153 5571 0 0 1-2.8-9.6zm6.3.96c.67 3 1.3 5.8 2 8.6h1.1c-1.7-4.7-3.1-8.6-3.1-8.6zm-12 .18c.31 2.8.65 5.6.97 8.5h.84c-.92-4.3-1.8-8.5-1.8-8.5zm-40 2.3c-.65 1.9-1.4 4.1-2.1 6.2h.79c.73-3.6 1.3-6.2 1.3-6.2zm11 .72c-.35 1.7-.73 3.7-1.1 5.5h.6c.28-3.2.5-5.5.5-5.5zm-5.1.073c-.45 1.7-.94 3.6-1.4 5.4h.58c.48-3.1.83-5.4.83-5.4zm30 .095c.082 1.7.18 3.5.27 5.3h.63c-.3-1.8-.9-5.3-.9-5.3zm-19 .05c-.25 1.6-.52 3.5-.78 5.2h.68c.054-3 .1-5.2.1-5.2zm13 1.3c-.002 1.3.003 2.7.003 4h.4l-.4-4zm-6.6.6-.28 3.4h.48l-.21-3.4z"/>
    <image id="mystique" x="30" y="74" width="124" height="188" preserveAspectRatio="none" xlink:href="mystique.svg"/>
    <image id="mystique_transformed" x="30" y="71" width="140" height="200" preserveAspectRatio="none" xlink:href="mystique_transformed.svg"/>
    <path id="paper" d="M0 0v296h196V0zm13 57h169v204H13z" fill="#fff5e7"/>
    <path id="border" d="M12 55v207h172V55zm3 3h166v201H15z"/>
    <g id="text" font-family="Cardo" font-weight="700" text-anchor="middle">
        <text x="106.184" y="290.456" font-size="18" style="line-height:1.2;text-align:center" xml:space="preserve" transform="translate(-8 -8)"><tspan x="106.184" y="290.456" font-size="16">RAVEN DARKHÖLME</tspan></text>
        <text x="106.335" y="29.265" style="line-height:1.2;text-align:center" xml:space="preserve" transform="translate(-8 -8)"><tspan x="106.335" y="29.265" font-size="14">HAVE YOU SEEN</tspan><tspan x="106.335" y="53.915" font-size="22">THIS WOMAN?</tspan></text>
    </g>
</svg>
