<svg class="picture" viewBox="0 0 212 312" xmlns="http://www.w3.org/2000/svg" xmlns:xlink="http://www.w3.org/1999/xlink">
    <defs>
        <filter id="filter5109" x="-.024" y="-.016" width="1.049" height="1.043" color-interpolation-filters="sRGB">
            <feFlood flood-color="#000" flood-opacity=".243" result="flood"/>
            <feComposite in="flood" in2="SourceGraphic" operator="in" result="composite1"/>
            <feGaussianBlur in="composite1" result="blur" stdDeviation="2"/>
            <feOffset dy="3" result="offset"/>
            <feComposite in="SourceGraphic" in2="offset" result="composite2"/>
        </filter>
    </defs>
    <path id="background" d="M7.92 7.91h196.2v296.2H7.92z" fill="#4a5eb2" filter="url(#filter5109)"/>
    <path id="texture" d="M21.43 64.8v2.19c3.85 4 7.8 8.09 12 12.4a6185 5599 0 0 0 20.8 21.3c-10.3-14.2-16.8-23.2-26.1-35.9zm10.1 0c2.48 2.94 4.75 5.65 7.41 8.79a12178 11025 0 0 0 19.3 22.7 10306 9330 0 0 0-19.5-31.5zm11.4 0c.492.677.879 1.22 1.38 1.9 10.3 14.2 18.5 25.4 18.5 25.4a5635 5102 0 0 0-14-27.3zm10.3 0a25963 23505 0 0 1 14.2 23.1 4606 4170 0 0 0-10.6-23.1zm8.4 0c3.88 7.08 9.18 16.7 9.18 16.7a3990 3612 0 0 0-6.4-16.7zm9.46 0c4.5 9.08 8.04 16.2 8.04 16.2a3640 3295 0 0 0-5.1-16.2zm6.15 0a11146 10091 0 0 1 4.61 12.6c-1.05-4.37-2.05-8.53-3.06-12.6h-1.56zm6.76 0a9275 8397 0 0 1 3.73 11.7 3644 3299 0 0 0-1.96-11.7h-1.78zm10.3 0c1.72 6.04 2.82 9.95 2.82 9.95-.555-3.47-1.08-6.7-1.61-9.95zm6.21 0c1.21 5.29 2.03 8.91 2.03 8.91-.261-3.05-.518-5.97-.776-8.91zm4.38 0 1.01 7.9c.004-2.6-.008-5.3-.007-7.9zm4.05 0c.248 6.45.399 10.6.399 10.6.304-3.26.65-7.13.973-10.6zm4.32 0-.381 6.95c.349-1.93.858-4.76 1.25-6.95h-.873zm6.67 0-.34 3.25.768-3.25zm7.19 0c-.363 2.46-1.47 10-1.47 10 1.44-5.29 1.78-6.52 2.73-10zm5.98 0-2.43 11.6c1.07-2.93 2.81-7.66 4.25-11.6zm5.54 0c-2.23 7.16-3.87 12.4-3.87 12.4a3878 3511 0 0 1 5.48-12.4zm7.13 0c-3.14 8.84-5.6 15.8-5.6 15.8 3.21-6.03 5.87-11 8.48-15.8zm6.93 0c-4.39 9.35-7.88 16.8-7.88 16.8a2604 2358 0 0 1 10.9-16.8zm11 0c-7.43 14.9-13.2 26.8-13.2 26.8 6.26-9.56 11.7-17.7 17.9-26.8zm6.06 0c-9.23 14.3-16.6 26.1-16.6 26.1 8.26-9.19 15.4-17 23.9-26.1zm12 0c-1.67 2.1-2.93 3.67-4.78 5.99-10.7 13.4-19.2 24.5-19.2 24.5 9.65-10.4 18.2-19.3 29.1-30.5h-5.13zm8.33 0c-3.13 3.68-6.34 7.43-9.26 10.9a2109 1910 0 0 0-19.3 23.1c9.57-8.57 18.4-16.3 29.1-25.4v-8.63zm-169 6.18v8.77c2.4 2.19 4.79 4.39 7.31 6.68a4192 3795 0 0 0 21.5 19.4c-8.25-9.96-18.5-22.4-28.8-34.9zm169 8.12c-1.49 1.56-3.08 3.22-4.42 4.64a1757 1591 0 0 0-20.4 21.8c8.15-6.55 16-12.7 24.8-19.4zm-169 6.05v8.15l.064.049c12.8 9.73 23.1 17.4 23.1 17.4a9107 8244 0 0 1-23.2-25.6zm169 6.23c-11.7 10.7-21.1 19.6-21.1 19.6a1140 1032 0 0 1 21.1-15V91.4zm-169 6.8v5.4a2137 1935 0 0 0 20.9 13 3981 3604 0 0 1-20.9-18.4zm169 3.7c-10.8 9.05-19 16.3-19 16.3a916 829 0 0 1 19-10.9v-5.39zm-169 7.02v4.38a1637 1482 0 0 0 18 9.06c-5.74-4.25-11.7-8.71-18-13.4zm169 1.76c-10.1 6.35-17.4 11.2-17.4 11.2a801 726 0 0 1 17.4-7.98zm0 8.91c-8.67 4.92-14.7 8.54-14.7 8.54a716 648 0 0 1 14.7-5.9zm-169 .059v3.89c9.31 3.69 15.9 6.17 15.9 6.17a2130 1928 0 0 1-15.9-10.1zm169 9.93c-7.26 3.8-12.3 6.56-12.3 6.56a623 564 0 0 1 12.3-3.16zm-169 .654v2.22c5.91 1.76 9.97 2.93 9.97 2.93-3.22-1.65-6.56-3.38-9.97-5.15zm169 6.81a677 613 0 0 0-11.9 3.87c3.86-.513 7.82-.999 11.9-1.46zm-169 1.53v3.21c6.68.811 11.3 1.32 11.3 1.32-3.63-1.44-7.43-2.96-11.3-4.53zm169 7c-6.15 1.31-10.3 2.26-10.3 2.26 3.35-.2 6.78-.376 10.3-.526v-1.73zm-169 1.09v.786c5.46.627 9.01.992 9.01.992-2.88-.56-5.92-1.16-9.01-1.78zm0 7.33v2.82c7.43-.055 12.6-.16 12.6-.16a1345 1218 0 0 1-12.6-2.66zm169 1.09c-2.81.49-4.81.854-4.81.854 1.59.026 3.19.06 4.81.1zm0 5.57c-6.21.291-10.2.567-10.2.567 3.36.606 6.77 1.25 10.2 1.93zm-169 1.16v1.2c4.04-.436 6.8-.756 6.8-.756-2.17-.134-4.51-.295-6.8-.449zm159 6.56c3.27.736 6.58 1.51 9.93 2.31v-1.36c-6.05-.625-9.93-.949-9.93-.949zm-159 2.72v1.06c4.22-.579 7.08-.996 7.08-.996-2.25-.012-4.69-.04-7.08-.064zm160 4.07a721 653 0 0 1 9.65 3.28v-1.9c-5.82-.873-9.65-1.38-9.65-1.38zm-158 2.34c-.658.04-1.39.075-2.07.114v.4c.399-.102 2.07-.513 2.07-.513zm157 5.09a804 728 0 0 1 10.7 4.33v-1.81a728 659 0 0 0-10.7-2.52zm-152 3.07c-2.25.289-4.69.588-7.09.884v1.65c3.85-1.37 7.09-2.53 7.09-2.53zm150 3.44a964 873 0 0 1 12.6 6.62v-2.73c-7.44-2.35-12.6-3.89-12.6-3.89zm-4.87 6.31a1113 1008 0 0 1 17.5 10.6v-3.48c-10.3-4.28-17.5-7.08-17.5-7.08zm-144 2.53c-2.42.468-5.02.957-7.6 1.44v1.44c4.39-1.65 7.6-2.88 7.6-2.88zm-.537.722c-2.25.837-4.67 1.73-7.06 2.61v1.9c4.04-2.57 7.06-4.51 7.06-4.51zm147 1.34a1538 1392 0 0 1 15.3 12v-3.46a1187 1075 0 0 0-15.3-8.55zm-144 5.31a3223 2918 0 0 1-9.6 5.03v1.36c5.72-3.8 9.6-6.39 9.6-6.39zm142 3.85a1948 1763 0 0 1 17.7 15.4v-4.31c-10.3-6.54-17.7-11.1-17.7-11.1zm-139 3.29a3279 2968 0 0 1-12.9 6.95v3.5c7.21-5.85 12.9-10.4 12.9-10.4zm135 3.13a2655 2403 0 0 1 21.1 21.1v-5.74c-11.9-8.79-21.1-15.4-21.1-15.4zm-135 2.51c-4.3 3.14-8.69 6.32-13.1 9.5v2.82zm138 4.75a4456 4034 0 0 1 18.6 23v-5.86c-10.5-9.75-18.6-17.1-18.6-17.1zm-130 1.22c-5.07 5.14-12.6 12.8-20.4 20.6v8.83c11.1-16.2 20.4-29.5 20.4-29.5zm-2.7.694a6496 5881 0 0 1-17.7 13.8v4.64c8.43-8.82 17.7-18.5 17.7-18.5zm120 2.26a9237 8363 0 0 1 26 41.8h5.43v-2.85c-2.98-3.72-5.94-7.45-8.85-11.1a4798 4344 0 0 0-22.6-27.9zm5.48.97c8.26 11 16.8 22.5 26 35v-9.08l-3.03-3.06a3228 2923 0 0 0-22.9-22.8zm-121 6.94c-6.58 7.98-14.5 17.6-22.4 27.2v3.91c.736-1.03 1.38-1.94 2.14-3.01 10.9-15.3 20.2-28.1 20.2-28.1zm113 3.77c5.19 9.07 11.1 19.4 17.2 30.1h5.82c-.873-1.15-1.67-2.21-2.55-3.37-11.3-14.9-20.5-26.7-20.5-26.7zm-107 2.06c-6.64 7.67-15.7 18.1-24.3 28h6.36c9.78-15.4 17.9-28 17.9-28zm7.98 2.21a6010 5441 0 0 0-14.9 25.8h3.4a2805 2540 0 0 1 11.5-25.8zm95.4.182c3.23 6.97 7.49 16.2 11.9 25.7h4.84a12188 11034 0 0 0-16.7-25.7zm-99.8 1.36a10740 9723 0 0 0-17.5 24.3h4.41c7.28-13.7 13-24.3 13-24.3zm9.3 2.12a5723 5181 0 0 0-11.5 22.2h2.9a2168 1963 0 0 1 8.58-22.2zm84.8.787a40000 36185 0 0 0 8.96 21.4h2.89zm-11.2 6.45a8988 8137 0 0 0 4.31 14.9h2.08c-3.65-8.54-6.39-14.9-6.39-14.9zm10.7.268c2.38 7.69 3.17 10.2 4.55 14.7h2.21zm-78.2 2.06a6902 6249 0 0 0-6.23 12.6h2.16a1840 1666 0 0 1 4.07-12.6zm3.79 1.48a4387 3972 0 0 0-4.07 11.1h1.28c1.67-6.81 2.78-11.1 2.78-11.1zm53.1 1.54c.49 3.2.989 6.39 1.49 9.59h1.28a6153 5571 0 0 1-2.77-9.59zm6.32.958c.672 3 1.31 5.78 1.95 8.63h1.13c-1.69-4.73-3.08-8.63-3.08-8.63zm-12 .176c.313 2.77.647 5.63.973 8.46h.837c-.923-4.3-1.81-8.46-1.81-8.46zm-40.2 2.28c-.652 1.94-1.38 4.12-2.07 6.18h.787c.733-3.57 1.28-6.18 1.28-6.18zm10.6.716c-.35 1.72-.733 3.66-1.1 5.46h.599c.284-3.16.499-5.46.499-5.46zm-5.06.073c-.446 1.69-.943 3.61-1.41 5.39h.576c.478-3.12.833-5.39.833-5.39zm29.5.095c.082 1.71.18 3.54.266 5.3h.63c-.298-1.77-.896-5.3-.896-5.3zm-18.7.05c-.25 1.65-.52 3.51-.776 5.24h.675c.054-3.04.1-5.24.1-5.24zm13.4 1.29c-.002 1.26.003 2.66.003 3.95h.4c-.101-1.02-.403-3.95-.403-3.95zm-6.59.598c-.09 1.06-.186 2.26-.277 3.36h.485c-.131-2.08-.208-3.36-.208-3.36z"/>
    <image id="mystique" x="45.54" y="81.83" width="123.6" height="187.6" preserveAspectRatio="none" xlink:href="../../../Documents/mystique/mystique.svg"/>
    <image id="mystique_transformed" x="45.9" y="79.38" width="140.1" height="199.7" preserveAspectRatio="none" xlink:href="../../../Documents/mystique/mystique_transformed.svg"/>
    <path d="M7.92 7.91v296.2h196.2V7.91H7.92zM21.43 64.8h168.8v204H21.43v-204z" fill="#fff5e7"/>
    <path id="border" d="M20.1 63.18v207.2h171.7V63.18zm3 3h165.7v201.2H23.1z"/>
    <g id="text" font-family="Cardo" font-weight="700" text-anchor="middle">
        <text x="106.184" y="290.456" style="line-height:1.2;text-align:center" xml:space="preserve" font-size="18.04"><tspan x="106.184" y="290.456" font-size="15.72">RAVEN DARKHÖLME</tspan></text>
        <text x="106.335" y="29.265" style="line-height:1.2;text-align:center" xml:space="preserve" font-size="16.14"><tspan x="106.335" y="29.265" font-size="14.06">HAVE YOU SEEN</tspan><tspan x="106.335" y="53.915" font-size="22.5">THIS WOMAN?</tspan></text>
    </g>
</svg>
