<svg class="picture" viewBox="0 0 196 296" xmlns="http://www.w3.org/2000/svg" xmlns:xlink="http://www.w3.org/1999/xlink">
    <path id="background" d="M12 55h172v207H12z" fill="#4a5eb2"/>
    <path id="texture" d="M13 57v2l12 12a6053 6000 0 0 0 21 21C36 78 29 69 20 56zm10 0c2 3 5 6 7.1 9.1a10000 10000 0 0 0 19 23 10000 9073 0 0 0-20-32zm11 0c.5.71.91 1 1 2 10 14 18 25 18 25a6053 5000 0 0 0-14-27zm10 0a30000 20000 0 0 1 14 23 5000 4000 0 0 0-11-23zm8.1 0c4 7.1 9.1 17 9.1 17a4000 4000 0 0 0-6.1-17zm10 0c4 9.1 8.1 16 8.1 16a4000 3000 0 0 0-5-16zm6.1 0a10000 10000 0 0 1 5 13c-1-4-2-8.1-3-13zm7.1 0a9079 8065 0 0 1 4 12 4000 3000 0 0 0-2-12zm10 0c2 6 3 10 3 10-.61-4-1-7.1-2-10zm6.1 0c1 5 2 9.1 2 9.1-.3-3-.5-6-.81-9.1zm4 0 1 8.1c.004-3-.008-5-.007-8.1zm4 0c.2 6 .4 11 .4 11 .3-3 .61-7.1 1-11zm4 0-.4 7.1c.4-2 .91-5 1-7.1h-.91zm7.1 0-.3 3 .81-3zm7.1 0-2 10c1-5 2-6 3-10zm6.1 0-2 12c1-3 3-8.1 4-12zm6.1 0c-2 7.1-4 12-4 12a4000 4000 0 0 1 6.1-12zm7.1 0c-3 9.1-6.1 16-6.1 16 3-6 6.1-11 8.1-16zm7.1 0c-4 9.1-8.1 17-8.1 17a3000 2000 0 0 1 11-17zm11 0c-7.1 15-13 27-13 27 6.1-10 12-18 18-27zm6.1 0c-9.1 14-17 26-17 26 8.1-9.1 15-17 24-26zm12 0c-2 2-3 4-5 6-11 13-19 24-19 24 10-10 18-19 29-30zm8.1 0c-3 4-6.1 7.1-9.1 11a2000 2000 0 0 0-19 23c10-9.1 18-16 29-25v-9.1zm-170 6v9.1c2 2 5 4 7.1 7.1a4000 4000 0 0 0 22 19c-8.1-10-18-22-29-35zm170 8.1c-2 2-3 3-4 5a2000 2000 0 0 0-20 22c8.1-7.1 16-13 25-19zm-170 6v8.1l.061.05c13 10 23 17 23 17a9079 8065 0 0 1-23-26zm170 6c-12 11-21 20-21 20a1000 1000 0 0 1 21-15zm-170 7.1v5a2000 2000 0 0 0 21 13 4000 4000 0 0 1-21-18zm170 4c-11 9.1-19 16-19 16a924 836 0 0 1 19-11zm-170 7.1v4a2000 1000 0 0 0 18 9.1c-6.1-4-12-9.1-18-13zm170 2c-10 6-17 11-17 11a808 732 0 0 1 17-8.1zm0 9.1c-9.1 5-15 8.1-15 8.1a722 653 0 0 1 15-6zm-170 .06v4c9.1 4 16 6 16 6a2000 2000 0 0 1-16-10zm170 10c-7.1 4-12 7.1-12 7.1a628 569 0 0 1 12-3zm-170 .6v2c6.1 2 10 3 10 3-3-2-7.1-3-10-5zm170 7.1a683 618 0 0 0-12 4c4-.5 8.1-1 12-2zm-170 2v3c7.1.81 11 1 11 1-4-1-7.1-3-11-4zm170 7.1c-6.1 1-10 2-10 2 3-.2 7.1-.4 10-.5v-2zm-170 1v.81c6.1.6 9.1 1 9.1 1-3-.6-6.1-1-9.1-2zm0 7.1v3c7.1-.06 13-.2 13-.2a1000 1000 0 0 1-13-3zm170 1c-3 .5-5 .81-5 .81 2 .03 3 .06 5 .1zm0 6c-6.1.3-10 .6-10 .6 3 .6 7.1 1 10 2zm-170 1v1c4-.4 7.1-.81 7.1-.81-2-.1-4-.3-7.1-.4zm160 7.1c3 .71 7.1 2 10 2v-1c-6.1-.6-10-1-10-1zm-160 3v1c4-.6 7.1-1 7.1-1-2-.01-5-.04-7.1-.06zm161 4a727 658 0 0 1 10 3v-2c-6.1-.91-10-1-10-1zm-159 2c-.71.04-1 .081-2 .1v.4l2-.5zm158 5a811 734 0 0 1 11 4v-2a734 664 0 0 0-11-2zm-153 3c-2 .3-5 .6-7.1.91v2c4-1 7.1-2 7.1-2zm151 3a972 880 0 0 1 13 7.1v-3c-7.1-2-13-4-13-4zm-5 6a1000 1000 0 0 1 18 11v-4c-10-4-18-7.1-18-7.1zm-145 2c-2 .5-5 1-8.1 1v1c4-2 8.1-3 8.1-3zm-.5.71c-2 .81-5 2-7.1 3v2c4-3 7.1-4 7.1-4zm148 1a2000 1000 0 0 1 15 12v-4a1000 1000 0 0 0-15-9.1zm-145 5a3000 3000 0 0 1-10 5v1zm143 4a2000 2000 0 0 1 18 15v-4c-10-6-18-11-18-11zm-140 3a3000 3000 0 0 1-13 7.1v4c7.1-6 13-10 13-10zm136 3a3000 2000 0 0 1 21 21v-6c-12-9.1-21-15-21-15zm-136 2c-4 3-9.1 6-13 10v3zm139 5a4000 4000 0 0 1 19 23v-6c-10-10-19-17-19-17zm-131 1c-5 5-13 13-20 21v9.1c11-16 20-30 20-30zm-3 .71a6053 6000 0 0 1-18 14v5c8.1-9.1 18-18 18-18zm121 2a9079 8065 0 0 1 26 42h5v-3c-3-4-6.1-7.1-9.1-11a5000 4000 0 0 0-23-28zm6.1 1c8.1 11 17 22 26 35v-9.1l-3-3a3000 3000 0 0 0-23-23zm-122 7.1c-7.1 8.1-14 18-22 27v4c.71-1 1-2 2-3 11-15 20-28 20-28zm114 4c5 9.1 11 19 17 30h6.1c-.91-1-2-2-3-3-11-15-20-27-20-27zm-108 2c-7.1 8.1-16 18-24 28h6.1c10-15 18-28 18-28zm8.1 2a6053 5000 0 0 0-15 26h3a3000 3000 0 0 1 12-26zm96 .2c3 7.1 8.1 16 12 26h5a10000 10000 0 0 0-17-26zm-101 1a10000 10000 0 0 0-18 24h4c7.1-14 13-24 13-24zm9.1 2a6053 5000 0 0 0-12 22h3a2000 2000 0 0 1 9.1-22zm86 .81a40000 40000 0 0 0 9.1 21h3zm-11 6a9079 8065 0 0 0 4 15h2c-4-8.1-6.1-15-6.1-15zm11 .3c2 8.1 3 10 5 15h2zm-79 2a7062 6000 0 0 0-6.1 13h2a2000 2000 0 0 1 4-13zm4 2a4000 4000 0 0 0-4 11h1c2-7.1 3-11 3-11zm53 2c.5 3 1 6 2 10h1a6053 6000 0 0 1-3-10zm6.1 1c.71 3 1 6 2 9.1h1c-2-5-3-9.1-3-9.1zm-12 .2c.3 3 .61 6 1 8.1h.81c-.91-4-2-8.1-2-8.1zm-40 2c-.61 2-1 4-2 6h.81c.71-4 1-6 1-6zm11 .71c-.4 2-.71 4-1 6h.61c.3-3 .5-6 .5-6zm-5 .07c-.4 2-.91 4-1 5h.61c.5-3 .81-5 .81-5zm30 .1c.081 2 .2 4 .3 5h.61c-.3-2-.91-5-.91-5zm-19 .05c-.2 2-.5 4-.81 5H88c.05-3 .1-5 .1-5zm13 1c-.002 1 .003 3 .003 4h.4l-.4-4zm-7.1.6-.3 3h.5z"/>
    <image id="mystique" x="30" y="74" width="124" height="188" preserveAspectRatio="none" xlink:href="mystique.svg"/>
    <image id="mystique_transformed" x="30" y="71" width="140" height="200" preserveAspectRatio="none" xlink:href="mystique_transformed.svg"/>
    <path id="paper" d="M0 0v296h196V0zm13 57h169v204H13z" fill="#fff5e7"/>
    <path id="border" d="M12 55v207h172V55zm3 3h166v201H15z"/>
    <text x="98.184" y="282.456" font-size="18" style="line-height:1.2;text-align:center" xml:space="preserve" font-family="Cardo" font-weight="700" text-anchor="middle"><tspan x="98.184" y="282.456" font-size="16">RAVEN DARKHÖLME</tspan></text>
    <text x="98.335" y="21.265" style="line-height:1.2;text-align:center" xml:space="preserve" font-family="Cardo" font-weight="700" text-anchor="middle"><tspan x="98.335" y="21.265" font-size="14">HAVE YOU SEEN</tspan><tspan x="98.335" y="45.915" font-size="22">THIS WOMAN?</tspan></text>
</svg>
