<svg class="picture" xmlns="http://www.w3.org/2000/svg" viewBox="0 0 123.6 187.6">
    <g id="hair_mystique">
        <path d="M78.4.517 73.97.83l-5.69.926-5.48 1.3-8.31 1.46-6.93-.078-7.39 2.96-2.39 2.22-5.78 3.96-4.15 4.25-5.67 5.75-5.12 7.86-2.07 6.41-1.89 6.6-1.49 10.1.03 7.94.402 7.73 2.46 14.7 3.76 11.5 4.99 9.99 3.71 6.98 4.21 8.54 1.48 4.54-.212 3.58.635 1.22.686 1.68 1.58-1.19.973-2.71 1.18-2.97.257 1 1.49 3.65 1.13-3.8 1.16 2.84.178.52-.539-6.39-3.37-8.09-1.59-10.6-1.57 1.55h-3.1l-3.82-3.65-3.87-2.49-2.64-2.67-2.19-6.84-2.97-6.17.512-4.14 1.79-2.05 2.52-.516 3.2 1.08 2.76 2.62 1.21 1.94 1.31 1.26 1.85.799 1.68-.761.182-2.13-.214-1.81.145-.905-.815-.98.016-1.65.794-1.52.734-3.09-.791-3.7-.361-.373.85-.598-.056-1.05.239-1.22.33-1.48-.031-1.54-.233-1.58.189-1.72.929-1.39-.478-1.13.592-1.86.247-2.39.033-1.17.777-1.08.082-2.18 1.62-2.05-.44-1.27 1.26-1.8.938-1.6.307-1 1.77-2.46.386-1.41 1.33-1.37.683-1.78 2.4-1.4 1.22-2 3.9-.756 2.66-1.87 2.45-.358 2.33-.278 2.51-1.03 2.64-.312 2.31 1.62 3.61-1.01 3.14-.595 4.08 1.76 1.54-.137 2.43-.362 2.26-.733 2.15.169 1.85-1.13 2-.256 1.57-.42 2.38-.12 1.64-.107 2.8-.402.84-.165 3.24-.1 1.07-.814.912-.434.529 1.19-.174 1.77 1.91.854 1.93 2.91 2.64 3.94 1.72 3.7.79 2.77-.589 1.11 1.22 2.59.82 2.77.793 1.41.457 2.47.592 1.85.33 2.53.136.395.105 1.46.102.794.111 2.18.337 4.67-.055.885.051 1.01-.472 11.1.828-.866 1.7-2.35-.184-1.33.033-2.99.547-6.44.49-4.34-.106-5.88-.659-8.83-.648-5.49-2.05-5.48-2.21-5.91-4.51-7.05-1.95-2.16-4.65-5.49-5.84-4.76-4.94-2.9-5.42-2-4.37-1.36z" fill="#9b2a1c"/>
        <path d="m69.3 2.017 1.81 1.54-3.93.128-.518.864-2.4.115-.678 1.34.883 1-5.15-1.66.646 2.23-4.63-1.62.647 1.41-9.47-.311.685.92-2.39.587-3.74.782.821 1.08-3.51 1.29.312 1.28-1.51 1.17-2.92 1.06.659 1.11-4.6 2.95-4.66 2.68.704 1.29-1.7 1.14 2 .267-1.93 1.43-3.04 3.17.044 1.41-2.23 1.6-2.32 4.99 1.43-.267-.996 2.45-2.48 3.71-2.02 6.79-1.75 7.36 1.94-14.4 1.96-6.6 1.32-4.04 1.27-2.22 2.47-3.88 5.93-6.94 4.89-4.43 6.07-4.91 2.63-1.86 6.95-3.2 7.65.256 5.21-1.15 3.6-.713z" fill="#d15d4f"/>
        <path d="M103.9 19.42v-3.41l-.988 1.14-.789-2.14-1.31.228-.804-1.36-1.96-2.26-.053 1.33-1.79-1.12-1.03-2.33-.659 2.89-1.54-3.47-.717 2.21-2.48-2.5-.448 1.19-.006 1.49-1.96-2.92.07 1.99-1.68-3.5.922 4.19-2.66-2.42.871 4.56-3-4.28-.087 3.68-1.25-.394-1.68-4.61-.869 4.58-2.41-4.23-.659 5.15-3.02-4.58.102 5.23-2.75-4.55-.988 2.52-3.31-2.67 1.72 4.67-3.42-2.34.354 2.35-5.44-3.49.648 3.83-5.65-.924-5.13.976 1.62.714-7.19 1.09 1.16 1.34-3.86-.662.17 2.63-6.56 2.52 2.64.941-6.63 3.73 2.7.792-5.62 4.05 2.81-.159-7.33 7.61 2.24.481-6.09 7.93 3.52-.486-3.05 4.26 2.73-.551-1.76 3.16 2.75-1.61-3.44 4.24 2.65-.773-3.15 2.98 3.8-1.45 2.73.774-5.74 5.54 2.01.446-5.45 4.37 4.97-1.15-2.35 2.94 3.41-.208-1.61 2.03-2.41 2.32 2.84-.669-.636 2.35 1.76-.345.226 2.37 2.45.449-.64 1.15 3.23 3.43 1.19 1 .1-2.6-.41-5.79-2.54-2.2 1.72-4.43-2.66-2 2.88-1.12-2.19-3.69 3.42-3.41-3.03-6.71 4.38-3.27-3.39-2.82 8.28-5.83-2.77-3.32 6.36-2.47-1.43-4.56 4.78.177 1.29-4.52.357-2.25 5.08 1.1.805-2.56 8.35 1.62 1.76-2.9 6.42 4.54 1.89-5.77 10.2 3.42 3.34-4.91 4.48 3.36 1.21-3.68 2.67 4.53 2.89-4.2 4.28 5.66 1.45-5.25 3.1 3.3z" fill="#5f1e16"/>
        <path d="M75.4.517c-5.82.942-11.5 2.39-17.3 3.27-4.1 1.46-8.41-.148-12.5 1.16-7.98 2.87-14 9.14-20.1 14.8-5.61 5.72-10.2 12.7-11.6 20.8-1.55 5.24-2.23 10.7-2.88 16.1-.02 5.99.049 12 .694 17.9 1.1 4.98 1.64 10.2 3.43 15.1 3.09 9.11 7.2 17.8 12 26.1 2.78 5.34 6.36 11.7 3.76 17.8-1.02 1.57-3.35 6.07-.271 2.74 1.22-1.76 2.89-4.74 1.33-.971.716 2.64 3.7-3.12 4.17-4.64 1.61-3.51.512 3.5 1.72 3.08.979 5.44 2.46-8.54 2.79-2.73 1.06 4.75.962-3.51.808-5.12-.323-2.64-1.27-.831-.713.655-1.18-1.44-1.54-5.98-2.49-6.07.711 1.93 1.66 7.72 1.19 7.18-.79-4.57-.305 4.91-.835-.405-.424-4.54-2.05-8.82-2.94-13.3-.065 3.17 1.47 7.12.445 8.66.902 1.95-.41 7.46-1.09 7.3.822-4.69-.757-9.09-2.19-13.5-1.34-1.86.811 3.9.869 5.14.74 1.8.431 8.44-.648 7.5-.149-5.17-2.93-9.86-5.18-14.4-3.73-6.5-7.23-13.1-9.82-20.2-2.22-5.46-5.13-11.6-2.83-17.5-.122-.687.552-3.7.295-2.93-1.24 1.16-.929 7.46-1.82 6.06-.924-3.27.05-7.15 1.1-9.88-.953 1.71-1.99 7.89-2.17 2.97.87-3.29 2.19-6.65 4.05-9.53 4.69-3.85 11.2-2.71 16.8-2.99 2.43-2.24-7.44-.24-2.26-1.96 2.82.323 3.76-3.02.507-1.33-4.02 2.23-8.77 2.24-12.9 3.94-.031-1.46 4.53-4.24 7.15-4.99 3.31-1.22 7.93-1.05 9.62-4.78-3.51.77-6.31 3.46-10 3.93-5.34 1.55-9.93 5.69-11.3 11.2-.415 1.86-2.22 7.42-2.22 2.42-.09-2.42 2.87-7.56 2.84-7.48-1.19 1.43-3.17 4.23-2.25 4.31-1.2 5.38-.969-6.08-.647-3.96.394-2.04 3.62-8.19.83-3.29-1.88 4.39-1.11-3.35-.133-5.07.598-1.87 4.39-7.64 1.14-3.51-2.88 3.85-.375-3.66-.537-5.39-.179-2.36 3.42-4.93 3.61-5.54-1.14 1.4-3.97 3.82-2.21.228.998-3.51 1.52-7.56 4.77-9.81 3.56-2.79-3.01 3.74-2.89 4.96 1.93-1.77 5.86-5.7 6.34-6.54-1.15 1.11-6.81 6.69-3.76 3.1 1.45-1.63 3.58-3.19 2.07-2.86 1.5-1.56.893-1.04.755-.433 1.77-.941 5.13-3.9 1.27-1.49-1.43-.042-5.57 5.34-4.71 3.17 2.16-3.83 5.2-7.33 8.28-10.2 1.83-.862 3.46-2.94 6.72-3.84 5.16-1.05 10.4 1.72 14.4 4.83 2.05 1.9 5.66 4.8 7.06 5.72-5.83-1.19-10.1-6.04-15.9-7.41-1.91-.95-4.51-.501-1.06.095 5.23 1.59 9.62 5.05 14.5 7.39-5.96-1.35-11.5-4.33-17.8-4.39-1.82-.106-3.56-.087-.796.176 6.09.743 11.9 2.84 17.7 4.68 3.17-.307 6.46.49 9.45.05 1.28-.896 6.81 1.6 2.92-.738-2.9-1.72-4.66-4.67-6.01-7.64-1.24-1.48-2.74-4.05.145-1.58 2.53 1.64 6.56 5.67 7.03 7.05-1.54-1.17-5.59-4.73-5.33-4.11 2.86 1.99 7.3 7.63 10.1 6.25-3.29-1.94-5.73-4.78-8.58-7.3-4.01-3.09-8.14-6.16-12.7-8.38-2.94-1.13-6.22-2.01-9.35-1.28 1.59-.924 5.25-.972 1.23-.932 1.78-2.02 7.75-3.15 11.5-2.65 4.05-.687 6.38 3.26 8.74 5.82 3.1 3.84 6.41 7.57 8.42 12.1-4.14-5.26-8.06-11.3-14.6-13.8-1.98-1.26-7.7-2.78-7.79-2.41 7.67 2.18 15.2 6.53 19.5 13.4 1.34 1.57 3.9 4.6.702 1.55-1.49-1.48-6.34-5.61-5.91-4.95 3.82 3.29 7.36 7.51 12.2 9.13-1.5-2.07-5.57-5.41-6.37-9.13-2.09-3.95-5.92-6.62-8.49-10.2-1.52-1-4.24-2.81-.501-1.83 3.78 1.06 6.32 4.35 9.08 6.91 2.46 3.04 4.52 7.09 5.67 10.5-1.38-1.85-3.77-6.49-4.56-6.73 2.56 4.31 5.23 8.62 8.8 12.2.033-3.4-3.81-5.47-4.9-8.62-2.69-5.52-6.03-11.3-11.7-14.2-2.45-2.03 6.17-.355 6.89 1.75 1.64 3.75 3.61 7.49 6.08 10.8 2.25 2.49 4.34 7.75 5.35 9.29.023-3.73-3.4-6.35-4.96-9.53-3.15-4.07-3.58-10.2-8.39-13-1.74-.77-5.2-.794-1.53-1.12 3.35-.276 7.5-3.07 9.53 1.15 1.74 2.16 3.12 8.72 4.15 8.87-1.14-4.24-2.24-9.25-6.29-11.7 3.33-.595 7.12-1.38 9.26 2.14-.668-1.34-2.08-3.28.27-1.28 2.47 2.79.75-.281-.386-1.27 2.3-.09 6.81 4.29 6.66 3.61-1.27-.911-3.98-3.56-.624-1.83 1.76.45 6.82 6.72 3.62 2.41-2.55-3.58 2.19 1.18 2.57.608 2.3 3.1 2.32 7.24 2.51 10.9-.092 1.72-1.61 8.66-1.34 3.84.539-3.4-1.24-10.8-3.11-11.1-1.05-1.96-3.11-4.49-.988-1.09 2.29 3.51 1.83 8 2.14 12-.041 1.83-1.52 5.84.169 1.86.911-2.94-.978-8.74-.09-9.9 1.64 3.6 1.1 7.58.797 11.4 2.03 2.13 2.4-7.62 2.99-5.38.687 1.58-1.02 5.88-.643 5.58 1.92-3.08.582-6.93.381-10.3-.505-1.66-.86-5.58.575-1.89 1.19 3.53 1.88 7.4 1.38 11.1-.461 3.04 1.72-2.59.895-4.03.305-4.22-2.24-7.7-3.63-11.5.303-2 3.3 3.37 3.68 4.57 1.47 2.05 3.92 7.81 2.89 8.23-1.13-5.17-.424 2.88.466 3.85 2.52-1.48 4.18-4.46 4.04-7.4-.108 2.24-3.38 8.07-1.84 2.78.628-2.3.106-6-.541-2.02-.47 4.36-.309-3.19-1.52-1.32-.377-1.95.364 5.01-.449.463-.248-2.8-4.89-8.44-4.16-8.67 1.74 1.52 4.38 5.43 3.68 3.2 1.25 1.51 3.34 5.78 1.92 1.52 1.36 1.31 6.03 4.74 4.4 7.86-1.07 1.37-3.39 3.17-1.49.264.797-2.11-3.2 4.7-.154 2.07 1.49-2.81 4.93-3.61 5.98-.011 2.01 2.9-6.93 1.35-1.92 2.69 5.61-2.6 5.72 6.2 7.56 9.61.624 2.03 2.46 5.38-.552 2.84-1.72-1.05-5.12-3.83-1.61-1.48 5.07 2.51-4.37-2.92-2.83-2.74 1.27 1.43 5.56 3.51 1.8 1.07-1.33-1.2-4.86-3.32-1.49-2.02 1.14.82 5.91 2.39 2.03.643-.905-.738-6.32-4.64-2.33-2.64 1.83.746 2.64.589.404-.34-1.75-.673-7.18-3.96-2.28-3.33.133-1.04-7.74-.991-2.86-2.89 1.43-2.09 1.01-2.39-.27-.262-1.51 2.18 1.65-3.65-.904-.457-4.26 1.47-.351 2.67.763 3.81-.135 1.7 3.52 5.08 3.98 7.91 1.54 3.17 2.29 7.57 5.94 8.94-1.01-1.24-5.6-7.29-1.83-3.34 5.47.869 4.41 6.52 4.71 10.7.993 7.36-1.24 14.6-.617 22 .632-2.91.796-9.56 1.42-13.9-.064-10.9.145-22.5-5.32-32.4-3.22-6.38-8.08-11.8-13.1-16.8-4.3-3.37-8.82-6.67-14.1-8.43-2.76.244-7.99-2.66-11.9-1.83l-.9-.058zm7 2.56c4.07 4.89 7.85 10.8 7.42 17.4.675 1.68-2.78 6.73.374 4.56.747-3.96.856-8.41-.597-12.3-1.03-1.75-2.64-7.22-2.48-3.84-1.56-1.96-2.61-4.42-4.72-5.87zm-2.39 1.58c3.97 4.02 7.93 9.26 6.79 15.3-.058 1.92-2.11 6.18-1.28 6.54 2.38-1.82 1.72-8.22 2.33-8.44.88 2.04-.559 7.86-.278 7.09 1.87-3.91.295-8.24-.326-12.2.238 4.54-1.42-3.6-3.32-4.15-1.21-1.44-2.41-2.91-3.91-4.06zm-.737.205c-1.53 3.11-.341 6.92.913 10 .81 2.22 2.02 6.23.944 7.6-.215-1.87-2.54-6.34-1.12-1.99.822 1.57.356 7.34 1.36 6.2 1.09-4.72.934-9.51-1.26-14-.55-2.52-1.95-5.23-.833-7.79zm1.86 2.31c.781 5.09 3.5 10.1 2.7 15.3-.76 1.51-.872 6.82.267 2.66 1.47-5.88-1.29-11.6-2.62-17.2zm-10.1.158c3.33 5.38 5.94 11.2 7.62 17.3.492.119-1.13-5.01-1.93-6.82-1.57-3.63-3.34-7.29-5.68-10.5zm-2.86.89c1.32.799 2.73 5.6.952 1.94zm-25.9 1.29c4.42.189 9.12 1.39 11.9 5.08.267.58-6.71-3.35-6.78-2.63 3.96 1.63 8.47 3.23 10.4 7.39 1.08 1.84 3.68 6.2.297 2.71-4.91-4.39-10.8-8.21-17.5-9.08 7.25 1.8 13.6 6.08 19.1 11.1 2.19.312 3.74 2.76.423 1.77-4.71-.43-8.21-3.75-11.9-6.35-4.53-2.97-9.82-4.86-15.3-5.08.936-.947 5.21-2.83 1.46-1.28-3.19.828 4.33-3.72 7.77-3.62zm56.7 4.51c-.361 3.27.961 6.65-.312 9.8 1.88-2.92.398-6.6.312-9.8zm-63.2.02c-1.54.057-.697.842 0 0zm51.8 1.72c.294 1.58-.178 1.43 0 0zm14.9.838c.334 1.54-.186 1.48 0 0zm-67.8 6.77c-2.9.115-9.88 1.29-9.94 1.87 6.63-1.4 13.5-.718 19.9 1.31 1.84.6 6.14 1.31 6.49 1.45-5.01.172-9.6-2.53-14.6-2.08-2.21-.02-8.48.557-7.98.952a49.646 49.646 0 0 1 19.8 1.78c-4.71.624-9.45-.843-14.2-.47-2.09.13-6.03-.197-7.07.526 6.03-.317 12.1-.052 18.1.52 3.92.18 7.59-1.37 11.5-1.14 2.21-.384 2.72-1.22.234-.747-5.75.44-11.3-1.15-16.7-2.91-1.81-.444-3.65-.773-5.49-1.05zm73.7 4.28c1.33 1.45 6.75 1.28 2.08.574-.692-.197-1.37-.446-2.08-.574zm-55.5 1.08c-4.3 2.25-9.3.943-13.9 1.31-5.52-.668-10.6 1.96-15.5 4.18-1.62.522-7.71 5.06-3.05 2.1 6.63-4.05 14.7-6.7 22.5-4.79 1.54-.316 5.69-.69 2.34 1.25-7.22 3.81-15.6 3.63-23.4 5.4 7.12-.833 14.4-1.59 21.2-3.9-7.94 3.98-16.9 5.81-24.3 10.9-1.79 1.71-1.53 1.39.15.683-1.12 1.39-4.71 5.12-1.06 2.12 3.83-4.69 9.98-6.13 15.7-7.12-1.07 1.81-7.3 2.36-10.4 3.65.381.317 5.82-1.21 8.03-1.91 1.51.007 5.79-3.39 5.76-1.87-4.6 3.44-10.3 4.86-15.7 6.72 5.23-1.51 11-2.67 15.4-5.88 3.39-2.84 7.07-4.98 9.57-8.72 1.44-2.87 5.05-1.5 6.58-4.14zm-9.56 3.04c-6.72.362-13.7 1.33-19.8 4.19 5.79-1.98 11.8-3.48 18-3.85 1.1-.19 5.36.362 2.28-.237zm-.13 3.44c-3.66 3.84-9.25 5.37-14.3 5.82 4.7-2.11 9.58-3.85 14.3-5.82zm69.4 1.16c1.48 2.23 8.24 2.7 6.11 5.86-2.37-1.36-4.9-3.43-6.11-5.86zm-93 1.97c-1.6 1.1-5.21 4.86-4.75 4.99 1.38-1.98 3.43-3.26 1.01-.415-1.24 1.61-3.21 5.83-.808 1.75 1.38-2.2 2.95-4.28 4.55-6.32zm21.8.59c-3.13 3.68-7.57 5.88-12.3 6.96-5.31 1.36-10.1 4.5-13.2 9.04 2.89-1.92 5.03-5.43 8.94-5.12 3.39-1.1 7.24-.463 10.4-2.29 1.31-.584 3.87-4.04.866-2.02-1.62 1.71-9.66 1.48-4.08.08 3.54-1.21 8.36-2.48 9.37-6.65zm73.2.5c1.23.92 3.74 3.37 1.15 1.12zm-1.74 1.29c-.028 3.03 4.05 6.7 5.26 7.14-1.27-1.15-2.34-2.89-.074-1.24-1.66-1.99-4.18-3.36-5.19-5.9zm1.51 4.69c-.664 2.44 6.51 7.21 2.58 2.83-.821-.97-1.4-2.23-2.58-2.83zm-79 1.27c-3.84 2.32-8.65 1.62-12.7 3.26 3.42-2.97 8.66-1.85 12.7-3.26zm.824 1.82c-3.67 2.16-8.3.62-12 2.76-3.29 1.38-6.46 3.4-8.49 6.4 4.3-4.1 10.1-7.01 16.1-6.83 3.79.232-3.29 2.08-4.51 2.3-1.67.353-6.22 2.18-2.11.947 3.99-1.06 8.98-1.18 11.3-5.17l.038-.28-.251-.127zm-22 2.16c-.176 2.19-3 4.85-.942 1.23.284-.43.565-.87.942-1.23zm102 .78c-.351 2.29 3.41 4.31.891 1.12-.234-.414-.487-.845-.891-1.12zm.681 2.93c-1.28 3.6.697 7.83-.198 11.7-.216 3.58-.582 7.16-.677 10.7 3.42-.626-.259-5.65 1.86-7.06.858 2.56-1.19-5.92.765-2.1-1.09-2.51-1.15-6.49-.441-6.95-.443-1.35-.846-3.44.342-1.87-.209-1.47-.366-3.63-1.65-4.5zm-102 .494c-1.39 1.46-3.07 5.52-.915 1.66.34-.53.7-1.06.915-1.66zm19.2 8.09c-4.26 1.88-9.98-1.76-13.8 2.45-1.69 1.21-2.39 2.56-.187.51 3.84-4.01 8.87-1.24 13.2-1.53.39-.233 1.67-1.04.839-1.43zm-21 .464c-.708.246-.388 1.88-.11.588l.111-.588zm12.7 2.71c-3.1-.686-6.14 1.87-7.91 3.7 3.46-2.97 8.21-4.28 12.6-2.8 3.38 1.98 3.87-.97.297-.724-1.66-.164-3.32-.091-4.98-.174zm-10.9 1.33c-.582 1.55-.866.933 0 0zm18 1.36c.612 4.64-5.64 4.98-8.89 4.32-1.34-.2-5.69-.864-1.98.242 2.6.92 7.73.033 8.93.023-3.91 3.71-10.6 1.79-14.3 5.83 4.3-2.82 8.84-.47 13.3-.545 4-.743.187 1.81-1.74.635-1.58-.626-7.24-1.32-2.67-.03 1.9 1.7 6.98-.756 7.15 1.99-1.52 2.65-7.12-2.83-6.69-.92 1.49 2 6.15 1 6.54 2.63-1.95 1.1-7.58-3.38-3.77.452 1.2 1.18 6.38.028 3.03 1.76-1.8.886-4.52-3.39-2.16.21 4.2 3.32 5.32-3.38 3.31-5.81-.305-3.69 2.99-7.41-.09-10.8zm-17.1 2.1c-1.41 1.28-2.48 9.09-1.28 3.76.369-1.27.821-2.52 1.28-3.76zm17.6 1.78c1.03 4.78-7.41 4.39-8.06 3.86 2.84-.9 6.47-.883 8.06-3.86zm-.291 3.43c-1.17 3.09-8.29 2.12-7.99 1.26 2.71-.056 5.56.197 7.99-1.26zm-9.7.685c.953.352-1.82-.01 0 0zm6.21 6.4c1.76.094 3.1 1.72 0 0zm-11.5 7.95c.319 4.31 1.71 3.17 0 0zm4.85 9.88c1.03 1.7 3.41 8.69 2.04 3.37-.199-1.3-.59-2.92-2.04-3.37zm3.81 1.84c.394 1.47 2.4 5.16.951 1.51-.308-.478-.361-1.24-.951-1.51zm-1.09.61c.228 4.07 4.01 11.1 4.76 12.4-.107-1.88-2.7-7.02-1.77-6.34 1.14 1.58 4.41 4.48 1.57 1.04-1.78-2.2-3.52-4.48-4.56-7.14zm6.92 6.18c1.64 2.61 2.68 9.08 3.19 9.8-.499-3.37-.63-7.24-3.19-9.8z"/>
    </g>
    <g id="colors_mystique">
        <path d="m1.53 187.6 1.206-.94 7.671-3.678 6.58-1.7 3.67-1.83 8.78-6.52 7.02-7.34 3.82-8.18 1.7-6.34.608-3.65-.147-8.53-1.29-15.2-3.37-8.09-1.6-10.6-1.57 1.55h-3.1l-3.82-3.65-3.87-2.49-2.64-2.67-2.19-6.84-2.97-6.17.512-4.14 1.79-2.05 2.52-.516 3.2 1.08 2.76 2.62 1.21 1.94 1.31 1.26 1.85.799 1.68-.763.18-2.12-.214-1.81.146-.905-.815-.98.016-1.65.793-1.52.735-3.09-.791-3.7-.362-.373.852-.598-.057-1.05.239-1.22.33-1.48-.031-1.54-.233-1.58.189-1.72.929-1.39-.48-1.13.595-1.86.247-2.39.033-1.18.777-1.08.082-2.18 1.62-2.05-.44-1.27 1.25-1.8.94-1.6.307-.999 1.77-2.46.386-1.41 1.33-1.37.683-1.78 2.39-1.4 1.22-2 3.91-.757 2.66-1.87 2.45-.358 2.33-.28 2.51-1.02 2.64-.312 2.31 1.62 3.61-1.01 3.14-.595 4.08 1.76 1.54-.137 2.43-.362 2.26-.734 2.15.169 1.85-1.13 2-.256 1.57-.419 2.38-.121 1.64-.107 2.8-.403.84-.164 3.24-.1 1.07-.814.914-.434.53 1.19-.175 1.77 1.91.855 1.93 2.91 2.64 3.94 1.72 3.7.79 2.77-.586 1.11 1.22 2.59.818 2.77.794 1.41.456 2.47.594 1.85.672 5.19.445 8.75-.53 12.5 1.35-2.65 2.06-2.21 2.24-.053.501 2.86-.986 3.62.492 5.99-.494 5.85-1.59 4.18-1.12 4.41-1.65 2.21-2.66.259-.507-.287-2.58 6.41-1.71 6.99-1.9 8.04-2.58 5.3-5.66 5.51-2.67 9.9.456 1.84-.916 5.75.06 8.86.675 6.62 3.27 7.05 3.03 5.39 2.66 3.09 4.529 4.423z" fill="#0039ba"/>
        <path d="M17.1 185.6c-1.17-.146-2.17-2.07-1.56-3.02.262-.415 2.5-.146 3.22.384.967.721.578 2.84-.506 2.76a36.897 36.897 0 0 1-1.15-.121zm80.9-.964c-.421-.652-.594-1.49-.377-1.82.283-.433 1.57-.55 2.06-.187.389.291.401.379.132 1.13-.159.451-.385.939-.502 1.09-.332.417-.972.312-1.31-.213zm5.85-2.02c-.285-.362-.666-.58-1.02-.586-.439-.008-.654-.182-.922-.75-.437-.923-.35-1.16.591-1.61.655-.311.867-.32 1.72-.071 1.6.468 2.03 1.68 1.09 3-.526.739-.877.743-1.45.012zm-74.7.059c-.212-.159-.559-.244-.774-.188-.528.138-1.65-.467-1.96-1.06-.386-.741-1.51-1.6-1.94-1.49-.212.056-.443.332-.515.614-.07.282-.303.607-.516.721-.581.31-1.61.25-1.91-.113a.965.965 0 0 0-.65-.32c-.438 0-.706-.614-.501-1.15.167-.433 1.17-.982 1.8-.982.252 0 .713-.18 1.02-.4 1.77-1.25 6.09-3.01 5.19-2.12-.359.359-.318 1.22.065 1.37.197.076.32.4.32.847 0 .632.066.722.542.722.644 0 1.68.955 1.51 1.39-.08.208.069.347.46.431 1.25.267 1.54.485 1.54 1.16 0 .847-.465 1.02-1.63.596-.773-.278-.953-.285-1.16-.038-.296.359-.405.357-.892-.012zm11.8-.378c-.736-.454-1.54-1.76-1.54-2.51 0-.512.474-.759 1.01-.525.205.089.535.143.733.118.197-.024.75.155 1.23.398.811.414.866.501.866 1.36 0 1.55-.919 2.01-2.3 1.16zm58.1-.961c-.549-.545-.771-1.77-.785-4.3a94.232 94.232 0 0 0-.18-5.04c-.093-1.29-.125-2.46-.072-2.61.149-.405 1.08-.319 1.31.121.115.214.323 1.05.465 1.86.141.812.377 1.57.523 1.69.159.128.319 1.02.397 2.24.072 1.11.187 2.6.255 3.3.108 1.11.058 1.38-.382 2.02-.493.725-1.19 1.04-1.53.701zm-63.4-2.36c-.496-.392-1.55-2.47-1.55-3.07-.004-.697.725-1.29 1.73-1.4 1.53-.172 1.89.137 1.88 1.6-.011 1.33-.713 3.1-1.27 3.19-.176.029-.53-.114-.788-.319zm6.95-3.04c-.189-.111-.551-.684-.805-1.27-.356-.83-.411-1.17-.234-1.5.23-.433 1.06-.599 1.06-.212 0 .117.176.213.393.213.999 0 1.51 1.9.708 2.63-.442.399-.638.424-1.13.138zm-11.1-1.2c-1.66-.565-1.92-1.37-.8-2.49.381-.381.861-.95 1.06-1.26.483-.74 1.86-1.18 2.61-.839.474.216.532.371.532 1.43 0 1.22-.398 2.47-1 3.13-.416.46-1.13.47-2.41.033zm7.3-2.16c-.546-.791-1.31-3.26-1.52-4.96-.097-.763-.189-1.13-.204-.816-.016.314-.253.842-.529 1.17a7.86 7.86 0 0 0-.753 1.08c-.379.717-1.04.606-1.44-.244-.479-1-.25-1.81.559-1.97.408-.082.645-.273.687-.556.036-.237.394-.607.797-.823.686-.366.757-.508 1.09-2.18.451-2.22.693-2.68 1.5-2.85.438-.087.709-.307.848-.685.111-.306.262-.7.334-.875.074-.176.112-.529.088-.785-.039-.4.484-.92.927-.92.265 0 .1 1.24-.199 1.49-.176.146-.32.598-.32 1 0 .406-.182 1.47-.403 2.37-.479 1.94-.674 5.13-.481 7.87.137 1.96-.017 3.25-.386 3.25-.106 0-.375-.264-.598-.586zm2.83-3.1c-.449-.685-.76-1.8-.611-2.18.145-.379.958-.605 1.53-.424.61.193.704.887.267 2-.459 1.17-.726 1.31-1.18.61zm68.1-51.1c-.34-.822-.16-1.29.495-1.29.742 0 1.11.53.864 1.24-.294.839-1.02.869-1.36.055zm-69.2-1.77c-.507-.724-.426-1.41.184-1.57 1.16-.292 1.63.254 1.31 1.53-.167.669-1.04.692-1.49.038zm66.7-.556c-.78-.86-.09-1.94 1.05-1.65.557.14.65.587.305 1.49-.245.645-.852.715-1.36.157zm-67.1-3.61c-1.2-1.38-1.02-3.04.326-3.04.596 0 1.21.781 1.21 1.54 0 .534-.735 1.87-1.03 1.87-.1 0-.331-.167-.509-.373zm63.6-3.88c-.601-.6-.542-1.32.165-1.99.594-.569 1.32-.767 1.32-.36 0 .117.143.213.319.213.556 0 .383 1.12-.267 1.72-.905.845-1.07.889-1.54.42zm-64.9-2.94c-.742-.85-.829-1.27-.562-2.72.199-1.08.338-1.39.628-1.39.242 0 .423.228.513.642.078.353.314.734.526.847.575.308.696 1.15.305 2.13-.376.942-.868 1.11-1.41.489zm69.7-.403a2.77 2.77 0 0 0-.312-1.14c-.167-.293-.307-.746-.312-1-.007-.477 1.07-1.77 1.48-1.77.984 0 1.63 2.35.984 3.59-.202.392-.512.669-.749.669-.223 0-.555.058-.741.129-.258.099-.338-.013-.345-.479zm-65.6-.263c-.366-.686-.264-1.07.323-1.22.753-.19 1.08.18.82.925-.253.717-.835.869-1.14.296zm-.549-4.81c-.869-.365-1.21-.834-1.13-1.55.06-.525.147-.59.708-.534.675.069 1.81 1.1 1.81 1.64 0 .522-.683.741-1.39.443zm71.5-1.48c-.183-.134-.499-.567-.704-.964-.35-.676-.351-.768-.017-1.51.401-.893 1.77-1.7 2.07-1.23.462.728-.104 3.59-.76 3.84-.142.055-.407-.01-.59-.143zm-76.1-.368c-.966-.561-1.65-3.52-.969-4.2.34-.34 1.7-.326 2.17.02.531.389.518 2.69-.02 3.61-.448.765-.666.871-1.18.57zm-3.25-7.42c-.588-.771-.936-1.04-1.34-1.04-.555 0-1.32-.712-1.32-1.23 0-.151-.288-.95-.639-1.78-.973-2.29-.765-3.19.467-2.03l.645.609-.112-.852a15.45 15.45 0 0 0-.261-1.44c-.138-.546-.102-.587.506-.587 1.33 0 2.24.862 1.89 1.79-.066.17.42.871 1.14 1.65l1.26 1.36-.064 1.81c-.104 2.98-.788 3.53-2.16 1.73zm1.22-25.2c-.368-.368-.323-1.59.064-1.74.176-.067.32-.27.32-.45s.135-.326.301-.326c.487 0 .664 1.61.247 2.25-.388.59-.56.642-.932.271zm6.55-4.52c-1.04-.336-1.1-1.02-.124-1.49 1.6-.757 2.76-.163 1.98 1.02-.414.631-.941.764-1.86.468zm-6.3-1.88c-.073-.118-.18-.815-.239-1.55-.094-1.16-.049-1.4.345-1.79.902-.901 2.6-.266 2.58.967-.004.333-.22 1.04-.479 1.56-.426.869-.546.962-1.27.991-.44.017-.86-.065-.932-.183zm14.4-1.1c-.522-.416-1.4-1.12-1.95-1.56-.56-.451-.9-.862-.775-.94.145-.09.126-.17-.052-.229-.46-.153 0-.599.612-.597.724.002 2.71 1.13 3.1 1.76.466.746.579 1.54.28 1.95-.253.345-.343.316-1.22-.386zm30.2-.17c-.478-.894-.493-1.12-.616-8.49-.115-6.91-.252-8.91-.846-12.4-.255-1.49-.258-2.48-.008-2.64.342-.212.826.109 1.05.696.24.62.815 4.9 1.1 8.14.097 1.11.37 2.89.606 3.94 1.47 6.55.556 14.2-1.28 10.7zm-17.6.134c-.764-.971-1.16-4.21-.604-4.94a.73.73 0 0 1 .508-.267c.414 0 1.5 2.45 1.68 3.78.122.919.078 1.14-.308 1.52-.581.579-.754.568-1.28-.096zm6.04-.699c-.572-.865-1.17-2.54-1.17-3.29 0-.315.106-.39.434-.303.353.091.411.036.305-.295-.194-.613.457-.52 1.08.156.726.783 1.03 2.06.811 3.37-.237 1.39-.704 1.51-1.46.359zm-13.1.174c-1.08-1.08-1.72-4.05-.989-4.65.421-.35.848.072 1.66 1.64.879 1.7.999 3.3.256 3.41-.265.038-.666-.132-.926-.392zm35.2.178c-.519-.518-.304-1.98.453-3.08.712-1.04 1.69-1.79 1.97-1.52.185.185-.702 2.91-1.28 3.93-.496.881-.766 1.04-1.14.666zm5.54-.653c-.403-.486-.26-2.22.247-2.98.784-1.17 3.76-2.67 3.76-1.9 0 .315-3.42 5.14-3.65 5.15-.074.002-.234-.117-.356-.264zm17.9.104c-.716-.478-.938-1.99-.398-2.7.257-.34.419-.378.899-.209.49.172.595.343.642 1.05.082 1.26-.535 2.26-1.14 1.86zm-12.5-.517c-.267-.382-.272-.532-.027-1.01.55-1.06 3.95-3.13 3.95-2.4 0 .278-2.92 3.58-3.29 3.73-.195.075-.453-.056-.641-.323zm-25.2-.242c-.904-1.38-1.22-3.1-1.38-7.6-.156-4.32-.167-4.39-.933-6.48-.866-2.35-1.34-3.23-2.85-5.26a49.6 49.6 0 0 1-2.07-3.1c-1.06-1.75-1.21-1.87-3.86-3.31-1.36-.74-1.43-.808-.818-.814 2.08-.018 4.95 1.67 7.93 4.66 1.81 1.81 3 4.16 3.88 7.63l.639 2.52-.245 3.51c-.245 3.48-.192 5 .249 7.22.272 1.37 0 1.87-.555 1.03zm30.7-.47c-.48-.48-.198-.919.758-1.18a17.67 17.67 0 0 0 1.15-.345c.53-.203.334.261-.45 1.07-.847.872-.993.917-1.46.452zm-22.2-.78c-.092-.152-.238-1.72-.324-3.47-.085-1.76-.265-3.58-.401-4.05-.632-2.18-.838-7.5-.413-10.7.443-3.35 2.33-6.02 6.46-9.12 1.4-1.06 1.86-1.28 2.87-1.42.663-.09 1.23-.138 1.26-.107.223.225-1.56 2.05-3.12 3.19-1.51 1.1-2.09 1.69-2.9 2.94-2 3.1-2.28 3.8-2.38 5.99-.05 1.09-.007 3.08.096 4.43.116 1.51.11 2.5-.013 2.59-.124.084-.095.981.075 2.34.431 3.46.393 5.67-.116 6.67-.462.913-.824 1.15-1.09.717zm-43.9-.86c-.499-.713-.408-1.36.254-1.83 1.23-.869 2.43-1.35 3.21-1.28.738.062.782.107.752.764-.038.824-.91 2.05-1.78 2.5-.936.483-2.04.414-2.44-.154zm71.2-2.85c-.404-.404-.64-1.25-.472-1.69.078-.202.403-.321.876-.321.691 0 .752.051.752.629 0 .685-.395 1.72-.658 1.72-.09 0-.314-.15-.498-.334zm-75.2-.944c-.196-1.73-.073-3.04.343-3.68.433-.662 1.69-.996 2.19-.581.429.356.4 1.45-.062 2.36-.283.579-.54 1.17-.772 1.77-.338.884-.46 1.01-.891.93-.276-.052-.54.011-.587.139-.047.13-.145-.292-.217-.936zm52.7-.892c-.239-.256-.434-.683-.434-.946 0-.541.463-.757 1.46-.679.813.061.902.668.226 1.53-.537.683-.697.695-1.26.096zm-27.4-.058c-.245-.172-.568-.608-.717-.969-.524-1.26.536-2.26 1.9-1.78.737.256.853 1.39.245 2.37-.474.766-.763.844-1.42.382zm6.75-.56c-.771-1.06-.825-1.75-.176-2.21.581-.409 1.73-.434 2.06-.045.43.517.463 1.5.078 2.27-.546 1.1-1.15 1.09-1.96-.017zm-15.7.499c-.439-.313-.947-1.22-.947-1.69 0-.566.57-.92 1.48-.92.821 0 .984.373.732 1.68-.145.752-.294 1-.617 1.04-.234.03-.528-.018-.653-.107zm52.4-.587c-.067-.176-.298-.32-.512-.32-.623 0-.648-.305-.077-.921.403-.434.732-.571 1.37-.571.796 0 .844.037.844.639 0 1.06-1.31 2-1.63 1.17zm-61.2-.954c-.477-.477-.75-1.34-.57-1.81.153-.396 1.04-.627 1.74-.452.672.168.717.993.109 1.99-.49.804-.699.849-1.28.272zm51.9-.325c-.564-.395-.813-1.42-.49-2.02.195-.368.404-.439 1.13-.385.752.054.903.144.963.566.097.685-.111 1.43-.512 1.83-.414.414-.521.416-1.09.014zm13.5-.949c-.178-.345-.325-1.02-.325-1.5 0-.75.08-.899.58-1.09.407-.155.733-.15 1.09.013.463.212.502.332.41 1.29-.103 1.06-.613 1.91-1.15 1.91-.154 0-.427-.283-.607-.629zm-19.6-1.21c-1.6-.774-2.34-4.32-1.34-6.39.467-.97 2.87-3.36 3.6-3.6.316-.1.561 0 .857.356.226.272.416.596.42.719.031 1-1.14 6.73-1.56 7.66-.642 1.4-1.09 1.68-1.98 1.25zm12.3.075c-.421-.323-.834-1.08-.834-1.53 0-.185.334-.496.739-.69.611-.29.841-.307 1.31-.096.501.228.551.345.441 1.02-.128.787-.671 1.57-1.08 1.56-.13-.003-.387-.122-.573-.266zm-51-1.18c-1.44-.78-3.56-2.12-4.1-2.59-.811-.704.4-1.38 2.49-1.38 1.93-.003 2.72.35 3.65 1.63.674.93.793 1.73.389 2.62-.327.718-.647.682-2.42-.276zm8.95.247c-1.29-.687-2.18-1.57-2.83-2.79-.831-1.56-1.23-3.18-.879-3.6.323-.388 1.35-.38 1.68.014.141.17.682.56 1.2.862.517.303 1.43 1.14 2.03 1.86 1.04 1.25 1.08 1.36.991 2.33-.158 1.65-.815 2.05-2.19 1.32zm6.24-.392c-2-1.36-4.24-6-4.02-8.34.038-.421.664-.512 1.29-.187.899.466 3.15 3.04 3.84 4.39.334.65.758 1.31.944 1.46.751.624.035 3.21-.89 3.21-.209 0-.735-.241-1.17-.537zm29.9-1.38c-.743-.743-.982-1.6-.794-2.85.171-1.15.786-2.15 2.28-3.72 1.64-1.72 2.74-1.93 2.74-.533 0 .844-1.33 5.29-1.94 6.51-.375.742-.946 1.23-1.44 1.23-.116 0-.498-.287-.85-.638zm10.6-.296c-.204-.156-.431-.575-.501-.933-.106-.523-.042-.697.325-.894.252-.134.646-.185.876-.111.536.169.561 1.17.046 1.78-.32.38-.427.403-.746.16zm-64.8-.612c-.457-.355-.834-1.1-.834-1.64 0-.514 1.25-1.22 1.79-1.01.668.256.835 1.06.409 1.97-.42.89-.829 1.09-1.37.673zm60.4-.984c-.588-.547-1-1.62-.855-2.21.068-.267.56-.98 1.09-1.59 1.04-1.19 1.9-1.55 2.68-1.13.393.212.448.383.361 1.15-.123 1.08-1 3.09-1.63 3.72-.555.555-1.09.569-1.65.046zm-52.6-1.89c-.316-.21-.936-1.44-.936-1.86 0-.183.334-.492.741-.686.609-.291.84-.307 1.31-.096.518.235.557.339.459 1.21-.154 1.36-.79 1.94-1.57 1.43zm7.29-2.84c-.796-.947-.733-1.6.184-1.9 1.42-.468 1.97.334 1.27 1.83-.426.896-.741.91-1.45.069zm44.6-1.16c-.504-.504-.68-1.39-.322-1.61.385-.244 1.28-.24 1.67.007.241.153.265.37.107 1.01-.229.921-.868 1.18-1.45.598zm-6.91-.373a2.808 2.808 0 0 1-.6-1.16c-.107-.54-.046-.71.327-.91.252-.134.765-.215 1.14-.178.612.059.688.143.738.813.064.853-.341 1.78-.816 1.87-.178.033-.535-.162-.791-.434z" fill="#011d6f"/>
        <path d="m70.5 119.6 2.7-2.92 4.29-1.64 4.15.525 1.73.281 4.57-.799 3.12 1.18 1.81 3.31 2.75.789-2.08-.023-.79 1.74-4.79 5.26-8.07.034-5.16-1.05-3.07-2.49-1.61-.752-2.03-2.49z" fill="#012283"/>
        <path d="m105.9 64.12-4.91.924-6.23 2.56-4.02 5.18-2.58 2.82-1.31 5.76 4.88-1.45 5.34.479 5.39-.208 3.49-1.85 3.12-3.45 6.16-5.93-6.01-3.95zm-48.3 2.7-3.58.545-4.01 1.01-3.99 1.23-3.25 1.64-2.87 2.83 8.73 3.86 2.17-1.6 1.42 2.08 1.64 1.92 3.14 1.4 5.23-.612 3.08-.56 1.98-.885 2.74-.354 5.57 1-2.56-5.19-4.78-6.35-6.85-1.9zm-37.5 16.3-.165 4.29.928 2.26 2.57 4.11.858 4.02 2.25 1.44 3.85.594 2.23-1.29-.492-1.05-1.23-2.74-1.73-.611-.757-1.03.964-2.62-2.3-3.19-1.31-2.38-3.74-1.77zm69 15.3-.181 1.39-.775 2.32-1.76 1.59-2.94 1.16-2.16.038-2.27-1.06-1.53-.509-2.53.937-.764-.103-1.33-2.01-.08 2.36 2.15 2.06 3.61 1.2 4.08.37 5.01-1.27 2.15-1.59 1.52-2.56z" fill="#0c348c"/>
        <path d="m107.9 82.12-3.83 2.61-5.54.12-4.28-.592-1.64-.892-.392.606 1.67 2.34 3.49 1.92 6.48-.161 3.77-2.32 1.62-2.74zm-55.3 1.71-1.49 1.13 1.23 2.47L58 90.92l7.43-2.45 2.41-2.85-.829-1.14-7.45 1.38zm30.8 12.3-2.27.619-.611.78 1.02.658 3.28-.16 2.66-.292-1.29-1.43z" fill="#2656c7"/>
        <path d="m72 119.6 6.78-.777 3.99.134 8.89-.371-1.55 1.93-2.6 1.71-4.63.714-6.15-.794-4.49-2.06z" fill="#fff"/>
        <path d="M99.9 73.52 93.16 77l-1.72 2.61 2.73.635 6.17.25 3.49-.918 2.34-2.43 1.37-2.06zM58 74.78l-8.37 1.8 2.56 2.38 3.38 2.6 7.85-.396 3.34-1.31.968-.36.03-1.03-.476-1.43z" fill="#d5b500"/>
        <path d="m99.9 74.22-2.85.705-2.44 1.54-.951.891.084.833.673 1.57 1.42.757h2.67l1.38-.556.65-1.8.186-1.98zm-44.8.428-1.77 1.24-.207 1.39 1.02 2.99 2.28 1.11 2.36-.027 1.15-1.45.854-1.29-.059-1.73-.544-1.93z" fill="#d67e00"/>
        <path d="m53.3 75.62-.349 1.31 1.5.722.822-.104.926-.713.017-1.17zm42.8.038-1.69 1.13.885.227 1.07-.497z" fill="#fff"/>
    </g>
    <path id="line" d="M107.9 59.12c-.908.497 2.92.726.582.115l-.332-.078zm-59.3 3.92c-1.23.448-3.26 1.44-3.78 2.08 1.3-.586 2.66-1.2 3.78-2.08zm54.7.888c-2.9.96-5.69 2.24-8.49 3.45-1.05 1.1 2.37-.411 3.15-.668 2-.684 3.83-1.94 5.99-2 1.43-.332 2.9.059 4.3.304.778.442 3.84 2.17 2.08.75-1.27-1.16-3.04-1.29-4.6-1.83zm-45.2 2.43c-1.95.174-3.84.639-5.7 1.25-1.93.535-5.69 1.18-6.55 2.19 4.09-1.19 8.26-2.46 12.6-2.45 1.43-.062 2.88-.294 4.22.327 2.22.618 4.41 1.38 6.64 1.9.743-1.47-2.77-1.42-3.66-2.06-2.41-.956-5-.843-7.53-1.15zm2 4.48c-1.86.025-3.75-.16-5.54.457-1.46.27-2.52 1.52-3.73 2.29-1.58 1.41 1.56-.57 2.17-.487 2.06-.589 4.14-1.26 6.3-1.05 1.37.017 2.76-.145 4.05.396.635-.388-2.56-1.33-3.24-1.61zm39.6.523c-1.31.644-2.71 1.19-3.77 2.23 2.22-.331 4.27-1.68 6.57-1.23.94.149 5.37.949 2.74-.354-1.76-.859-3.66-.589-5.54-.644zm-8.49.713c-2.59 1.57-4.41 4.43-4.85 7.39l.292 3c.891-3.5 2.67-6.67 4.48-9.76.111-.199.06-.421.071-.635zm30.2.774c-1.05.295-1.95.698-2.62 1.57-.772.866-.861 2.14-2.19 2.36-.897.323-.221 1.63-.422 2.39-.01 4.41.123 8.83.025 13.2-.234 1.23-.724 4.2-1.02 3.83-.137-1.38-.548-1.89-.38-.222.693 1.12-.731 5.43-.58 2.32.067-.964-.323-4.61-.46-1.79.12 1.74.518 5.81-.419 5.81-.14-1.23.167-4.11-.329-4.29-.432 2.42.245 5.01-.566 7.33-.505 1.43-.22-2.29-.448-2.98.024-1.08-.516-4.95-.45-1.8-.175 2.43 1.01 4.97.033 7.28-.468 1.18-1.09 4.9-.843 1.76-.003-2.85.136-5.71-.143-8.54-.569 2.85-.366 5.86-.37 8.77.908 1.88-.368 4.13-.503 6.22-.56 2.81-.894 5.75-2.03 8.39-1.01 1.86-1.87 3.89-3.26 5.49-3.83 3.4-7.67 6.79-12 9.56-1.85 1.22-3.41 2.93-5.59 3.59-1.66.746-3.58.551-5.35.674-2.36-.177-4.77.052-7.12-.082-2.95-.827-6-1.48-8.64-3.13-5.01-3.37-10.4-6.13-15.6-9.12-3.33-2.84-6.99-5.49-9.08-9.44-2.11-4.13-2.9-8.75-3.95-13.2-.637-1.73-.379-3.98-1.26-5.18-1.21-.9-.218 1.94-1.61 1.9-.768.645-1.85.617-2.75.437-2.17-1.56-3.74-3.85-6.14-5.11-1.11-.732-2.42-1.34-2.8-2.75-1.09-2.3-1.36-4.95-2.91-7.02-.97-1.67-2.18-3.23-2.58-5.16-.66-1.26-.283-2.63-.198-3.98.434-.905.637-2.01 1.7-2.37.918-.783 2.19-.145 3.28-.222 1.88-.012 3.29 1.66 4.39 2.98.751.928 3.53 4.26 2.14 1.52-.968-1.68-2.33-3.13-3.71-4.49-1.23-.66-2.54-1.04-3.9-1.31-.242.036-1.65.379-2.32.532-.915.346-1.65 1.38-2.22 2.2-.479 1.01-1.07 1.99-.835 3.16-.156 2.4 1.2 4.56 2.17 6.68.618 1.25 1.59 2.32 1.75 3.78.468 2.21 1 4.62 2.81 6.14 1.24 1.6 3.43 1.69 4.97 2.86 1.54 1.55 2.86 3.78 5.12 4.38l3.11-.212c1.19 4.02 1.35 8.35 3.16 12.2.608 1.65 1.56 3.22 2.41 4.77 1.58 1.51 2.83 3.53 4.51 5.12 4.3 4.38 9.6 7.58 14.2 11.6 3.65 2.65 7.39 5.28 11.5 7.16 3.82 1.19 7.74 2.58 11.8 2.06 3.95-.034 7.44-2.11 11.2-3.13 2.81-.516 3.39 2.57 2.76 4.62-.125 3.63-.361 7.28-.276 10.9.268 2.05.212 4.17 1.06 6.09 1.21 3.21 2.54 6.41 4.58 9.19 1.21 1.74 2.17 3.68 3.84 5.03.518.695 4.36 4.432 4.36 4.432l.947.017s-.13-.184-.271-.398c-2.204-3.346-7.893-9.756-9.566-12.69-1.92-3.88-4.02-7.97-3.78-12.4.003-3.1-.27-6.21-.081-9.29.63-5.9 1.15-11.9 3.03-17.5.827-1.25 2.2-2.16 3.18-3.32 3.03-2.73 4.89-6.45 5.85-10.4 1.73-5.97 2.86-12.1 4.86-18 .54-.98 2.7.55 3.76-.762 1.29-.95 1.72-2.79 2.04-4.3.462-2.54 1.69-4.87 2.42-7.32.413-3.63.55-7.33.185-10.9.213-1.83.64-3.72.592-5.54-.32-.791-.732-1.48-1.62-1.69l-.468-.223zm-22.5.639c-1.95.761-4.18 1.16-5.43 3.05-1.13 1.11-3.5 4.43-.249 3.78 2.87.174 5.73 1.12 8.61.51 1.65-.32 3.26-1.19 4.47-2.35.783-.853 1.42-1.94 2.29-2.66 2.47-.143-.811-1.37-1.72-1.54-1.33-.457-2.66-.914-4.09-.757zm-42.6.431c-2.87.738-5.86 1.62-8.24 3.44-.659 1.12.996.675 1.58.382 1.26-.898 1.62.462 2.27 1.34 1.3 1.64 3.26 3.23 5.48 2.81 2.74-.111 5.55-.121 8.2-.824.95-.786 2.1-1.04 3.3-1.18 1.51.03 2.32-.301 1.03-1.51-.816-1.01-1.65-2.05-2.93-2.46-1.66-.629-3.33-1.46-5.09-1.75zm65 .124c1.86.248 1.39 2.3.999 3.55-.515 1.24-1.78 2.1-2.4 3.28-.585 1.79.449 3.51.64 5.24-.085 1.89-.294 3.77-.901 5.57a12.1 12.1 0 0 0-.624 4.56c-.281 1.4.562 3.03-.226 4.28-.116 1.71-5.01 3.18-3.18.572 1.12-2.82 2.17-5.71 2.88-8.65.136-2.54.307-5.08-.065-7.6-.149-2.44-.568-4.93-.596-7.35.723-1.46 1.63-3.33 3.47-3.45zm-21.3.777c2.35.097 4.88-.383 6.98.986-.401 1.25-1.5 2.21-2.51 2.98-1.25.608-2.49 1.25-3.92 1.24-1.55.452.067-.786.2-1.45-.013-.87.249-1.82.076-2.65zm-.697.236c.728 1.12 1.07 2.75.285 3.87-.561.751-1.31 1.09-2.24.991-1.14.104-2.52.408-3.17-.876-1.52-1.67 1.08-2.4 2.18-3.04.939-.437 1.92-.796 2.94-.947zm-26.6.183c.215 2.07 1.44 3.72 2.34 5.53.386.5.891 2.78 1.23 1.12.067-1.99-1.12-3.82-2.15-5.45-.448-.49-.596-1.41-1.41-1.19zm-14.3.498c1.12-.263 1.71.888 1.74 1.8.101.852.017 1.63-.791 2.1-1 1.32-3.06 1.5-4.5.85-1.11-.686-2.15-2.37-1.6-3.65.677-1.22 2.77-.668 3.97-1.07.393-.03.786-.042 1.18-.036zm2.09.066c2.34.129 4.55.917 6.76 1.63.3.608 1.11 1.56.302 2-2 .114-3.77 1.45-5.82 1.36-.531-.128-2.39.59-1.87-.208.434-.991 1.46-1.86 1.06-3.02-.067-.603-.168-1.21-.433-1.76zm35.7.484c-.051.013-.08.207-.111.245-.091.104-.175.203-.271.256-.187.102-.297.128-.412.2-.071.044-.151.02-.161.11-.1.944 1.61 2.12 2.56.97 1.06-1.01-.434-2.12-1.6-1.78zm-39.6.226c-.169.013-.462.095-.462.095l-.355.535-.58.51s-.111.495.05.86c.2.455.732.792 1.34.707.382-.127.91-.359 1.08-.787.302-.745-.047-1.8-1.08-1.92zm-4 .01c.125 1.22.278 2.82-.683.894-.702-.666.261-.565.683-.893zm15.6 1.43c1.57.78.106 2.1.051.344zm24.8.669c1.63.85-1.53 1.32-.401.506l.267-.327zm13.3.723c-.774.655-2.74 1.68-2.66 2.18.944-.503 2.24-1.14 2.66-2.18zm-54.6.605c.551 1.35 3.36 3.1 3.79 2.57a12.9 12.9 0 0 1-3.79-2.57zm69.6.439c.518 2.61.824 5.28.608 7.94-.077 1.4.1 2.85-.68 4.09-.601 1.41-1.1 2.85-1.6 4.3.093-1.65.14-3.3.78-4.85.757-2.01.682-4.18.978-6.28-.415-1.64-1.55-3.58-.172-5.06l.08-.122zm-100 2.19c-1.17-.317-2.48.37-2.27 1.67.072 1.93.277 4.04 1.59 5.57 1.7 2.25 2.62 4.91 3.42 7.57-.08 1.14 3 2.52 2.77 1.74-.862-.582-2.1-.84-2.31-2.01-.666-1.73-.722-3.68-1.88-5.2-.764-1.69-2.26-3.18-2.22-5.12-.154-1.04-.091-4.14 1.62-3.15-.063 1.11-.026 2.21.537 3.2.61.978.059 2.1.037 3.16 1.02-.521 1.04-1.54.813-2.56-.546-1.09-.638-2.48.518-3.27.783.564 3.41 1.54 1.51-.05-1.09-.718-2.16-1.7-3.56-1.53zm55.2 1.66c.141.809.154 4.45.836 2.51.029-.786.635-2.97-.835-2.51zm-49.4 2.41c-.757.699-1.3 1.52-1.46 2.55-.532 1.66-1.04 3.54-.116 5.16.254 1.33 1.48 2.04 2.31 2.99 1.34.137 2.83 1.29 4.06.579.92-1.21-2.42-.835-3.44-1.43-1.33-.512-1.97-2.04-2.61-3.24-.088-1.5.466-2.92.943-4.31.995-.49 1.31.468 1.75 1.18.111 1.14-.637 2.47-.263 3.54.412.969 1.31 1.28 2.3 1.39 2.82-.336-1.14-.97-1.58-1.75.615-1.35 1.79-3.24.05-4.41a14.78 14.78 0 0 1-1.94-2.26zm13.8 6.71c-.174 2.68-.267 5.44-.013 8.12.722-1.43.262-4.74.215-6.86-.045-.424-.052-.858-.203-1.26zm-1.03 1.39c.002.719-.129 4.11.311 2.24-.016-.755-.197-1.49-.312-2.24zm48.3.548c.156 2.02.861 3.96 1.96 5.65.125 1.01 1.16 2.23.368 3.16-.791 1.1-.699 2.19.223.605.653-.88 1.43-1.74 1.15-2.91-.061-1.92-1.91-3.22-2.64-4.88-.324-.56-.702-1.08-1.06-1.62zm-9.79.284c-.777 1.06-2.11 5.09-.618 2.15.262-.683.813-1.39.618-2.15zm-36.2.52a30.4 30.4 0 0 0 .233 7.18c.38-2.35.096-4.76-.119-7.11l-.114-.077zm35 .309c-.686.743-1.92 4.44-.556 1.75.212-.552.613-1.16.556-1.75zm-33.9.542c.736 3.49.379 7.23.827 10.8.674-1.35 0-4.93.03-7.14-.204-1.16.126-2.88-.858-3.67zm32.6.026c-.693 1.91-2.22 2.03-3.26 3.84-.67.707-.795 1.58-.694 2.52.022 1.16 1.15 2.57 2.4 2.48.297-1.27-1.36-2.16-1.06-3.3.525-1.65 1.75-2.94 2.31-4.45.081-.31.579-.81.316-1.08zm-30.2 1.51c-.161 3.88-.135 7.8.196 11.7a62.3 62.3 0 0 0-.124-11.5zm1.51 1.42c.006 3.91.183 7.89.496 11.8.5.902.115-2.47.151-3.32-.178-2.83-.141-5.7-.646-8.49zm62.2 3.58c-.304 2.38-.238 4.83-.036 7.22.298-2.35.337-4.87.036-7.22zm-20.7.195c-1.19.282-3.5 1.51-2.69 2.67.519-1.35 2.83-.943 2.96-2.34.081-.376.118-.35-.276-.332zm-39.7.325c.106 2.11.18 4.47.43 6.65.457-1.16.197-4.58-.19-6.49l-.109-.122zm30.8.418c-1.2.118-2.58-.341-3.51.635-1.49 1.41.947-.137 1.61.684.88.45 2.72-.511 2.89.833.913-.176.287-1.8-.686-1.94zm28.3 1.59c-.472 2.01-.568 4.44-.225 6.35.245-2.05.35-4.42.225-6.35zm-57.5.01c.18 1.48.529 3.68.783 4.74.09-1.56.001-3.37-.783-4.74zm56.1.777c-.214 1.71-.398 5.04.061 5.93.13-1.96.238-3.99-.061-5.93zm-53.9.182c.15.843-.138 4.36.502 3.73.051-1.25-.055-2.56-.503-3.73zm1.49.983c-.646 1.12.755 4.59.389 1.78-.127-.577-.092-1.26-.389-1.78zm50.5.547c-.653 1.14-.29 4.74.017 1.4.022-.463.104-.938-.018-1.4zm-19 .252c-.911.78-.8 2.23-.2 3.2 1.46 2.75 1.12-1.65.331-2.6l-.131-.594zm-30.2.033c-.325 1.3 1.06 2.59.277.574l-.102-.298-.174-.275zm24.3.834c-.033.826-.373 1.73-.231 2.51.846 2.08 1.75-.743 1.16-1.83-.102-.445-.471-.775-.934-.687zm6.72 4.86c-1.45.432-2.84 1.22-4.4.921-1.34-.107-2.51-.902-3.88-.675-2.81-.26-5.09 1.86-7.4 3.13-2.16 1.2-4.21 2.71-6.57 3.47 1.05.824 2.47.135 3.68.236 1.63-.03 3.3-.476 4.9-.473 4.07 2.1 8.87 2.94 13.4 2.2 1.95-.342 3.64-1.41 5.16-2.63 1.52.09 3.17-.329 4.52.543 2.37-.363-.839-2.3-1.79-2.9-1.51-1.2-3.02-2.52-4.71-3.43zm1.34 1.03c1.53.156 3.79 2.66.851 1.93-3.07-.532-6.1 2.07-9.14.565-2.23-.75-4.43.125-6.58.637-1.5.613-.398-.87.314-1.18 1.7-1.34 3.94-1.88 6.07-1.65 1.87.715 3.97 1.24 5.84.203.854-.295 1.75-.418 2.64-.513zm-11.8 4.2c1.65.077 3.35-.176 4.89.557 1.37.32 2.83-.306 4.23-.232 1.34.078 2.95-.408 4.17.093.506.855-2.02 1.34-2.82 1.72-1.87.662-3.92.33-5.87.403-2.24-.172-4.84-.265-6.57-1.82.546-.434 1.32-.477 1.96-.718zm-7.62.515c-.004.055-.156.026 0 0zm24.5 1.57c-1.36.64-2.62 1.78-4.03 2.51-3.02 2.11-6.89 1.39-10.3 1.48-2.25.066-4.41-.308-6.04-1.94-.695-.635-1.47-1.02-2.43-.84-1.07.193.235 1.34.833 1.58 2.34 1.68 4.51 3.77 7.43 4.39 2.46.93 4.95-.51 7.47-.234 1.38.105 2.53-.885 3.8-1.31 1.54-1.53 3.21-3.26 3.55-5.48-.015-.117-.14-.182-.245-.164zm-51.1 4.79c-.127 4.61-.047 9.21.164 13.8.009 2.32.301 4.66.129 6.98-.509 2.82-.883 5.69-1.69 8.45-.952 2.45-1.54 5.07-3.07 7.26-2.48 4.34-6.37 7.59-9.86 11.1-3 1.83-5.81 3.97-8.65 6.02-3.99 1.57-8.23 2.35-12.3 3.79-2.54.701-6.646 3.584-6.646 3.584l1.772.06s.144-.554 3.114-1.664c2.42-1.36 5.18-1.74 7.81-2.5 2.82-.783 5.88-1.29 8.08-3.37 2.78-1.83 5.69-3.5 8.37-5.48 2.29-2.38 4.68-4.67 6.9-7.1 2.44-3.33 4.17-7.09 5.39-11 .773-2.3 1.06-4.74 1.55-7.11-.076-5.17.084-10.4-.412-15.5-.176-2.43-.34-4.86-.68-7.27zm42.6 3.97c-1.61.085-3.3-.283-4.76.568-1.16.064-1.45 1.19-.083.893 1.65 0 3.33-.3 4.93.281 2.17.223 2.64-.557-.08-1.74zm-6.84 1.58c-1.74.496-.551 1.68 0 0zm-15 29.6c.503 2.36.499 4.87 1.8 6.99 3.43 5.83 6.11 12.2 10.8 17.2.89.223-1.27-2.71-1.69-3.54-3.25-4.85-6.12-9.95-9.18-14.9-1.37-1.65-.754-3.93-1.73-5.76zm1.21.613c-.326 1.2.654 5.02.895 4.91-.234-1.64-.609-3.32-.895-4.91zm1.2 2.11c.271 1.89.443 3.97 1.07 5.71-.125-1.92-.587-3.85-1.07-5.71zm1.46 2.4c.038 1.19 1.09 5.59.55 2.08-.163-.688-.215-1.46-.55-2.08zm1.19 1.8c.114 1.21.443 4.16.786 4.37-.151-1.47-.317-2.98-.786-4.37zm19.4 1.22c-1.21.806-.579 3.3-1.27 4.69-.709 3.46-1.55 6.89-2.08 10.4.578 1.09.84-2.5 1.18-3.2.889-3.91 2.08-7.84 2.17-11.9zm-19.7 1.25c-.285 1.07.297.603 0 0zm1.87.24c.141 1.2.468 4.77.748 4.38-.129-1.47-.27-2.98-.748-4.38zm1.33 2.71c.189 1.2.607 3.79 1.02 4.16-.249-1.39-.494-2.86-1.02-4.15zm1.32 1.54c.067 1.45.615 4.6.927 4.86-.237-1.63-.449-3.29-.927-4.86zm1.67 2.16c.245 1.81.298 4.14.758 5.65-.046-1.88-.176-3.85-.757-5.65zm1.25 2.93c.078 1.56.395 4.2.914 5.11-.197-1.72-.45-3.45-.913-5.11zm1.21 1.57c-.488.816.509 4.1.56 3.67-.295-1.19-.175-2.56-.56-3.67z"/>
</svg>
