<svg class="picture" viewBox="0 0 196 296" xmlns="http://www.w3.org/2000/svg">
    <path id="texture" d="M13.6 56.4v2.199c3.836 4.016 7.772 8.122 11.96 12.45a6163 5621 0 0 0 20.72 21.38c-10.26-14.26-16.74-23.29-26.01-36.04zm10.06 0c2.471 2.952 4.733 5.672 7.383 8.825a12134 11069 0 0 0 19.23 22.79 10269 9367 0 0 0-19.43-31.62zm11.36 0c.49.68.876 1.225 1.375 1.908 10.26 14.26 18.43 25.5 18.43 25.5a5615 5122 0 0 0-13.95-27.41zm10.26 0a25869 23598 0 0 1 14.15 23.19A4589 4187 0 0 0 48.87 56.4zm8.37 0c3.866 7.108 9.147 16.77 9.147 16.77A3976 3626 0 0 0 56.42 56.4zm9.426 0c4.484 9.116 8.011 16.26 8.011 16.26a3627 3308 0 0 0-5.082-16.26zm6.128 0a11106 10131 0 0 1 4.593 12.65 1783.094 1783.094 0 0 0-3.049-12.65h-1.554zm6.736 0a9241 8430 0 0 1 3.716 11.75 3631 3312 0 0 0-1.953-11.75h-1.774zm10.26 0c1.714 6.064 2.81 9.989 2.81 9.989-.553-3.484-1.076-6.727-1.604-9.989zm6.188 0c1.206 5.311 2.023 8.945 2.023 8.945-.26-3.062-.516-5.994-.773-8.945zm4.364 0 1.006 7.931c.004-2.61-.008-5.321-.007-7.931zm4.035 0c.247 6.476.398 10.64.398 10.64.303-3.273.647-7.158.97-10.64zm4.304 0-.38 6.978c.348-1.938.855-4.779 1.245-6.978h-.87zm6.646 0-.339 3.263.765-3.263zm7.164 0c-.362 2.47-1.465 10.04-1.465 10.04 1.435-5.311 1.774-6.546 2.72-10.04zm5.958 0-2.421 11.65c1.066-2.942 2.8-7.69 4.235-11.65zm5.52 0c-2.222 7.188-3.856 12.45-3.856 12.45a3864 3525 0 0 1 5.46-12.45zm7.104 0c-3.129 8.875-5.58 15.86-5.58 15.86 3.198-6.054 5.849-11.04 8.449-15.86zm6.905 0a19266.39 19266.39 0 0 0-7.851 16.87 2595 2367 0 0 1 10.86-16.87zm10.96 0c-7.403 14.96-13.15 26.91-13.15 26.91 6.237-9.598 11.66-17.77 17.84-26.91zm6.038 0c-9.197 14.36-16.54 26.2-16.54 26.2 8.23-9.226 15.34-17.07 23.81-26.2zm11.96 0c-1.664 2.108-2.919 3.685-4.763 6.014-10.66 13.45-19.13 24.6-19.13 24.6 9.615-10.44 18.13-19.38 28.99-30.62h-5.111zm8.3 0c-3.119 3.695-6.317 7.459-9.226 10.94a2101 1918 0 0 0-19.23 23.19c9.535-8.604 18.33-16.36 28.99-25.5v-8.664zm-168.4 6.204v8.805c2.391 2.199 4.773 4.407 7.284 6.706a4177 3810 0 0 0 21.42 19.48c-8.22-9.999-18.43-22.49-28.7-35.04zm168.4 8.152c-1.485 1.566-3.069 3.233-4.404 4.658a1751 1597 0 0 0-20.33 21.89c8.12-6.576 15.94-12.75 24.71-19.48zm-168.4 6.074v8.182l.064.05c12.75 9.768 23.02 17.47 23.02 17.47a9074 8277 0 0 1-23.12-25.7zm168.4 6.255c-11.66 10.74-21.02 19.68-21.02 19.68a1136 1036 0 0 1 21.02-15.06v-4.598zm-168.4 6.827v5.421a2129 1943 0 0 0 20.82 13.05 3967 3618 0 0 1-20.82-18.47zm168.4 3.715c-10.76 9.086-18.93 16.36-18.93 16.36a912.7 832.3 0 0 1 18.93-10.94v-5.411zm-168.4 7.048v4.397a1631 1488 0 0 0 17.93 9.096c-5.719-4.267-11.66-8.744-17.93-13.45zm168.4 1.767c-10.06 6.375-17.34 11.24-17.34 11.24a798.1 728.9 0 0 1 17.34-8.012zm0 8.945c-8.639 4.939-14.65 8.574-14.65 8.574a713.4 650.6 0 0 1 14.65-5.923zm-168.4.06v3.904c9.276 3.705 15.84 6.194 15.84 6.194a2122 1936 0 0 1-15.84-10.14zm168.4 9.968c-7.234 3.815-12.26 6.586-12.26 6.586a620.7 566.2 0 0 1 12.26-3.172zm-168.4.657v2.229c5.889 1.767 9.934 2.942 9.934 2.942a2231.17 2231.17 0 0 1-9.934-5.17zm168.4 6.837a674.5 615.4 0 0 0-11.86 3.885 603.689 603.689 0 0 1 11.86-1.466zm-168.4 1.536v3.223c6.656.814 11.26 1.325 11.26 1.325a1603.07 1603.07 0 0 1-11.26-4.548zm168.4 7.028c-6.128 1.315-10.26 2.269-10.26 2.269a591.07 591.07 0 0 1 10.26-.528v-1.737zm-168.4 1.094v.789c5.44.63 8.977.996 8.977.996-2.87-.562-5.899-1.165-8.977-1.787zm0 7.359v2.83c7.403-.054 12.55-.16 12.55-.16a1340 1223 0 0 1-12.55-2.67zm168.4 1.094c-2.8.492-4.793.857-4.793.857 1.584.026 3.178.06 4.793.1zm0 5.592a501.63 501.63 0 0 0-10.16.569c3.348.608 6.745 1.255 10.16 1.938zm-168.4 1.165v1.205c4.025-.438 6.775-.76 6.775-.76-2.162-.134-4.494-.295-6.775-.45zm158.4 6.586a781.33 781.33 0 0 1 9.894 2.319v-1.365a552.328 552.328 0 0 0-9.894-.953zm-158.4 2.73v1.065c4.205-.582 7.054-1 7.054-1-2.242-.012-4.673-.04-7.054-.064zm159.4 4.087a718.4 655.6 0 0 1 9.615 3.293v-1.908c-5.799-.877-9.615-1.385-9.615-1.385zm-157.4 2.349c-.656.04-1.385.075-2.063.114v.402c.398-.103 2.063-.515 2.063-.515zm156.4 5.11a801.1 730.9 0 0 1 10.66 4.347v-1.817a725.4 661.6 0 0 0-10.66-2.53zm-151.4 3.082c-2.242.29-4.673.59-7.064.887v1.657c3.836-1.375 7.064-2.54 7.064-2.54zm149.5 3.454a960.5 876.5 0 0 1 12.55 6.646v-2.741a906.724 906.724 0 0 0-12.55-3.905zm-4.852 6.335a1109 1012 0 0 1 17.44 10.64v-3.494c-10.26-4.297-17.44-7.108-17.44-7.108zm-143.5 2.54c-2.411.47-5.002.96-7.572 1.446v1.446c4.374-1.657 7.572-2.891 7.572-2.891zm-.535.725c-2.242.84-4.653 1.737-7.034 2.62v1.908c4.025-2.58 7.034-4.528 7.034-4.528zm146.5 1.345a1532 1398 0 0 1 15.24 12.05v-3.474a1183 1079 0 0 0-15.24-8.584zm-143.5 5.33a3211 2930 0 0 1-9.565 5.05v1.366c5.699-3.815 9.565-6.415 9.565-6.415zm141.5 3.866a1941 1770 0 0 1 17.64 15.46v-4.327c-10.26-6.566-17.64-11.14-17.64-11.14zm-138.5 3.303a3267 2980 0 0 1-12.85 6.978v3.514c7.184-5.873 12.85-10.44 12.85-10.44zm134.5 3.142a2645 2413 0 0 1 21.02 21.18v-5.763c-11.86-8.825-21.02-15.46-21.02-15.46zm-134.5 2.52a2899.437 2899.437 0 0 1-13.05 9.538v2.83zm137.5 4.769a4440 4050 0 0 1 18.53 23.09v-5.883c-10.46-9.79-18.53-17.17-18.53-17.17zm-129.5 1.225c-5.052 5.16-12.55 12.85-20.33 20.68v8.865c11.06-16.26 20.33-29.62 20.33-29.62zm-2.69.696a6472 5904 0 0 1-17.64 13.85v4.658c8.399-8.855 17.64-18.57 17.64-18.57zm119.6 2.27a9204 8396 0 0 1 25.91 41.97h5.41v-2.862c-2.97-3.735-5.918-7.479-8.818-11.14a4781 4361 0 0 0-22.52-28.01zm5.46.973c8.23 11.04 16.74 22.59 25.91 35.14v-9.116l-3.02-3.072a3216 2935 0 0 0-22.82-22.89zm-120.6 6.967c-6.556 8.012-14.45 17.67-22.32 27.31v3.925c.733-1.034 1.375-1.948 2.132-3.022 10.86-15.36 20.13-28.21 20.13-28.21zm112.6 3.785c5.17 9.106 11.06 19.48 17.14 30.22h5.799c-.87-1.155-1.664-2.219-2.541-3.383-11.26-14.96-20.43-26.81-20.43-26.81zm-106.6 2.068c-6.616 7.7-15.64 18.17-24.21 28.11h6.337c9.745-15.46 17.84-28.11 17.84-28.11zm7.95 2.22a5988 5463 0 0 0-14.85 25.9h3.389a2795 2550 0 0 1 11.46-25.9zm95.05.182c3.219 6.998 7.464 16.26 11.86 25.8h4.823a12144 11078 0 0 0-16.64-25.8zM46.19 236.8a10701 9761 0 0 0-17.44 24.4h4.395c7.254-13.75 12.95-24.4 12.95-24.4zm9.267 2.128a5702 5202 0 0 0-11.46 22.29h2.889a2160 1971 0 0 1 8.549-22.29zm84.49.79a39855 36328 0 0 0 8.928 21.48h2.88zm-11.16 6.476a8955 8169 0 0 0 4.294 14.96h2.072c-3.637-8.574-6.367-14.96-6.367-14.96zm10.66.27c2.37 7.72 3.159 10.24 4.534 14.76h2.202zm-77.92 2.067a6877 6274 0 0 0-6.207 12.65h2.152a1833 1673 0 0 1 4.055-12.65zm3.776 1.486a4371 3988 0 0 0-4.055 11.14h1.275a990.34 990.34 0 0 1 2.77-11.14zm52.91 1.546c.488 3.213.985 6.415 1.485 9.628h1.275a6131 5593 0 0 1-2.76-9.628zm6.297.962c.67 3.012 1.305 5.803 1.943 8.664h1.126l-3.07-8.664zm-11.96.177c.312 2.78.645 5.652.97 8.493h.833c-.92-4.317-1.803-8.493-1.803-8.493zm-40.05 2.289c-.65 1.948-1.375 4.136-2.063 6.204h.784c.73-3.584 1.275-6.204 1.275-6.204zm10.56.718c-.349 1.727-.73 3.674-1.096 5.482h.597c.283-3.172.497-5.482.497-5.482zm-5.042.074c-.444 1.697-.94 3.624-1.405 5.41h.574c.476-3.131.83-5.41.83-5.41zm29.39.095c.082 1.717.18 3.554.265 5.321h.628c-.297-1.777-.893-5.32-.893-5.32zm-18.63.05c-.25 1.657-.518 3.524-.773 5.261h.672c.054-3.052.1-5.26.1-5.26zm13.35 1.295c-.002 1.265.003 2.671.003 3.966h.399c-.101-1.024-.402-3.966-.402-3.966zm-6.566.6c-.09 1.065-.185 2.27-.276 3.374h.483c-.13-2.088-.207-3.373-.207-3.373z"/>
</svg>
