<svg class="picture" viewBox="0 0 196 296" xmlns="http://www.w3.org/2000/svg">
    <path id="paper" d="M0 0v296h196V0zm13 57h169v204H13z" fill="#fff5e7"/>
    <path id="border" d="M12 55v207h172V55zm3 3h166v201H15z"/>
    <path id="text" d="M99.09 11.34c-.547 0-1.07.06-1.566.178-.497.118-.957.284-1.381.498s-.808.474-1.154.779a4.998 4.998 0 0 0-.875 1.02 4.79 4.79 0 0 0-.56 1.209 4.793 4.793 0 0 0-.192 1.361 5.4 5.4 0 0 0 .178 1.441c.123.428.284.811.484 1.148.205.333.442.628.711.883.269.25.551.47.848.656.3.182.606.333.916.451s.606.214.888.287a5.974 5.974 0 0 0 1.389.192 5.64 5.64 0 0 0 2.891-.774c.41-.246.78-.533 1.107-.861a5.53 5.53 0 0 0 .848-1.066c.232-.387.41-.79.533-1.21a4.574 4.574 0 0 0-.006-2.59 4.724 4.724 0 0 0-.54-1.182 4.941 4.941 0 0 0-.835-.992 5.138 5.138 0 0 0-1.059-.758 5.265 5.265 0 0 0-1.252-.492 5.276 5.276 0 0 0-1.373-.178zm24.67 0c-.21 0-.425.023-.648.068a3.46 3.46 0 0 0-.65.205 3.132 3.132 0 0 0-.608.329 2.49 2.49 0 0 0-.492.437 2.123 2.123 0 0 0-.342.547c-.082.2-.123.416-.123.648 0 .383.064.728.191 1.033.132.306.302.584.512.834s.45.48.719.69c.269.205.543.404.826.596.282.191.56.38.828.566.269.187.507.386.717.596.21.205.378.428.506.67.132.241.199.51.199.806 0 .515-.137.889-.41 1.121-.27.233-.647.348-1.135.348-.287 0-.543-.023-.766-.069s-.424-.118-.601-.218a1.847 1.847 0 0 1-.479-.41 3.294 3.294 0 0 1-.383-.635 1.073 1.073 0 0 0-.068-.158 1.329 1.329 0 0 0-.123-.22 1.076 1.076 0 0 0-.15-.19c-.05-.055-.1-.083-.145-.083-.064 0-.119.03-.164.09a.277.277 0 0 0-.069.164v.074c.005.032.013.109.022.227l.06.533.118.998c.013.096.05.143.11.143l.437-.069a.207.207 0 0 1 .06-.005c.078 0 .173.022.287.068.114.046.254.097.418.156a4.281 4.281 0 0 0 2.912-.074c.247-.1.476-.223.69-.37.214-.145.4-.312.56-.5.16-.19.286-.401.377-.634.096-.232.143-.483.143-.752 0-.406-.065-.77-.197-1.094a3.342 3.342 0 0 0-.514-.883 4.539 4.539 0 0 0-.725-.724 11.733 11.733 0 0 0-.826-.616 68.528 68.528 0 0 0-.828-.574 6.933 6.933 0 0 1-.724-.574 2.98 2.98 0 0 1-.512-.635 1.53 1.53 0 0 1-.192-.76c0-.191.032-.355.096-.492a.94.94 0 0 1 .274-.334c.113-.09.247-.158.402-.199s.322-.06.5-.06c.41 0 .785.083 1.127.251.342.165.623.415.842.752a.89.89 0 0 1 .074.145 3.394 3.394 0 0 1 .136.307.41.41 0 0 0 .055.082c.01.009.041.018.096.027.055.005.096.008.123.008.032 0 .078-.005.137-.014s.09-.026.09-.049l-.2-1.605a.396.396 0 0 0-.027-.09c-.009-.036-.033-.054-.074-.054l-.451.04a26.993 26.993 0 0 1-.5-.128c-.169-.05-.338-.096-.506-.137a5.832 5.832 0 0 0-.506-.103 2.714 2.714 0 0 0-.506-.047zm-84.2.287c-.032 0-.049.018-.049.055v.369c0 .036.018.055.055.055.155.009.296.028.424.06s.237.082.328.15c.09.064.163.15.213.254s.074.234.074.39v6.85c0 .218-.038.391-.115.519a.776.776 0 0 1-.287.295 1.153 1.153 0 0 1-.397.136 3.31 3.31 0 0 1-.424.028c-.023 0-.04.005-.049.02a.113.113 0 0 0-.005.034v.37c0 .008 0 .019.005.033.01.013.026.021.05.021h4.388c.023 0 .037-.008.041-.021a.102.102 0 0 0 .006-.034v-.369a.113.113 0 0 0-.006-.035c-.004-.014-.021-.02-.049-.02-.154 0-.305-.013-.45-.04s-.275-.073-.39-.137a.695.695 0 0 1-.37-.643v-3.02c.001-.046.007-.077.02-.09.015-.014.045-.02.09-.02h4.772c.045 0 .074.006.088.02.013.013.021.044.021.09v2.952c0 .2-.067.36-.2.479a1.35 1.35 0 0 1-.47.265c-.182.06-.372.1-.568.118a5.503 5.503 0 0 1-.498.027c-.023 0-.04.006-.049.02a.113.113 0 0 0-.006.035v.369c0 .009.001.02.006.033.01.014.026.021.049.021h4.963c.036 0 .055-.018.055-.054v-.37c0-.036-.019-.054-.055-.054-.305-.01-.542-.049-.711-.117a.81.81 0 0 1-.356-.252 1.09 1.09 0 0 1-.164-.274 1.018 1.018 0 0 1-.049-.322v-6.768c0-.205.031-.37.09-.492a.75.75 0 0 1 .246-.293.926.926 0 0 1 .348-.137 2.02 2.02 0 0 1 .404-.04c.037 0 .055-.015.055-.042v-.37a.07.07 0 0 0-.014-.034c-.004-.014-.018-.02-.04-.02h-4.562c-.031 0-.046.018-.046.055v.369c0 .037.018.055.054.055.15.009.315.028.492.06.178.028.342.073.493.137.155.06.282.141.382.246.1.105.15.237.15.397v2.926c0 .045-.007.076-.02.09-.014.013-.043.019-.089.019h-4.77c-.046 0-.077-.006-.09-.02-.014-.013-.02-.044-.02-.09v-2.815c0-.206.029-.37.088-.493a.724.724 0 0 1 .232-.293.818.818 0 0 1 .336-.136 1.85 1.85 0 0 1 .397-.041c.036 0 .054-.014.054-.041v-.37a.07.07 0 0 0-.013-.035c-.005-.013-.018-.02-.041-.02H39.56zm15.77 0c-.018 0-.027.01-.027.033s.01.06.033.11a.247.247 0 0 1 .043.117.056.056 0 0 1-.008.027v.006l-2.748 7.971a1.626 1.626 0 0 1-.287.541 1.25 1.25 0 0 1-.711.424 2.856 2.856 0 0 1-.3.033c-.037 0-.056.018-.056.055v.267c0 .037.019.055.055.055h3.697c.023 0 .037-.008.041-.021.01-.014.014-.024.014-.033v-.268c0-.01-.005-.02-.014-.033-.004-.014-.018-.022-.04-.022h-.179c-.104 0-.224-.009-.36-.027a2.304 2.304 0 0 1-.391-.088 1.349 1.349 0 0 1-.342-.178.596.596 0 0 1-.22-.377v-.013a3.4 3.4 0 0 0 .028-.088 19.507 19.507 0 0 0 .233-.678c.068-.191.153-.433.254-.725l.369-1.086a.26.26 0 0 1 .02-.054.506.506 0 0 1 .172-.186.265.265 0 0 1 .15-.04h2.466c.055 0 .1.013.137.04.041.028.073.06.096.096a.258.258 0 0 1 .055.096l.027.062.896 2.467a.46.46 0 0 1-.076.383.707.707 0 0 1-.224.191 1.446 1.446 0 0 1-.309.11c-.11.023-.219.04-.328.054-.11.01-.21.017-.307.022a5.755 5.755 0 0 0-.254.02h-.054c-.023 0-.038.007-.047.02a.102.102 0 0 0-.006.034v.268c0 .009.001.02.006.033.009.014.024.021.047.021h4.799c.023 0 .036-.007.04-.021.01-.014.014-.024.014-.033v-.26a.074.074 0 0 0-.013-.041c-.005-.014-.018-.022-.041-.022a.994.994 0 0 1-.315-.054 2.065 2.065 0 0 1-.26-.102 2.472 2.472 0 0 1-.334-.172 1.136 1.136 0 0 1-.218-.191 1.292 1.292 0 0 1-.145-.246 4.53 4.53 0 0 1-.129-.328l-2.893-8.113c-.009-.023-.023-.037-.04-.041a.252.252 0 0 1-.034-.014H55.33zm4.137 0c-.036 0-.055.018-.055.055v.265c0 .037.019.055.055.055l.055.008a.99.99 0 0 1 .101.02c.041.004.082.012.123.02a1.918 1.918 0 0 1 .268.083c.064.023.129.06.197.11a.982.982 0 0 1 .2.177.755.755 0 0 1 .163.252l3.561 8.627c.032.1.103.15.211.15h1.006c.105 0 .187-.01.246-.033.06-.023.11-.09.15-.205l2.646-7.15c.077-.205.155-.418.232-.637.078-.223.172-.43.281-.62a2.05 2.05 0 0 1 .41-.507c.165-.145.371-.244.622-.294h.254c.027 0 .042-.005.047-.014a.131.131 0 0 0 .007-.041v-.266a.125.125 0 0 0-.007-.035c-.005-.014-.02-.02-.047-.02h-3.658c-.028 0-.043.006-.047.02a.125.125 0 0 0-.008.035v.266c0 .036.018.055.055.055.027 0 .073.004.136.013.064.01.131.022.2.035l.19.028.138.02a.726.726 0 0 1 .437.226c.105.114.156.25.156.41a.3.3 0 0 1-.033.137 2.132 2.132 0 0 0-.055.136l-2.242 6.057c-.018.05-.044.075-.076.075-.009 0-.018-.005-.027-.014a.1.1 0 0 0-.027-.02.277.277 0 0 1-.014-.035l-2.44-5.92a1.484 1.484 0 0 1-.067-.191.909.909 0 0 1-.028-.205c0-.164.041-.292.123-.383a.782.782 0 0 1 .315-.21c.127-.051.26-.086.402-.104.146-.019.277-.037.39-.055h.102c.023 0 .039-.006.043-.02a.064.064 0 0 0 .012-.035v-.265a.082.082 0 0 0-.006-.036c-.004-.013-.02-.02-.047-.02H59.47zm11.36 0c-.023 0-.04.006-.049.02a.113.113 0 0 0-.006.035v.265c0 .01.002.022.006.036.01.013.026.02.049.02h.143c.155.022.308.052.459.089.15.032.284.082.402.15a.76.76 0 0 1 .396.703v7c0 .256-.053.446-.158.569a.857.857 0 0 1-.402.252 2.229 2.229 0 0 1-.547.076c-.2 0-.397.006-.588.02h-.15c-.028 0-.043.009-.047.027a.124.124 0 0 0-.008.027v.295c0 .005.003.015.008.033.004.014.02.022.047.022h7.924c.022 0 .04-.01.054-.028a.272.272 0 0 0 .041-.068l.225-2.502c0-.023-.015-.044-.047-.062a.173.173 0 0 0-.082-.028.286.286 0 0 0-.172.055.188.188 0 0 0-.088.137 2.78 2.78 0 0 1-.103.478c-.05.187-.13.368-.238.541-.11.173-.254.32-.432.444a1.166 1.166 0 0 1-.662.177h-1.867c-.1 0-.196-.006-.287-.02a.713.713 0 0 1-.246-.081.444.444 0 0 1-.164-.178.726.726 0 0 1-.061-.322v-2.986c0-.046.023-.069.068-.069h1.934c.123 0 .24.015.35.047a.604.604 0 0 1 .3.178.89.89 0 0 1 .206.369c.055.155.082.36.082.615 0 .01.001.022.006.035.009.014.026.02.049.02h.265c.01 0 .022-.001.035-.006.014-.01.02-.026.02-.049v-3.13c0-.037-.018-.055-.055-.055h-.265c-.037 0-.055.018-.055.054 0 .219-.027.4-.082.541a.779.779 0 0 1-.205.32.696.696 0 0 1-.295.165c-.11.027-.22.04-.334.04h-1.955c-.046 0-.069-.022-.069-.068v-3.26c0-.059.03-.09.088-.09h2.441c.16.028.289.081.389.159.105.073.187.16.246.26.06.1.104.209.131.328.032.118.055.232.068.341.019.11.034.21.047.301a.474.474 0 0 0 .069.197c.013.019.04.032.076.041a.45.45 0 0 0 .21 0c.042-.013.063-.031.063-.054l-.123-2.188c-.009-.1-.032-.164-.068-.192-.037-.032-.098-.047-.18-.047h-6.807zm12.29 0a.065.065 0 0 0-.055.027.162.162 0 0 0-.035.055l-.014.06v.05c0 .04.022.087.063.142.041.05.083.078.129.082l.11.022.157.027c.055.01.107.02.157.033l.11.022c.145.036.28.097.403.183.128.082.243.181.348.295.11.11.208.228.295.356a6.2 6.2 0 0 1 .252.369l2.797 4.47a.11.11 0 0 1 .02.07v2.042c0 .273-.07.486-.211.637-.142.15-.392.243-.752.28a2.26 2.26 0 0 1-.2.007H86.5c-.023 0-.038.006-.047.02a.125.125 0 0 0-.008.035v.3c0 .01.004.02.008.034.01.013.024.021.047.021h4.656c.023 0 .036-.008.041-.021.01-.014.014-.024.014-.034v-.3a.07.07 0 0 0-.014-.036c-.005-.013-.018-.02-.041-.02h-.2a1.99 1.99 0 0 1-.19-.007c-.36-.036-.611-.129-.753-.28-.14-.15-.21-.363-.21-.636V17.52l2.645-4.547a.994.994 0 0 1 .068-.088c.045-.05.08-.086.103-.11.16-.172.32-.317.485-.43.168-.12.368-.203.595-.253l.13-.027a.953.953 0 0 0 .136-.049.345.345 0 0 0 .11-.082.157.157 0 0 0 .048-.115.49.49 0 0 0-.021-.11c-.014-.054-.038-.082-.074-.082h-3.44c-.054 0-.087.024-.101.075a.617.617 0 0 0 0 .253c.01.05.038.078.088.083.127.013.24.028.336.046.1.019.183.05.252.09.068.041.118.1.15.178a.682.682 0 0 1 .055.3.811.811 0 0 1-.102.39 4.831 4.831 0 0 1-.191.349l-1.648 2.795c-.037.06-.068.108-.096.145-.023.036-.05.054-.082.054-.036 0-.064-.009-.082-.027a3.953 3.953 0 0 1-.096-.145l-2.084-3.35a.536.536 0 0 1-.082-.293c0-.123.023-.218.069-.287a.397.397 0 0 1 .183-.15.79.79 0 0 1 .282-.068l.347-.028c.046 0 .072-.026.076-.076a.793.793 0 0 0 .014-.143.437.437 0 0 0-.021-.123c-.014-.045-.046-.068-.096-.068h-4.641zm22.26 0c-.032 0-.047.018-.047.055v.265c0 .037.018.055.055.055.155 0 .3.018.437.055.137.036.257.09.362.158a.745.745 0 0 1 .246.26c.064.1.095.215.095.347v5.367c0 .397.064.752.192 1.066s.3.593.52.834c.218.242.473.448.765.622.292.173.602.314.93.423.332.11.673.19 1.02.24.35.05.689.075 1.018.075.688 0 1.29-.096 1.805-.287a3.388 3.388 0 0 0 1.279-.827 3.43 3.43 0 0 0 .765-1.307 5.566 5.566 0 0 0 .252-1.736v-4.375a1.04 1.04 0 0 1 .13-.438c.047-.076.101-.146.165-.21a.602.602 0 0 1 .211-.15 1.31 1.31 0 0 1 .281-.076 2.1 2.1 0 0 1 .438-.041c.018 0 .032-.006.04-.02a.069.069 0 0 0 .014-.035v-.266a.069.069 0 0 0-.013-.035c-.005-.014-.018-.02-.041-.02h-3.568c-.037 0-.055.019-.055.055v.266c0 .036.018.055.055.055.023 0 .07.003.142.007.078 0 .174.01.287.028.251.04.446.115.582.224a.954.954 0 0 1 .301.377c.064.146.1.301.11.465.013.164.02.324.02.479v4.244c0 .478-.08.891-.24 1.238-.159.346-.373.63-.642.853-.269.223-.579.39-.93.5-.35.105-.718.156-1.101.156-.926 0-1.62-.247-2.084-.744-.465-.501-.698-1.208-.698-2.119v-4.793c0-.205.037-.366.11-.484a.786.786 0 0 1 .293-.281c.123-.064.255-.105.396-.123a3.28 3.28 0 0 1 .424-.028c.023 0 .036-.006.041-.02a.069.069 0 0 0 .014-.034v-.266a.069.069 0 0 0-.014-.035c-.005-.014-.018-.02-.041-.02h-4.32zm22.87 0c-.023 0-.038.006-.047.02a.12.12 0 0 0-.008.035v.265c0 .01.003.022.008.036.01.013.024.02.047.02h.144c.155.022.307.052.457.089.15.032.286.082.405.15a.76.76 0 0 1 .397.703v7c0 .256-.054.446-.159.569a.857.857 0 0 1-.402.252 2.229 2.229 0 0 1-.547.076c-.2 0-.397.006-.588.02h-.15c-.028 0-.045.009-.05.027a.092.092 0 0 0-.005.027l-.002.2v.095c0 .005.003.015.008.033.004.014.02.022.047.022h7.924c.022 0 .04-.01.054-.028a.274.274 0 0 0 .041-.068l.225-2.502c0-.023-.015-.044-.047-.062a.173.173 0 0 0-.082-.028.286.286 0 0 0-.172.055.188.188 0 0 0-.088.137 2.785 2.785 0 0 1-.103.478c-.05.187-.13.368-.239.541-.109.173-.253.32-.431.444a1.166 1.166 0 0 1-.662.177h-1.867c-.1 0-.196-.006-.287-.02a.713.713 0 0 1-.246-.081.443.443 0 0 1-.165-.178.726.726 0 0 1-.06-.322v-2.986c0-.046.023-.069.068-.069h1.934c.123 0 .24.015.35.047a.604.604 0 0 1 .3.178.89.89 0 0 1 .206.369c.054.155.082.36.082.615 0 .01.003.022.008.035.009.014.024.02.046.02h.268c.01 0 .02-.001.033-.006.014-.01.022-.026.022-.049v-3.13c0-.037-.018-.055-.055-.055h-.268c-.036 0-.054.018-.054.054 0 .219-.028.4-.082.541a.779.779 0 0 1-.205.32.689.689 0 0 1-.293.165c-.11.027-.222.04-.336.04h-1.955c-.046 0-.069-.022-.069-.068v-3.26c0-.059.031-.09.09-.09h2.44c.159.028.29.081.39.159.105.073.187.16.246.26.06.1.102.209.129.328.032.118.055.232.068.341l.049.301a.473.473 0 0 0 .068.197c.014.019.038.032.075.041a.45.45 0 0 0 .213 0c.04-.013.06-.031.06-.054l-.123-2.188c-.01-.1-.032-.164-.068-.192-.037-.032-.096-.047-.178-.047h-6.809zm8.949 0c-.023 0-.04.006-.049.02a.11.11 0 0 0-.006.035v.265c0 .01.001.022.006.036.01.013.026.02.049.02h.143c.155.022.308.052.459.089.15.032.283.082.402.15a.76.76 0 0 1 .397.703v7c0 .256-.052.446-.157.569a.863.863 0 0 1-.404.252 2.229 2.229 0 0 1-.547.076c-.2 0-.397.006-.588.02h-.15c-.028 0-.043.009-.047.027a.124.124 0 0 0-.008.027v.295c0 .005.003.015.008.033.004.014.02.022.047.022h7.924c.022 0 .04-.01.054-.028a.274.274 0 0 0 .041-.068l.225-2.502c0-.023-.015-.044-.047-.062a.173.173 0 0 0-.082-.028.286.286 0 0 0-.172.055.188.188 0 0 0-.088.137 2.783 2.783 0 0 1-.103.478c-.05.187-.13.368-.238.541-.11.173-.254.32-.432.444a1.166 1.166 0 0 1-.662.177h-1.867c-.1 0-.196-.006-.287-.02s-.173-.04-.246-.081a.443.443 0 0 1-.164-.178.726.726 0 0 1-.061-.322v-2.986c0-.046.023-.069.068-.069h1.934c.123 0 .24.015.35.047a.604.604 0 0 1 .3.178.89.89 0 0 1 .206.369c.055.155.082.36.082.615 0 .01.001.022.006.035.009.014.026.02.049.02h.265c.01 0 .022-.001.035-.006.014-.01.02-.026.02-.049v-3.13c0-.037-.018-.055-.055-.055h-.265c-.037 0-.055.018-.055.054 0 .219-.027.4-.082.541a.779.779 0 0 1-.205.32.696.696 0 0 1-.295.165c-.11.027-.22.04-.334.04h-1.955c-.046 0-.069-.022-.069-.068v-3.26c0-.059.03-.09.088-.09h2.441c.16.028.289.081.39.159.104.073.186.16.245.26.06.1.104.209.131.328.032.118.055.232.068.341.019.11.034.21.047.301a.473.473 0 0 0 .069.197c.013.019.04.032.076.041a.45.45 0 0 0 .21 0c.042-.013.063-.031.063-.054l-.123-2.188c-.009-.1-.032-.164-.068-.192-.036-.032-.096-.047-.178-.047h-6.809zm8.865 0c-.023 0-.038.006-.047.02a.12.12 0 0 0-.008.035v.3c0 .01.003.02.008.034.01.013.024.021.047.021.068 0 .169.006.3.02.138.013.27.04.397.082a.929.929 0 0 1 .342.172c.1.073.15.17.15.293v6.83c0 .16-.005.31-.019.45a1.703 1.703 0 0 1-.082.39.94.94 0 0 1-.164.314.794.794 0 0 1-.281.219.327.327 0 0 1-.116.027c-.05.005-.108.01-.171.014-.06.004-.12.008-.184.008h-.172c-.036 0-.055.018-.055.054v.301c0 .014.008.028.022.041.014.01.024.014.033.014h3.76c.023 0 .036-.008.041-.022.01-.013.014-.024.014-.033v-.3a.058.058 0 0 0-.006-.028c-.01-.018-.026-.027-.049-.027-.046 0-.114-.004-.205-.008a3.309 3.309 0 0 1-.643-.137 1.447 1.447 0 0 1-.314-.156.994.994 0 0 1-.238-.24.62.62 0 0 1-.09-.334v-6.105c0-.046.012-.069.035-.069s.041.005.055.014a.239.239 0 0 1 .068.055l6.453 7.158a.818.818 0 0 0 .355.252c.123.04.23.062.32.062a.65.65 0 0 0 .178-.027.6.6 0 0 0 .186-.068.418.418 0 0 0 .143-.123.352.352 0 0 0 .054-.2v-8.086c0-.127.05-.241.145-.341.1-.1.219-.186.355-.254.137-.069.275-.12.416-.156.146-.037.265-.055.356-.055.022 0 .036-.008.04-.022.01-.013.014-.024.014-.033v-.3a.11.11 0 0 0-.005-.036c-.005-.013-.022-.02-.05-.02h-3.76c-.022 0-.037.007-.046.02a.12.12 0 0 0-.008.035v.301c0 .01.003.02.008.033.009.014.024.022.047.022h.35c.227 0 .414.023.56.068a.61.61 0 0 1 .348.287c.086.142.145.348.177.621.032.27.05.63.05 1.08v4.061a.128.128 0 0 1-.009.041c-.004.014-.015.022-.033.022a.049.049 0 0 1-.035-.014.424.424 0 0 0-.049-.054l-5.893-6.521h-3.096zm-47.46.375c.392 0 .753.06 1.086.178.337.114.643.277.916.486.278.21.523.457.732.744.215.283.392.596.534.938.145.337.255.694.328 1.072.077.373.115.756.115 1.148 0 .537-.065 1.06-.197 1.566a4.074 4.074 0 0 1-.596 1.332c-.264.387-.598.7-1.004.937-.406.233-.884.348-1.436.348a3.17 3.17 0 0 1-1.094-.184 3.396 3.396 0 0 1-.91-.52 4.104 4.104 0 0 1-.73-.779c-.215-.3-.396-.623-.542-.964s-.256-.698-.334-1.066a5.7 5.7 0 0 1-.11-1.107 5.465 5.465 0 0 1 .376-1.989 4.21 4.21 0 0 1 .459-.848c.182-.264.392-.49.629-.677a2.781 2.781 0 0 1 1.777-.615zm-42.67 1.682c.036 0 .077.017.123.049a.248.248 0 0 1 .102.137l.91 2.494c.009.022.015.044.02.062a.245.245 0 0 1 .007.06.12.12 0 0 1-.027.077c-.014.018-.046.027-.096.027h-2.05c-.042 0-.07-.008-.083-.021a.111.111 0 0 1-.021-.069.386.386 0 0 1 .027-.137l.861-2.487a.289.289 0 0 1 .104-.137c.045-.037.086-.055.123-.055zm121.5 16.6c-.337 0-.623.043-.86.129a1.435 1.435 0 0 0-.558.332 1.276 1.276 0 0 0-.31.506 1.827 1.827 0 0 0-.098.602c0 .15.036.289.107.418.079.121.172.226.28.312.114.086.24.158.376.215.137.05.268.079.397.086.759 0 1.404.024 1.934.074.53.043.96.129 1.289.258.33.121.57.29.72.506.151.214.225.487.225.816 0 .272-.043.516-.129.73a1.895 1.895 0 0 1-.353.56 2.309 2.309 0 0 1-.516.417c-.193.122-.4.23-.623.322-.336.144-.68.28-1.03.409-.352.129-.671.29-.958.484-.28.193-.508.432-.687.719-.18.286-.268.659-.268 1.117.007.114.031.265.074.451.05.18.108.372.172.58.072.2.148.406.227.613.086.208.172.397.258.569.086.165.167.3.246.408.086.1.157.15.215.15a.2.2 0 0 0 .076-.03 1.66 1.66 0 0 0 .117-.087.762.762 0 0 0 .107-.107c.036-.036.055-.062.055-.076a3.724 3.724 0 0 0-.28-.559.963.963 0 0 1-.064-.203 1.874 1.874 0 0 1-.021-.334c0-.258.045-.466.138-.623.094-.158.213-.286.356-.387.143-.107.303-.196.482-.267.187-.072.37-.15.55-.237a3.866 3.866 0 0 0 1.03-.73 5.183 5.183 0 0 0 1.354-2.256 4.44 4.44 0 0 0 .193-1.28c0-.608-.107-1.188-.322-1.74a4.71 4.71 0 0 0-.893-1.47 4.133 4.133 0 0 0-1.332-1.021 3.78 3.78 0 0 0-1.676-.375zm-114.3.031c-.33 0-.67.036-1.021.108a5.432 5.432 0 0 0-1.02.322 4.938 4.938 0 0 0-.957.516c-.294.2-.551.43-.773.687a3.336 3.336 0 0 0-.538.86 2.673 2.673 0 0 0-.193 1.02c0 .602.1 1.142.3 1.622.209.48.478.916.807 1.31s.705.757 1.127 1.087c.423.322.857.632 1.301.933.444.3.877.6 1.3.893a8.22 8.22 0 0 1 1.128.933c.33.323.595.674.795 1.053.208.38.31.802.31 1.268 0 .81-.214 1.396-.644 1.762-.422.366-1.017.55-1.783.55-.45 0-.852-.037-1.203-.108a3.22 3.22 0 0 1-.945-.344c-.28-.165-.53-.38-.752-.645a5.2 5.2 0 0 1-.602-1 1.692 1.692 0 0 0-.107-.246 2.079 2.079 0 0 0-.193-.343 1.692 1.692 0 0 0-.237-.301c-.078-.086-.153-.13-.224-.13-.1 0-.186.046-.258.14a.435.435 0 0 0-.107.257v.12c.007.05.017.167.03.353.022.186.056.465.099.838.042.372.102.895.181 1.568.022.15.079.226.172.226l.688-.107a.327.327 0 0 1 .097-.012c.122 0 .272.036.451.108.18.071.397.155.655.248a8.5 8.5 0 0 0 .935.236c.365.072.79.107 1.277.107.387 0 .78-.04 1.182-.119a6.602 6.602 0 0 0 1.182-.343c.387-.158.75-.351 1.086-.58.337-.23.63-.49.881-.784.25-.3.447-.635.59-1a3.08 3.08 0 0 0 .226-1.182c0-.637-.104-1.21-.312-1.719a5.21 5.21 0 0 0-.805-1.385 7.137 7.137 0 0 0-1.139-1.139 18.463 18.463 0 0 0-1.3-.967c-.438-.307-.87-.608-1.3-.902a10.937 10.937 0 0 1-1.139-.902 4.71 4.71 0 0 1-.806-1 2.4 2.4 0 0 1-.301-1.191c0-.301.05-.559.15-.774.108-.214.251-.39.43-.527a1.69 1.69 0 0 1 .635-.31 3.02 3.02 0 0 1 .783-.098c.644 0 1.236.133 1.773.398.537.258.977.652 1.32 1.182.043.065.083.14.12.225.042.086.08.172.116.258.036.079.07.155.098.226a.644.644 0 0 0 .086.13c.014.014.064.028.15.042.086.007.15.01.194.01.05 0 .121-.007.214-.021.094-.015.14-.039.14-.075l-.311-2.525a.608.608 0 0 0-.043-.138c-.015-.058-.055-.086-.12-.086l-.708.064a42.9 42.9 0 0 1-.784-.205c-.265-.079-.53-.15-.795-.215a9.189 9.189 0 0 0-.794-.16 4.269 4.269 0 0 0-.795-.076zm45.04 0c-.86 0-1.678.093-2.459.28a9.87 9.87 0 0 0-2.17.785 8.576 8.576 0 0 0-1.816 1.225 7.844 7.844 0 0 0-1.375 1.6 7.547 7.547 0 0 0-.88 1.902 7.498 7.498 0 0 0-.302 2.137c0 .838.093 1.594.28 2.268a7.65 7.65 0 0 0 .763 1.805c.323.523.695.984 1.117 1.385.423.394.867.737 1.332 1.03.473.287.953.524 1.44.71a13.1 13.1 0 0 0 1.395.451 9.46 9.46 0 0 0 1.234.236c.38.043.695.065.946.065a8.957 8.957 0 0 0 4.545-1.213 8.953 8.953 0 0 0 1.74-1.354 8.657 8.657 0 0 0 1.332-1.676 8.145 8.145 0 0 0 .837-1.902 7.165 7.165 0 0 0-.011-4.07 7.416 7.416 0 0 0-.848-1.86 7.758 7.758 0 0 0-1.31-1.556 8.095 8.095 0 0 0-1.667-1.193 8.254 8.254 0 0 0-1.965-.774 8.309 8.309 0 0 0-2.16-.279zm-93.06.034c-.107 0-.186.035-.236.107a.566.566 0 0 0-.098.225l-.396 3.674v.355c0 .029.021.043.064.043h.353c.036 0 .062-.012.077-.033.014-.015.028-.065.043-.15.014-.094.028-.172.043-.237a16.7 16.7 0 0 0 .138-.687c.043-.244.108-.468.194-.676.086-.208.205-.387.355-.537.15-.158.358-.265.623-.323h3.641c.086.015.158.032.215.053.064.014.098.098.098.248v11.41c0 .215-.055.408-.162.58-.108.165-.254.31-.44.44a2.25 2.25 0 0 1-.644.312 3.816 3.816 0 0 1-.786.16 3.508 3.508 0 0 1-.31.012h-.3c-.037 0-.063.01-.077.031a.177.177 0 0 0-.01.055v.418a.19.19 0 0 0 .01.055c.014.021.04.031.076.031h8.346c.036 0 .057-.01.065-.031a.107.107 0 0 0 .021-.055v-.418a.107.107 0 0 0-.021-.055c-.008-.021-.03-.03-.065-.03h-.31a3.04 3.04 0 0 1-.301-.013 4.004 4.004 0 0 1-.795-.16 2.45 2.45 0 0 1-.645-.312 1.664 1.664 0 0 1-.43-.44 1.073 1.073 0 0 1-.161-.58v-11.41c0-.15.028-.234.085-.248.065-.021.141-.038.227-.053h3.652c.265.058.473.165.623.323.15.15.268.33.354.537.086.208.15.432.193.676.043.236.09.465.14.687.015.065.03.143.044.236.014.086.028.137.043.15.014.022.038.034.074.034h.355c.043 0 .065-.014.065-.043v-.355l-.399-3.674a.562.562 0 0 0-.095-.225c-.05-.072-.13-.107-.237-.107a.3.3 0 0 0-.15.043.855.855 0 0 0-.129.107l-.129.107a.302.302 0 0 1-.119.075 1.203 1.203 0 0 1-.246.076 2.61 2.61 0 0 1-.248.01h-11.26a2.88 2.88 0 0 1-.258-.01 1.278 1.278 0 0 1-.236-.076.398.398 0 0 1-.13-.075 1.73 1.73 0 0 0-.116-.107.666.666 0 0 0-.14-.107.244.244 0 0 0-.14-.043zm15.73.418c-.05 0-.076.028-.076.085v.58c0 .058.028.087.086.087.243.014.465.047.666.097.2.05.372.13.515.236.144.1.256.232.334.397.08.165.118.37.118.613v10.76c0 .344-.06.616-.182.817-.115.2-.265.353-.451.46a1.787 1.787 0 0 1-.623.215 5.198 5.198 0 0 1-.666.043c-.036 0-.062.012-.076.034a.166.166 0 0 0-.01.052v.58c0 .015.002.034.01.055.014.022.04.031.076.031h6.896c.036 0 .057-.01.064-.03a.177.177 0 0 0 .01-.056v-.58a.166.166 0 0 0-.01-.052c-.007-.022-.033-.034-.076-.034a3.84 3.84 0 0 1-.709-.064 1.992 1.992 0 0 1-.611-.215c-.172-.1-.313-.232-.42-.396s-.16-.37-.16-.614V39.12c0-.071.01-.117.03-.138.022-.022.07-.034.141-.034h7.498c.072 0 .118.012.14.034.02.021.032.067.032.138v4.641c0 .315-.104.566-.312.752-.2.18-.447.32-.74.42a4.11 4.11 0 0 1-.893.182 8.658 8.658 0 0 1-.783.043c-.036 0-.062.012-.076.033a.166.166 0 0 0-.01.053v.58a.19.19 0 0 0 .01.055c.014.021.04.03.076.03h7.799c.057 0 .086-.028.086-.085v-.58c0-.058-.029-.086-.086-.086-.48-.015-.852-.074-1.117-.182-.258-.107-.444-.24-.559-.398a1.71 1.71 0 0 1-.258-.43 1.584 1.584 0 0 1-.076-.504v-10.63c0-.322.048-.58.14-.773.101-.2.23-.356.388-.463.164-.108.346-.18.547-.215a3.13 3.13 0 0 1 .634-.064c.058 0 .086-.022.086-.065v-.58c0-.014-.007-.031-.021-.053-.007-.021-.029-.033-.065-.033h-7.166c-.05 0-.074.029-.074.086v.58c0 .057.029.086.086.086.236.014.494.048.773.098.28.043.538.114.774.215.243.093.444.222.601.386s.237.373.237.623v4.598c0 .072-.012.117-.033.139-.022.021-.068.033-.14.033h-7.497c-.072 0-.12-.012-.14-.033-.022-.022-.032-.067-.032-.139v-4.426c0-.322.046-.58.139-.773.093-.2.215-.356.365-.463.15-.107.327-.179.527-.215.2-.043.408-.064.623-.064.057 0 .086-.022.086-.065v-.58c0-.014-.007-.031-.021-.053-.007-.021-.029-.033-.065-.033h-6.359zm19.42 0c-.057 0-.086.028-.086.085v.58c0 .058.029.087.086.087.25 0 .475.021.676.064.208.043.38.115.515.215.144.1.251.233.323.398.078.165.119.368.119.611v10.82c0 .344-.04.616-.12.817-.078.2-.188.353-.331.46-.144.108-.32.18-.528.216-.2.028-.425.043-.675.043-.036 0-.062.011-.077.033a.166.166 0 0 0-.01.052v.58c0 .015.003.034.01.055.015.022.04.032.077.032h6.348c.043 0 .069-.008.076-.022a.201.201 0 0 0 .01-.064v-.58c0-.058-.03-.086-.086-.086a3.4 3.4 0 0 1-.688-.065 1.4 1.4 0 0 1-.516-.215 1.038 1.038 0 0 1-.322-.396 1.542 1.542 0 0 1-.107-.613v-10.82c0-.344.04-.616.119-.817.079-.2.189-.355.332-.463a1.11 1.11 0 0 1 .515-.203c.208-.036.437-.055.688-.055.036 0 .057-.01.064-.03a.107.107 0 0 0 .022-.056v-.58c0-.014-.007-.03-.022-.052-.007-.022-.028-.034-.064-.034h-6.348zm24.99 0c-.057 0-.086.028-.086.085v.473c0 .057.029.086.086.086a.48.48 0 0 1 .096.022 2.774 2.774 0 0 1 .408.086c.072.014.133.026.183.033.086.014.204.043.354.086.158.035.32.093.484.172.172.071.332.171.483.3.15.122.265.275.344.461l5.564 13.38a.417.417 0 0 0 .128.184c.05.043.12.064.206.064h1.557a.871.871 0 0 0 .377-.064c.086-.036.167-.14.246-.313l2.406-5.629 2.385 5.77c.05.158.162.237.334.237h1.547a.86.86 0 0 0 .375-.065c.086-.036.169-.14.248-.312l5.445-12.75c.114-.28.222-.523.322-.73.107-.208.215-.38.322-.516.115-.144.237-.248.365-.313a.914.914 0 0 1 .452-.107h.506c.043 0 .067-.007.074-.022a.203.203 0 0 0 .012-.064v-.473a.176.176 0 0 0-.012-.053c-.007-.021-.031-.033-.074-.033h-5.104c-.043 0-.067.012-.075.033a.178.178 0 0 0-.011.053v.473c0 .057.028.086.086.086h.666c.436 0 .735.04.892.119.165.071.246.2.246.387 0 .136-.043.303-.129.503l-4.285 10.04c-.035.08-.09.118-.162.118-.1 0-.167-.036-.203-.108l-2.568-6.176 1.322-3.072c.13-.308.258-.577.387-.806.136-.23.282-.418.44-.569s.333-.262.527-.334c.2-.071.43-.107.687-.107h.397c.043 0 .069-.007.076-.022a.201.201 0 0 0 .01-.064v-.473a.166.166 0 0 0-.01-.053c-.007-.021-.033-.033-.076-.033H83.29c-.058 0-.086.029-.086.086v.473c0 .057.028.086.086.086a2.952 2.952 0 0 1 .592.14c.178.043.365.15.558.323s.337.368.43.59l2.352 5.65-1.857 4.383a.446.446 0 0 1-.065.086c-.021.021-.054.033-.097.033-.1 0-.168-.036-.203-.108l-3.857-9.293a3.768 3.768 0 0 0-.13-.43 1.449 1.449 0 0 1-.064-.439c0-.086.007-.183.022-.29a.664.664 0 0 1 .15-.302.937.937 0 0 1 .365-.246c.158-.064.377-.097.657-.097h.193c.036 0 .057-.01.064-.032a.107.107 0 0 0 .022-.054v-.473a.115.115 0 0 0-.012-.053c-.007-.021-.031-.033-.074-.033h-7.09zm43.9 0c-.043 0-.067.011-.074.033a.178.178 0 0 0-.012.052v.473c0 .057.029.086.086.086a1.824 1.824 0 0 1 .795.258c.15.086.28.193.387.322a.63.63 0 0 1 .162.43v.398c0 .831-.022 1.657-.065 2.48-.043.824-.093 1.66-.15 2.504-.057.838-.12 1.693-.184 2.566-.057.867-.107 1.762-.15 2.686-.014.315-.036.61-.065.881a1.601 1.601 0 0 1-.236.71c-.122.193-.315.348-.58.462-.258.108-.623.16-1.096.16-.036 0-.06.012-.074.034a.179.179 0 0 0-.012.052v.473c0 .057.029.086.086.086h5.34c.043 0 .064-.029.064-.086v-.473a.179.179 0 0 0-.011-.052c0-.022-.017-.034-.053-.034-.23 0-.449-.017-.656-.052s-.397-.09-.569-.162a1.417 1.417 0 0 1-.43-.268.691.691 0 0 1-.214-.365v-.442c0-.3.01-.683.031-1.148.022-.472.05-.98.086-1.525.036-.544.072-1.107.107-1.688.036-.58.072-1.127.108-1.643.036-.522.064-.992.086-1.408.021-.415.033-.73.033-.945 0-.093.024-.139.074-.139.029 0 .048.015.055.043a.743.743 0 0 1 .053.108l4.576 10.09c.043.1.126.157.248.172.129.014.322.021.58.021.15 0 .253-.01.31-.031a.257.257 0 0 0 .15-.15l4.706-10.18c.028-.065.057-.098.086-.098.028 0 .047.036.054.107l.494 8.777a.662.662 0 0 1-.205.504 1.375 1.375 0 0 1-.504.28c-.2.064-.412.107-.634.128a8.796 8.796 0 0 1-.58.022c-.058 0-.086.028-.086.086v.472c0 .058.028.086.085.086h7.068c.036 0 .058-.01.065-.03a.107.107 0 0 0 .021-.056v-.472c0-.015-.007-.032-.021-.053-.007-.022-.029-.033-.065-.033h-.171a5.509 5.509 0 0 1-.375-.043 10.559 10.559 0 0 1-.473-.108c-.165-.05-.322-.121-.473-.214s-.279-.21-.386-.354a.957.957 0 0 1-.163-.527l-.623-11.44c0-.25.077-.451.227-.602a1.55 1.55 0 0 1 .494-.355 2.23 2.23 0 0 1 .504-.172c.158-.029.244-.043.258-.043.036 0 .057-.01.064-.031a.107.107 0 0 0 .022-.055v-.473a.167.167 0 0 0-.01-.053c-.007-.021-.033-.033-.076-.033h-3.781c-.072 0-.143.04-.215.12a1.29 1.29 0 0 0-.215.31l-4.619 10.22a.381.381 0 0 1-.086.139c-.035.035-.093.054-.172.054s-.143-.062-.193-.183l-4.672-10.42a.573.573 0 0 0-.14-.15.4.4 0 0 0-.194-.087h-3.803zm26.24 0c-.029 0-.043.018-.043.054s.017.093.053.172a.372.372 0 0 1 .064.182.094.094 0 0 1-.01.043v.011l-4.318 12.53c-.121.359-.272.64-.45.848a2.18 2.18 0 0 1-.56.463c-.186.1-.372.167-.558.203a4.577 4.577 0 0 1-.473.055c-.057 0-.086.028-.086.086v.418c0 .057.03.086.086.086h5.811c.036 0 .058-.01.065-.032a.107.107 0 0 0 .021-.054v-.418a.107.107 0 0 0-.021-.055c-.007-.021-.029-.031-.065-.031h-.279c-.165 0-.353-.015-.568-.043a3.624 3.624 0 0 1-.614-.14c-.2-.072-.38-.165-.537-.28a.935.935 0 0 1-.31-.451 23.169 23.169 0 0 1-.022-.065.317.317 0 0 1-.011-.074v-.021l.043-.141.128-.365c.058-.165.137-.397.237-.697.107-.301.24-.68.398-1.14a974.692 974.692 0 0 1 .611-1.794c.03-.05.065-.1.108-.15a.784.784 0 0 1 .162-.14.416.416 0 0 1 .236-.064h3.877c.086 0 .158.022.215.064a.501.501 0 0 1 .15.15.41.41 0 0 1 .086.151l.043.096 1.408 3.879a.722.722 0 0 1-.12.602c-.092.121-.21.222-.352.3a2.264 2.264 0 0 1-.485.172 6.458 6.458 0 0 1-.515.086 11.75 11.75 0 0 1-.483.031 8.848 8.848 0 0 0-.334.022.311.311 0 0 0-.064.012h-.086c-.036 0-.06.01-.074.03a.19.19 0 0 0-.012.056v.418a.19.19 0 0 0 .012.054c.014.022.038.032.074.032h7.541c.036 0 .057-.01.064-.032a.107.107 0 0 0 .022-.054v-.409a.115.115 0 0 0-.022-.064c-.007-.022-.028-.031-.064-.031a1.56 1.56 0 0 1-.494-.086 3.215 3.215 0 0 1-.408-.162 3.914 3.914 0 0 1-.526-.268 1.784 1.784 0 0 1-.343-.3 2.037 2.037 0 0 1-.227-.387 7.096 7.096 0 0 1-.203-.516l-4.545-12.75c-.014-.036-.036-.057-.065-.065a.4.4 0 0 1-.052-.021h-3.115zm10.85 0c-.036 0-.062.011-.076.033a.167.167 0 0 0-.01.052v.473c0 .015.003.033.01.055.014.021.04.031.076.031.107 0 .265.012.473.033.214.022.422.065.623.13.207.057.386.145.537.267.157.114.236.27.236.463v10.73c0 .25-.012.487-.033.709a2.655 2.655 0 0 1-.129.613c-.057.186-.143.35-.258.494a1.24 1.24 0 0 1-.44.344.532.532 0 0 1-.183.043l-.267.021c-.094.008-.191.01-.291.01h-.268c-.057 0-.086.029-.086.086v.473c0 .021.01.043.031.064.022.015.04.022.055.022h5.908c.036 0 .057-.01.064-.032a.107.107 0 0 0 .022-.054v-.473a.097.097 0 0 0-.012-.043c-.014-.029-.038-.043-.074-.043a5.81 5.81 0 0 1-.322-.01 5.298 5.298 0 0 1-.473-.076 5.945 5.945 0 0 1-.537-.138 2.283 2.283 0 0 1-.494-.248 1.563 1.563 0 0 1-.377-.375.982.982 0 0 1-.139-.528v-9.592c0-.071.017-.107.053-.107s.064.007.086.021a.377.377 0 0 1 .107.086l10.14 11.25c.186.208.373.341.559.399.193.064.362.095.506.095.086 0 .179-.014.279-.043a.931.931 0 0 0 .29-.107.665.665 0 0 0 .226-.193.546.546 0 0 0 .086-.31v-12.71c0-.201.074-.38.224-.538.158-.158.344-.29.559-.397.215-.107.434-.19.656-.248.23-.057.415-.085.559-.085.035 0 .057-.01.064-.032a.107.107 0 0 0 .022-.054v-.473a.179.179 0 0 0-.012-.053c-.007-.021-.031-.033-.074-.033h-5.908c-.036 0-.062.012-.077.033a.167.167 0 0 0-.01.053v.473c0 .014.003.033.01.054.015.022.04.032.077.032h.547c.358 0 .651.035.88.107.23.072.413.222.55.451.135.222.228.549.279.979.05.422.074.988.074 1.697v6.38a.202.202 0 0 1-.01.065c-.007.022-.026.031-.055.031a.07.07 0 0 1-.052-.021.653.653 0 0 0-.077-.086l-9.26-10.25h-4.865zm-48.82.591c.616 0 1.186.093 1.709.28.53.179 1.01.432 1.439.761.437.33.819.721 1.148 1.172.337.444.616.934.838 1.471.23.53.4 1.093.515 1.688.122.588.184 1.19.184 1.805a9.73 9.73 0 0 1-.312 2.46 6.417 6.417 0 0 1-.934 2.095 4.86 4.86 0 0 1-1.58 1.471c-.637.366-1.389.55-2.256.55a4.98 4.98 0 0 1-1.719-.292 5.325 5.325 0 0 1-1.428-.816 6.448 6.448 0 0 1-1.15-1.225 8.026 8.026 0 0 1-.848-1.514 8.945 8.945 0 0 1-.527-1.676 8.957 8.957 0 0 1-.172-1.74c0-.537.05-1.072.15-1.602.1-.537.249-1.046.442-1.525.193-.48.432-.924.719-1.332.286-.416.616-.77.988-1.062.38-.301.802-.537 1.268-.71a4.37 4.37 0 0 1 1.525-.257zm-18.3.053c.487 0 .73.115.73.344a1.053 1.053 0 0 1-.107.451l-.869 2.02c-.158-.38-.287-.687-.387-.924l-.226-.568c-.05-.15-.086-.27-.108-.356s-.031-.167-.031-.246a.78.78 0 0 1 .043-.248.52.52 0 0 1 .15-.224.857.857 0 0 1 .31-.172c.13-.05.295-.076.495-.076zm57.23 2.59c.057 0 .122.024.193.074a.393.393 0 0 1 .162.215l1.429 3.922a.412.412 0 0 1 .043.193.182.182 0 0 1-.043.118c-.022.028-.072.043-.15.043h-3.224c-.064 0-.107-.01-.129-.032a.174.174 0 0 1-.031-.107.546.546 0 0 1 .043-.215l1.354-3.91a.45.45 0 0 1 .16-.215c.072-.057.136-.086.194-.086zm31.13 9.033c-.23 0-.444.043-.644.129a1.702 1.702 0 0 0-.516.355c-.143.15-.258.325-.344.526s-.129.413-.129.635.043.432.13.632.2.38.343.538c.15.15.322.27.515.355.201.093.416.139.645.139.222 0 .434-.046.635-.139.2-.086.372-.205.515-.355a1.9 1.9 0 0 0 .344-.538 1.596 1.596 0 0 0 0-1.267c-.086-.2-.2-.375-.344-.526a1.597 1.597 0 0 0-1.15-.484zm-36.5 224.8a1.04 1.04 0 0 0-.422.084 1.067 1.067 0 0 0-.649 1c0 .151.027.292.079.422.057.125.133.234.226.328.1.094.214.17.344.227.13.052.27.078.422.078s.292-.026.422-.078a1.089 1.089 0 0 0 .562-.555c.058-.13.086-.27.086-.422s-.028-.292-.086-.422a.922.922 0 0 0-.226-.344 1.026 1.026 0 0 0-.758-.318zm3.43 0a1.04 1.04 0 0 0-.422.084 1.147 1.147 0 0 0-.57.578c-.052.13-.078.271-.078.422s.026.292.078.422c.057.125.135.234.234.328.1.094.211.17.336.227.13.052.27.078.422.078.156 0 .3-.026.43-.078a1.017 1.017 0 0 0 .554-.555c.058-.13.086-.27.086-.422s-.028-.292-.086-.422a1.026 1.026 0 0 0-.984-.662zm-1.461 3.248a7.69 7.69 0 0 0-1.789.203 7.168 7.168 0 0 0-1.578.57 6.239 6.239 0 0 0-1.32.891c-.39.35-.724.737-1 1.164s-.49.888-.64 1.383a5.473 5.473 0 0 0-.22 1.555c0 .61.068 1.16.204 1.648.14.49.325.927.554 1.312.235.38.506.716.813 1.008.307.287.63.537.969.75.343.208.692.38 1.047.516s.692.244 1.016.328a6.652 6.652 0 0 0 1.586.219 6.517 6.517 0 0 0 3.304-.883 6.55 6.55 0 0 0 1.267-.985c.38-.375.703-.78.968-1.219.266-.442.469-.903.61-1.383a5.218 5.218 0 0 0-.008-2.96 5.403 5.403 0 0 0-.617-1.353 5.647 5.647 0 0 0-.954-1.133 5.892 5.892 0 0 0-1.21-.867 6.008 6.008 0 0 0-1.43-.562 6.041 6.041 0 0 0-1.57-.203zm-127.3.213c-.287 0-.594.005-.922.016-.323.005-.65.013-.984.023l-.993.031c-.322.01-.627.018-.914.024-.198.005-.351.01-.46.015-.11 0-.193.003-.25.008h-.149c-.031.005-.05.016-.055.031a.07.07 0 0 0-.007.032v.343c0 .01.002.024.007.04.01.015.029.023.055.023h.297c.047 0 .135.01.266.031.135.016.273.063.414.14.145.074.273.186.382.337s.165.357.165.617v7.938c0 .23-.06.422-.18.578-.115.151-.32.26-.617.328-.026.005-.07.016-.133.031l-.203.032-.211.03a1.1 1.1 0 0 1-.149.016c-.03 0-.049.009-.054.03a.125.125 0 0 0-.008.031v.096c0 .062.003.13.008.203.01.073.028.11.054.11h5.508c.026 0 .042-.009.047-.024a.076.076 0 0 0 .016-.04v-.343a.128.128 0 0 0-.008-.04c-.005-.015-.023-.023-.055-.023a1.2 1.2 0 0 1-.171-.015l-.211-.031a3.189 3.189 0 0 0-.196-.04l-.132-.023a2.764 2.764 0 0 1-.508-.11 1.078 1.078 0 0 1-.336-.179.678.678 0 0 1-.18-.273 1.113 1.113 0 0 1-.055-.368v-3.328c0-.03.003-.052.008-.062a.088.088 0 0 1 .032-.031.146.146 0 0 1 .078-.016h.062l1.22.086c.119.161.252.357.398.586a148.096 148.096 0 0 1 .945 1.562c.172.276.344.545.515.805.178.255.352.495.524.719.172.224.34.409.508.555.172.156.382.286.632.39.256.104.524.188.805.25.281.068.56.115.836.14.281.032.531.048.75.048a.378.378 0 0 0 .195-.04c.042-.025.063-.078.063-.156a.11.11 0 0 0-.016-.062c-.005-.021-.028-.037-.07-.047a2.248 2.248 0 0 1-.945-.547 4.846 4.846 0 0 1-.711-.883l-2.367-3.75c.265-.12.51-.258.734-.414.23-.156.425-.336.586-.539.167-.208.297-.445.39-.71.094-.272.141-.579.141-.923 0-.53-.112-1-.336-1.406a3.176 3.176 0 0 0-.851-1.016 3.66 3.66 0 0 0-1.156-.625 4.008 4.008 0 0 0-1.258-.21h-.79zm86.09 0c-.286 0-.594.005-.922.016-.323.005-.65.013-.984.023l-.992.031c-.323.01-.628.018-.915.024-.198.005-.351.01-.46.015-.11 0-.193.003-.25.008h-.148c-.032.005-.05.016-.056.031a.07.07 0 0 0-.007.032v.343c0 .01.002.024.007.04.01.015.029.023.055.023h.297c.047 0 .135.01.266.031.135.016.273.063.414.14.145.074.273.186.382.337.11.15.165.357.165.617v7.938c0 .23-.06.422-.18.578-.115.151-.32.26-.617.328-.026.005-.07.016-.133.031l-.203.032-.211.03a1.1 1.1 0 0 1-.149.016c-.03 0-.049.009-.054.03a.125.125 0 0 0-.008.031v.096c0 .062.003.13.008.203.01.073.028.11.054.11h5.508c.026 0 .042-.009.047-.024a.076.076 0 0 0 .016-.04v-.343a.124.124 0 0 0-.008-.04c-.005-.015-.023-.023-.055-.023a1.2 1.2 0 0 1-.171-.015l-.211-.031a3.193 3.193 0 0 0-.196-.04l-.132-.023a2.764 2.764 0 0 1-.508-.11 1.078 1.078 0 0 1-.336-.179.678.678 0 0 1-.18-.273 1.112 1.112 0 0 1-.055-.368v-3.328a.16.16 0 0 1 .008-.062c.005-.01.016-.021.032-.031s.041-.016.078-.016h.062l1.22.086c.119.161.252.357.398.586a148.096 148.096 0 0 1 .945 1.562c.172.276.344.545.515.805.178.255.352.495.524.719.172.224.341.409.508.555.172.156.382.286.632.39.256.104.524.188.805.25.281.068.56.115.836.14.281.032.531.048.75.048a.378.378 0 0 0 .195-.04c.042-.025.063-.078.063-.156a.111.111 0 0 0-.016-.062c-.005-.021-.028-.037-.07-.047a2.248 2.248 0 0 1-.945-.547 4.846 4.846 0 0 1-.711-.883l-2.367-3.75c.265-.12.51-.258.734-.414.23-.156.425-.336.586-.539.167-.208.297-.445.39-.71.094-.272.141-.579.141-.923 0-.53-.112-1-.336-1.406a3.176 3.176 0 0 0-.851-1.016 3.66 3.66 0 0 0-1.156-.625 4.008 4.008 0 0 0-1.258-.21h-.79zm-23.41.021c-.302 0-.63.003-.984.008-.35 0-.675.005-.977.01l-3.211.055h-.172c-.031 0-.05.01-.055.031a.125.125 0 0 0-.007.031v.336c0 .005.002.018.007.04.006.015.024.023.055.023h.5c.115 0 .237.015.367.046.13.032.248.084.352.157.11.067.198.159.266.273.072.11.109.245.109.406v8.328c0 .214-.055.383-.164.508-.104.12-.232.211-.383.273a1.805 1.805 0 0 1-.469.11c-.161.01-.297.016-.406.016h-.172c-.031 0-.05.008-.055.029a.125.125 0 0 0-.007.031v.336c0 .005.002.018.007.039.006.016.024.023.055.023h6.399a6.71 6.71 0 0 0 1.586-.187 6.91 6.91 0 0 0 1.46-.547c.459-.24.878-.529 1.259-.867.385-.344.716-.727.992-1.148a5.392 5.392 0 0 0 .89-2.993 4.85 4.85 0 0 0-.312-1.711 5.393 5.393 0 0 0-.852-1.523 5.235 5.235 0 0 0-1.289-1.172 4.643 4.643 0 0 0-1.609-.664 14.929 14.929 0 0 0-.82-.149 11.938 11.938 0 0 0-.727-.086 8.613 8.613 0 0 0-.75-.046 23.02 23.02 0 0 0-.882-.016zm-51.25.094c-.02 0-.031.013-.031.04 0 .025.013.067.039.124a.272.272 0 0 1 .047.133.07.07 0 0 1-.008.031v.008l-3.141 9.11c-.089.26-.198.465-.328.616-.13.146-.266.258-.406.336a1.426 1.426 0 0 1-.407.149 3.8 3.8 0 0 1-.343.039c-.042 0-.063.02-.063.062v.305c0 .042.02.062.063.062h4.227c.026 0 .041-.007.046-.023a.076.076 0 0 0 .016-.04v-.304a.076.076 0 0 0-.016-.039c-.005-.015-.02-.023-.046-.023h-.204a3 3 0 0 1-.859-.133 1.542 1.542 0 0 1-.39-.203.683.683 0 0 1-.227-.328l-.016-.047a.23.23 0 0 1-.008-.055v-.016c.006-.015.016-.049.032-.101l.093-.266c.042-.12.1-.289.172-.508.078-.218.175-.494.29-.828a714.93 714.93 0 0 1 .445-1.304.57.57 0 0 1 .195-.211.303.303 0 0 1 .172-.047h2.82c.062 0 .115.016.156.047a.365.365 0 0 1 .11.11.294.294 0 0 1 .062.109l.031.07 1.023 2.82a.524.524 0 0 1-.086.438.812.812 0 0 1-.257.218 1.644 1.644 0 0 1-.352.125 4.89 4.89 0 0 1-.375.063c-.125.01-.242.018-.352.023-.104.005-.185.01-.242.016a.207.207 0 0 0-.047.008h-.062c-.026 0-.044.007-.055.023a.13.13 0 0 0-.008.04v.304c0 .01.003.023.008.039.01.015.029.023.055.023h5.484c.026 0 .041-.008.047-.023a.076.076 0 0 0 .015-.04v-.296a.084.084 0 0 0-.015-.047c-.006-.016-.021-.023-.047-.023-.115 0-.235-.021-.36-.063a2.343 2.343 0 0 1-.297-.117 2.86 2.86 0 0 1-.382-.195 1.295 1.295 0 0 1-.25-.22 1.48 1.48 0 0 1-.164-.28 5.14 5.14 0 0 1-.149-.375l-3.305-9.273c-.01-.026-.026-.042-.047-.047a.269.269 0 0 1-.039-.016h-2.266zm4.727 0c-.042 0-.063.021-.063.063v.304c0 .042.021.063.063.063l.063.01c.036.005.075.013.117.023a1.312 1.312 0 0 1 .265.053c.047.01.107.031.18.062a.903.903 0 0 1 .227.125c.078.052.153.12.226.203.078.079.14.175.188.29l4.07 9.859c.036.114.117.171.242.171h1.148c.12 0 .213-.013.281-.039.068-.026.125-.104.172-.234l3.023-8.172c.089-.234.177-.477.266-.727a4.21 4.21 0 0 1 .32-.71c.13-.225.286-.417.469-.579.187-.166.424-.278.71-.336h.29c.031 0 .05-.005.054-.015a.148.148 0 0 0 .008-.047v-.305a.128.128 0 0 0-.008-.039c-.005-.015-.023-.023-.054-.023h-4.18c-.032 0-.05.008-.055.023a.13.13 0 0 0-.008.04v.304c0 .042.021.062.063.062.03 0 .083.006.156.016s.148.024.226.04a11.146 11.146 0 0 1 .375.054c.214.036.38.122.5.258.12.13.18.286.18.468a.346.346 0 0 1-.039.157 2.54 2.54 0 0 0-.062.156l-2.562 6.922c-.021.057-.05.086-.086.086-.01 0-.021-.005-.032-.016a.129.129 0 0 0-.03-.023.305.305 0 0 1-.016-.04l-2.79-6.765a1.694 1.694 0 0 1-.078-.22 1.04 1.04 0 0 1-.03-.234c0-.187.046-.333.14-.437a.898.898 0 0 1 .36-.242 1.85 1.85 0 0 1 .46-.117c.167-.021.315-.042.445-.063h.118c.026 0 .041-.008.046-.023a.076.076 0 0 0 .016-.04v-.304a.087.087 0 0 0-.008-.04c-.005-.015-.023-.023-.054-.023h-5.312zm23.12 0c-.026 0-.044.008-.055.024a.13.13 0 0 0-.008.039v.344c0 .01.003.023.008.039.01.015.029.023.055.023.078 0 .193.008.344.023.156.016.307.047.453.094.15.042.281.107.39.196a.394.394 0 0 1 .172.335v7.805c0 .183-.007.355-.023.516-.016.161-.047.31-.094.445a1.076 1.076 0 0 1-.187.36.903.903 0 0 1-.32.25.389.389 0 0 1-.133.03l-.196.017a2.69 2.69 0 0 1-.21.007h-.196c-.042 0-.062.021-.062.063v.344c0 .015.007.031.023.047a.08.08 0 0 0 .04.015h4.296c.026 0 .042-.008.047-.023a.076.076 0 0 0 .016-.04v-.343a.07.07 0 0 0-.008-.031c-.01-.021-.029-.03-.055-.03a4.71 4.71 0 0 1-.234-.01 3.814 3.814 0 0 1-.735-.156 1.658 1.658 0 0 1-.36-.18 1.137 1.137 0 0 1-.272-.273.712.712 0 0 1-.102-.383v-6.977c0-.052.013-.078.039-.078.026 0 .047.005.062.016a.274.274 0 0 1 .079.062l7.375 8.18c.135.151.27.248.406.29.14.046.263.07.367.07.062 0 .13-.01.203-.031a.679.679 0 0 0 .211-.079.482.482 0 0 0 .164-.14.399.399 0 0 0 .063-.227v-9.242a.55.55 0 0 1 .164-.39c.114-.115.25-.211.406-.29.156-.078.315-.137.476-.18.167-.04.303-.062.407-.062.026 0 .041-.008.047-.023a.076.076 0 0 0 .015-.04v-.343a.128.128 0 0 0-.008-.039c-.005-.016-.023-.023-.054-.023h-4.297c-.026 0-.045.007-.055.023a.13.13 0 0 0-.008.039v.344c0 .01.003.023.008.039.01.015.029.023.055.023h.398c.26 0 .474.026.64.078a.7.7 0 0 1 .4.329c.098.161.166.398.202.71.037.308.055.72.055 1.234v4.641a.147.147 0 0 1-.008.047c-.005.016-.018.024-.039.024a.053.053 0 0 1-.04-.016.46.46 0 0 0-.054-.062l-6.734-7.453h-3.539zm34.41 0c-.02 0-.031.013-.031.04 0 .025.013.067.039.124a.272.272 0 0 1 .047.133.07.07 0 0 1-.008.031v.008l-3.141 9.11c-.089.26-.198.465-.328.616-.13.146-.266.258-.406.336a1.426 1.426 0 0 1-.407.149 3.8 3.8 0 0 1-.343.039c-.042 0-.063.02-.063.062v.305c0 .042.02.062.063.062h4.227c.026 0 .041-.007.046-.023a.076.076 0 0 0 .016-.04v-.304a.076.076 0 0 0-.016-.039c-.005-.015-.02-.023-.046-.023h-.204a3 3 0 0 1-.859-.133 1.542 1.542 0 0 1-.39-.203.683.683 0 0 1-.227-.328l-.016-.047a.23.23 0 0 1-.008-.055v-.016c.006-.015.016-.049.032-.101l.093-.266c.042-.12.1-.289.172-.508.078-.218.175-.494.29-.828a714.93 714.93 0 0 1 .445-1.304.57.57 0 0 1 .195-.211.303.303 0 0 1 .172-.047h2.82c.062 0 .115.016.156.047a.365.365 0 0 1 .11.11.294.294 0 0 1 .062.109l.031.07 1.023 2.82a.524.524 0 0 1-.086.438.812.812 0 0 1-.257.218 1.644 1.644 0 0 1-.352.125 4.89 4.89 0 0 1-.375.063c-.125.01-.242.018-.352.023-.104.005-.185.01-.242.016a.207.207 0 0 0-.047.008h-.062c-.026 0-.044.007-.055.023a.129.129 0 0 0-.008.04v.304c0 .01.003.023.008.039.01.015.029.023.055.023h5.484c.026 0 .041-.008.047-.023a.076.076 0 0 0 .015-.04v-.296a.084.084 0 0 0-.015-.047c-.006-.016-.021-.023-.047-.023-.115 0-.235-.021-.36-.063a2.343 2.343 0 0 1-.297-.117 2.86 2.86 0 0 1-.382-.195 1.295 1.295 0 0 1-.25-.22 1.48 1.48 0 0 1-.164-.28 5.14 5.14 0 0 1-.149-.375l-3.305-9.273c-.01-.026-.026-.042-.047-.047a.269.269 0 0 1-.039-.016h-2.266zm19.52 0c-.036 0-.055.021-.055.063v.265c0 .042.021.063.063.063.177.01.357.034.539.07.187.037.357.094.508.172.15.073.273.17.367.29a.67.67 0 0 1 .148.444v8.281c0 .178-.05.326-.148.446-.094.12-.216.219-.367.297a2.33 2.33 0 0 1-.508.172 3.256 3.256 0 0 1-.54.062c-.04 0-.062.02-.062.063v.265c0 .042.019.063.055.063h5.297c.026 0 .042-.008.047-.024a.076.076 0 0 0 .015-.039v-.25a.076.076 0 0 0-.015-.039c-.005-.016-.02-.023-.047-.023-.156 0-.323-.008-.5-.024a1.664 1.664 0 0 1-.492-.117.9.9 0 0 1-.367-.29c-.094-.13-.141-.312-.141-.546v-3.305a.27.27 0 0 1 .008-.078c.005-.021.028-.031.07-.031h.149c.218 0 .421.054.609.164.187.11.367.252.539.43.172.171.339.364.5.577.167.209.341.415.523.618.151.172.316.364.493.578.182.213.351.424.507.633.157.203.287.39.391.562.11.172.17.302.18.39 0 .13-.045.225-.133.282a.744.744 0 0 1-.313.11 2.664 2.664 0 0 1-.359.023 1.534 1.534 0 0 0-.281.008c-.042.005-.063.026-.063.062v.266c0 .041.021.062.063.062h5.812c.041 0 .062-.02.062-.062v-.25a.076.076 0 0 0-.015-.04c-.006-.015-.021-.023-.047-.023h-.133c-.036-.005-.086-.008-.148-.014-.063-.01-.146-.028-.25-.048s-.245-.05-.422-.092c-.344-.073-.654-.19-.93-.352s-.505-.375-.687-.64a30.038 30.038 0 0 0-1.062-1.43 22.222 22.222 0 0 0-.899-1.078c-.27-.308-.513-.565-.726-.774a19.274 19.274 0 0 0-.555-.523c-.151-.14-.274-.253-.367-.336a.893.893 0 0 1-.18-.21.422.422 0 0 1 .078-.173 3.85 3.85 0 0 1 .188-.226c.083-.094.184-.211.304-.352.12-.14.263-.326.43-.555.172-.229.367-.51.586-.844.219-.333.466-.734.742-1.203.162-.27.33-.492.508-.664.182-.177.38-.315.594-.414s.448-.169.703-.21a7 7 0 0 1 .867-.079c.031 0 .055-.01.07-.031a.134.134 0 0 0 .024-.063v-.265a.076.076 0 0 0-.016-.04c-.005-.015-.02-.023-.047-.023h-4.75c-.03 0-.05.008-.054.024a.125.125 0 0 0-.008.039v.265c0 .01.002.024.008.04.01.015.028.023.054.023h.078c.105 0 .216.005.336.016.12.01.232.036.336.078.104.036.19.096.258.18a.485.485 0 0 1 .102.328.947.947 0 0 1-.086.382 2.85 2.85 0 0 1-.22.39 7.473 7.473 0 0 1-.28.423c-.105.14-.204.284-.297.43a29.4 29.4 0 0 1-.524.78 7 7 0 0 1-.562.727c-.198.23-.417.44-.656.633-.235.193-.5.357-.797.492a.249.249 0 0 1-.086.032h-.086c-.057 0-.094-.06-.11-.18a4.19 4.19 0 0 1-.023-.508v-3.21c0-.214.05-.386.148-.517.1-.13.224-.231.375-.304.151-.073.313-.123.485-.149a3.41 3.41 0 0 1 .492-.04c.042 0 .062-.016.062-.048v-.265a.076.076 0 0 0-.015-.04c-.005-.015-.021-.023-.047-.023h-5.297zm41.41 0c-.026 0-.044.008-.055.024a.125.125 0 0 0-.007.039v.422c0 .005.002.018.007.039.01.015.029.023.055.023h.172a2.9 2.9 0 0 1 .414.04c.177.025.349.075.516.148.171.067.317.161.437.28a.61.61 0 0 1 .188.462v7.797c0 .203-.045.388-.133.554a1.031 1.031 0 0 1-.406.399 1.285 1.285 0 0 1-.305.117c-.12.031-.237.057-.352.078-.11.016-.208.029-.297.04a3.687 3.687 0 0 1-.148.007h-.188c-.03 0-.049.008-.054.023a.125.125 0 0 0-.008.04v.421c0 .01.002.024.008.04.01.015.028.023.054.023h8.234a.128.128 0 0 0 .094-.04.386.386 0 0 0 .07-.1l1.298-2.548a.208.208 0 0 0 .023-.094c0-.067-.044-.101-.133-.101a.315.315 0 0 0-.125.023l-.086.047a1.25 1.25 0 0 0-.203.235c-.078.104-.167.224-.265.359s-.209.276-.329.422c-.12.146-.25.281-.39.406-.14.12-.294.219-.461.297a1.169 1.169 0 0 1-.516.117h-2.734a.401.401 0 0 1-.28-.117.41.41 0 0 1-.142-.25v-8.195c0-.234.016-.398.047-.492.037-.1.115-.17.235-.211a4.49 4.49 0 0 1 1.422-.227h.336c.025 0 .041-.007.046-.023a.076.076 0 0 0 .016-.04v-.421a.076.076 0 0 0-.016-.04c-.005-.015-.02-.023-.046-.023h-5.992zm10.8 0c-.031 0-.05.008-.055.024a.125.125 0 0 0-.007.039v.344c0 .041.02.062.062.062a1.336 1.336 0 0 1 .578.187c.11.063.203.141.281.235a.457.457 0 0 1 .118.312v.29c0 .604-.016 1.205-.047 1.804-.032.6-.068 1.206-.11 1.82-.041.61-.086 1.232-.133 1.867-.041.63-.078 1.281-.109 1.953-.01.23-.026.443-.047.641-.02.198-.078.37-.172.516a.9.9 0 0 1-.422.336c-.187.078-.453.117-.797.117-.026 0-.044.008-.054.023a.125.125 0 0 0-.008.04l.002.343c0 .042.02.063.062.063h3.883c.032 0 .047-.021.047-.063v-.344a.124.124 0 0 0-.008-.039c0-.015-.013-.023-.039-.023-.166 0-.325-.013-.476-.04s-.29-.064-.414-.116a1.031 1.031 0 0 1-.313-.196.502.502 0 0 1-.156-.265v-.32c0-.22.008-.498.023-.837.016-.343.037-.713.063-1.109l.078-1.227c.026-.421.05-.82.076-1.195.026-.38.047-.721.063-1.023s.023-.53.023-.687c0-.068.018-.102.055-.102.02 0 .034.01.039.032a.49.49 0 0 1 .04.078l3.329 7.336c.031.073.091.114.18.125.093.01.234.015.422.015a.727.727 0 0 0 .226-.023c.047-.016.083-.052.11-.11l3.422-7.405c.02-.047.041-.07.062-.07.02 0 .034.025.04.077l.358 6.383a.484.484 0 0 1-.148.368 1.001 1.001 0 0 1-.367.203 2.19 2.19 0 0 1-.461.093c-.156.01-.297.016-.422.016-.042 0-.062.02-.062.062v.344c0 .042.02.063.062.063h5.141c.026 0 .042-.008.047-.024a.076.076 0 0 0 .016-.039v-.344a.076.076 0 0 0-.016-.039c-.005-.015-.02-.023-.047-.023h-.125a4.03 4.03 0 0 1-.273-.031 7.382 7.382 0 0 1-.344-.078 1.46 1.46 0 0 1-.344-.157 1.018 1.018 0 0 1-.281-.257.697.697 0 0 1-.117-.383l-.453-8.32c0-.182.054-.328.164-.438.11-.114.229-.2.36-.257.134-.063.257-.105.366-.125.115-.021.177-.032.188-.032.026 0 .041-.008.047-.023a.076.076 0 0 0 .015-.04v-.343a.137.137 0 0 0-.01-.04c-.005-.015-.023-.023-.054-.023h-2.75c-.052 0-.104.03-.156.086a.94.94 0 0 0-.157.227l-3.359 7.43a.28.28 0 0 1-.062.102c-.026.026-.068.039-.125.039-.057 0-.104-.045-.14-.133l-3.399-7.578a.415.415 0 0 0-.101-.11.291.291 0 0 0-.14-.062h-2.767zm-116.3.002c-.026 0-.044.008-.055.024a.13.13 0 0 0-.008.039v.304c0 .01.003.024.008.04.01.015.029.023.055.023h.164c.177.026.352.06.524.101.171.037.325.094.46.172a.943.943 0 0 1 .329.313.875.875 0 0 1 .125.492v8c0 .292-.06.508-.18.648a.985.985 0 0 1-.461.29c-.188.052-.396.08-.625.086-.23 0-.453.007-.672.023h-.172c-.031 0-.05.008-.055.03a.125.125 0 0 0-.007.03v.336c0 .006.002.02.007.041.006.016.024.022.055.022h9.055a.073.073 0 0 0 .063-.03.31.31 0 0 0 .046-.078l.258-2.859c0-.026-.018-.049-.054-.07a.198.198 0 0 0-.094-.031.324.324 0 0 0-.195.062.216.216 0 0 0-.102.157 3.163 3.163 0 0 1-.117.547 2.269 2.269 0 0 1-.274.617 1.76 1.76 0 0 1-.492.508c-.203.135-.456.203-.758.203h-2.133c-.114 0-.224-.008-.328-.024s-.198-.047-.281-.094a.507.507 0 0 1-.187-.203.824.824 0 0 1-.07-.367v-3.414c0-.052.025-.078.077-.078h2.211c.14 0 .274.018.399.055a.69.69 0 0 1 .344.203c.099.099.177.24.234.422.062.177.094.411.094.703 0 .01.002.023.008.039.01.015.028.023.054.023h.305c.01 0 .023-.002.039-.008.016-.01.023-.028.023-.054v-3.578c0-.042-.02-.063-.062-.063h-.305c-.041 0-.062.021-.062.063 0 .25-.032.455-.094.617a.895.895 0 0 1-.234.367.792.792 0 0 1-.336.188 1.571 1.571 0 0 1-.383.047h-2.234c-.052 0-.078-.026-.078-.079v-3.727c0-.067.034-.101.101-.101h2.79a.99.99 0 0 1 .445.18.95.95 0 0 1 .28.296c.069.115.118.24.15.375.036.136.062.266.077.391.021.125.04.24.055.344a.547.547 0 0 0 .078.226c.016.021.044.037.086.047a.514.514 0 0 0 .242 0c.047-.015.07-.036.07-.062l-.14-2.5c-.01-.115-.036-.188-.078-.219-.042-.036-.11-.055-.203-.055h-7.781zm77.39 0c-.036 0-.055.021-.055.063v.422c0 .041.021.062.063.062.177.01.338.032.484.068.146.037.271.094.375.172a.73.73 0 0 1 .242.29c.058.12.086.268.086.445v7.828c0 .25-.044.448-.132.594a.885.885 0 0 1-.329.335 1.3 1.3 0 0 1-.453.157 3.93 3.93 0 0 1-.484.03c-.026 0-.044.009-.055.024a.125.125 0 0 0-.008.04v.421c0 .01.003.024.008.04.01.015.029.023.055.023v.002h5.016c.026 0 .041-.008.047-.024a.125.125 0 0 0 .008-.039v-.422a.124.124 0 0 0-.008-.039c-.005-.015-.024-.023-.055-.023a2.79 2.79 0 0 1-.515-.047 1.454 1.454 0 0 1-.446-.156.799.799 0 0 1-.422-.734v-3.454c0-.052.008-.086.024-.101.015-.016.05-.024.101-.024h5.453c.052 0 .086.008.102.024.016.015.023.05.023.101v3.375c0 .23-.075.412-.226.547-.146.13-.326.232-.54.305a2.982 2.982 0 0 1-.648.133c-.224.02-.414.031-.57.031-.026 0-.044.008-.055.023a.125.125 0 0 0-.007.04v.421c0 .01.002.024.007.04.01.015.029.023.055.023h5.672c.042 0 .063-.02.063-.063v-.422c0-.041-.021-.062-.063-.062-.349-.01-.62-.055-.812-.133-.188-.078-.323-.174-.407-.289a1.244 1.244 0 0 1-.187-.312 1.157 1.157 0 0 1-.055-.368v-7.734c0-.234.034-.422.102-.562a.862.862 0 0 1 .28-.336c.12-.078.254-.13.4-.156.15-.031.304-.047.46-.047.042 0 .063-.016.063-.047v-.422a.076.076 0 0 0-.016-.039c-.005-.016-.02-.023-.047-.023h-5.21c-.037 0-.055.02-.055.062v.422c0 .042.02.063.062.063.172.01.36.033.563.07.203.031.39.083.562.156.177.068.323.162.438.281s.171.271.171.453v3.344c0 .052-.007.086-.023.102s-.05.023-.102.023h-5.453c-.052 0-.086-.007-.101-.023-.016-.016-.024-.05-.024-.102v-3.219c0-.234.034-.422.102-.562a.83.83 0 0 1 .266-.336.93.93 0 0 1 .382-.156 2.11 2.11 0 0 1 .453-.047c.042 0 .063-.016.063-.047v-.422a.081.081 0 0 0-.016-.04c-.005-.017-.02-.022-.047-.022h-4.625zm53.91 0c-.026 0-.044.008-.055.024a.125.125 0 0 0-.007.039v.304c0 .01.002.024.007.04.01.015.029.023.055.023h.164c.177.026.352.06.524.101.171.037.325.094.46.172a.943.943 0 0 1 .329.313.875.875 0 0 1 .125.492v8c0 .292-.06.508-.18.648a.985.985 0 0 1-.461.29c-.188.052-.396.08-.625.086-.23 0-.453.007-.672.023h-.172c-.031 0-.05.008-.055.03a.12.12 0 0 0-.007.03v.336c0 .006.002.02.007.041.006.016.024.022.055.022h9.055a.073.073 0 0 0 .063-.03.308.308 0 0 0 .046-.078l.258-2.859c0-.026-.018-.049-.054-.07a.198.198 0 0 0-.094-.031.324.324 0 0 0-.195.062.216.216 0 0 0-.102.157 3.169 3.169 0 0 1-.117.547 2.269 2.269 0 0 1-.274.617 1.76 1.76 0 0 1-.492.508c-.203.135-.456.203-.758.203h-2.133c-.114 0-.224-.008-.328-.024a.814.814 0 0 1-.281-.094.507.507 0 0 1-.187-.203.824.824 0 0 1-.07-.367v-3.414c0-.052.025-.078.077-.078h2.211c.14 0 .274.018.399.055a.69.69 0 0 1 .344.203c.099.099.177.24.234.422.062.177.094.411.094.703 0 .01.002.023.008.039.01.015.028.023.054.023h.305c.01 0 .023-.002.039-.008.016-.01.023-.028.023-.054v-3.578c0-.042-.02-.063-.062-.063h-.305c-.041 0-.062.021-.062.063 0 .25-.032.455-.094.617a.895.895 0 0 1-.234.367.792.792 0 0 1-.336.188 1.571 1.571 0 0 1-.383.047h-2.234c-.052 0-.078-.026-.078-.079v-3.727c0-.067.034-.101.101-.101h2.79a.99.99 0 0 1 .445.18.95.95 0 0 1 .28.296c.069.115.118.24.15.375.036.136.062.266.077.391.021.125.04.24.055.344a.546.546 0 0 0 .078.226c.016.021.044.037.086.047a.515.515 0 0 0 .242 0c.047-.015.07-.036.07-.062l-.14-2.5c-.01-.115-.036-.188-.078-.219-.042-.036-.11-.055-.203-.055h-7.781zm-160.5.397c.328 0 .628.067.898.203.276.135.51.317.704.547.197.229.351.5.46.812s.165.643.165.992c0 .334-.034.654-.102.961a2.11 2.11 0 0 1-.352.82c-.172.235-.406.422-.703.563s-.674.211-1.133.211c-.166 0-.297-.005-.39-.016a4.676 4.676 0 0 0-.211-.03c-.058-.006-.097-.024-.117-.056a.431.431 0 0 1-.032-.117l-.015-.232v-4.5c0-.058.023-.091.07-.102a.462.462 0 0 1 .125-.023c.088-.006.156-.008.203-.008a1.33 1.33 0 0 1 .133-.008.984.984 0 0 1 .125-.008c.042-.005.099-.01.172-.01zm86.09 0c.328 0 .628.067.898.203.276.135.51.317.703.547.198.229.352.5.461.812.11.313.165.643.165.992 0 .334-.034.654-.102.961a2.11 2.11 0 0 1-.352.82 1.812 1.812 0 0 1-.703.563c-.297.14-.674.211-1.133.211-.166 0-.297-.005-.39-.016a4.678 4.678 0 0 0-.211-.03c-.058-.006-.097-.024-.117-.056a.442.442 0 0 1-.032-.117l-.015-.232v-4.5c0-.058.023-.091.07-.102a.462.462 0 0 1 .125-.023c.088-.006.156-.008.203-.008a1.33 1.33 0 0 1 .133-.008.984.984 0 0 1 .125-.008c.042-.005.099-.01.172-.01zm40.73.03c.448 0 .862.069 1.242.204a3.6 3.6 0 0 1 1.047.555c.318.24.596.523.836.851a4.8 4.8 0 0 1 .61 1.07c.166.386.291.795.374 1.227.089.427.133.865.133 1.312a7.06 7.06 0 0 1-.226 1.79 4.652 4.652 0 0 1-.68 1.522c-.302.443-.685.8-1.148 1.07-.464.266-1.01.399-1.641.399a3.62 3.62 0 0 1-1.25-.211 3.87 3.87 0 0 1-1.04-.594 4.692 4.692 0 0 1-.835-.89 5.845 5.845 0 0 1-.617-1.103 6.49 6.49 0 0 1-.383-1.219 6.518 6.518 0 0 1-.125-1.266 6.245 6.245 0 0 1 .43-2.273c.14-.349.315-.671.523-.968a3.52 3.52 0 0 1 .719-.774c.276-.219.583-.39.922-.515s.708-.188 1.109-.188zm-65.38.081h1.891c.734 0 1.37.12 1.906.36.542.239.99.575 1.344 1.007.36.433.625.948.797 1.547.177.6.266 1.258.266 1.977 0 1.635-.388 2.88-1.164 3.734-.771.855-1.93 1.281-3.477 1.281-.235 0-.459-.004-.672-.01a2.895 2.895 0 0 1-.563-.062.976.976 0 0 1-.383-.187.446.446 0 0 1-.14-.352v-9.084c0-.073.013-.125.039-.156.026-.037.078-.055.156-.055zm-49.23 1.842c.042 0 .089.018.14.055a.285.285 0 0 1 .118.156l1.039 2.852c.01.026.018.05.023.07s.008.044.008.07c0 .032-.01.06-.031.086-.016.021-.052.032-.11.032H26.62c-.046 0-.078-.008-.093-.024a.126.126 0 0 1-.024-.078.399.399 0 0 1 .031-.156l.985-2.844a.328.328 0 0 1 .117-.156c.052-.042.099-.063.14-.063zm62.26 0c.042 0 .089.018.14.055a.285.285 0 0 1 .118.156l1.039 2.852c.01.026.018.05.023.07a.29.29 0 0 1 .008.07c0 .032-.01.06-.031.086-.016.021-.052.032-.11.032H88.88c-.046 0-.078-.008-.093-.024a.126.126 0 0 1-.024-.078.399.399 0 0 1 .031-.156l.985-2.844a.328.328 0 0 1 .117-.156c.052-.042.099-.063.14-.063z"/>
</svg>
