<?xml version="1.0" encoding="UTF-8"?>
<svg class="picture" version="1.1" viewBox="0 0 196 296" xmlns="http://www.w3.org/2000/svg">
  <path id="paper" d="M0 0v296h196V0zm13 57h169v204H13z" fill="#fff5e7"/>
  <path id="border" d="M12 55v207h172V55zm3 3h166v201H15z"/>
  <path id="text" d="m99.09 11.34c-0.5469 0-1.07 0.05924-1.566 0.1777-0.4967 0.1185-0.957 0.2839-1.381 0.498s-0.8079 0.474-1.154 0.7793c-0.3418 0.3053-0.6335 0.6458-0.875 1.02-0.2415 0.3737-0.4284 0.776-0.5605 1.209-0.1276 0.4329-0.1914 0.8874-0.1914 1.361 0 0.5332 0.05924 1.013 0.1777 1.441 0.123 0.4284 0.2839 0.8112 0.4844 1.148 0.2051 0.3327 0.4421 0.6276 0.7109 0.8828 0.2689 0.2507 0.5514 0.4694 0.8477 0.6562 0.3008 0.1823 0.6061 0.3327 0.916 0.4512s0.6061 0.2142 0.8887 0.2871c0.2871 0.07292 0.5501 0.1231 0.7871 0.1504 0.2415 0.02735 0.4421 0.04102 0.6016 0.04102 0.5423 0 1.057-0.06836 1.545-0.2051 0.4876-0.1367 0.9356-0.3268 1.346-0.5684 0.4102-0.2461 0.7793-0.5332 1.107-0.8613 0.3327-0.3281 0.6152-0.6836 0.8477-1.066 0.2324-0.3874 0.4102-0.7897 0.5332-1.209 0.123-0.4238 0.1856-0.8509 0.1856-1.279 0-0.4557-0.06381-0.8932-0.1914-1.312-0.1276-0.4238-0.3086-0.8171-0.541-1.182-0.2324-0.3646-0.5104-0.696-0.834-0.9922-0.319-0.2962-0.6712-0.5482-1.059-0.7578-0.3874-0.2142-0.8053-0.3783-1.252-0.4922-0.4421-0.1185-0.8991-0.1777-1.373-0.1777zm24.67 0c-0.2096 0-0.4251 0.02279-0.6484 0.06836-0.2188 0.04557-0.4362 0.1139-0.6504 0.2051-0.2142 0.08659-0.416 0.196-0.6074 0.3281-0.1868 0.1276-0.3509 0.2734-0.4922 0.4375-0.1413 0.1641-0.2552 0.3464-0.3418 0.5469-0.08204 0.2005-0.123 0.416-0.123 0.6484 0 0.3828 0.0638 0.7279 0.1914 1.033 0.1322 0.3053 0.3021 0.5833 0.5117 0.834s0.4499 0.4798 0.7188 0.6895c0.2689 0.2051 0.5436 0.4043 0.8262 0.5957 0.2825 0.1914 0.5592 0.3796 0.8281 0.5664 0.2689 0.1868 0.5072 0.3861 0.7168 0.5957 0.2096 0.2051 0.3782 0.4284 0.5059 0.6699 0.1322 0.2415 0.1992 0.5104 0.1992 0.8066 0 0.515-0.1367 0.8887-0.4102 1.121-0.2689 0.2324-0.6471 0.3477-1.135 0.3477-0.2871 0-0.5423-0.02279-0.7656-0.06836s-0.4238-0.1185-0.6016-0.2188c-0.1777-0.1048-0.3372-0.2415-0.4785-0.4102-0.1367-0.1732-0.2643-0.3841-0.3828-0.6348-0.00913-0.0319-0.03189-0.08529-0.06836-0.1582-0.03189-0.07292-0.07291-0.1458-0.123-0.2188-0.04559-0.07292-0.09572-0.1367-0.1504-0.1914-0.0501-0.05469-0.09893-0.08203-0.1445-0.08203-0.06377 0-0.1185 0.0306-0.1641 0.08984-0.0456 0.05925-0.06836 0.1139-0.06836 0.1641v0.07422c0.00453 0.0319 0.01235 0.1081 0.02149 0.2266l0.06054 0.5332c0.02734 0.237 0.06706 0.5697 0.1172 0.998 0.01365 0.0957 0.05011 0.1426 0.1094 0.1426l0.4375-0.06836c0.01367-0.004534 0.03322-0.00586 0.06055-0.00586 0.07747 0 0.1732 0.02279 0.2871 0.06836 0.1139 0.04557 0.2539 0.097 0.418 0.1562 0.1686 0.05469 0.3659 0.1048 0.5938 0.1504 0.2324 0.04557 0.5046 0.06836 0.8144 0.06836 0.2461 0 0.4967-0.02409 0.752-0.07422 0.2598-0.05013 0.5104-0.123 0.752-0.2188 0.2461-0.1003 0.4753-0.2233 0.6894-0.3691 0.2142-0.1458 0.401-0.3132 0.5606-0.5 0.1595-0.1914 0.2858-0.4023 0.377-0.6348 0.09571-0.2324 0.1426-0.4831 0.1426-0.752 0-0.4056-0.06511-0.7702-0.1973-1.094-0.1276-0.3236-0.2995-0.6185-0.5137-0.8828-0.2096-0.2643-0.4512-0.5059-0.7246-0.7246-0.2689-0.2188-0.5436-0.4238-0.8262-0.6152-0.278-0.196-0.5547-0.3874-0.8281-0.5742-0.2689-0.1868-0.5104-0.3783-0.7246-0.5742-0.2096-0.2005-0.3796-0.4115-0.5117-0.6348-0.1276-0.2279-0.1914-0.4818-0.1914-0.7598 0-0.1914 0.0319-0.3555 0.09571-0.4922 0.06835-0.1367 0.1595-0.2474 0.2734-0.334 0.1139-0.09115 0.2474-0.1582 0.4024-0.1992s0.3223-0.06055 0.5-0.06055c0.4102 0 0.7852 0.08333 1.127 0.252 0.3418 0.1641 0.623 0.4147 0.8418 0.752 0.02733 0.04102 0.05141 0.08984 0.07421 0.1445 0.02734 0.05469 0.05338 0.1094 0.07618 0.1641 0.0228 0.05013 0.04234 0.097 0.06054 0.1426 0.0228 0.04101 0.04102 0.06836 0.05469 0.08203 0.00913 0.009113 0.04104 0.01823 0.0957 0.02734 0.0547 0.004534 0.09572 0.007813 0.123 0.007813 0.03188 0 0.07745-0.004559 0.1367-0.01367s0.08984-0.02604 0.08984-0.04883l-0.1992-1.605c-0.00453-0.02735-0.01367-0.05794-0.02734-0.08984-0.00913-0.03646-0.03322-0.05469-0.07422-0.05469l-0.4512 0.04102c-0.1641-0.04101-0.3314-0.08333-0.5-0.1289-0.1686-0.05013-0.3372-0.0957-0.5059-0.1367-0.1641-0.04102-0.3327-0.07618-0.5059-0.1035-0.1686-0.0319-0.3372-0.04688-0.5059-0.04688zm-84.2 0.2871c-0.0319 0-0.04883 0.01823-0.04883 0.05469v0.3691c0 0.03646 0.01823 0.05469 0.05469 0.05469 0.1549 0.009113 0.2962 0.02865 0.4238 0.06055s0.237 0.08203 0.3281 0.1504c0.09114 0.0638 0.1628 0.1491 0.2129 0.2539s0.07422 0.2337 0.07422 0.3887v6.85c0 0.2188-0.03776 0.3919-0.1152 0.5195-0.07292 0.1276-0.1686 0.2266-0.2871 0.2949-0.1185 0.06836-0.2507 0.1139-0.3965 0.1367-0.1413 0.01823-0.2826 0.02734-0.4238 0.02734-0.02279 0-0.03971 0.005858-0.04883 0.01953-0.004533 0.01367-0.005859 0.02604-0.005859 0.03516v0.3691c0 0.009113 0.001326 0.01953 0.005859 0.0332 0.009114 0.01367 0.02604 0.02148 0.04883 0.02148h4.389c0.02281 0 0.03648-0.007811 0.04102-0.02148 0.004533-0.01367 0.005859-0.02409 0.005859-0.0332v-0.3691c0-0.009113-0.001326-0.02148-0.005859-0.03516-0.004553-0.01367-0.02148-0.01953-0.04883-0.01953-0.1549 0-0.3053-0.01367-0.4512-0.04102s-0.2747-0.07292-0.3887-0.1367c-0.1094-0.0638-0.1992-0.1491-0.2676-0.2539-0.06836-0.1048-0.1016-0.2337-0.1016-0.3887v-3.021c0-0.04557 0.005857-0.07617 0.01953-0.08984 0.01367-0.01367 0.04427-0.01953 0.08984-0.01953h4.771c0.04557 0 0.07422 0.005857 0.08789 0.01953 0.01367 0.01367 0.02148 0.04427 0.02148 0.08984v2.953c0 0.2005-0.06706 0.36-0.1992 0.4785-0.1276 0.1139-0.2839 0.2018-0.4707 0.2656-0.1823 0.05925-0.3724 0.09896-0.5684 0.1172-0.196 0.01823-0.3613 0.02734-0.498 0.02734-0.02279 0-0.03972 0.005858-0.04883 0.01953-0.004534 0.01367-0.00586 0.02604-0.00586 0.03516v0.3691c0 0.009113 0.001326 0.01953 0.00586 0.0332 0.009113 0.01367 0.02604 0.02148 0.04883 0.02148h4.963c0.03646 0 0.05469-0.01823 0.05469-0.05469v-0.3691c0-0.03646-0.01823-0.05469-0.05469-0.05469-0.3053-0.009114-0.5423-0.04883-0.7109-0.1172-0.1641-0.06836-0.2826-0.1517-0.3555-0.252-0.07292-0.09115-0.1276-0.1823-0.1641-0.2734-0.0319-0.0957-0.04883-0.2038-0.04883-0.3223v-6.768c-1e-6 -0.2051 0.0306-0.3691 0.08984-0.4922 0.0638-0.1276 0.1458-0.2246 0.2461-0.293 0.1048-0.06836 0.2201-0.1139 0.3477-0.1367 0.1322-0.02735 0.2676-0.04102 0.4043-0.04102 0.03646 0 0.05469-0.01368 0.05469-0.04102v-0.3691c0-0.009114-0.004559-0.02148-0.01367-0.03516-0.004554-0.01367-0.01823-0.01953-0.04102-0.01953h-4.561c-0.0319 0-0.04688 0.01823-0.04688 0.05469v0.3691c0 0.03646 0.01823 0.05469 0.05469 0.05469 0.1504 0.009113 0.3145 0.02865 0.4922 0.06055 0.1777 0.02734 0.3418 0.07292 0.4922 0.1367 0.1549 0.05925 0.2826 0.1413 0.3828 0.2461 0.1003 0.1048 0.1504 0.237 0.1504 0.3965v2.926c0 0.04557-0.007811 0.07617-0.02148 0.08984-0.01367 0.01367-0.04232 0.01953-0.08789 0.01953h-4.771c-0.04557 0-0.07617-0.005858-0.08984-0.01953-0.01367-0.01367-0.01953-0.04427-0.01953-0.08984v-2.816c0-0.2051 0.02864-0.3691 0.08789-0.4922 0.05924-0.1276 0.1367-0.2246 0.2324-0.293 0.0957-0.06836 0.2083-0.1139 0.3359-0.1367 0.1276-0.02735 0.2598-0.04102 0.3965-0.04102 0.03646 0 0.05469-0.01368 0.05469-0.04102v-0.3691c0-0.009114-0.004558-0.02148-0.01367-0.03516-0.00456-0.01367-0.01823-0.01953-0.04102-0.01953h-4.047zm15.77 0c-0.01823 0-0.02734 0.01042-0.02734 0.0332 0 0.02278 0.01042 0.05924 0.0332 0.1094 0.02735 0.04557 0.04297 0.08529 0.04297 0.1172 0 0.009113-0.003279 0.01823-0.007812 0.02734v0.00586l-2.748 7.971c-0.07747 0.2279-0.1732 0.4089-0.2871 0.541-0.1139 0.1276-0.2324 0.2246-0.3555 0.293-0.1185 0.0638-0.237 0.1081-0.3555 0.1309-0.1139 0.01825-0.2142 0.02867-0.3008 0.0332-0.03646 0-0.05469 0.01823-0.05469 0.05469v0.2676c0 0.03646 0.01823 0.05469 0.05469 0.05469h3.697c0.02281 0 0.03648-0.007811 0.04102-0.02148 0.009113-0.01367 0.01367-0.02409 0.01367-0.0332v-0.2676c0-0.009113-0.004559-0.01953-0.01367-0.0332-0.00456-0.01367-0.01823-0.02148-0.04102-0.02148h-0.1777c-0.1048 0-0.2246-0.009117-0.3613-0.02734-0.1322-0.01823-0.263-0.04688-0.3906-0.08789-0.1276-0.04557-0.2415-0.1048-0.3418-0.1777-0.0957-0.07747-0.1608-0.1732-0.1973-0.2871-0.00458-0.01367-0.009138-0.02734-0.01367-0.04102-0.004533-0.01823-0.007812-0.03516-0.007812-0.04883v-0.01367c0.004553-0.01367 0.01367-0.04232 0.02734-0.08789 0.01823-0.05013 0.04557-0.1276 0.08203-0.2324s0.08659-0.2539 0.1504-0.4453c0.06836-0.1914 0.1536-0.4329 0.2539-0.7246 0.1003-0.2962 0.2233-0.6576 0.3691-1.086 0-0.00456 0.005858-0.02279 0.01953-0.05469 0.01823-0.0319 0.04101-0.0638 0.06836-0.0957 0.02735-0.03191 0.0625-0.0625 0.1035-0.08984 0.04101-0.02735 0.09114-0.04102 0.1504-0.04102h2.467c0.05469 0 0.1003 0.01367 0.1367 0.04102 0.04101 0.02734 0.07292 0.05924 0.0957 0.0957 0.02735 0.0319 0.04557 0.0638 0.05469 0.0957 0.01369 0.0319 0.02281 0.05339 0.02734 0.0625l0.8965 2.467c0.009113 0.03645 0.01367 0.06836 0.01367 0.0957 0 0.1139-0.0306 0.2096-0.08984 0.2871-0.05924 0.07747-0.1335 0.1413-0.2246 0.1914-0.09115 0.04557-0.1947 0.08203-0.3086 0.1094-0.1094 0.02279-0.2188 0.04101-0.3281 0.05469-0.1094 0.00914-0.2109 0.01695-0.3066 0.02148-0.09114 0.00458-0.1628 0.009138-0.2129 0.01367-0.009113 0-0.02279 0.001327-0.04102 0.00586h-0.05469c-0.02279 0-0.03776 0.007811-0.04688 0.02148-0.004533 0.01367-0.005859 0.02409-0.005859 0.0332v0.2676c0 0.009113 0.001326 0.01953 0.005859 0.0332 0.009114 0.01367 0.02409 0.02148 0.04688 0.02148h4.799c0.02281 0 0.03648-0.007811 0.04102-0.02148 0.009113-0.01367 0.01367-0.02409 0.01367-0.0332v-0.2598c0-0.01367-0.004559-0.02734-0.01367-0.04102-0.00456-0.01367-0.01823-0.02148-0.04102-0.02148-0.1003 0-0.2051-0.01823-0.3145-0.05469-0.1094-0.03646-0.196-0.06966-0.2598-0.1016-0.1367-0.05924-0.2474-0.1172-0.334-0.1719-0.08659-0.05924-0.1595-0.123-0.2188-0.1914-0.05469-0.07292-0.1035-0.1549-0.1445-0.2461-0.04102-0.09115-0.08333-0.2005-0.1289-0.3281l-2.893-8.113c-0.009114-0.02281-0.02279-0.03648-0.04102-0.04102-0.01367-0.00458-0.02409-0.009139-0.0332-0.01367h-1.982zm4.137 0c-0.03646 0-0.05469 0.01823-0.05469 0.05469v0.2656c0 0.03646 0.01823 0.05469 0.05469 0.05469 0.00456 0 0.02279 0.003279 0.05469 0.007813 0.0319 0.00456 0.0651 0.01042 0.1016 0.01953 0.04102 0.00456 0.08203 0.01237 0.123 0.02148 0.04102 0.009114 0.07748 0.01823 0.1094 0.02734 0.04102 0.009113 0.0944 0.02734 0.1582 0.05469 0.0638 0.02278 0.1289 0.05924 0.1973 0.1094 0.06836 0.04557 0.1354 0.1048 0.1992 0.1777 0.06836 0.06836 0.123 0.1517 0.1641 0.252l3.561 8.627c0.0317 0.09963 0.1027 0.1498 0.2109 0.1504h0.001953 1.004c0.1048 0 0.1868-0.01042 0.2461-0.0332 0.05925-0.02279 0.1094-0.09115 0.1504-0.2051l2.645-7.15c0.07747-0.2051 0.1549-0.418 0.2324-0.6367 0.07747-0.2233 0.1719-0.4297 0.2812-0.6211 0.1139-0.196 0.2507-0.3646 0.4102-0.5059 0.1641-0.1458 0.3704-0.2448 0.6211-0.2949h0.2539c0.02737 0 0.04234-0.004558 0.04688-0.01367 0.004534-0.01367 0.007813-0.02734 0.007813-0.04102v-0.2656c0-0.009114-0.003279-0.02148-0.007813-0.03516-0.004553-0.01367-0.01953-0.01953-0.04688-0.01953h-3.658c-0.02737 0-0.04234 0.005858-0.04688 0.01953-0.004533 0.01367-0.007812 0.02604-0.007812 0.03516v0.2656c0 0.03646 0.01823 0.05469 0.05469 0.05469 0.02735 0 0.07292 0.004559 0.1367 0.01367 0.0638 0.009113 0.1309 0.02148 0.1992 0.03516 0.06836 0.009114 0.1322 0.01823 0.1914 0.02734 0.0638 0.00914 0.1094 0.015 0.1367 0.01953 0.1868 0.0319 0.3327 0.1081 0.4375 0.2266 0.1048 0.1139 0.1562 0.2507 0.1562 0.4102 0 0.04557-0.01042 0.09114-0.0332 0.1367-0.01823 0.04101-0.03646 0.08658-0.05469 0.1367l-2.242 6.057c-0.01823 0.05013-0.04427 0.07422-0.07617 0.07422-0.009114 0-0.01823-0.004559-0.02734-0.01367-0.009113-0.00914-0.01823-0.015-0.02734-0.01953-0.00458-0.009114-0.009138-0.02148-0.01367-0.03516l-2.439-5.92c-0.02279-0.05013-0.04557-0.1139-0.06836-0.1914-0.01823-0.07747-0.02734-0.1458-0.02734-0.2051 0-0.1641 0.04102-0.2917 0.123-0.3828 0.08659-0.0957 0.1914-0.1654 0.3145-0.2109 0.1276-0.05013 0.2611-0.08529 0.4023-0.1035 0.1458-0.01823 0.2767-0.03646 0.3906-0.05469h0.1016c0.02281 0 0.03844-0.005858 0.04297-0.01953 0.009113-0.01367 0.01172-0.02604 0.01172-0.03516v-0.2656c0-0.01367-0.001326-0.02604-0.00586-0.03516-0.004553-0.01367-0.01953-0.01953-0.04688-0.01953h-4.648zm11.36 0c-0.02279 0-0.03972 0.005858-0.04883 0.01953-0.004533 0.01367-0.005859 0.02604-0.005859 0.03516v0.2656c0 0.009113 0.001326 0.02148 0.005859 0.03516 0.009113 0.01367 0.02604 0.01953 0.04883 0.01953h0.1426c0.1549 0.02279 0.3086 0.05338 0.459 0.08984 0.1504 0.0319 0.2839 0.08203 0.4023 0.1504 0.1185 0.06836 0.2142 0.1595 0.2871 0.2734 0.07292 0.1094 0.1094 0.252 0.1094 0.4297v7c0 0.2552-0.05339 0.4453-0.1582 0.5684-0.1048 0.1185-0.2383 0.2018-0.4023 0.252-0.1641 0.0456-0.3464 0.07164-0.5469 0.07617-0.2005 0-0.3965 0.005858-0.5879 0.01953h-0.1504c-0.02737 0-0.04234 0.009117-0.04687 0.02734-0.004534 0.01369-0.007813 0.02281-0.007813 0.02734v0.1992 0.0957c0 0.00456 0.003279 0.01498 0.007813 0.0332 0.004553 0.01367 0.01953 0.02148 0.04687 0.02148h7.924c0.02279 0 0.04101-0.009117 0.05469-0.02734 0.01823-0.02279 0.0319-0.04557 0.04102-0.06836l0.2246-2.502c0-0.02279-0.01498-0.04427-0.04688-0.0625-0.0319-0.01823-0.05924-0.02734-0.08203-0.02734-0.0638 0-0.1217 0.01823-0.1719 0.05469-0.05013 0.0319-0.07878 0.07747-0.08789 0.1367-0.01367 0.1322-0.04883 0.2917-0.1035 0.4785-0.05013 0.1868-0.1289 0.3678-0.2383 0.541-0.1094 0.1732-0.2539 0.3203-0.4316 0.4434-0.1777 0.1185-0.3978 0.1777-0.6621 0.1777h-1.867c-0.1003 0-0.196-0.005858-0.2871-0.01953-0.09115-0.01367-0.1732-0.04102-0.2461-0.08203-0.06836-0.04102-0.123-0.1003-0.1641-0.1777-0.04101-0.08203-0.06055-0.1901-0.06055-0.3223v-2.986c0-0.04557 0.02279-0.06836 0.06836-0.06836h1.934c0.123 0 0.2402 0.01498 0.3496 0.04688 0.1139 0.02734 0.2142 0.08659 0.3008 0.1777 0.08659 0.08659 0.155 0.2096 0.2051 0.3691 0.05469 0.1549 0.08203 0.36 0.08203 0.6152 0 0.009113 0.001326 0.02148 0.005859 0.03516 0.009113 0.01367 0.02604 0.01953 0.04883 0.01953h0.2656c0.009113 0 0.02148-0.001326 0.03516-0.005859 0.01367-0.009114 0.01953-0.02604 0.01953-0.04883v-3.131c0-0.03646-0.01823-0.05469-0.05469-0.05469h-0.2656c-0.03646 0-0.05469 0.01823-0.05469 0.05469 0 0.2188-0.02734 0.3997-0.08203 0.541-0.05013 0.1367-0.1185 0.2428-0.2051 0.3203-0.08203 0.07748-0.181 0.1322-0.2949 0.1641-0.1094 0.02734-0.2201 0.04102-0.334 0.04102h-1.955c-0.04557-1e-6 -0.06836-0.02279-0.06836-0.06836v-3.26c0-0.05925 0.02864-0.08984 0.08789-0.08984h2.441c0.1595 0.02734 0.2884 0.08073 0.3887 0.1582 0.1048 0.07292 0.1868 0.1595 0.2461 0.2598 0.05924 0.1003 0.1035 0.2096 0.1309 0.3281 0.0319 0.1185 0.05469 0.2324 0.06836 0.3418 0.01823 0.1094 0.0332 0.2096 0.04688 0.3008 0.01367 0.08659 0.03646 0.1517 0.06836 0.1973 0.01367 0.01823 0.03971 0.0319 0.07617 0.04102 0.03646 0.009113 0.07292 0.01367 0.1094 0.01367 0.0319 0 0.0651-0.004559 0.1016-0.01367 0.04101-0.01367 0.0625-0.0319 0.0625-0.05469l-0.123-2.188c-0.009113-0.1003-0.0319-0.1641-0.06836-0.1914-0.03646-0.0319-0.09766-0.04688-0.1797-0.04688h-6.807zm12.29 0c-0.02279 0-0.04102 0.009117-0.05469 0.02734-0.01367 0.01367-0.02604 0.0319-0.03516 0.05469-0.00458 0.01823-0.009139 0.03776-0.01367 0.06055v0.04883c0 0.04102 0.02149 0.08789 0.0625 0.1426 0.04102 0.05015 0.08333 0.0775 0.1289 0.08203 0.02278 0.00456 0.05924 0.01237 0.1094 0.02148 0.05013 0.009113 0.1035 0.01823 0.1582 0.02734 0.05468 0.009113 0.1061 0.01953 0.1562 0.0332 0.05013 0.00914 0.08659 0.01695 0.1094 0.02148 0.1458 0.03646 0.2813 0.097 0.4043 0.1836 0.1276 0.08203 0.2428 0.181 0.3477 0.2949 0.1094 0.1094 0.2083 0.2279 0.2949 0.3555 0.09115 0.123 0.1745 0.2461 0.252 0.3691l2.797 4.471c0.01367 0.01823 0.01953 0.04102 0.01953 0.06836v2.043c0 0.2734-0.06966 0.4863-0.2109 0.6367-0.1413 0.1504-0.3919 0.2428-0.752 0.2793-0.05013 0.004534-0.1172 0.007813-0.1992 0.007813h-0.1914c-0.02279 0-0.03776 0.005858-0.04688 0.01953-0.004533 0.01367-0.007812 0.02604-0.007812 0.03516v0.3008c0 0.009113 0.003279 0.01953 0.007812 0.0332 0.009113 0.01367 0.02409 0.02148 0.04688 0.02148h4.656c0.02281 0 0.03648-0.007811 0.04102-0.02148 0.009113-0.01367 0.01367-0.02409 0.01367-0.0332v-0.3008c0-0.009113-0.004559-0.02148-0.01367-0.03516-0.00456-0.01367-0.01823-0.01953-0.04102-0.01953h-0.1992c-0.07747 0-0.1413-0.003279-0.1914-0.007813-0.36-0.03646-0.6107-0.1289-0.752-0.2793-0.1413-0.1504-0.2109-0.3633-0.2109-0.6367v-2.412l2.645-4.547c0.00456-0.00912 0.02735-0.03776 0.06836-0.08789 0.04557-0.05013 0.08073-0.08659 0.1035-0.1094 0.1595-0.1732 0.3203-0.3177 0.4844-0.4316 0.1686-0.1185 0.3678-0.2018 0.5957-0.252 0.04102-0.009113 0.08333-0.01823 0.1289-0.02734 0.05013-0.01367 0.09571-0.0306 0.1367-0.04883 0.04557-0.02279 0.08203-0.05013 0.1094-0.08203 0.0319-0.0319 0.04883-0.06966 0.04883-0.1152 0-0.02278-0.007811-0.05924-0.02148-0.1094-0.01367-0.05469-0.03776-0.08203-0.07422-0.08203h-3.439c-0.05469 0-0.08789 0.02409-0.1016 0.07422-0.009113 0.04557-0.01367 0.08529-0.01367 0.1172 0 0.04101 0.004559 0.08659 0.01367 0.1367 0.009114 0.05015 0.03776 0.0775 0.08789 0.08203 0.1276 0.01367 0.2402 0.02865 0.3359 0.04688 0.1003 0.01823 0.1836 0.04883 0.252 0.08984 0.06836 0.04102 0.1185 0.1003 0.1504 0.1777 0.03646 0.07292 0.05469 0.1732 0.05469 0.3008 0 0.1322-0.0332 0.2611-0.1016 0.3887-0.0638 0.1276-0.1276 0.2448-0.1914 0.3496l-1.648 2.795c-0.03645 0.05924-0.06836 0.1081-0.0957 0.1445-0.02279 0.03646-0.05013 0.05469-0.08203 0.05469-0.03646 0-0.0638-0.009117-0.08203-0.02734-0.01367-0.01823-0.04558-0.06706-0.0957-0.1445l-2.084-3.35c-0.05469-0.08659-0.08203-0.1836-0.08203-0.293 0-0.123 0.02279-0.2188 0.06836-0.2871 0.04557-0.06836 0.1061-0.1185 0.1836-0.1504 0.07747-0.03646 0.1719-0.05925 0.2812-0.06836s0.2246-0.01823 0.3477-0.02734c0.04559 0 0.07164-0.02604 0.07617-0.07617 0.009114-0.05013 0.01367-0.097 0.01367-0.1426 0-0.03646-0.007811-0.07747-0.02148-0.123-0.01367-0.04557-0.04558-0.06836-0.0957-0.06836h-4.641zm22.26 0c-0.03193 0-0.04687 0.01823-0.04687 0.05469v0.2656c0 0.03646 0.01822 0.05469 0.05468 0.05469 0.155 0 0.3008 0.01823 0.4375 0.05469 0.1367 0.03646 0.2565 0.08984 0.3613 0.1582 0.1048 0.06836 0.1868 0.1549 0.2461 0.2598 0.0638 0.1003 0.0957 0.2155 0.0957 0.3477v5.367c0 0.3965 0.06381 0.752 0.1914 1.066s0.3008 0.5924 0.5195 0.834c0.2187 0.2415 0.474 0.4479 0.7656 0.6211 0.2917 0.1732 0.6016 0.3145 0.9297 0.4238 0.3327 0.1094 0.6732 0.1901 1.02 0.2402 0.3509 0.05013 0.6894 0.07422 1.018 0.07422 0.6882 0 1.29-0.0957 1.805-0.2871 0.515-0.196 0.942-0.4707 1.279-0.8262 0.3418-0.36 0.597-0.7962 0.7656-1.307 0.1686-0.515 0.252-1.094 0.252-1.736v-4.375c0-0.05924 0.01236-0.1276 0.03516-0.2051 0.0228-0.08203 0.0547-0.1595 0.0957-0.2324 0.04558-0.07748 0.1003-0.1471 0.1641-0.2109 0.0638-0.06836 0.1335-0.1185 0.2109-0.1504 0.0638-0.02735 0.1582-0.05339 0.2812-0.07617 0.1276-0.02735 0.2734-0.04102 0.4375-0.04102 0.0182 0 0.03188-0.005858 0.04102-0.01953 0.00913-0.01367 0.01367-0.02604 0.01367-0.03516v-0.2656c0-0.009114-0.00454-0.02148-0.01367-0.03516-0.00454-0.01367-0.01822-0.01953-0.04102-0.01953h-3.568c-0.03646 0-0.05469 0.01823-0.05469 0.05469v0.2656c0 0.03646 0.01823 0.05469 0.05469 0.05469 0.02279 0 0.06966 0.003279 0.1426 0.007813 0.07747 0 0.1732 0.009117 0.2871 0.02734 0.2506 0.04102 0.4453 0.1152 0.582 0.2246 0.1367 0.1048 0.237 0.2311 0.3008 0.377 0.06379 0.1458 0.1002 0.3008 0.1094 0.4648 0.01366 0.1641 0.01953 0.3236 0.01953 0.4785v4.244c0 0.4785-0.07878 0.8919-0.2383 1.238-0.1595 0.3464-0.3737 0.6302-0.6426 0.8535-0.2689 0.2233-0.5788 0.3906-0.9297 0.5-0.3509 0.1048-0.7188 0.1562-1.102 0.1562-0.9251 0-1.619-0.2474-2.084-0.7441-0.4648-0.5013-0.6973-1.208-0.6973-2.119v-4.793c0-0.2051 0.03645-0.3659 0.1094-0.4844 0.07748-0.123 0.1745-0.2174 0.293-0.2812 0.123-0.0638 0.2552-0.1048 0.3965-0.123 0.1458-0.01823 0.2871-0.02734 0.4238-0.02734 0.02267 0 0.03635-0.005858 0.04102-0.01953 0.00913-0.01367 0.01367-0.02604 0.01367-0.03516v-0.2656c0-0.009114-0.00454-0.02148-0.01367-0.03516-0.00453-0.01367-0.01821-0.01953-0.04102-0.01953h-4.32zm22.87 0c-0.0228 0-0.03774 0.005858-0.04688 0.01953-0.00466 0.01367-0.00781 0.02604-0.00781 0.03516v0.2656c0 0.009113 0.00315 0.02148 0.00781 0.03516 0.00914 0.01367 0.02408 0.01953 0.04688 0.01953h0.1445c0.155 0.02279 0.3066 0.05338 0.457 0.08984 0.1504 0.0319 0.2858 0.08203 0.4043 0.1504 0.1185 0.06836 0.2142 0.1595 0.2871 0.2734 0.07291 0.1094 0.1094 0.252 0.1094 0.4297v7c0 0.2552-0.05339 0.4453-0.1582 0.5684-0.1048 0.1185-0.2383 0.2018-0.4023 0.252-0.1641 0.0456-0.3464 0.07164-0.5469 0.07617-0.2005 0-0.3965 0.005858-0.5879 0.01953h-0.1504c-0.0272 0-0.04416 0.009117-0.04883 0.02734-0.00466 0.01369-0.00586 0.02281-0.00586 0.02734l-0.00195 0.1992v0.0957c0 0.00456 0.00315 0.01498 0.00781 0.0332 0.00454 0.01367 0.01954 0.02148 0.04688 0.02148h7.924c0.02279 0 0.04102-0.009117 0.05468-0.02734 0.0182-0.02279 0.03188-0.04557 0.04102-0.06836l0.2246-2.502c0-0.02279-0.01494-0.04427-0.04688-0.0625-0.03186-0.01823-0.05923-0.02734-0.08203-0.02734-0.0638 0-0.1217 0.01823-0.1719 0.05469-0.05014 0.0319-0.07876 0.07747-0.08789 0.1367-0.0137 0.1322-0.04885 0.2917-0.1035 0.4785-0.05013 0.1868-0.1289 0.3678-0.2383 0.541-0.1094 0.1732-0.2539 0.3203-0.4316 0.4434-0.1777 0.1185-0.3978 0.1777-0.6621 0.1777h-1.867c-0.1003 0-0.196-0.005858-0.2871-0.01953-0.09114-0.01367-0.1732-0.04102-0.2461-0.08203-0.06838-0.04102-0.1231-0.1003-0.1641-0.1777-0.041-0.08203-0.06055-0.1901-0.06055-0.3223v-2.986c0-0.04557 0.02276-0.06836 0.06836-0.06836h1.934c0.123 0 0.2402 0.01498 0.3496 0.04688 0.1139 0.02734 0.2142 0.08659 0.3008 0.1777 0.08659 0.08659 0.155 0.2096 0.2051 0.3691 0.05467 0.1549 0.08203 0.36 0.08203 0.6152 0 0.009113 0.00315 0.02148 0.00781 0.03516 0.00914 0.01367 0.02408 0.01953 0.04688 0.01953h0.2676c0.00913 0 0.01953-0.001326 0.0332-0.005859 0.01367-0.009114 0.02149-0.02604 0.02149-0.04883v-3.131c0-0.03646-0.01823-0.05469-0.05469-0.05469h-0.2676c-0.03647 0-0.05469 0.01823-0.05469 0.05469 0 0.2188-0.02736 0.3997-0.08203 0.541-0.05013 0.1367-0.1185 0.2428-0.2051 0.3203-0.08203 0.07748-0.179 0.1322-0.293 0.1641-0.1094 0.02734-0.222 0.04102-0.3359 0.04102h-1.955c-0.0456-1e-6 -0.06836-0.02279-0.06836-0.06836v-3.26c0-0.05925 0.03058-0.08984 0.08984-0.08984h2.439c0.1595 0.02734 0.2904 0.08073 0.3906 0.1582 0.1048 0.07292 0.1868 0.1595 0.2461 0.2598 0.05926 0.1003 0.1016 0.2096 0.1289 0.3281 0.03193 0.1185 0.05469 0.2324 0.06836 0.3418 0.0182 0.1094 0.03516 0.2096 0.04883 0.3008 0.01366 0.08659 0.03642 0.1517 0.06836 0.1973 0.01366 0.01823 0.03775 0.0319 0.07422 0.04102 0.03645 0.009113 0.0729 0.01367 0.1094 0.01367 0.03189 0 0.06705-0.004559 0.1035-0.01367 0.041-0.01367 0.06054-0.0319 0.06054-0.05469l-0.123-2.188c-0.00914-0.1003-0.0319-0.1641-0.06836-0.1914-0.03646-0.0319-0.0957-0.04688-0.1777-0.04688h-6.809zm8.949 0c-0.02274 0-0.0397 0.005858-0.04883 0.01953-0.00467 0.01367-0.00586 0.02604-0.00586 0.03516v0.2656c0 0.009113 0.00119 0.02148 0.00586 0.03516 0.00907 0.01367 0.02603 0.01953 0.04883 0.01953h0.1426c0.155 0.02279 0.3086 0.05338 0.459 0.08984 0.1504 0.0319 0.2839 0.08203 0.4023 0.1504 0.1185 0.06836 0.2142 0.1595 0.2871 0.2734 0.07292 0.1094 0.1094 0.252 0.1094 0.4297v7c0 0.2552-0.05143 0.4453-0.1562 0.5684-0.1048 0.1185-0.2402 0.2018-0.4043 0.252-0.1641 0.0456-0.3464 0.07164-0.5469 0.07617-0.2005 0-0.3965 0.005858-0.5879 0.01953h-0.1504c-0.02727 0-0.04221 0.009117-0.04688 0.02734-0.00467 0.01369-0.00781 0.02281-0.00781 0.02734v0.1992 0.0957c0 0.00456 0.00314 0.01498 0.00781 0.0332 0.0046 0.01367 0.01954 0.02148 0.04688 0.02148h7.924c0.0228 0 0.04102-0.009117 0.05469-0.02734 0.0182-0.02279 0.03188-0.04557 0.04102-0.06836l0.2246-2.502c0-0.02279-0.01495-0.04427-0.04688-0.0625-0.03187-0.01823-0.05923-0.02734-0.08203-0.02734-0.0638 0-0.1217 0.01823-0.1719 0.05469-0.05013 0.0319-0.07875 0.07747-0.08789 0.1367-0.01369 0.1322-0.04884 0.2917-0.1035 0.4785-0.05013 0.1868-0.1289 0.3678-0.2383 0.541-0.1094 0.1732-0.2539 0.3203-0.4316 0.4434-0.1777 0.1185-0.3978 0.1777-0.6621 0.1777h-1.867c-0.1003 0-0.196-0.005858-0.2871-0.01953s-0.1732-0.04102-0.2461-0.08203c-0.06838-0.04102-0.1231-0.1003-0.1641-0.1777-0.041-0.08203-0.06054-0.1901-0.06054-0.3223v-2.986c0-0.04557 0.02276-0.06836 0.06836-0.06836h1.934c0.123 0 0.2402 0.01498 0.3496 0.04688 0.1139 0.02734 0.2142 0.08659 0.3008 0.1777 0.08659 0.08659 0.155 0.2096 0.2051 0.3691 0.05467 0.1549 0.08203 0.36 0.08203 0.6152 0 0.009113 0.00119 0.02148 0.00586 0.03516 0.00907 0.01367 0.02603 0.01953 0.04883 0.01953h0.2656c0.00914 0 0.02149-0.001326 0.03516-0.005859 0.01367-0.009114 0.01953-0.02604 0.01953-0.04883v-3.131c0-0.03646-0.01822-0.05469-0.05469-0.05469h-0.2656c-0.03647 0-0.05469 0.01823-0.05469 0.05469 0 0.2188-0.02736 0.3997-0.08203 0.541-0.05013 0.1367-0.1185 0.2428-0.2051 0.3203-0.08203 0.07748-0.181 0.1322-0.2949 0.1641-0.1094 0.02734-0.22 0.04102-0.334 0.04102h-1.955c-0.0456-1e-6 -0.06836-0.02279-0.06836-0.06836v-3.26c0-0.05925 0.02862-0.08984 0.08789-0.08984h2.441c0.1595 0.02734 0.2884 0.08073 0.3887 0.1582 0.1048 0.07292 0.1868 0.1595 0.2461 0.2598 0.05925 0.1003 0.1035 0.2096 0.1309 0.3281 0.03193 0.1185 0.05469 0.2324 0.06836 0.3418 0.0182 0.1094 0.03321 0.2096 0.04687 0.3008 0.01367 0.08659 0.03643 0.1517 0.06836 0.1973 0.01367 0.01823 0.03971 0.0319 0.07618 0.04102 0.03644 0.009113 0.0729 0.01367 0.1094 0.01367 0.03189 0 0.0651-0.004559 0.1016-0.01367 0.041-0.01367 0.0625-0.0319 0.0625-0.05469l-0.123-2.188c-0.00914-0.1003-0.0319-0.1641-0.06836-0.1914-0.03646-0.0319-0.0957-0.04688-0.1777-0.04688h-6.809zm8.865 0c-0.02273 0-0.03774 0.005858-0.04687 0.01953-0.00467 0.01367-0.00782 0.02604-0.00782 0.03516v0.3008c0 0.009113 0.00315 0.01953 0.00782 0.0332 0.00906 0.01367 0.02407 0.02148 0.04687 0.02148 0.06836 0 0.1686 0.005858 0.3008 0.01953 0.1367 0.01367 0.2689 0.04102 0.3965 0.08203 0.1322 0.03646 0.2461 0.0944 0.3418 0.1719 0.1003 0.07292 0.1504 0.1699 0.1504 0.293v6.83c0 0.1595-0.00587 0.3099-0.01954 0.4512-0.01366 0.1413-0.04103 0.2702-0.08203 0.3887-0.03645 0.1185-0.09114 0.2233-0.1641 0.3145-0.07291 0.09115-0.1673 0.1641-0.2812 0.2188-0.02734 0.01369-0.0651 0.02281-0.1152 0.02734-0.05014 0.00458-0.1081 0.009139-0.1719 0.01367-0.05925 0.004534-0.1198 0.007813-0.1836 0.007813h-0.1719c-0.03646 0-0.05469 0.01823-0.05469 0.05469v0.3008c1e-5 0.01367 0.00782 0.02734 0.02149 0.04102 0.01367 0.009113 0.02407 0.01367 0.0332 0.01367h3.76c0.02266 0 0.03635-0.007811 0.04101-0.02148 0.00914-0.01367 0.01368-0.02409 0.01368-0.0332v-0.3008c0-0.009113-0.0012-0.01823-0.00586-0.02734-0.00914-0.01823-0.02603-0.02734-0.04883-0.02734-0.04558 0-0.1139-0.003279-0.2051-0.007813-0.08659-0.009113-0.1868-0.02409-0.3008-0.04688-0.1094-0.02279-0.2233-0.05338-0.3418-0.08984-0.1139-0.04102-0.2188-0.09245-0.3144-0.1562-0.09571-0.06836-0.1745-0.1491-0.2383-0.2402-0.05927-0.0957-0.08985-0.2064-0.08985-0.334v-6.105c0-0.04557 0.01236-0.06836 0.03516-0.06836s0.04102 0.004558 0.05469 0.01367c0.01373 0.00456 0.03649 0.02279 0.06836 0.05469l6.453 7.158c0.1185 0.1322 0.237 0.2155 0.3555 0.252 0.123 0.04101 0.2292 0.0625 0.3203 0.0625 0.0547 0 0.1139-0.009117 0.1777-0.02734 0.06838-0.01367 0.1309-0.03646 0.1855-0.06836 0.05924-0.0319 0.1061-0.07292 0.1426-0.123 0.03647-0.05469 0.05469-0.1217 0.05469-0.1992v-8.086c0-0.1276 0.04883-0.2415 0.1445-0.3418 0.1003-0.1003 0.2188-0.1855 0.3555-0.2539 0.1367-0.06836 0.2747-0.1198 0.416-0.1562 0.1458-0.03646 0.2643-0.05469 0.3555-0.05469 0.02267 0 0.03635-0.007811 0.04102-0.02148 0.00913-0.01367 0.01367-0.02409 0.01367-0.0332v-0.3008c0-0.009114-0.00119-0.02148-0.00586-0.03516-0.00453-0.01367-0.02149-0.01953-0.04883-0.01953h-3.76c-0.0228 0-0.03774 0.005858-0.04688 0.01953-0.00466 0.01367-0.00781 0.02604-0.00781 0.03516v0.3008c0 0.009113 0.00315 0.01953 0.00781 0.0332 0.00914 0.01367 0.02408 0.02148 0.04688 0.02148h0.3496c0.2279 0 0.4147 0.02279 0.5606 0.06836 0.1458 0.04557 0.2611 0.1413 0.3476 0.2871 0.08655 0.1413 0.1458 0.3477 0.1777 0.6211 0.03193 0.2689 0.04882 0.6289 0.04882 1.08v4.061c0 0.01367-0.00314 0.02734-0.00781 0.04102-0.0046 0.01367-0.015 0.02148-0.0332 0.02148-0.01367 0-0.02602-0.004559-0.03516-0.01367-0.00913-0.01367-0.02603-0.0319-0.04883-0.05469l-5.893-6.521h-3.096zm-47.46 0.375c0.3919 0 0.7533 0.05924 1.086 0.1777 0.3372 0.1139 0.6426 0.2767 0.916 0.4863 0.278 0.2096 0.5228 0.457 0.7324 0.7441 0.2142 0.2826 0.3919 0.5957 0.5332 0.9375 0.1458 0.3372 0.2552 0.694 0.3281 1.072 0.07747 0.3737 0.1152 0.7565 0.1152 1.148 0 0.5378-0.0651 1.061-0.1973 1.566-0.1276 0.5013-0.3268 0.9447-0.5957 1.332-0.2643 0.3874-0.5983 0.7005-1.004 0.9375-0.4056 0.2324-0.8841 0.3477-1.436 0.3477-0.3919 0-0.7565-0.06055-1.094-0.1836-0.3327-0.1276-0.6367-0.3008-0.9102-0.5195-0.2734-0.2233-0.5163-0.4831-0.7305-0.7793-0.2142-0.3008-0.3952-0.623-0.541-0.9648s-0.2565-0.6973-0.334-1.066c-0.07292-0.3691-0.1094-0.7383-0.1094-1.107 0-0.3418 0.0319-0.6803 0.0957-1.018 0.0638-0.3418 0.1562-0.6654 0.2793-0.9707 0.123-0.3053 0.2767-0.5879 0.459-0.8477 0.1823-0.2643 0.3919-0.4909 0.6289-0.6777 0.2415-0.1914 0.5104-0.3418 0.8066-0.4512 0.2962-0.1094 0.6198-0.1641 0.9707-0.1641zm-42.67 1.682c0.03646 0 0.07747 0.01693 0.123 0.04883 0.04557 0.02735 0.07878 0.07292 0.1016 0.1367l0.9102 2.494c0.00914 0.02279 0.015 0.04427 0.01953 0.0625 0.004533 0.01823 0.007812 0.03776 0.007812 0.06055 0 0.02735-0.009117 0.05338-0.02734 0.07617-0.01367 0.01823-0.04557 0.02734-0.0957 0.02734h-2.051c-0.04101 0-0.06836-0.007811-0.08203-0.02148-0.01367-0.01823-0.02148-0.04101-0.02148-0.06836 0-0.02279 0.003279-0.04557 0.007812-0.06836 0.00456-0.02279 0.01042-0.04557 0.01953-0.06836l0.8613-2.488c0.02279-0.05925 0.05794-0.1048 0.1035-0.1367 0.04557-0.03646 0.08659-0.05469 0.123-0.05469zm121.5 16.6c-0.3366 0-0.623 0.04297-0.8594 0.1289-0.2292 0.07878-0.4154 0.1888-0.5586 0.332-0.1432 0.1432-0.2461 0.3125-0.3106 0.5059-0.06447 0.1862-0.09766 0.3867-0.09766 0.6016 0 0.1504 0.03581 0.2891 0.1074 0.418 0.07878 0.1217 0.1719 0.2266 0.2793 0.3125 0.1146 0.08594 0.2409 0.1576 0.377 0.2148 0.1361 0.05013 0.2676 0.07878 0.3965 0.08594 0.7591 0 1.404 0.02408 1.934 0.07422 0.53 0.04297 0.9596 0.1289 1.289 0.2578 0.3294 0.1217 0.5703 0.291 0.7207 0.5059 0.1504 0.2148 0.2246 0.487 0.2246 0.8164 0 0.2721-0.04298 0.5156-0.1289 0.7305-0.08594 0.2077-0.2031 0.3939-0.3535 0.5586-0.1432 0.1576-0.3151 0.2962-0.5156 0.418-0.1934 0.1217-0.401 0.2292-0.623 0.3223-0.3366 0.1432-0.6803 0.2793-1.031 0.4082-0.3509 0.1289-0.6706 0.291-0.957 0.4844-0.2793 0.1934-0.5085 0.4323-0.6875 0.7188-0.179 0.2865-0.2676 0.6589-0.2676 1.117 0.0072 0.1146 0.03129 0.265 0.07422 0.4512 0.05012 0.179 0.1074 0.3724 0.1719 0.5801 0.07162 0.2005 0.1478 0.4056 0.2266 0.6133 0.08594 0.2077 0.1719 0.3965 0.2578 0.5684 0.08594 0.1647 0.1673 0.3008 0.2461 0.4082 0.08596 0.1003 0.1576 0.1504 0.2148 0.1504 0.01433 0 0.04037-0.009763 0.07617-0.03125 0.04298-0.02865 0.08139-0.05729 0.1172-0.08594 0.04295-0.03581 0.07875-0.07162 0.1074-0.1074 0.0358-0.03581 0.05469-0.06185 0.05469-0.07617-0.06449-0.1576-0.1192-0.2747-0.1621-0.3535-0.04298-0.07877-0.08139-0.1478-0.1172-0.2051-0.0286-0.06445-0.05012-0.1315-0.06445-0.2031-0.01433-0.07161-0.02149-0.1836-0.02149-0.334 0-0.2578 0.04558-0.4655 0.1387-0.623 0.0931-0.1576 0.2122-0.2865 0.3555-0.3867 0.1432-0.1074 0.3034-0.196 0.4824-0.2676 0.1862-0.07161 0.3698-0.1504 0.5488-0.2363 0.3724-0.179 0.7162-0.4225 1.031-0.7305 0.3151-0.3079 0.5872-0.6517 0.8164-1.031 0.2292-0.3867 0.4082-0.7949 0.5371-1.225s0.1934-0.8568 0.1934-1.279c0-0.6087-0.1074-1.189-0.3223-1.74-0.2148-0.5586-0.513-1.048-0.8926-1.471-0.3724-0.4297-0.8164-0.7708-1.332-1.021-0.5156-0.2507-1.074-0.375-1.676-0.375zm-114.3 0.03125c-0.3294 0-0.6706 0.03581-1.021 0.1074-0.3438 0.07161-0.6829 0.179-1.02 0.3223-0.3366 0.1361-0.6562 0.3079-0.957 0.5156-0.2936 0.2005-0.5514 0.4297-0.7734 0.6875-0.222 0.2578-0.401 0.5443-0.5371 0.8594-0.1289 0.3151-0.1934 0.6562-0.1934 1.021 0 0.6016 0.1003 1.141 0.3008 1.621 0.2077 0.4798 0.4772 0.9167 0.8066 1.311s0.7044 0.7565 1.127 1.086c0.4225 0.3223 0.8568 0.6328 1.301 0.9336 0.444 0.3008 0.8763 0.599 1.299 0.8926 0.4225 0.2936 0.7995 0.6042 1.129 0.9336 0.3294 0.3223 0.5944 0.6732 0.7949 1.053 0.2077 0.3796 0.3105 0.8021 0.3105 1.268 0 0.8092-0.2148 1.396-0.6445 1.762-0.4225 0.3652-1.017 0.5488-1.783 0.5488-0.4512 0-0.8522-0.03581-1.203-0.1074-0.3509-0.07161-0.666-0.1862-0.9453-0.3438-0.2793-0.1647-0.5299-0.3796-0.752-0.6445-0.2148-0.2721-0.4154-0.6061-0.6016-1-0.01432-0.05013-0.05013-0.1315-0.1074-0.2461-0.05013-0.1146-0.1146-0.2292-0.1934-0.3438-0.07161-0.1146-0.1504-0.2148-0.2363-0.3008-0.07878-0.08594-0.153-0.1289-0.2246-0.1289-0.1003 0-0.1862 0.04557-0.2578 0.1387-0.07161 0.0931-0.1074 0.179-0.1074 0.2578v0.1191c0.007166 0.05013 0.01693 0.1673 0.03125 0.3535 0.02149 0.1862 0.05469 0.4655 0.09766 0.8379 0.04297 0.3724 0.1029 0.8952 0.1816 1.568 0.02148 0.1504 0.07878 0.2266 0.1719 0.2266l0.6875-0.1074c0.02149-0.00716 0.05469-0.01172 0.09766-0.01172 0.1217 0 0.2721 0.03581 0.4512 0.1074 0.179 0.07162 0.3965 0.1549 0.6543 0.248 0.265 0.08594 0.5775 0.1647 0.9355 0.2363 0.3652 0.07162 0.7904 0.1074 1.277 0.1074 0.3867 0 0.7806-0.04036 1.182-0.1191 0.4082-0.07878 0.8021-0.1934 1.182-0.3438 0.3867-0.1576 0.7493-0.3509 1.086-0.5801 0.3366-0.2292 0.6302-0.4896 0.8809-0.7832 0.2507-0.3008 0.4466-0.6348 0.5898-1 0.1504-0.3652 0.2266-0.7591 0.2266-1.182 0-0.6374-0.1048-1.21-0.3125-1.719-0.2005-0.5085-0.4681-0.9694-0.8047-1.385-0.3294-0.4154-0.709-0.7949-1.139-1.139-0.4225-0.3438-0.8568-0.666-1.301-0.9668-0.4368-0.3079-0.8691-0.6087-1.299-0.9023-0.4225-0.2936-0.8021-0.5944-1.139-0.9023-0.3294-0.3151-0.599-0.6491-0.8066-1-0.2005-0.3581-0.3008-0.7546-0.3008-1.191 0-0.3008 0.05013-0.5586 0.1504-0.7734 0.1074-0.2148 0.2507-0.3913 0.4297-0.5273 0.179-0.1432 0.3913-0.2461 0.6348-0.3105 0.2435-0.06445 0.5039-0.09766 0.7832-0.09766 0.6445 0 1.236 0.1335 1.773 0.3984 0.5371 0.2578 0.9766 0.6517 1.32 1.182 0.04297 0.06445 0.08333 0.1387 0.1191 0.2246 0.04297 0.08594 0.08138 0.1719 0.1172 0.2578 0.03581 0.07878 0.06901 0.1549 0.09766 0.2266 0.03581 0.06445 0.06445 0.1074 0.08594 0.1289 0.01432 0.01433 0.06445 0.02865 0.1504 0.04297 0.08594 0.00716 0.1504 0.009765 0.1934 0.009765 0.05013 0 0.1217-0.007157 0.2148-0.02148 0.0931-0.01433 0.1387-0.03841 0.1387-0.07422l-0.3105-2.525c-0.00716-0.04296-0.02148-0.08854-0.04297-0.1387-0.01432-0.05729-0.05469-0.08594-0.1191-0.08594l-0.709 0.06445c-0.2578-0.06445-0.5182-0.1335-0.7832-0.2051-0.265-0.07878-0.5299-0.1504-0.7949-0.2148-0.2578-0.06446-0.5228-0.1172-0.7949-0.1602-0.265-0.05013-0.5299-0.07617-0.7949-0.07617zm45.04 0c-0.8594 0-1.678 0.0931-2.459 0.2793-0.7806 0.1862-1.504 0.4486-2.17 0.7852-0.666 0.3366-1.272 0.7448-1.816 1.225-0.5371 0.4798-0.9954 1.012-1.375 1.6-0.3796 0.5872-0.6732 1.222-0.8809 1.902-0.2005 0.6803-0.3008 1.392-0.3008 2.137 0 0.8379 0.0931 1.594 0.2793 2.268 0.1934 0.6732 0.4486 1.275 0.7637 1.805 0.3223 0.5228 0.6947 0.9837 1.117 1.385 0.4225 0.3939 0.8665 0.7376 1.332 1.031 0.4727 0.2865 0.9525 0.5228 1.439 0.709 0.487 0.1862 0.9525 0.3366 1.396 0.4512 0.4512 0.1146 0.862 0.1934 1.234 0.2363 0.3796 0.04297 0.6947 0.06445 0.9453 0.06445 0.8522 0 1.661-0.1074 2.428-0.3223 0.7663-0.2148 1.473-0.5111 2.117-0.8906 0.6445-0.3867 1.225-0.8379 1.74-1.354 0.5228-0.5156 0.9668-1.074 1.332-1.676 0.3652-0.6087 0.6445-1.243 0.8379-1.902 0.1934-0.666 0.2891-1.335 0.2891-2.008 0-0.7161-0.1003-1.404-0.3008-2.062-0.2005-0.666-0.4824-1.286-0.8477-1.859-0.3652-0.5729-0.8021-1.091-1.311-1.557-0.5013-0.4655-1.057-0.8639-1.666-1.193-0.6087-0.3366-1.263-0.5944-1.965-0.7734-0.6947-0.1862-1.415-0.2793-2.16-0.2793zm-93.06 0.0332c-0.1074 0-0.1862 0.03581-0.2363 0.1074-0.05013 0.07162-0.08334 0.1458-0.09766 0.2246l-0.3965 3.674v0.3555c0 0.02865 0.02149 0.04297 0.06445 0.04297h0.3535c0.03581 0 0.06185-0.01172 0.07617-0.0332 0.01433-0.01432 0.02865-0.06445 0.04297-0.1504 0.01433-0.0931 0.02865-0.1719 0.04297-0.2363 0.05013-0.222 0.0957-0.4512 0.1387-0.6875 0.04297-0.2435 0.1074-0.4681 0.1934-0.6758 0.08594-0.2077 0.2051-0.3867 0.3555-0.5371 0.1504-0.1576 0.3581-0.265 0.623-0.3223h3.641c0.08594 0.01432 0.1576 0.03125 0.2148 0.05273 0.06445 0.01432 0.09766 0.09766 0.09766 0.248v11.41c0 0.2148-0.05469 0.4082-0.1621 0.5801-0.1074 0.1647-0.2533 0.3105-0.4395 0.4395-0.179 0.1289-0.3939 0.2337-0.6445 0.3125-0.2435 0.07877-0.5059 0.1315-0.7852 0.1602-0.07878 0.00716-0.1816 0.01172-0.3105 0.01172h-0.3008c-0.03581 0-0.06185 0.009763-0.07617 0.03125-0.00716 0.02149-0.009766 0.04037-0.009766 0.05469v0.418c0 0.01432 0.002606 0.0332 0.009766 0.05469 0.01433 0.02149 0.04036 0.03125 0.07617 0.03125h8.346c0.03581 1e-6 0.05729-0.009763 0.06445-0.03125 0.01432-0.02148 0.02148-0.04036 0.02148-0.05469v-0.418c-1e-6 -0.01432-0.007165-0.0332-0.02148-0.05469-0.00716-0.02149-0.02865-0.03125-0.06445-0.03125h-0.3105c-0.1217 0-0.222-0.004559-0.3008-0.01172-0.2793-0.02864-0.5443-0.08138-0.7949-0.1602-0.2435-0.07878-0.4583-0.1836-0.6445-0.3125-0.179-0.1289-0.3223-0.2747-0.4297-0.4395-0.1074-0.1719-0.1621-0.3652-0.1621-0.5801v-11.41c0-0.1504 0.02864-0.2337 0.08594-0.248 0.06445-0.02149 0.1406-0.03841 0.2266-0.05273h3.652c0.265 0.05729 0.4727 0.1647 0.623 0.3223 0.1504 0.1504 0.2676 0.3294 0.3535 0.5371 0.08594 0.2077 0.1504 0.4323 0.1934 0.6758 0.04296 0.2363 0.09049 0.4655 0.1406 0.6875 0.01433 0.06445 0.02865 0.1432 0.04297 0.2363 0.01433 0.08593 0.02865 0.1361 0.04297 0.1504 0.01433 0.02149 0.03841 0.0332 0.07422 0.0332h0.3555c0.04297 0 0.06445-0.01432 0.06445-0.04297v-0.3555l-0.3984-3.674c-0.01432-0.07878-0.04557-0.153-0.0957-0.2246-0.05013-0.07161-0.1289-0.1074-0.2363-0.1074-0.05013 0-0.1003 0.01432-0.1504 0.04297-0.04297 0.02865-0.08594 0.06446-0.1289 0.1074l-0.1289 0.1074c-0.03581 0.03581-0.07617 0.0599-0.1191 0.07422-0.08594 0.03581-0.1673 0.06185-0.2461 0.07617-0.07161 0.00716-0.1549 0.009766-0.248 0.009766h-11.26c-0.0931 0-0.179-0.002606-0.2578-0.009766-0.07161-0.01433-0.1504-0.04036-0.2363-0.07617-0.04297-0.01433-0.08594-0.03841-0.1289-0.07422-0.03581-0.03581-0.07422-0.07162-0.1172-0.1074-0.04297-0.04297-0.09049-0.07878-0.1406-0.1074-0.04297-0.02865-0.08855-0.04297-0.1387-0.04297zm15.73 0.418c-0.05013 0-0.07617 0.02864-0.07617 0.08594v0.5801c0 0.05729 0.02864 0.08594 0.08594 0.08594 0.2435 0.01432 0.4655 0.04752 0.666 0.09766 0.2005 0.05013 0.3724 0.1289 0.5156 0.2363 0.1432 0.1003 0.2552 0.2318 0.334 0.3965 0.07878 0.1647 0.1172 0.3698 0.1172 0.6133v10.76c0 0.3438-0.0599 0.6159-0.1816 0.8164-0.1146 0.2005-0.265 0.3535-0.4512 0.4609-0.1862 0.1074-0.3939 0.179-0.623 0.2148-0.222 0.02865-0.444 0.04297-0.666 0.04297-0.03581 0-0.06185 0.01172-0.07617 0.0332-0.00716 0.02149-0.009766 0.03842-0.009766 0.05274v0.5801c0 0.01432 0.002606 0.0332 0.009766 0.05469 0.01433 0.02149 0.04036 0.03125 0.07617 0.03125h6.896c0.03581 0 0.05729-0.009763 0.06445-0.03125 0.00716-0.02148 0.009765-0.04036 0.009765-0.05469v-0.5801c0-0.01432-0.002605-0.03125-0.009765-0.05274-0.007167-0.02149-0.0332-0.0332-0.07617-0.0332-0.2435 0-0.4798-0.02149-0.709-0.06445-0.2292-0.04297-0.4323-0.1146-0.6113-0.2148-0.1719-0.1003-0.3125-0.2318-0.4199-0.3965s-0.1602-0.3698-0.1602-0.6133v-4.748c0-0.07161 0.009764-0.1172 0.03125-0.1387 0.02148-0.02149 0.06901-0.0332 0.1406-0.0332h7.498c0.07161 0 0.1172 0.01172 0.1387 0.0332 0.02149 0.02148 0.0332 0.06706 0.0332 0.1387v4.641c0 0.3151-0.1048 0.5658-0.3125 0.752-0.2005 0.179-0.4466 0.3197-0.7402 0.4199-0.2865 0.0931-0.5846 0.153-0.8926 0.1816-0.3079 0.02865-0.5684 0.04297-0.7832 0.04297-0.03581 0-0.06185 0.01172-0.07617 0.0332-0.00716 0.02149-0.009766 0.03842-0.009766 0.05274v0.5801c0 0.01432 0.002606 0.0332 0.009766 0.05469 0.01433 0.02149 0.04036 0.03125 0.07617 0.03125h7.799c0.05729 0 0.08594-0.02864 0.08594-0.08594v-0.5801c0-0.05729-0.02864-0.08594-0.08594-0.08594-0.4798-0.01432-0.8522-0.07422-1.117-0.1816-0.2578-0.1074-0.444-0.2409-0.5586-0.3984-0.1146-0.1432-0.2005-0.2865-0.2578-0.4297-0.05013-0.1504-0.07617-0.3177-0.07617-0.5039v-10.63c0-0.3223 0.04753-0.5801 0.1406-0.7734 0.1003-0.2005 0.2292-0.3555 0.3867-0.4629 0.1647-0.1074 0.3464-0.179 0.5469-0.2148 0.2077-0.04297 0.4199-0.06445 0.6348-0.06445 0.05729 0 0.08594-0.02149 0.08594-0.06445v-0.5801c0-0.01432-0.007164-0.03125-0.02148-0.05274-0.00716-0.02149-0.02865-0.0332-0.06445-0.0332h-7.166c-0.05013 0-0.07422 0.02864-0.07422 0.08594v0.5801c0 0.05729 0.02864 0.08594 0.08594 0.08594 0.2363 0.01432 0.4941 0.04752 0.7734 0.09766 0.2793 0.04297 0.5371 0.1146 0.7734 0.2148 0.2435 0.0931 0.444 0.222 0.6016 0.3867s0.2363 0.3724 0.2363 0.623v4.598c0 0.07161-0.01172 0.1172-0.0332 0.1387-0.02148 0.02149-0.06706 0.0332-0.1387 0.0332h-7.498c-0.07161 0-0.1191-0.01172-0.1406-0.0332-0.02149-0.02148-0.03125-0.06706-0.03125-0.1387v-4.426c0-0.3223 0.04557-0.5801 0.1387-0.7734 0.0931-0.2005 0.2148-0.3555 0.3652-0.4629 0.1504-0.1074 0.3268-0.179 0.5273-0.2148 0.2005-0.04297 0.4082-0.06445 0.623-0.06445 0.05729 0 0.08594-0.02149 0.08594-0.06445v-0.5801c0-0.01432-0.007165-0.03125-0.02148-0.05274-0.00716-0.02149-0.02865-0.0332-0.06445-0.0332h-6.359zm19.42 0c-0.05729 0-0.08594 0.02864-0.08594 0.08594v0.5801c0 0.05729 0.02864 0.08594 0.08594 0.08594 0.2507 0 0.4753 0.02149 0.6758 0.06445 0.2077 0.04297 0.3796 0.1146 0.5156 0.2148 0.1432 0.1003 0.2506 0.2337 0.3223 0.3984 0.07878 0.1647 0.1191 0.3678 0.1191 0.6113v10.82c0 0.3438-0.04036 0.6159-0.1191 0.8164-0.07878 0.2005-0.1888 0.3535-0.332 0.4609-0.1432 0.1074-0.3197 0.179-0.5273 0.2148-0.2005 0.02865-0.4251 0.04297-0.6758 0.04297-0.03581 0-0.06185 0.01172-0.07617 0.0332-0.00716 0.02149-0.009766 0.03842-0.009766 0.05274v0.5801c0 0.01432 0.002606 0.0332 0.009766 0.05469 0.01433 0.02149 0.04036 0.03125 0.07617 0.03125h6.348c0.04297 0 0.06901-0.007164 0.07617-0.02148 0.00716-0.02148 0.009766-0.04297 0.009766-0.06445v-0.5801c0-0.05729-0.02864-0.08594-0.08594-0.08594-0.2507 0-0.4798-0.02149-0.6875-0.06445-0.2005-0.04297-0.3724-0.1146-0.5156-0.2148-0.1361-0.1003-0.2435-0.2318-0.3223-0.3965-0.07161-0.1647-0.1074-0.3698-0.1074-0.6133v-10.82c0-0.3438 0.04036-0.6159 0.1191-0.8164 0.07878-0.2005 0.1888-0.3555 0.332-0.4629 0.1432-0.1074 0.3151-0.1745 0.5156-0.2031 0.2077-0.03581 0.4368-0.05469 0.6875-0.05469 0.03581 0 0.05729-0.009763 0.06445-0.03125 0.01432-0.02149 0.02148-0.04037 0.02148-0.05469v-0.5801c0-0.01432-0.007164-0.03125-0.02148-0.05274-0.00716-0.02149-0.02865-0.0332-0.06445-0.0332h-6.348zm24.99 0c-0.05729 0-0.08594 0.02864-0.08594 0.08594v0.4727c0 0.05729 0.02864 0.08594 0.08594 0.08594 0.01432 0 0.04557 0.007165 0.0957 0.02148 0.05729 0.007166 0.1217 0.01888 0.1934 0.0332s0.1432 0.03125 0.2148 0.05273c0.07162 0.01433 0.1335 0.02604 0.1836 0.0332 0.08594 0.01433 0.2031 0.04297 0.3535 0.08594 0.1576 0.03581 0.3197 0.0931 0.4844 0.1719 0.1719 0.07162 0.332 0.1719 0.4824 0.3008 0.1504 0.1217 0.265 0.2747 0.3438 0.4609l5.564 13.38c0.0358 0.08594 0.07877 0.1478 0.1289 0.1836 0.05013 0.04297 0.1191 0.06445 0.2051 0.06445h1.557c0.1647 0 0.291-0.02149 0.377-0.06445 0.08594-0.03581 0.1673-0.1406 0.2461-0.3125l2.406-5.629 2.385 5.77c0.05013 0.1576 0.1621 0.2363 0.334 0.2363h1.547c0.1647 0 0.2891-0.02149 0.375-0.06445 0.08594-0.03581 0.1693-0.1406 0.248-0.3125l5.445-12.75c0.1146-0.2793 0.222-0.5228 0.3223-0.7305 0.1074-0.2077 0.2148-0.3796 0.3223-0.5156 0.1146-0.1432 0.2363-0.248 0.3652-0.3125 0.1289-0.07161 0.2793-0.1074 0.4512-0.1074h0.5059c0.043 0 0.06708-0.007164 0.07422-0.02148 0.0072-0.02148 0.01172-0.04297 0.01172-0.06445v-0.4727c0-0.01432-0.00452-0.03125-0.01172-0.05274-0.00714-0.02149-0.03122-0.0332-0.07422-0.0332h-5.104c-0.04297 0-0.06706 0.01172-0.07422 0.0332-0.00716 0.02149-0.01172 0.03842-0.01172 0.05274v0.4727c0 0.05729 0.02864 0.08594 0.08594 0.08594h0.666c0.4368 0 0.735 0.04036 0.8926 0.1191 0.1647 0.07162 0.2461 0.2005 0.2461 0.3867 0 0.1361-0.04297 0.3034-0.1289 0.5039l-4.285 10.04c-0.03581 0.07878-0.0905 0.1172-0.1621 0.1172-0.1003 0-0.1673-0.03581-0.2031-0.1074l-2.568-6.176 1.322-3.072c0.1289-0.3079 0.2578-0.5775 0.3867-0.8066 0.1361-0.2292 0.2819-0.418 0.4395-0.5684s0.334-0.2624 0.5273-0.334c0.2005-0.07161 0.4297-0.1074 0.6875-0.1074h0.3965c0.04297 0 0.06901-0.007164 0.07617-0.02148 0.00716-0.02148 0.009766-0.04297 0.009766-0.06445v-0.4727c0-0.01432-0.002606-0.03125-0.009766-0.05274-0.00716-0.02149-0.0332-0.0332-0.07617-0.0332h-10.21c-0.05729 0-0.08594 0.02864-0.08594 0.08594v0.4727c0 0.05729 0.02864 0.08594 0.08594 0.08594 0.03581 0 0.1191 0.01432 0.248 0.04297s0.2435 0.06185 0.3438 0.09766c0.179 0.04297 0.3652 0.1504 0.5586 0.3223s0.3366 0.3678 0.4297 0.5898l2.352 5.65-1.857 4.383c-0.02148 0.03581-0.04297 0.06445-0.06445 0.08594-0.02149 0.02149-0.05469 0.0332-0.09766 0.0332-0.1003 0-0.1673-0.03581-0.2031-0.1074l-3.857-9.293c-0.03581-0.1504-0.07878-0.2936-0.1289-0.4297-0.04297-0.1361-0.06445-0.2819-0.06445-0.4395 0-0.08594 0.007165-0.1836 0.02148-0.291 0.02148-0.1074 0.07161-0.2077 0.1504-0.3008 0.08594-0.1003 0.2077-0.1816 0.3652-0.2461 0.1576-0.06445 0.377-0.09766 0.6562-0.09766h0.1934c0.03581 0 0.05729-0.009763 0.06445-0.03125 0.01432-0.02149 0.02148-0.04037 0.02148-0.05469v-0.4727c0-0.02149-0.004559-0.03842-0.01172-0.05274-0.00716-0.02149-0.03125-0.0332-0.07422-0.0332h-7.09zm43.9 0c-0.04293 0-0.06702 0.01172-0.07422 0.0332-0.00713 0.02149-0.01171 0.03842-0.01171 0.05274v0.4727c0 0.05729 0.02867 0.08594 0.08593 0.08594 0.08594 0 0.2051 0.02149 0.3555 0.06445 0.1504 0.04297 0.2962 0.1074 0.4394 0.1934 0.1504 0.08594 0.2793 0.1934 0.3867 0.3223 0.1074 0.1217 0.1621 0.265 0.1621 0.4297v0.3984c0 0.8307-0.02152 1.657-0.06445 2.48-0.04299 0.8236-0.09312 1.659-0.1504 2.504-0.05728 0.8379-0.1191 1.693-0.1836 2.566-0.05726 0.8665-0.1074 1.762-0.1504 2.686-0.01426 0.3151-0.03578 0.6087-0.06445 0.8809-0.02864 0.2721-0.1074 0.5085-0.2363 0.709-0.1217 0.1934-0.3151 0.3483-0.5801 0.4629-0.2578 0.1074-0.623 0.1602-1.096 0.1602-0.0358 0-0.05988 0.01172-0.07422 0.0332-0.00713 0.02149-0.01172 0.03842-0.01172 0.05274v0.4727c1e-5 0.05729 0.02868 0.08594 0.08594 0.08594h5.34c0.04293 0 0.06445-0.02864 0.06445-0.08594v-0.4727c0-0.01432-0.00459-0.03125-0.01172-0.05274 0-0.02149-0.01693-0.0332-0.05273-0.0332-0.2292 0-0.4486-0.01693-0.6562-0.05273s-0.3965-0.0905-0.5684-0.1621c-0.1719-0.07162-0.3151-0.1602-0.4297-0.2676-0.1146-0.1074-0.1862-0.2292-0.2148-0.3652v-0.4414c0-0.3008 0.00978-0.6829 0.03125-1.148 0.02146-0.4727 0.05013-0.9811 0.08593-1.525 0.03582-0.5443 0.07163-1.107 0.1074-1.688 0.03581-0.5801 0.07162-1.127 0.1074-1.643 0.0358-0.5228 0.06447-0.9928 0.08593-1.408 0.02147-0.4154 0.03321-0.7305 0.03321-0.9453 0-0.0931 0.02408-0.1387 0.07422-0.1387 0.02866 0 0.04755 0.01432 0.05468 0.04297 0.01434 0.02148 0.03127 0.05729 0.05274 0.1074l4.576 10.09c0.04297 0.1003 0.1263 0.1575 0.248 0.1719 0.1289 0.01432 0.3223 0.02148 0.5801 0.02148 0.1504 1e-6 0.2533-0.009763 0.3105-0.03125 0.06446-0.02148 0.1146-0.07161 0.1504-0.1504l4.705-10.18c0.0286-0.06445 0.05727-0.09766 0.08594-0.09766 0.0286 0 0.04749 0.03581 0.05469 0.1074l0.4941 8.777c0 0.2077-0.06901 0.375-0.2051 0.5039-0.1361 0.1217-0.3034 0.2148-0.5039 0.2793-0.2005 0.06445-0.4128 0.1074-0.6348 0.1289-0.2148 0.01433-0.4082 0.02148-0.5801 0.02148-0.05727 0-0.08594 0.02864-0.08594 0.08594v0.4727c0 0.05729 0.02867 0.08594 0.08594 0.08594h7.068c0.0358 0 0.05725-0.009763 0.06445-0.03125 0.01433-0.02148 0.02148-0.04036 0.02148-0.05469v-0.4727c1e-5 -0.01432-0.00715-0.03125-0.02148-0.05274-0.0072-0.02149-0.02865-0.0332-0.06445-0.0332h-0.1719c-0.1003-0.00716-0.2246-0.02148-0.375-0.04297-0.1432-0.02865-0.3008-0.06446-0.4726-0.1074-0.1647-0.05013-0.3223-0.1217-0.4727-0.2148s-0.2793-0.2103-0.3867-0.3535c-0.1003-0.1432-0.155-0.3197-0.1621-0.5273l-0.623-11.44c0-0.2506 0.07617-0.4512 0.2266-0.6016 0.1504-0.1576 0.3151-0.2767 0.4941-0.3555 0.1862-0.08594 0.3535-0.1432 0.5039-0.1719 0.1575-0.02865 0.2435-0.04297 0.2578-0.04297 0.0358 0 0.05725-0.009763 0.06445-0.03125 0.01433-0.02149 0.02148-0.04037 0.02148-0.05469v-0.4727c0-0.01432-0.00263-0.03125-0.00976-0.05274-0.00713-0.02149-0.03317-0.0332-0.07617-0.0332h-3.781c-0.07162 0-0.1432 0.04036-0.2148 0.1191-0.07161 0.07161-0.1432 0.1745-0.2148 0.3105l-4.619 10.22c-0.02147 0.05729-0.05014 0.1029-0.08594 0.1387-0.03581 0.03581-0.09309 0.05469-0.1719 0.05469s-0.1432-0.06185-0.1934-0.1836l-4.672-10.42c-0.04296-0.06445-0.09049-0.1146-0.1406-0.1504-0.05013-0.04297-0.1146-0.07162-0.1934-0.08594h-3.803zm26.24 0c-0.02866 0-0.04296 0.01888-0.04296 0.05469s0.01693 0.0931 0.05273 0.1719c0.04293 0.07161 0.06445 0.1315 0.06445 0.1816 0 0.01433-0.00263 0.02865-0.00976 0.04297v0.01172l-4.318 12.53c-0.1218 0.3581-0.2721 0.64-0.4512 0.8477-0.179 0.2005-0.3652 0.3555-0.5586 0.4629-0.1862 0.1003-0.3724 0.1673-0.5586 0.2031-0.179 0.02865-0.3366 0.04753-0.4727 0.05469-0.05726 0-0.08594 0.02864-0.08594 0.08594v0.418c0 0.05729 0.02868 0.08594 0.08594 0.08594h5.811c0.0358 0 0.05732-0.009763 0.06445-0.03125 0.01434-0.02148 0.02149-0.04036 0.02149-0.05469v-0.418c0-0.01432-0.00715-0.0332-0.02149-0.05469-0.00713-0.02149-0.02865-0.03125-0.06445-0.03125h-0.2793c-0.1647 0-0.3535-0.01432-0.5684-0.04297-0.2077-0.02865-0.4128-0.07617-0.6133-0.1406-0.2005-0.07161-0.3796-0.1647-0.5371-0.2793-0.1504-0.1217-0.2533-0.2721-0.3105-0.4512-0.0072-0.02148-0.01436-0.04297-0.02149-0.06445-0.00713-0.02865-0.01172-0.05273-0.01172-0.07422v-0.02148c0.0072-0.02148 0.0215-0.06901 0.04297-0.1406 0.02867-0.07878 0.07164-0.2005 0.1289-0.3652 0.05729-0.1647 0.1361-0.3965 0.2363-0.6973 0.1074-0.3008 0.2409-0.6803 0.3984-1.139 0.1576-0.4655 0.3509-1.036 0.5801-1.709 0-0.007167 0.00978-0.03581 0.03125-0.08594 0.02868-0.05013 0.06449-0.1003 0.1074-0.1504 0.04296-0.05013 0.09765-0.09571 0.1621-0.1387 0.06446-0.04297 0.1432-0.06445 0.2363-0.06445h3.877c0.08596 0 0.1576 0.02149 0.2148 0.06445 0.06446 0.04297 0.1146 0.0931 0.1504 0.1504 0.04293 0.05013 0.0716 0.1003 0.08593 0.1504 0.02154 0.05013 0.03584 0.08138 0.04297 0.0957l1.408 3.879c0.01433 0.05729 0.02148 0.1074 0.02148 0.1504 0 0.179-0.04752 0.3294-0.1406 0.4512s-0.2103 0.222-0.3535 0.3008c-0.1432 0.07162-0.3053 0.1289-0.4844 0.1719-0.1719 0.03581-0.3438 0.06445-0.5156 0.08594-0.1719 0.01433-0.332 0.02409-0.4824 0.03125-0.1432 0.00716-0.2552 0.01432-0.334 0.02148-0.01426 0-0.03578 0.004559-0.06445 0.01172h-0.08594c-0.0358 0-0.05988 0.009763-0.07422 0.03125-0.00713 0.02149-0.01171 0.04037-0.01171 0.05469v0.418c0 0.01432 0.00458 0.0332 0.01171 0.05469 0.01434 0.02149 0.03842 0.03125 0.07422 0.03125h7.541c0.0358 1e-6 0.05732-0.009763 0.06445-0.03125 0.01434-0.02148 0.02149-0.04036 0.02149-0.05469v-0.4082c0-0.02148-0.00715-0.04297-0.02149-0.06445-0.00713-0.02149-0.02865-0.03125-0.06445-0.03125-0.1576 0-0.3223-0.02864-0.4941-0.08594-0.1719-0.05729-0.3079-0.112-0.4082-0.1621-0.2148-0.0931-0.3893-0.1816-0.5254-0.2676-0.1361-0.0931-0.2506-0.1934-0.3437-0.3008-0.08593-0.1146-0.1621-0.2435-0.2266-0.3867-0.06445-0.1432-0.1315-0.3151-0.2031-0.5156l-4.545-12.75c-0.01427-0.03581-0.03579-0.05729-0.06446-0.06445-0.02146-0.007159-0.0384-0.01432-0.05273-0.02148h-3.115zm10.85 0c-0.0358 0-0.06184 0.01172-0.07617 0.0332-0.00713 0.02149-0.00976 0.03842-0.00976 0.05274v0.4727c0 0.01432 0.00263 0.0332 0.00976 0.05469 0.01433 0.02149 0.04037 0.03125 0.07617 0.03125 0.1074 0 0.265 0.01172 0.4727 0.0332 0.2148 0.02148 0.4225 0.06445 0.623 0.1289 0.2077 0.05729 0.3867 0.1458 0.5371 0.2676 0.1575 0.1146 0.2363 0.2695 0.2363 0.4629v10.73c0 0.2507-0.01173 0.487-0.0332 0.709-0.02147 0.222-0.06444 0.4271-0.1289 0.6133-0.05729 0.1862-0.1432 0.3509-0.2578 0.4941-0.1146 0.1432-0.2604 0.2578-0.4394 0.3438-0.04297 0.02149-0.1048 0.03581-0.1836 0.04297-0.07877 0.00716-0.1673 0.01432-0.2676 0.02148-0.0931 0.00716-0.1908 0.009765-0.291 0.009765h-0.2676c-0.05726 0-0.08593 0.02864-0.08593 0.08594v0.4727c0 0.02148 0.00978 0.04297 0.03125 0.06445 0.02146 0.01432 0.04035 0.02148 0.05468 0.02148h5.908c0.03586 1e-6 0.05732-0.009763 0.06445-0.03125 0.01433-0.02148 0.02148-0.04036 0.02148-0.05469v-0.4727c0-0.01432-0.00458-0.02864-0.01171-0.04297-0.01434-0.02865-0.03842-0.04297-0.07422-0.04297-0.07162 0-0.179-0.002605-0.3223-0.009765-0.1361-0.01433-0.2936-0.04037-0.4727-0.07617-0.1719-0.03581-0.3509-0.08138-0.5371-0.1387-0.179-0.06445-0.3437-0.1478-0.4941-0.248-0.1504-0.1074-0.2767-0.2318-0.377-0.375-0.0931-0.1504-0.1387-0.3268-0.1387-0.5273v-9.592c0-0.07161 0.01693-0.1074 0.05273-0.1074s0.06447 0.007158 0.08594 0.02148c0.02148 0.00716 0.05729 0.0358 0.1074 0.08594l10.14 11.25c0.1862 0.2077 0.3724 0.3411 0.5586 0.3984 0.1934 0.06445 0.3626 0.0957 0.5059 0.0957 0.08594 0 0.179-0.01432 0.2793-0.04297 0.1074-0.02149 0.2031-0.0573 0.2891-0.1074 0.09312-0.05013 0.1693-0.1146 0.2266-0.1934 0.05727-0.08594 0.08594-0.1888 0.08594-0.3105v-12.71c0-0.2005 0.07422-0.3796 0.2246-0.5371 0.1576-0.1576 0.3438-0.2891 0.5586-0.3965 0.2148-0.1074 0.4342-0.1908 0.6562-0.248 0.2292-0.05729 0.4154-0.08594 0.5586-0.08594 0.0358 0 0.05732-0.009763 0.06445-0.03125 0.01433-0.02149 0.02148-0.04037 0.02149-0.05469v-0.4727c0-0.01432-0.00459-0.03125-0.01172-0.05274-0.0072-0.02149-0.03129-0.0332-0.07422-0.0332h-5.908c-0.0358 0-0.06183 0.01172-0.07617 0.0332-0.00713 0.02149-0.00976 0.03842-0.00976 0.05274v0.4727c0 0.01432 0.00263 0.0332 0.00976 0.05469 0.01434 0.02149 0.04037 0.03125 0.07617 0.03125h0.5469c0.3581 0 0.6517 0.03581 0.8809 0.1074 0.2292 0.07162 0.4128 0.222 0.5488 0.4512 0.1361 0.222 0.2292 0.5488 0.2793 0.9785 0.05014 0.4225 0.07422 0.9883 0.07422 1.697v6.381c0 0.02148-0.00263 0.04297-0.00976 0.06445-0.00714 0.02149-0.02602 0.03125-0.05469 0.03125-0.02147 0-0.0384-0.007165-0.05274-0.02148-0.01433-0.02149-0.04037-0.05013-0.07617-0.08594l-9.26-10.25h-4.865zm-48.82 0.5918c0.6159 0 1.186 0.0931 1.709 0.2793 0.53 0.179 1.01 0.4323 1.439 0.7617 0.4369 0.3294 0.819 0.7207 1.148 1.172 0.3366 0.444 0.6159 0.9336 0.8379 1.471 0.2292 0.5299 0.401 1.093 0.5156 1.688 0.1218 0.5872 0.1836 1.189 0.1836 1.805 0 0.8451-0.1048 1.664-0.3125 2.459-0.2005 0.7878-0.5111 1.487-0.9336 2.096-0.4154 0.6087-0.9427 1.098-1.58 1.471-0.6374 0.3652-1.389 0.5488-2.256 0.5488-0.6159 0-1.189-0.09766-1.719-0.291-0.5228-0.2005-0.998-0.4727-1.428-0.8164-0.4297-0.3509-0.8138-0.7591-1.15-1.225-0.3366-0.4727-0.6185-0.9766-0.8476-1.514-0.2292-0.5371-0.4056-1.096-0.5274-1.676-0.1146-0.5801-0.1719-1.16-0.1719-1.74 0-0.5371 0.05013-1.072 0.1504-1.602 0.1003-0.5371 0.248-1.046 0.4414-1.525 0.1934-0.4798 0.4323-0.9238 0.7188-1.332 0.2865-0.4154 0.6159-0.7689 0.9883-1.062 0.3796-0.3008 0.8021-0.5371 1.268-0.709 0.4655-0.1719 0.974-0.2578 1.525-0.2578zm-18.3 0.05273c0.487 0 0.7305 0.1146 0.7305 0.3438 0 0.07161-0.007165 0.1361-0.02148 0.1934-0.00716 0.05729-0.0358 0.1432-0.08594 0.2578l-0.8691 2.02c-0.1576-0.3796-0.2865-0.6875-0.3867-0.9238-0.0931-0.2363-0.1693-0.4251-0.2266-0.5684-0.05013-0.1504-0.08594-0.2695-0.1074-0.3555s-0.03125-0.1673-0.03125-0.2461c0-0.07878 0.01432-0.1621 0.04297-0.248 0.02864-0.08594 0.07878-0.1602 0.1504-0.2246 0.07878-0.07162 0.1816-0.1289 0.3105-0.1719 0.1289-0.05013 0.2936-0.07617 0.4941-0.07617zm57.23 2.59c0.0573 0 0.1218 0.02409 0.1934 0.07422 0.07162 0.04297 0.1263 0.1146 0.1621 0.2148l1.428 3.922c0.01434 0.03581 0.02607 0.06706 0.03321 0.0957 0.00713 0.02865 0.00976 0.06185 0.00976 0.09766 0 0.04297-0.0143 0.08138-0.04297 0.1172-0.02148 0.02865-0.07161 0.04297-0.1504 0.04297h-3.223c-0.06447 0-0.1074-0.009763-0.1289-0.03125-0.02146-0.02865-0.03125-0.06446-0.03125-0.1074 0-0.03581 0.00263-0.07162 0.00977-0.1074 0.00713-0.03581 0.01887-0.07162 0.0332-0.1074l1.354-3.91c0.0358-0.0931 0.08854-0.1647 0.1602-0.2148 0.07164-0.05729 0.1361-0.08594 0.1934-0.08594zm31.13 9.033c-0.2292 0-0.444 0.04297-0.6445 0.1289-0.1934 0.08594-0.3652 0.2051-0.5156 0.3555-0.1432 0.1504-0.2578 0.3249-0.3437 0.5254s-0.1289 0.4128-0.1289 0.6348 0.04297 0.4323 0.1289 0.6328 0.2005 0.3796 0.3437 0.5371c0.1504 0.1504 0.3223 0.2695 0.5156 0.3555 0.2005 0.0931 0.4154 0.1387 0.6445 0.1387 0.222 0 0.4342-0.04557 0.6348-0.1387 0.2005-0.08594 0.3724-0.2051 0.5156-0.3555 0.1432-0.1576 0.2578-0.3366 0.3438-0.5371 0.08594-0.2005 0.1289-0.4108 0.1289-0.6328s-0.04297-0.4342-0.1289-0.6348c-0.08593-0.2005-0.2005-0.375-0.3438-0.5254-0.1432-0.1504-0.3151-0.2695-0.5156-0.3555-0.2005-0.08594-0.4128-0.1289-0.6348-0.1289zm-36.5 224.8c-0.151 0-0.2917 0.02672-0.4219 0.08399-0.1302 0.05729-0.2448 0.1354-0.3438 0.2344-0.09378 0.09375-0.1693 0.2083-0.2266 0.3438-0.05207 0.1302-0.07812 0.2708-0.07812 0.4219-1e-5 0.151 0.02605 0.2917 0.07812 0.4219 0.05729 0.125 0.1328 0.2344 0.2266 0.3281 0.09896 0.09377 0.2135 0.1693 0.3438 0.2266 0.1302 0.05206 0.2708 0.07812 0.4219 0.07812s0.2917-0.02606 0.4219-0.07812c0.1302-0.05729 0.2422-0.1328 0.3359-0.2266 0.09898-0.09375 0.1745-0.2031 0.2266-0.3281 0.05727-0.1302 0.08594-0.2708 0.08594-0.4219s-0.02867-0.2917-0.08594-0.4219c-0.05208-0.1354-0.1276-0.25-0.2266-0.3438-0.09375-0.09899-0.2057-0.1771-0.3359-0.2344-0.1302-0.05727-0.2708-0.08399-0.4219-0.08399zm3.43 0c-0.151 0-0.2917 0.02672-0.4219 0.08399-0.125 0.05729-0.237 0.1354-0.3359 0.2344-0.09898 0.09375-0.1771 0.2083-0.2344 0.3438-0.05207 0.1302-0.07813 0.2708-0.07813 0.4219s0.02606 0.2917 0.07813 0.4219c0.05729 0.125 0.1354 0.2344 0.2344 0.3281 0.09896 0.09377 0.2109 0.1693 0.3359 0.2266 0.1302 0.05206 0.2708 0.07812 0.4219 0.07812 0.1562 0 0.2995-0.02606 0.4297-0.07812 0.1302-0.05729 0.2422-0.1328 0.3359-0.2266 0.09377-0.09375 0.1667-0.2031 0.2188-0.3281 0.05727-0.1302 0.08594-0.2708 0.08594-0.4219s-0.02867-0.2917-0.08594-0.4219c-0.05208-0.1354-0.125-0.25-0.2188-0.3438-0.09375-0.09899-0.2057-0.1771-0.3359-0.2344-0.1302-0.05727-0.2734-0.08399-0.4297-0.08399zm-1.461 3.248c-0.625 0-1.221 0.0677-1.789 0.2031-0.5677 0.1354-1.094 0.3255-1.578 0.5703-0.4844 0.2448-0.9245 0.5417-1.32 0.8906-0.3906 0.349-0.724 0.737-1 1.164s-0.4896 0.888-0.6406 1.383c-0.1458 0.4948-0.2188 1.013-0.2188 1.555 0 0.6094 0.06771 1.159 0.2031 1.648 0.1406 0.4896 0.3255 0.9271 0.5547 1.312 0.2344 0.3802 0.5052 0.7162 0.8125 1.008 0.3073 0.2865 0.6302 0.5365 0.9687 0.75 0.3438 0.2083 0.6927 0.3802 1.047 0.5156s0.6927 0.2448 1.016 0.3281c0.3281 0.08332 0.6276 0.1406 0.8984 0.1719 0.276 0.03126 0.5052 0.04687 0.6875 0.04687 0.6198 0 1.208-0.07812 1.766-0.2344 0.5573-0.1562 1.07-0.3724 1.539-0.6484 0.4688-0.2812 0.8906-0.6094 1.266-0.9844 0.3802-0.375 0.7031-0.7812 0.9687-1.219 0.2656-0.4427 0.4688-0.9036 0.6094-1.383 0.1406-0.4844 0.2109-0.9714 0.2109-1.461 0-0.5208-0.07292-1.021-0.2188-1.5-0.1458-0.4844-0.3516-0.9349-0.6172-1.352-0.2656-0.4167-0.5833-0.7943-0.9531-1.133-0.3646-0.3386-0.7682-0.6276-1.211-0.8672-0.4427-0.2448-0.9193-0.4323-1.43-0.5625-0.5052-0.1354-1.029-0.2031-1.57-0.2031zm-127.3 0.2129c-0.2865 0-0.5938 0.00522-0.9219 0.01562-0.3229 0.0052-0.651 0.01304-0.9844 0.02344s-0.6641 0.02085-0.9922 0.03125c-0.3229 0.01027-0.6276 0.01811-0.9141 0.02344-0.1979 0.00507-0.3516 0.01029-0.4609 0.01562-0.1094 0-0.1927 0.00248-0.25 0.00782h-0.1172-0.03125c-0.03126 0.0052-0.04949 0.01565-0.05469 0.03125-0.005201 0.0104-0.007813 0.02085-0.007813 0.03125v0.3438c0 0.01046 0.002612 0.02346 0.007813 0.03906 0.01042 0.0156 0.02865 0.02344 0.05469 0.02344h0.2969c0.04688 0 0.1354 0.01045 0.2656 0.03125 0.1354 0.01562 0.2734 0.0625 0.4141 0.1406 0.1458 0.07292 0.2734 0.1849 0.3828 0.3359s0.1641 0.3568 0.1641 0.6172v7.938c1e-6 0.2292-0.0599 0.4219-0.1797 0.5781-0.1146 0.151-0.3203 0.2604-0.6172 0.3281-0.02604 0.0052-0.07031 0.01565-0.1328 0.03125-0.0625 0.0104-0.1302 0.02085-0.2031 0.03125s-0.1432 0.02085-0.2109 0.03125c-0.06771 0.0104-0.1172 0.01562-0.1484 0.01562-0.03126 0-0.04949 0.0085-0.05469 0.0293-0.005201 0.01546-0.007813 0.02591-0.007813 0.03125v0.0957c0 0.0625 0.002612 0.1302 0.007813 0.2031 0.01042 0.07291 0.02865 0.1094 0.05469 0.1094h5.508c0.02605 0 0.04168-0.00784 0.04687-0.02344 0.01042-0.01566 0.01563-0.02866 0.01563-0.03906v-0.3438c0-0.01047-0.002613-0.02346-0.007813-0.03906-0.005213-0.0156-0.02344-0.02344-0.05469-0.02344-0.04688 0-0.1042-0.00522-0.1719-0.01562-0.06771-0.0104-0.138-0.02085-0.2109-0.03125-0.06771-0.01567-0.1328-0.02867-0.1953-0.03907-0.0573-0.01026-0.1016-0.0181-0.1328-0.02343-0.1979-0.02606-0.3672-0.06251-0.5078-0.1094-0.1354-0.04687-0.2474-0.1068-0.3359-0.1797-0.08333-0.07812-0.1432-0.1693-0.1797-0.2734-0.03646-0.1042-0.05469-0.2266-0.05469-0.3672v-3.328c0-0.03126 0.002612-0.0521 0.007813-0.0625 0.005206-0.0104 0.01562-0.02085 0.03125-0.03125 0.01563-0.0104 0.04166-0.01562 0.07812-0.01562h0.0625l1.219 0.08594c0.1198 0.1615 0.2526 0.3568 0.3984 0.5859 0.1458 0.2292 0.2969 0.4766 0.4531 0.7422 0.1615 0.2656 0.3255 0.5391 0.4922 0.8203 0.1719 0.276 0.3438 0.5443 0.5156 0.8047 0.1771 0.2552 0.3516 0.4948 0.5234 0.7188 0.1719 0.224 0.3411 0.4089 0.5078 0.5547 0.1719 0.1562 0.3828 0.2865 0.6328 0.3906 0.2552 0.1042 0.5234 0.1875 0.8047 0.25 0.2812 0.06768 0.5599 0.1146 0.8359 0.1406 0.2812 0.03127 0.5312 0.04687 0.75 0.04687 0.08854 0 0.1536-0.01299 0.1953-0.03906 0.04167-0.02604 0.0625-0.07812 0.0625-0.1562-1e-6 -0.02607-0.005205-0.0469-0.01563-0.0625-0.005206-0.02087-0.02864-0.03647-0.07031-0.04687-0.3594-0.1042-0.6745-0.2865-0.9453-0.5469-0.2708-0.2656-0.5078-0.5599-0.7109-0.8828l-2.367-3.75c0.2656-0.1198 0.5104-0.2578 0.7344-0.4141 0.2292-0.1563 0.4245-0.336 0.5859-0.5391 0.1667-0.2083 0.2969-0.4453 0.3906-0.7109 0.09375-0.2708 0.1406-0.5781 0.1406-0.9219 0-0.5312-0.112-1-0.3359-1.406-0.2188-0.4062-0.5026-0.7448-0.8516-1.016-0.3438-0.276-0.7292-0.4844-1.156-0.625-0.4271-0.1406-0.8464-0.2109-1.258-0.2109h-0.7891zm86.09 0c-0.2865 0-0.5938 0.00522-0.9219 0.01562-0.3229 0.0052-0.651 0.01304-0.9844 0.02344-0.3333 0.0104-0.6641 0.02085-0.9922 0.03125-0.3229 0.01027-0.6276 0.01811-0.9141 0.02344-0.1979 0.00507-0.3516 0.01029-0.4609 0.01562-0.1094 0-0.1927 0.00248-0.25 0.00782h-0.1172-0.03125c-0.03126 0.0052-0.04949 0.01565-0.05469 0.03125-0.0052 0.0104-0.007812 0.02085-0.007813 0.03125v0.3438c1e-6 0.01046 0.002613 0.02346 0.007813 0.03906 0.01042 0.0156 0.02865 0.02344 0.05469 0.02344h0.2969c0.04687 0 0.1354 0.01045 0.2656 0.03125 0.1354 0.01562 0.2734 0.0625 0.4141 0.1406 0.1458 0.07292 0.2734 0.1849 0.3828 0.3359 0.1094 0.151 0.1641 0.3568 0.1641 0.6172v7.938c0 0.2292-0.0599 0.4219-0.1797 0.5781-0.1146 0.151-0.3203 0.2604-0.6172 0.3281-0.02604 0.0052-0.07031 0.01565-0.1328 0.03125-0.0625 0.0104-0.1302 0.02085-0.2031 0.03125-0.07292 0.0104-0.1432 0.02085-0.2109 0.03125-0.06771 0.0104-0.1172 0.01562-0.1484 0.01562-0.03126 0-0.04949 0.0085-0.05469 0.0293-0.0052 0.01546-0.007812 0.02591-0.007813 0.03125v0.0957c1e-6 0.0625 0.002613 0.1302 0.007813 0.2031 0.01042 0.07291 0.02865 0.1094 0.05469 0.1094h5.508c0.02594 0 0.04155-0.00784 0.04688-0.02344 0.0104-0.01566 0.01562-0.02866 0.01562-0.03906v-0.3438c1e-5 -0.01047-0.00247-0.02346-0.00781-0.03906-0.0052-0.0156-0.02342-0.02344-0.05469-0.02344-0.04687 0-0.1042-0.00522-0.1719-0.01562s-0.138-0.02085-0.2109-0.03125c-0.06774-0.01567-0.1328-0.02867-0.1953-0.03907-0.05727-0.01026-0.1016-0.0181-0.1328-0.02343-0.1979-0.02606-0.3672-0.06251-0.5078-0.1094-0.1354-0.04687-0.2474-0.1068-0.3359-0.1797-0.08333-0.07812-0.1432-0.1693-0.1797-0.2734-0.03647-0.1042-0.05469-0.2266-0.05469-0.3672v-3.328c0-0.03126 0.00248-0.0521 0.00782-0.0625 0.00519-0.0104 0.01564-0.02085 0.03124-0.03125s0.04166-0.01562 0.07813-0.01562h0.0625l1.219 0.08594c0.1198 0.1615 0.2526 0.3568 0.3984 0.5859 0.1458 0.2292 0.2969 0.4766 0.4531 0.7422 0.1615 0.2656 0.3255 0.5391 0.4922 0.8203 0.1719 0.276 0.3438 0.5443 0.5156 0.8047 0.1771 0.2552 0.3516 0.4948 0.5234 0.7188 0.1719 0.224 0.3412 0.4089 0.5078 0.5547 0.1719 0.1562 0.3828 0.2865 0.6328 0.3906 0.2552 0.1042 0.5234 0.1875 0.8047 0.25 0.2812 0.06768 0.5599 0.1146 0.8359 0.1406 0.2812 0.03127 0.5312 0.04687 0.75 0.04687 0.08854 0 0.1536-0.01299 0.1953-0.03906 0.04166-0.02604 0.0625-0.07812 0.0625-0.1562 0-0.02607-0.00523-0.0469-0.01563-0.0625-0.0052-0.02087-0.02865-0.03647-0.07031-0.04687-0.3594-0.1042-0.6745-0.2865-0.9453-0.5469-0.2708-0.2656-0.5078-0.5599-0.7109-0.8828l-2.367-3.75c0.2656-0.1198 0.5104-0.2578 0.7344-0.4141 0.2292-0.1563 0.4245-0.336 0.5859-0.5391 0.1667-0.2083 0.2969-0.4453 0.3906-0.7109 0.09375-0.2708 0.1406-0.5781 0.1406-0.9219 0-0.5312-0.112-1-0.3359-1.406-0.2188-0.4062-0.5026-0.7448-0.8516-1.016-0.3438-0.276-0.7292-0.4844-1.156-0.625-0.4271-0.1406-0.8464-0.2109-1.258-0.2109h-0.7891zm-23.41 0.02148c-0.3021 0-0.6302 0.00248-0.9844 0.00782-0.349 0-0.6745 0.00443-0.9766 0.00976l-3.211 0.05469h-0.1719c-0.03126 0-0.04949 0.01045-0.05469 0.03125-0.005201 0.01547-0.007813 0.02592-0.007813 0.03125v0.3359c0 0.00526 0.002612 0.01826 0.007813 0.03906 0.005213 0.0156 0.02344 0.02344 0.05469 0.02344h0.5c0.1146 0 0.237 0.0156 0.3672 0.04687 0.1302 0.03125 0.2474 0.08334 0.3516 0.1562 0.1094 0.06771 0.1979 0.1589 0.2656 0.2734 0.07292 0.1094 0.1094 0.2448 0.1094 0.4062v8.328c0 0.2135-0.05469 0.3828-0.1641 0.5078-0.1042 0.1198-0.2318 0.211-0.3828 0.2734-0.151 0.05732-0.3073 0.09378-0.4688 0.1094-0.1615 0.0104-0.2969 0.01562-0.4062 0.01562h-0.1719c-0.03126 0-0.04949 0.0085-0.05469 0.0293-0.005201 0.01547-0.007813 0.02592-0.007813 0.03125v0.3359c0 0.00526 0.002612 0.01826 0.007813 0.03906 0.005213 0.0156 0.02344 0.02344 0.05469 0.02344h0.2266 6.172c0.5417 0 1.07-0.0625 1.586-0.1875 0.5156-0.1302 1.003-0.3125 1.461-0.5469 0.4583-0.2396 0.8776-0.5286 1.258-0.8672 0.3854-0.3438 0.7161-0.7266 0.9922-1.148 0.2812-0.4271 0.5-0.8906 0.6562-1.391 0.1562-0.5052 0.2344-1.039 0.2344-1.602 0-0.5833-0.1042-1.154-0.3125-1.711-0.2031-0.5573-0.487-1.065-0.8516-1.523-0.3594-0.4583-0.7891-0.849-1.289-1.172-0.4948-0.3229-1.031-0.5443-1.609-0.6641-0.3021-0.06249-0.5755-0.112-0.8203-0.1484-0.2448-0.03647-0.487-0.06514-0.7266-0.08594-0.2396-0.02593-0.4896-0.04154-0.75-0.04687-0.2604-0.0104-0.5547-0.01563-0.8828-0.01563zm-51.25 0.09375c-0.02083 0-0.03125 0.013-0.03125 0.03907 0 0.02606 0.01302 0.06773 0.03906 0.125 0.03125 0.05207 0.04688 0.09634 0.04687 0.1328 1e-6 0.0104-0.002612 0.02085-0.007812 0.03125v0.00781l-3.141 9.109c-0.08854 0.2604-0.1979 0.4661-0.3281 0.6172-0.1302 0.1458-0.2656 0.2578-0.4062 0.3359-0.1354 0.07289-0.2708 0.1224-0.4062 0.1484-0.1302 0.02073-0.2448 0.03373-0.3438 0.03906-0.04167 0-0.0625 0.02083-0.0625 0.0625v0.3047c0 0.04166 0.02083 0.0625 0.0625 0.0625h4.227c0.02605 0 0.04168-0.00784 0.04688-0.02344 0.01042-0.01567 0.01562-0.02866 0.01562-0.03906v-0.3047c1e-6 -0.01047-0.005205-0.02346-0.01562-0.03906-0.005207-0.0156-0.02084-0.02344-0.04688-0.02344h-0.2031c-0.1198 0-0.2578-0.01045-0.4141-0.03125-0.151-0.02085-0.2995-0.0547-0.4453-0.1016-0.1458-0.05208-0.276-0.1198-0.3906-0.2031-0.1094-0.08854-0.1849-0.1979-0.2266-0.3281-0.00522-0.01567-0.01042-0.03128-0.01562-0.04688-0.0052-0.02086-0.007812-0.03908-0.007812-0.05468v-0.01563c0.005206-0.01565 0.01562-0.0495 0.03125-0.1016 0.02083-0.05729 0.05208-0.1458 0.09375-0.2656 0.04167-0.1198 0.09896-0.2891 0.1719-0.5078 0.07812-0.2188 0.1745-0.4948 0.2891-0.8281 0.1146-0.3385 0.2552-0.7526 0.4219-1.242 0-0.0052 0.007811-0.02604 0.02344-0.0625 0.02084-0.03645 0.04688-0.07291 0.07812-0.1094 0.03125-0.03644 0.07032-0.07029 0.1172-0.1016 0.04688-0.03127 0.1042-0.04687 0.1719-0.04687h2.82c0.0625 0 0.1146 0.0156 0.1562 0.04687 0.04688 0.03125 0.08333 0.06771 0.1094 0.1094 0.03125 0.03645 0.05208 0.0729 0.0625 0.1094 0.01563 0.03647 0.02605 0.05991 0.03125 0.07031l1.023 2.82c0.01042 0.04165 0.01562 0.0781 0.01562 0.1094 0 0.1302-0.03385 0.2396-0.1016 0.3281-0.06771 0.08856-0.1536 0.1615-0.2578 0.2188-0.1042 0.05206-0.2214 0.09373-0.3516 0.125-0.125 0.02606-0.25 0.0469-0.375 0.0625-0.125 0.01026-0.2422 0.0181-0.3516 0.02343-0.1042 0.00507-0.1849 0.01029-0.2422 0.01563-0.01041 0-0.02604 0.00248-0.04688 0.00781h-0.0625c-0.02604 0-0.04427 0.00784-0.05469 0.02344-0.0052 0.01566-0.007813 0.02866-0.007813 0.03906v0.3047c1e-6 0.01046 0.002613 0.02346 0.007813 0.03906 0.01042 0.0156 0.02865 0.02344 0.05469 0.02344h5.484c0.02605 0 0.04167-0.00784 0.04687-0.02344 0.01042-0.01567 0.01563-0.02866 0.01563-0.03906v-0.2969c0-0.01566-0.005206-0.03127-0.01563-0.04687-0.005206-0.0156-0.02083-0.02344-0.04687-0.02344-0.1146 0-0.2344-0.02083-0.3594-0.0625-0.125-0.04166-0.224-0.08072-0.2969-0.1172-0.1562-0.06774-0.2839-0.1328-0.3828-0.1953-0.09896-0.06771-0.1823-0.1406-0.25-0.2188-0.0625-0.08333-0.1172-0.1771-0.1641-0.2812-0.04687-0.1042-0.09635-0.2292-0.1484-0.375l-3.305-9.273c-0.01041-0.02593-0.02604-0.04154-0.04688-0.04687-0.01562-0.00507-0.02864-0.01029-0.03906-0.01563h-2.266zm4.727 0c-0.04167 0-0.0625 0.02084-0.0625 0.0625v0.3047c0 0.04167 0.02083 0.0625 0.0625 0.0625 0.005206 0 0.02604 0.00443 0.0625 0.00977 0.03646 0.0052 0.07552 0.01303 0.1172 0.02343 0.04688 0.0052 0.09375 0.01109 0.1406 0.02149s0.08854 0.02085 0.125 0.03125c0.04688 0.0104 0.1068 0.03123 0.1797 0.0625 0.07292 0.02606 0.1484 0.06773 0.2266 0.125 0.07812 0.05208 0.1536 0.1198 0.2266 0.2031 0.07813 0.07813 0.1406 0.1745 0.1875 0.2891l4.07 9.859c0.03646 0.1146 0.1172 0.1719 0.2422 0.1719h1.148c0.1198 0 0.2135-0.013 0.2812-0.03907 0.06771-0.02604 0.125-0.1042 0.1719-0.2344l3.023-8.172c0.08854-0.2344 0.1771-0.4766 0.2656-0.7266 0.08854-0.2552 0.1953-0.4922 0.3203-0.7109 0.1302-0.224 0.2865-0.4167 0.4688-0.5781 0.1875-0.1667 0.4245-0.2787 0.7109-0.3359h0.2891c0.03126 0 0.04949-0.00522 0.05469-0.01562 0.0052-0.01567 0.007812-0.03128 0.007812-0.04688v-0.3047c0-0.01046-0.002612-0.02346-0.007812-0.03906-0.005214-0.0156-0.02344-0.02344-0.05469-0.02344h-4.18c-0.03126 0-0.04949 0.00784-0.05469 0.02344-0.0052 0.01567-0.007813 0.02866-0.007813 0.03906v0.3047c0 0.04167 0.02083 0.0625 0.0625 0.0625 0.03125 0 0.08333 0.00523 0.1562 0.01563 0.07292 0.01046 0.1484 0.02346 0.2266 0.03906 0.07812 0.0104 0.151 0.02085 0.2188 0.03125 0.07292 0.01026 0.125 0.0181 0.1562 0.02344 0.2135 0.03646 0.3802 0.1224 0.5 0.2578 0.1198 0.1302 0.1797 0.2865 0.1797 0.4688 0 0.0521-0.01302 0.1042-0.03906 0.1562-0.02083 0.0469-0.04167 0.09898-0.0625 0.1562l-2.562 6.922c-0.02083 0.05727-0.04948 0.08594-0.08594 0.08594-0.01041 0-0.02083-0.00522-0.03125-0.01562-0.01041-0.01027-0.02083-0.01811-0.03125-0.02344-0.00522-0.01047-0.01042-0.02346-0.01562-0.03906l-2.789-6.766c-0.02605-0.05729-0.05208-0.1302-0.07812-0.2188-0.02083-0.08855-0.03125-0.1667-0.03125-0.2344 0-0.1875 0.04688-0.3333 0.1406-0.4375 0.09896-0.1094 0.2188-0.1901 0.3594-0.2422 0.1458-0.05732 0.2995-0.09639 0.4609-0.1172 0.1667-0.02087 0.3151-0.0417 0.4453-0.0625h0.1172c0.02605 0 0.04167-0.00784 0.04687-0.02344 0.01042-0.01566 0.01563-0.02866 0.01563-0.03906v-0.3047c0-0.01566-0.002613-0.02866-0.007813-0.03906-0.005213-0.0156-0.02344-0.02344-0.05469-0.02344h-5.312zm23.12 0c-0.02604 0-0.04427 0.00784-0.05469 0.02344-0.005201 0.01567-0.007813 0.02866-0.007813 0.03906v0.3438c0 0.01047 0.002612 0.02347 0.007813 0.03907 0.01042 0.0156 0.02865 0.02343 0.05469 0.02343 0.07812 0 0.1927 0.00784 0.3438 0.02344 0.1562 0.0156 0.3073 0.04688 0.4531 0.09375 0.151 0.04167 0.2812 0.1068 0.3906 0.1953 0.1146 0.08334 0.1719 0.1953 0.1719 0.3359v7.805c0 0.1823-0.007811 0.3542-0.02344 0.5156-0.01563 0.1615-0.04688 0.3099-0.09375 0.4453-0.04167 0.1354-0.1042 0.2552-0.1875 0.3594-0.08333 0.1042-0.1901 0.1875-0.3203 0.25-0.03125 0.01547-0.07552 0.02592-0.1328 0.03125-0.05729 0.00507-0.1224 0.01029-0.1953 0.01563-0.06771 0.00533-0.138 0.00781-0.2109 0.00781h-0.1953c-0.04167 0-0.0625 0.02083-0.0625 0.0625v0.3438c0 0.01566 0.007811 0.03127 0.02344 0.04687 0.01562 0.0104 0.02864 0.01563 0.03906 0.01563h4.297c0.02605 0 0.04168-0.00784 0.04688-0.02344 0.01042-0.01567 0.01562-0.02866 0.01562-0.03906v-0.3438c0-0.0104-0.002612-0.02085-0.007812-0.03125-0.01042-0.0208-0.02865-0.0293-0.05469-0.0293-0.05208 0-0.1302-0.00443-0.2344-0.00976-0.09896-0.0104-0.2135-0.02863-0.3438-0.05469-0.125-0.02604-0.2552-0.0599-0.3906-0.1016-0.1302-0.04688-0.25-0.1068-0.3594-0.1797-0.1094-0.07812-0.2005-0.1693-0.2734-0.2734-0.06771-0.1094-0.1016-0.237-0.1016-0.3828v-6.977c0-0.05207 0.01302-0.07813 0.03906-0.07813 0.02604 0 0.04687 0.00523 0.0625 0.01563 0.01563 0.0052 0.04166 0.02603 0.07812 0.0625l7.375 8.18c0.1354 0.151 0.2708 0.2474 0.4062 0.2891 0.1406 0.04686 0.263 0.07031 0.3672 0.07031 0.0625 0 0.1302-0.01045 0.2031-0.03125 0.07812-0.0156 0.1484-0.04166 0.2109-0.07813 0.06771-0.03648 0.1224-0.08336 0.1641-0.1406 0.04167-0.0625 0.0625-0.138 0.0625-0.2266v-9.242c0-0.1458 0.05469-0.276 0.1641-0.3906 0.1146-0.1146 0.25-0.2109 0.4062-0.2891 0.1562-0.07813 0.3151-0.138 0.4766-0.1797 0.1667-0.04166 0.3021-0.0625 0.4062-0.0625 0.02605 0 0.04168-0.00783 0.04688-0.02343 0.01042-0.01567 0.01562-0.02867 0.01562-0.03907v-0.3438c0-0.01046-0.002612-0.02346-0.007812-0.03906-0.005214-0.0156-0.02344-0.02344-0.05469-0.02344h-4.297c-0.02604 0-0.04427 0.00784-0.05469 0.02344-0.005201 0.01567-0.007813 0.02866-0.007813 0.03906v0.3438c0 0.01047 0.002612 0.02347 0.007813 0.03907 0.01042 0.0156 0.02865 0.02343 0.05469 0.02343h0.3984c0.2604 0 0.474 0.02606 0.6406 0.07813 0.1667 0.05208 0.2995 0.1615 0.3984 0.3281 0.09896 0.1615 0.1667 0.3984 0.2031 0.7109 0.03646 0.3073 0.05469 0.7188 0.05469 1.234v4.641c0 0.01567-0.002613 0.03128-0.007813 0.04688-0.005207 0.0156-0.01823 0.02343-0.03906 0.02343-0.01562 0-0.02864-0.00522-0.03906-0.01562-0.01042-0.0156-0.02865-0.03644-0.05469-0.0625l-6.734-7.453h-3.539zm34.41 0c-0.02083 0-0.03125 0.013-0.03125 0.03907 0 0.02606 0.01302 0.06773 0.03906 0.125 0.03125 0.05207 0.04688 0.09634 0.04688 0.1328 0 0.0104-0.002612 0.02085-0.007813 0.03125v0.00781l-3.141 9.109c-0.08854 0.2604-0.1979 0.4661-0.3281 0.6172-0.1302 0.1458-0.2656 0.2578-0.4062 0.3359-0.1354 0.07289-0.2708 0.1224-0.4062 0.1484-0.1302 0.02073-0.2448 0.03373-0.3438 0.03906-0.04167 0-0.0625 0.02083-0.0625 0.0625v0.3047c0 0.04166 0.02083 0.0625 0.0625 0.0625h4.227c0.02605 0 0.04168-0.00784 0.04688-0.02344 0.01042-0.01567 0.01562-0.02866 0.01562-0.03906v-0.3047c0-0.01047-0.005205-0.02346-0.01562-0.03906-0.005207-0.0156-0.02084-0.02344-0.04688-0.02344h-0.2031c-0.1198 0-0.2578-0.01045-0.4141-0.03125-0.151-0.02085-0.2995-0.0547-0.4453-0.1016-0.1458-0.05208-0.276-0.1198-0.3906-0.2031-0.1094-0.08854-0.1849-0.1979-0.2266-0.3281-0.00522-0.01567-0.01043-0.03128-0.01563-0.04688-0.0052-0.02086-0.007812-0.03908-0.007812-0.05468v-0.01563c0.005207-0.01565 0.01562-0.0495 0.03125-0.1016 0.02083-0.05729 0.05208-0.1458 0.09375-0.2656 0.04167-0.1198 0.09896-0.2891 0.1719-0.5078 0.07812-0.2188 0.1745-0.4948 0.2891-0.8281 0.1146-0.3385 0.2552-0.7526 0.4219-1.242 0-0.0052 0.007811-0.02604 0.02344-0.0625 0.02084-0.03645 0.04688-0.07291 0.07812-0.1094 0.03125-0.03644 0.07031-0.07029 0.1172-0.1016 0.04688-0.03127 0.1042-0.04687 0.1719-0.04687h2.82c0.0625 0 0.1146 0.0156 0.1562 0.04687 0.04688 0.03125 0.08334 0.06771 0.1094 0.1094 0.03125 0.03645 0.05208 0.0729 0.0625 0.1094 0.01563 0.03647 0.02605 0.05991 0.03125 0.07031l1.023 2.82c0.01042 0.04165 0.01562 0.0781 0.01563 0.1094 0 0.1302-0.03385 0.2396-0.1016 0.3281-0.06771 0.08856-0.1536 0.1615-0.2578 0.2188-0.1042 0.05206-0.2214 0.09373-0.3516 0.125-0.125 0.02606-0.25 0.0469-0.375 0.0625-0.125 0.01026-0.2422 0.0181-0.3516 0.02343-0.1042 0.00507-0.1849 0.01029-0.2422 0.01563-0.01041 0-0.02604 0.00248-0.04688 0.00781h-0.0625c-0.02604 0-0.04427 0.00784-0.05469 0.02344-0.005201 0.01566-0.007813 0.02866-0.007813 0.03906v0.3047c0 0.01046 0.002612 0.02346 0.007813 0.03906 0.01042 0.0156 0.02865 0.02344 0.05469 0.02344h5.484c0.02605 0 0.04168-0.00784 0.04688-0.02344 0.01042-0.01567 0.01562-0.02866 0.01562-0.03906v-0.2969c0-0.01566-0.005205-0.03127-0.01562-0.04687-0.005207-0.0156-0.02084-0.02344-0.04688-0.02344-0.1146 0-0.2344-0.02083-0.3594-0.0625-0.125-0.04166-0.224-0.08072-0.2969-0.1172-0.1562-0.06774-0.2839-0.1328-0.3828-0.1953-0.09896-0.06771-0.1823-0.1406-0.25-0.2188-0.0625-0.08333-0.1172-0.1771-0.1641-0.2812-0.04687-0.1042-0.09635-0.2292-0.1484-0.375l-3.305-9.273c-0.01041-0.02593-0.02604-0.04154-0.04688-0.04687-0.01562-0.00507-0.02864-0.01029-0.03906-0.01563h-2.266zm19.52 0c-0.03646 0-0.05469 0.02084-0.05469 0.0625v0.2656c1e-5 0.04166 0.02084 0.0625 0.0625 0.0625 0.1771 0.0104 0.3568 0.03384 0.5391 0.07031 0.1875 0.03645 0.3568 0.09375 0.5078 0.1719 0.151 0.07292 0.2734 0.1693 0.3672 0.2891 0.09896 0.1198 0.1484 0.2682 0.1484 0.4453v8.281c0 0.1771-0.04947 0.3255-0.1484 0.4453-0.09375 0.1198-0.2161 0.2188-0.3672 0.2969-0.151 0.07292-0.3203 0.1302-0.5078 0.1719-0.1823 0.03634-0.362 0.05717-0.5391 0.0625-0.04166 0-0.0625 0.02084-0.0625 0.0625v0.2656c1e-5 0.04166 0.01823 0.0625 0.05469 0.0625h5.297c0.02593 0 0.04154-0.00784 0.04687-0.02344 0.0104-0.01567 0.01563-0.02866 0.01563-0.03906v-0.25c0-0.01047-0.00523-0.02346-0.01563-0.03906-0.0052-0.0156-0.02081-0.02344-0.04687-0.02344-0.1562 0-0.3229-0.00784-0.5-0.02344-0.1771-0.01566-0.3411-0.05472-0.4922-0.1172-0.1458-0.0625-0.2682-0.1588-0.3672-0.2891-0.09375-0.1302-0.1406-0.3125-0.1406-0.5469v-3.305c0-0.03647 0.00248-0.06253 0.00781-0.07813 0.0052-0.0208 0.02865-0.03125 0.07031-0.03125h0.1484c0.2188 0 0.4219 0.05469 0.6094 0.1641 0.1875 0.1094 0.3672 0.2526 0.5391 0.4297 0.1719 0.1719 0.3385 0.3646 0.5 0.5781 0.1667 0.2083 0.3411 0.4141 0.5234 0.6172 0.151 0.1719 0.3151 0.3646 0.4922 0.5781 0.1823 0.2135 0.3516 0.4245 0.5078 0.6328 0.1562 0.2031 0.2865 0.3906 0.3906 0.5625 0.1094 0.1719 0.1693 0.3021 0.1797 0.3906 0 0.1302-0.04427 0.224-0.1328 0.2812-0.08854 0.05732-0.1927 0.09377-0.3125 0.1094-0.1146 0.0156-0.2344 0.02344-0.3594 0.02344-0.1198-0.00507-0.2135-0.00259-0.2812 0.00781-0.04167 0.0052-0.0625 0.02604-0.0625 0.0625v0.2656c0 0.04166 0.02083 0.0625 0.0625 0.0625h5.812c0.04167 0 0.0625-0.02084 0.0625-0.0625v-0.25c0-0.01047-0.00522-0.02346-0.01562-0.03906-0.00521-0.0156-0.02081-0.02344-0.04688-0.02344h-0.1328c-0.0365-0.00507-0.08597-0.00834-0.1484-0.01367-0.0625-0.01047-0.1458-0.02803-0.25-0.04883s-0.2448-0.05013-0.4219-0.0918c-0.3438-0.07291-0.6536-0.1901-0.9297-0.3516s-0.5052-0.375-0.6875-0.6406c-0.3802-0.5417-0.7344-1.018-1.062-1.43-0.3281-0.4167-0.6276-0.776-0.8984-1.078-0.2708-0.3073-0.513-0.5651-0.7266-0.7734-0.2135-0.2083-0.3984-0.3828-0.5547-0.5234-0.151-0.1406-0.2734-0.2526-0.3672-0.3359-0.09372-0.08856-0.1536-0.1589-0.1797-0.2109 0.0104-0.05731 0.03646-0.1146 0.07813-0.1719 0.04688-0.0625 0.1094-0.138 0.1875-0.2266 0.08333-0.09375 0.1849-0.2109 0.3047-0.3516 0.1198-0.1406 0.263-0.3255 0.4297-0.5547 0.1719-0.2292 0.3672-0.5104 0.5859-0.8438 0.2188-0.3333 0.4662-0.7344 0.7422-1.203 0.1615-0.2708 0.3307-0.4922 0.5078-0.6641 0.1823-0.1771 0.3802-0.3151 0.5938-0.4141s0.4479-0.1693 0.7031-0.2109c0.2604-0.04167 0.5495-0.06773 0.8672-0.07813 0.03127 0 0.05472-0.01045 0.07032-0.03125 0.0156-0.02607 0.02344-0.0469 0.02344-0.0625v-0.2656c0-0.01047-0.00523-0.02347-0.01563-0.03907-0.0052-0.0156-0.02081-0.02343-0.04687-0.02343h-4.75c-0.03114 0-0.04936 0.00783-0.05469 0.02343-0.00534 0.01567-0.00781 0.02867-0.00781 0.03907v0.2656c0 0.01047 0.00247 0.02346 0.00781 0.03906 0.0104 0.0156 0.02862 0.02344 0.05469 0.02344h0.07812c0.1042 0 0.2161 0.00523 0.3359 0.01563 0.1198 0.0104 0.2318 0.03645 0.3359 0.07812 0.1042 0.03646 0.1901 0.09636 0.2578 0.1797 0.0677 0.07813 0.1016 0.1875 0.1016 0.3281 0 0.125-0.02867 0.2526-0.08594 0.3828-0.05729 0.125-0.1302 0.2552-0.2188 0.3906-0.08333 0.1354-0.1771 0.276-0.2812 0.4219-0.1042 0.1406-0.2031 0.2838-0.2969 0.4297-0.1719 0.2656-0.3464 0.526-0.5234 0.7812-0.1719 0.2552-0.3594 0.4974-0.5625 0.7266-0.1979 0.2292-0.4167 0.4401-0.6562 0.6328-0.2344 0.1927-0.5 0.3568-0.7969 0.4922-0.026 0.01546-0.05468 0.02591-0.08594 0.03125h-0.08594c-0.05731 0-0.09377-0.0599-0.1094-0.1797-0.0156-0.1198-0.02343-0.2891-0.02343-0.5078v-3.211c0-0.2135 0.04947-0.3854 0.1484-0.5156 0.09897-0.1302 0.224-0.2318 0.375-0.3047 0.151-0.0729 0.3125-0.1224 0.4844-0.1484 0.1771-0.02607 0.3412-0.04102 0.4922-0.04102 0.04166 0 0.0625-0.01561 0.0625-0.04687v-0.2656c0-0.01046-0.00523-0.02346-0.01563-0.03906-0.0052-0.0156-0.02081-0.02344-0.04687-0.02344h-5.297zm41.41 0c-0.02607 0-0.04429 0.00784-0.05469 0.02344-0.00534 0.01567-0.00781 0.02866-0.00781 0.03906v0.4219c-1e-5 0.00526 0.00247 0.01826 0.00781 0.03906 0.0104 0.0156 0.02862 0.02344 0.05469 0.02344h0.1719c0.1042 0 0.2422 0.01299 0.4141 0.03906 0.1771 0.02604 0.349 0.07552 0.5156 0.1484 0.1719 0.06771 0.3177 0.1615 0.4375 0.2812 0.125 0.1198 0.1875 0.2734 0.1875 0.4609v7.797c0 0.2031-0.04427 0.388-0.1328 0.5547-0.08854 0.1615-0.224 0.2943-0.4062 0.3984-0.08334 0.04686-0.1849 0.08592-0.3047 0.1172-0.1198 0.03127-0.237 0.05733-0.3516 0.07813-0.1094 0.01566-0.2083 0.02866-0.2969 0.03906-0.08335 0.00533-0.1328 0.00781-0.1484 0.00781h-0.1875c-0.03113 0-0.04935 0.00784-0.05469 0.02344-0.00533 0.01567-0.00781 0.02866-0.00781 0.03906v0.4219c0 0.01046 0.00248 0.02346 0.00781 0.03906 0.01041 0.0156 0.02863 0.02344 0.05469 0.02344h8.234c0.0364 0 0.06768-0.013 0.09375-0.03906 0.02606-0.02604 0.04951-0.0599 0.07031-0.1016l1.297-2.547c0.0156-0.0312 0.02344-0.06249 0.02344-0.09375 0-0.06771-0.04426-0.1016-0.1328-0.1016-0.04687 0-0.08853 0.00783-0.125 0.02343-0.0312 0.01567-0.05987 0.03128-0.08594 0.04688-0.05729 0.04688-0.125 0.125-0.2031 0.2344-0.07813 0.1042-0.1667 0.224-0.2656 0.3594s-0.2083 0.276-0.3281 0.4219c-0.1198 0.1458-0.25 0.2812-0.3906 0.4062-0.1406 0.1198-0.2943 0.2188-0.4609 0.2969-0.1615 0.07812-0.3333 0.1172-0.5156 0.1172h-2.734c-0.1042 0-0.1979-0.03907-0.2813-0.1172-0.08335-0.07812-0.1302-0.1615-0.1406-0.25v-8.195c0-0.2344 0.01561-0.3984 0.04688-0.4922 0.03645-0.09896 0.1146-0.1693 0.2344-0.2109 0.1562-0.0573 0.3594-0.1094 0.6094-0.1562s0.5208-0.07031 0.8125-0.07031h0.3359c0.02594 0 0.04154-0.00784 0.04688-0.02344 0.0104-0.01567 0.01562-0.02866 0.01562-0.03906v-0.4219c0-0.01046-0.00522-0.02346-0.01562-0.03906-0.0052-0.0156-0.02081-0.02344-0.04688-0.02344h-5.992zm10.8 0c-0.03113 0-0.04935 0.00784-0.05469 0.02344-0.00533 0.01567-0.00781 0.02866-0.00781 0.03906v0.3438c0 0.04167 0.02083 0.0625 0.0625 0.0625 0.0625 0 0.1484 0.01561 0.2578 0.04688 0.1094 0.03128 0.2162 0.07816 0.3203 0.1406 0.1094 0.0625 0.2031 0.1406 0.2812 0.2344 0.07813 0.08854 0.1172 0.1927 0.1172 0.3125v0.2891c0 0.6042-0.01561 1.206-0.04687 1.805-0.03125 0.599-0.06771 1.206-0.1094 1.82-0.04168 0.6094-0.08594 1.232-0.1328 1.867-0.04165 0.6302-0.07811 1.281-0.1094 1.953-0.01047 0.2292-0.02608 0.4427-0.04688 0.6406-0.02083 0.1979-0.07813 0.3698-0.1719 0.5156-0.08854 0.1406-0.2292 0.2526-0.4219 0.3359-0.1875 0.07812-0.4531 0.1172-0.7969 0.1172-0.02607 0-0.04429 0.00784-0.05469 0.02344-0.00534 0.01566-0.00781 0.02866-0.00781 0.03906l0.00195 0.3438c0 0.04166 0.02083 0.0625 0.0625 0.0625h3.883c0.03127 0 0.04688-0.02084 0.04688-0.0625v-0.3438c0-0.01047-0.00248-0.02346-0.00782-0.03906 0-0.0156-0.01299-0.02344-0.03906-0.02344-0.1667 0-0.3255-0.013-0.4766-0.03906s-0.2891-0.06513-0.4141-0.1172c-0.125-0.05208-0.2292-0.1172-0.3125-0.1953-0.08337-0.07813-0.1354-0.1667-0.1562-0.2656v-0.3203c0-0.2188 0.00783-0.4974 0.02343-0.8359 0.0156-0.3438 0.03644-0.7135 0.0625-1.109 0.026-0.3958 0.05206-0.8047 0.07813-1.227 0.026-0.4219 0.0501-0.8203 0.07617-1.195 0.02607-0.3802 0.0469-0.7214 0.0625-1.023s0.02344-0.5312 0.02344-0.6875c0-0.0677 0.01822-0.1016 0.05468-0.1016 0.02074 0 0.03373 0.01045 0.03907 0.03125 0.01046 0.0156 0.02541 0.04166 0.04101 0.07813l3.328 7.336c0.03124 0.07294 0.09114 0.1146 0.1797 0.125 0.09374 0.0104 0.2344 0.01563 0.4219 0.01563 0.1094 0 0.1849-0.00784 0.2266-0.02344 0.04686-0.01565 0.08331-0.05211 0.1094-0.1094l3.422-7.406c0.02087-0.04687 0.0417-0.07032 0.0625-0.07032 0.02074 0 0.03373 0.02606 0.03907 0.07813l0.3594 6.383c0 0.151-0.04948 0.2734-0.1484 0.3672-0.09895 0.08855-0.2214 0.1563-0.3672 0.2031-0.1458 0.04687-0.2995 0.07815-0.4609 0.09375-0.1563 0.0104-0.2969 0.01563-0.4219 0.01563-0.04166 0-0.0625 0.02083-0.0625 0.0625v0.3438c0 0.04166 0.02084 0.0625 0.0625 0.0625h5.141c0.02593 0 0.04154-0.00784 0.04687-0.02344 0.0104-0.01567 0.01563-0.02866 0.01563-0.03906v-0.3438c0-0.01047-0.00523-0.02346-0.01563-0.03906-0.0052-0.0156-0.02081-0.02344-0.04687-0.02344h-0.125c-0.07292-0.0052-0.1641-0.01565-0.2734-0.03125-0.1042-0.0208-0.2188-0.04686-0.3438-0.07813-0.1198-0.03646-0.2344-0.08854-0.3438-0.1562-0.1094-0.0677-0.2031-0.1536-0.2812-0.2578-0.07279-0.1042-0.1118-0.2318-0.1172-0.3828l-0.4531-8.32c0-0.1823 0.05469-0.3281 0.1641-0.4375 0.1094-0.1146 0.2292-0.2006 0.3594-0.2578 0.1354-0.06253 0.2578-0.1042 0.3672-0.125 0.1146-0.0208 0.1771-0.03125 0.1875-0.03125 0.02594 0 0.04154-0.00783 0.04688-0.02343 0.0104-0.01567 0.01562-0.02867 0.01562-0.03907v-0.3438c0-0.01046-0.00443-0.02346-0.00976-0.03906-0.0052-0.0156-0.02342-0.02344-0.05469-0.02344h-2.75c-0.0521 0-0.1042 0.02867-0.1562 0.08594-0.0521 0.05208-0.1042 0.1276-0.1562 0.2266l-3.359 7.43c-0.0156 0.04164-0.03643 0.0755-0.0625 0.1016-0.02606 0.02607-0.06773 0.03907-0.125 0.03907-0.05728 0-0.1042-0.04428-0.1406-0.1328l-3.398-7.578c-0.03124-0.04685-0.06509-0.08331-0.1016-0.1094-0.03648-0.03126-0.08336-0.0521-0.1406-0.0625h-2.766zm-116.3 0.00196c-0.02604 0-0.04427 0.00783-0.05469 0.02343-0.0052 0.01567-0.007813 0.02867-0.007813 0.03907v0.3047c0 0.01047 0.002613 0.02347 0.007813 0.03907 0.01042 0.0156 0.02865 0.02343 0.05469 0.02343h0.1641c0.1771 0.02604 0.3516 0.0599 0.5234 0.1016 0.1719 0.03646 0.3255 0.09375 0.4609 0.1719 0.1354 0.07813 0.2448 0.1823 0.3281 0.3125 0.08333 0.125 0.125 0.2891 0.125 0.4922v8c0 0.2917-0.0599 0.5078-0.1797 0.6484-0.1198 0.1354-0.2734 0.2318-0.4609 0.2891-0.1875 0.05193-0.3958 0.0806-0.625 0.08594-0.2292 0-0.4531 0.00783-0.6719 0.02343h-0.1719c-0.03126 0-0.04949 0.0085-0.05469 0.0293-0.0052 0.01547-0.007812 0.02592-0.007812 0.03125v0.2285 0.1074c0 0.00526 0.002613 0.02021 0.007812 0.04101 0.005214 0.0156 0.02344 0.02149 0.05469 0.02149h9.055c0.02604 0 0.04687-0.0085 0.0625-0.0293 0.02083-0.026 0.03645-0.05206 0.04687-0.07812l0.2578-2.859c0-0.02607-0.01823-0.04951-0.05469-0.07031-0.03646-0.0208-0.06771-0.03125-0.09375-0.03125-0.07292 0-0.138 0.02083-0.1953 0.0625-0.05729 0.03646-0.09114 0.08854-0.1016 0.1562-0.01562 0.151-0.05469 0.3333-0.1172 0.5469-0.05729 0.2135-0.1484 0.4193-0.2734 0.6172-0.125 0.1979-0.2891 0.3672-0.4922 0.5078-0.2031 0.1354-0.4557 0.2031-0.7578 0.2031h-2.133c-0.1146 0-0.224-0.00784-0.3281-0.02344s-0.1979-0.04688-0.2812-0.09375c-0.07813-0.04687-0.1406-0.1146-0.1875-0.2031-0.04687-0.09376-0.07031-0.2162-0.07031-0.3672v-3.414c-1e-6 -0.05207 0.02604-0.07813 0.07812-0.07813h2.211c0.1406 0 0.2734 0.01822 0.3984 0.05469 0.1302 0.03125 0.2448 0.09896 0.3438 0.2031 0.09896 0.09896 0.1771 0.2396 0.2344 0.4219 0.0625 0.1771 0.09375 0.4115 0.09375 0.7031 0 0.01047 0.002613 0.02347 0.007813 0.03907 0.01042 0.0156 0.02865 0.02343 0.05469 0.02343h0.3047c0.01041 0 0.02344-0.00248 0.03906-0.00781 0.01563-0.0104 0.02344-0.02862 0.02344-0.05469v-3.578c0-0.04167-0.02083-0.0625-0.0625-0.0625h-0.3047c-0.04167 0-0.0625 0.02083-0.0625 0.0625 0 0.25-0.03125 0.4557-0.09375 0.6172-0.05729 0.1562-0.1354 0.2786-0.2344 0.3672-0.09375 0.08854-0.2057 0.151-0.3359 0.1875-0.125 0.03127-0.2526 0.04688-0.3828 0.04688h-2.234c-0.05209 0-0.07812-0.02606-0.07812-0.07813v-3.727c0-0.06771 0.03385-0.1016 0.1016-0.1016h2.789c0.1823 0.03125 0.3307 0.09115 0.4453 0.1797 0.1198 0.08333 0.2135 0.1823 0.2812 0.2969 0.06771 0.1146 0.1172 0.2396 0.1484 0.375 0.03646 0.1354 0.0625 0.2656 0.07813 0.3906 0.02083 0.125 0.03906 0.2396 0.05469 0.3438 0.01563 0.09897 0.04166 0.1745 0.07812 0.2266 0.01563 0.02087 0.04427 0.03647 0.08594 0.04687 0.04167 0.0104 0.08333 0.01563 0.125 0.01563 0.03646 0 0.07552-0.00523 0.1172-0.01563 0.04687-0.0156 0.07031-0.03643 0.07031-0.0625l-0.1406-2.5c-0.01042-0.1146-0.03646-0.1875-0.07812-0.2188-0.04167-0.03646-0.1094-0.05468-0.2031-0.05468h-7.781zm77.39 0c-0.03647 0-0.05469 0.02083-0.05469 0.0625v0.4219c0 0.04167 0.02083 0.0625 0.0625 0.0625 0.1771 0.0104 0.3385 0.03189 0.4844 0.06836 0.1458 0.03645 0.2708 0.09375 0.375 0.1719 0.1042 0.07292 0.1849 0.1693 0.2422 0.2891 0.05727 0.1198 0.08594 0.2682 0.08594 0.4453v7.828c0 0.25-0.04427 0.4479-0.1328 0.5938-0.08334 0.1458-0.1927 0.2578-0.3281 0.3359-0.1354 0.0781-0.2865 0.1302-0.4531 0.1562-0.1615 0.0208-0.3229 0.03125-0.4844 0.03125-0.02606 0-0.04429 0.00784-0.05469 0.02344-0.00533 0.01567-0.00781 0.02866-0.00781 0.03906v0.4219c0 0.01046 0.00248 0.02346 0.00781 0.03906 0.0104 0.0156 0.02863 0.02344 0.05469 0.02344v0.00195h5.016c0.02593 0 0.04154-0.00784 0.04687-0.02344 0.00534-0.01566 0.00781-0.02866 0.00781-0.03906v-0.4219c0-0.01047-0.00247-0.02347-0.00781-0.03907-0.0052-0.0156-0.02342-0.02343-0.05469-0.02343-0.1771 0-0.349-0.01561-0.5156-0.04688-0.1667-0.03125-0.3151-0.08333-0.4453-0.1562-0.125-0.07291-0.2266-0.1693-0.3047-0.2891-0.07812-0.1198-0.1172-0.2682-0.1172-0.4453v-3.453c0-0.05211 0.00784-0.08596 0.02344-0.1016 0.01565-0.0156 0.0495-0.02344 0.1016-0.02344h5.453c0.0521 0 0.08596 0.00784 0.1016 0.02344 0.0156 0.01564 0.02344 0.04949 0.02344 0.1016v3.375c0 0.2292-0.07553 0.4115-0.2266 0.5469-0.1458 0.1302-0.3255 0.2318-0.5391 0.3047-0.2083 0.06774-0.4245 0.112-0.6484 0.1328-0.224 0.0208-0.4141 0.03125-0.5703 0.03125-0.02606 0-0.04428 0.00783-0.05468 0.02343-0.00534 0.01567-0.00782 0.02867-0.00782 0.03907v0.4219c0 0.01047 0.00248 0.02346 0.00782 0.03906 0.0104 0.0156 0.02862 0.02344 0.05468 0.02344h5.672c0.04166 0 0.0625-0.02083 0.0625-0.0625v-0.4219c0-0.04167-0.02084-0.0625-0.0625-0.0625-0.349-0.01042-0.6198-0.0547-0.8125-0.1328-0.1875-0.07812-0.3229-0.1745-0.4062-0.2891-0.08334-0.1042-0.1458-0.2083-0.1875-0.3125-0.03647-0.1094-0.05469-0.2318-0.05469-0.3672v-7.734c0-0.2344 0.03385-0.4219 0.1016-0.5625 0.07292-0.1458 0.1667-0.2578 0.2812-0.3359 0.1198-0.0781 0.2526-0.1302 0.3984-0.1562 0.151-0.03127 0.3047-0.04687 0.4609-0.04687 0.04166 0 0.0625-0.01561 0.0625-0.04688v-0.4219c0-0.01047-0.00523-0.02347-0.01563-0.03907-0.0052-0.0156-0.02081-0.02343-0.04687-0.02343h-5.211c-0.03647 0-0.05469 0.02083-0.05469 0.0625v0.4219c0 0.04167 0.02084 0.0625 0.0625 0.0625 0.1719 0.0104 0.3594 0.03385 0.5625 0.07031 0.2031 0.03125 0.3906 0.08333 0.5625 0.1562 0.1771 0.06771 0.3229 0.1615 0.4375 0.2812s0.1719 0.2708 0.1719 0.4531v3.344c0 0.05211-0.00784 0.08596-0.02344 0.1016-0.01564 0.0156-0.0495 0.02344-0.1016 0.02344h-5.453c-0.05211 0-0.08596-0.00784-0.1016-0.02344-0.0156-0.01564-0.02344-0.04949-0.02344-0.1016v-3.219c0-0.2344 0.03386-0.4219 0.1016-0.5625 0.0677-0.1458 0.1562-0.2578 0.2656-0.3359 0.1094-0.0781 0.237-0.1302 0.3828-0.1562 0.1458-0.03127 0.2969-0.04687 0.4531-0.04687 0.04166 0 0.0625-0.01561 0.0625-0.04688v-0.4219c0-0.01047-0.00523-0.02542-0.01563-0.04102-0.0052-0.0156-0.02081-0.02148-0.04687-0.02148h-4.625zm53.91 0c-0.02607 0-0.04429 0.00783-0.05469 0.02343-0.00533 0.01567-0.00781 0.02867-0.00781 0.03907v0.3047c0 0.01047 0.00248 0.02347 0.00781 0.03907 0.0104 0.0156 0.02862 0.02343 0.05469 0.02343h0.1641c0.1771 0.02604 0.3516 0.0599 0.5234 0.1016 0.1719 0.03646 0.3255 0.09375 0.4609 0.1719 0.1354 0.07813 0.2448 0.1823 0.3281 0.3125 0.08334 0.125 0.125 0.2891 0.125 0.4922v8c0 0.2917-0.05989 0.5078-0.1797 0.6484-0.1198 0.1354-0.2734 0.2318-0.4609 0.2891-0.1875 0.05193-0.3958 0.0806-0.625 0.08594-0.2292 0-0.4531 0.00783-0.6719 0.02343h-0.1719c-0.03114 0-0.04936 0.0085-0.05469 0.0293-0.00533 0.01547-0.00781 0.02592-0.00781 0.03125v0.2285 0.1074c0 0.00526 0.00248 0.02021 0.00781 0.04101 0.0052 0.0156 0.02342 0.02149 0.05469 0.02149h9.055c0.02606 0 0.04689-0.0085 0.0625-0.0293 0.02086-0.026 0.03647-0.05206 0.04687-0.07812l0.2578-2.859c0-0.02607-0.01822-0.04951-0.05468-0.07031-0.03641-0.0208-0.06769-0.03125-0.09376-0.03125-0.07294 0-0.138 0.02083-0.1953 0.0625-0.05731 0.03646-0.09116 0.08854-0.1016 0.1562-0.01565 0.151-0.05472 0.3333-0.1172 0.5469-0.05729 0.2135-0.1484 0.4193-0.2734 0.6172-0.125 0.1979-0.2891 0.3672-0.4922 0.5078-0.2031 0.1354-0.4557 0.2031-0.7578 0.2031h-2.133c-0.1146 0-0.224-0.00784-0.3281-0.02344-0.1042-0.0156-0.1979-0.04688-0.2812-0.09375-0.07814-0.04687-0.1406-0.1146-0.1875-0.2031-0.04687-0.09376-0.07032-0.2162-0.07032-0.3672v-3.414c0-0.05207 0.02606-0.07813 0.07813-0.07813h2.211c0.1406 0 0.2734 0.01822 0.3984 0.05469 0.1302 0.03125 0.2448 0.09896 0.3438 0.2031 0.09898 0.09896 0.1771 0.2396 0.2344 0.4219 0.06247 0.1771 0.09375 0.4115 0.09375 0.7031 0 0.01047 0.00248 0.02347 0.00781 0.03907 0.0104 0.0156 0.02862 0.02343 0.05469 0.02343h0.3047c0.01046 0 0.02346-0.00248 0.03906-0.00781 0.0156-0.0104 0.02344-0.02862 0.02344-0.05469v-3.578c0-0.04167-0.02084-0.0625-0.0625-0.0625h-0.3047c-0.04167 0-0.0625 0.02083-0.0625 0.0625 0 0.25-0.03128 0.4557-0.09375 0.6172-0.05729 0.1562-0.1354 0.2786-0.2344 0.3672-0.09376 0.08854-0.2057 0.151-0.3359 0.1875-0.125 0.03127-0.2526 0.04688-0.3828 0.04688h-2.234c-0.05207 0-0.07812-0.02606-0.07813-0.07813v-3.727c1e-5 -0.06771 0.03386-0.1016 0.1016-0.1016h2.789c0.1823 0.03125 0.3307 0.09115 0.4453 0.1797 0.1198 0.08333 0.2135 0.1823 0.2812 0.2969 0.06769 0.1146 0.1172 0.2396 0.1484 0.375 0.03647 0.1354 0.06252 0.2656 0.07813 0.3906 0.02086 0.125 0.03908 0.2396 0.05468 0.3438 0.0156 0.09897 0.04166 0.1745 0.07813 0.2266 0.0156 0.02087 0.04427 0.03647 0.08593 0.04687 0.04167 0.0104 0.08334 0.01563 0.125 0.01563 0.03647 0 0.07553-0.00523 0.1172-0.01563 0.04687-0.0156 0.07031-0.03643 0.07031-0.0625l-0.1406-2.5c-0.0104-0.1146-0.03646-0.1875-0.07812-0.2188-0.04167-0.03646-0.1094-0.05468-0.2031-0.05468h-7.781zm-160.5 0.3965c0.3281 0 0.6276 0.06771 0.8984 0.2031 0.276 0.1354 0.5104 0.3177 0.7031 0.5469 0.1979 0.2292 0.3516 0.5 0.4609 0.8125s0.1641 0.6432 0.1641 0.9922c0 0.3333-0.03385 0.6536-0.1016 0.9609-0.0625 0.3073-0.1797 0.5807-0.3516 0.8203-0.1719 0.2344-0.4063 0.4219-0.7031 0.5625s-0.6745 0.2109-1.133 0.2109c-0.1667 0-0.2969-0.00523-0.3906-0.01563-0.09375-0.01547-0.1641-0.02592-0.2109-0.03125-0.05729-0.0052-0.09636-0.02342-0.1172-0.05469-0.01563-0.03646-0.02605-0.07552-0.03125-0.1172l-0.01562-0.2324v-4.5c0-0.05731 0.02344-0.09116 0.07031-0.1016 0.05209-0.0156 0.09375-0.02344 0.125-0.02344 0.08854-0.00533 0.1563-0.00781 0.2031-0.00781 0.05208-0.00533 0.09635-0.00781 0.1328-0.00781 0.04167-0.00533 0.08333-0.00781 0.125-0.00781 0.04167-0.00534 0.09896-0.00977 0.1719-0.00977zm86.09 0c0.3281 0 0.6276 0.06771 0.8984 0.2031 0.276 0.1354 0.5104 0.3177 0.7031 0.5469 0.1979 0.2292 0.3516 0.5 0.4609 0.8125 0.1094 0.3125 0.1641 0.6432 0.1641 0.9922 0 0.3333-0.03386 0.6536-0.1016 0.9609-0.0625 0.3073-0.1797 0.5807-0.3516 0.8203-0.1719 0.2344-0.4062 0.4219-0.7031 0.5625-0.2969 0.1406-0.6745 0.2109-1.133 0.2109-0.1667 0-0.2969-0.00523-0.3906-0.01563-0.09376-0.01547-0.1641-0.02592-0.2109-0.03125-0.05732-0.0052-0.09638-0.02342-0.1172-0.05469-0.01547-0.03646-0.02592-0.07552-0.03125-0.1172l-0.01563-0.2324v-4.5c0-0.05731 0.02345-0.09116 0.07032-0.1016 0.05206-0.0156 0.09373-0.02344 0.125-0.02344 0.08854-0.00533 0.1562-0.00781 0.2031-0.00781 0.05208-0.00533 0.09635-0.00781 0.1328-0.00781 0.04167-0.00533 0.08334-0.00781 0.125-0.00781 0.04167-0.00534 0.09896-0.00977 0.1719-0.00977zm40.73 0.03125c0.4479 0 0.862 0.06771 1.242 0.2031 0.3854 0.1302 0.7344 0.3151 1.047 0.5547 0.3177 0.2396 0.5964 0.5234 0.8359 0.8516 0.2448 0.3229 0.4479 0.6797 0.6094 1.07 0.1667 0.3854 0.2917 0.7943 0.375 1.227 0.08854 0.4271 0.1328 0.8646 0.1328 1.312 0 0.6146-0.07552 1.211-0.2266 1.789-0.1458 0.5729-0.3724 1.081-0.6797 1.523-0.3021 0.4427-0.6849 0.7995-1.148 1.07-0.4635 0.2656-1.01 0.3984-1.641 0.3984-0.4479 0-0.8646-0.07031-1.25-0.2109-0.3802-0.1458-0.7266-0.3438-1.039-0.5938-0.3125-0.2552-0.5912-0.5521-0.8359-0.8906-0.2448-0.3438-0.4505-0.7109-0.6172-1.102-0.1667-0.3906-0.2943-0.7969-0.3828-1.219-0.08334-0.4219-0.125-0.8438-0.125-1.266 0-0.3906 0.03645-0.7786 0.1094-1.164 0.07292-0.3906 0.1797-0.7604 0.3203-1.109 0.1406-0.349 0.3151-0.6719 0.5234-0.9688 0.2083-0.3021 0.4479-0.5599 0.7188-0.7734 0.276-0.2188 0.5833-0.3906 0.9219-0.5156s0.7083-0.1875 1.109-0.1875zm-65.38 0.08008h1.891c0.7344 0 1.37 0.1198 1.906 0.3594 0.5417 0.2396 0.9896 0.5755 1.344 1.008 0.3594 0.4323 0.625 0.9479 0.7969 1.547 0.1771 0.599 0.2656 1.258 0.2656 1.977 0 1.635-0.388 2.88-1.164 3.734-0.7708 0.8542-1.93 1.281-3.477 1.281-0.2344 0-0.4583-0.00443-0.6719-0.00977-0.2135-0.0052-0.401-0.02603-0.5625-0.0625-0.1562-0.04166-0.2839-0.1042-0.3828-0.1875-0.09375-0.08333-0.1406-0.2005-0.1406-0.3516v-0.03711-9.047c0-0.0729 0.01302-0.125 0.03906-0.1562 0.02604-0.03647 0.07812-0.05469 0.1562-0.05469zm-49.23 1.842c0.04166 0 0.08854 0.01822 0.1406 0.05468 0.05208 0.03125 0.09115 0.08333 0.1172 0.1562l1.039 2.852c0.01043 0.02606 0.01824 0.04951 0.02344 0.07031s0.007812 0.04424 0.007812 0.07031c1e-6 0.0312-0.01042 0.05987-0.03125 0.08594-0.01562 0.0208-0.05208 0.03125-0.1094 0.03125h-2.344c-0.04687 0-0.07812-0.00784-0.09375-0.02344-0.01563-0.0208-0.02344-0.04686-0.02344-0.07812 0-0.026 0.002612-0.05206 0.007812-0.07813 0.005207-0.026 0.01302-0.05206 0.02344-0.07812l0.9844-2.844c0.02604-0.0677 0.0651-0.1198 0.1172-0.1562 0.05208-0.04167 0.09896-0.0625 0.1406-0.0625zm62.26 0c0.04166 0 0.08854 0.01822 0.1406 0.05468 0.05208 0.03125 0.09115 0.08333 0.1172 0.1562l1.039 2.852c0.01043 0.02606 0.01824 0.04951 0.02344 0.07031 0.005201 0.0208 0.007813 0.04424 0.007813 0.07031 0 0.0312-0.01042 0.05987-0.03125 0.08594-0.01562 0.0208-0.05208 0.03125-0.1094 0.03125h-2.344c-0.04687 0-0.07812-0.00784-0.09375-0.02344-0.01563-0.0208-0.02344-0.04686-0.02344-0.07812 0-0.026 0.002613-0.05206 0.007813-0.07813 0.005207-0.026 0.01302-0.05206 0.02344-0.07812l0.9844-2.844c0.02604-0.0677 0.0651-0.1198 0.1172-0.1562 0.05208-0.04167 0.09896-0.0625 0.1406-0.0625z"/>
</svg>
