<svg class="picture" viewBox="0 0 196 296" xmlns="http://www.w3.org/2000/svg">
    <g id="colors">
        <path d="m34.18 260.6 8.818-3.991 6.58-1.7 3.67-1.83 8.78-6.52 7.02-7.34 3.82-8.18 1.7-6.34.608-3.65-.147-8.53-1.29-15.2-3.37-8.09-1.6-10.6-1.57 1.55h-3.1l-3.82-3.65-3.87-2.49-2.64-2.67-2.19-6.84-2.97-6.17.512-4.14 1.79-2.05 2.52-.516 3.2 1.08 2.76 2.62 1.21 1.94 1.31 1.26 1.85.799 1.68-.763.18-2.12-.214-1.81.146-.905-.815-.98.016-1.65.793-1.52.735-3.09-.791-3.7-.362-.373.852-.598-.057-1.05.239-1.22.33-1.48-.031-1.54-.233-1.58.189-1.72.929-1.39-.48-1.13.595-1.86.247-2.39.033-1.18.777-1.08.082-2.18 1.62-2.05-.44-1.27 1.25-1.8.94-1.6.307-.999 1.77-2.46.386-1.41 1.33-1.37.683-1.78 2.39-1.4 1.22-2 3.91-.757 2.66-1.87 2.45-.358 2.33-.28 2.51-1.02 2.64-.312 2.31 1.62 3.61-1.01 3.14-.595 4.08 1.76 1.54-.137 2.43-.362 2.26-.734 2.15.169 1.85-1.13 2-.256 1.57-.419 2.38-.121 1.64-.107 2.8-.403.84-.164 3.24-.1 1.07-.814.914-.434.53 1.19-.175 1.77 1.91.855 1.93 2.91 2.64 3.94 1.72 3.7.79 2.77-.586 1.11 1.22 2.59.818 2.77.794 1.41.456 2.47.594 1.85.672 5.19.444 8.75-.53 12.5 1.35-2.65 2.06-2.21 2.241-.053.501 2.86-.986 3.62.492 5.99-.494 5.85-1.59 4.18-1.121 4.41-1.65 2.21-2.66.259-.507-.287-2.58 6.41-1.71 6.99-1.9 8.04-2.58 5.3-5.66 5.51-2.67 9.9.456 1.84-.916 5.75.06 8.86.675 6.62 3.27 7.05 3.03 5.39 6.588 7.289z" fill="#ffa47d"/>
        <path d="m103.1 193.2 2.68-2.92 4.25-1.64 4.121.525 1.72.281 4.53-.799 3.09 1.18 1.79 3.31 2.73.789-2.06-.023-.784 1.74-4.75 5.26-8.01.034-5.11-1.05-3.05-2.49-1.6-.752-2.01-2.49z" fill="#cf475b"/>
        <path d="m129.5 95.73-2.019.39-6.041 2.83-11.6.462-9.29-1.58-7.63.953-4.3 1.92-6.48 1.73-2.99 14.3-3.13 13.2-6.31 10.4-4.35 8.71-1.17 8.59.962-1.24-1.89 8.73-2.25 3.41-1.66 1.45-.838 5.22 1.63.554 1.86 2.6 2.96 1.77 1.69-.293 2.14-1.48-1.69-6.57.432-12.5 3.56-10.5.384-.493 6.49-9.68 2.05-4.91 3.4-12.9 6.8-10.6 8.85-6.22 7.94-2.93 4.39.871 7.8 4.05 6.11 6.94 2.58 8.14 6.51 13.1 4.42-.898-1.63-4.61-3.68-11.5-1.14-11z" fill="#a76c5a"/>
        <path d="m138.5 137.7-4.909.924-6.231 2.56-4.019 5.18-2.58 2.82-1.31 5.76 4.879-1.45 5.341.48 5.389-.208 3.491-1.85 2.669-3.82 2.84-7.91-2.24-1.6zm-48.3 2.7-3.58.545-4.01 1.01-3.99 1.23-3.25 1.64-2.87 2.83 8.73 3.86 2.17-1.6 1.42 2.08 1.64 1.92 3.14 1.4 5.23-.612 3.08-.56 1.98-.885 2.74-.354 5.57 1-2.56-5.19-4.78-6.35-6.85-1.9zm-37.5 16.3-.165 4.29.928 2.26 2.57 4.11.858 4.02 2.25 1.44 3.85.594 2.23-1.29-.492-1.05-1.23-2.74-1.73-.611-.76-1.03.966-2.62-2.3-3.19-1.31-2.38-3.74-1.77zm69 15.3-.186 1.39-.792 2.32-1.79 1.59-3.01 1.16-2.2.038-2.32-1.06-1.56-.509-2.59.937-.78-.103-1.36-2.01-.08 2.36 2.2 2.06 3.68 1.2 4.17.37 5.121-1.27 2.2-1.58 1.56-2.56zm-48.1 25.2 1.26 15.2.22 9.19-1.46 7.65-4.18 9.47-6.14 6.84-6.25 4.8-6.88 4.28-9.05 2.69-7.67 3.79 6.4-.949 31.9-6.82-.381-5.52 2.31-6.34 3.78-13.2.244-13.4-.361-13.8z" fill="#a76c5a"/>
        <path d="m143.5 168.2-1.759.208-1.041 1.03-5.82 2.14-7.22-.209-1.76-.823-1.83.335-1.17 2.96 3.36 4.18 9.06 2.11 5.77-1.06 3.95-3.87-.653-4.75zM79 169.8l-4.64 3.5 5.25 3.46 6.23 3.9 9.97-.07 6.99-3.22 2.651-4.29-.261-2.35-5.67-.053-7.22 1.04-7.88-.836z" fill="#ff9c7d"/>
        <path d="m140.5 155.7-3.829 2.61-5.541.12-4.28-.592-1.64-.892-.392.606 1.67 2.34 3.491 1.92 6.479-.161 3.771-2.32 1.619-2.74zm-55.3 1.71-1.49 1.13 1.23 2.47 5.66 3.49 7.43-2.45 2.41-2.85-.829-1.14-7.45 1.38zm30.8 12.3-2.269.619-.612.78 1.02.658 3.28-.16 2.66-.292-1.29-1.43z" fill="#fec2a8"/>
        <path d="m104.2 193.2 6.92-.777 4.069.134 9.07-.371-1.58 1.93-2.65 1.71-4.72.714-6.27-.794-4.57-2.06zm28.3-46.1-6.739 3.48-1.72 2.61 2.73.635 6.169.25 3.491-.918 2.34-2.43 1.37-2.06zm-41.9 1.26-8.37 1.8 2.56 2.38 3.38 2.6 7.85-.396 3.34-1.31.967-.36.03-1.03-.475-1.43z" fill="#fff"/>
        <path d="m132.1 148-2.467.557-2.44 1.54-.95.89-.103.85.86 1.553 1.42.757h2.669l1.38-.556.651-1.8.186-1.98zm-44.42.28-1.77 1.24-.207 1.39-.008 1.37 1.028 1.62 2.28 1.11 2.36-.027 1.15-1.45.854-1.29-.059-1.73-.544-1.93z" fill="#4a7db2"/>
        <path d="m132.1 148.1-1.915-.153-4.05 3.04-.107 1.072.603.288 1.55-.883 1.4-.663 2.06-.107 1.407.61.226-.993zm-43.52.751-2.38.27-.416 1.23-.275.791.125 1.047 2.124-.497 2.26-.07 1.63.053 1.71.774.163-1.84-.557-1.7z" fill="#4a5eb2"/>
        <path d="m85.89 149.2-.349 1.31 1.5.722.822-.104.926-.713.017-1.17zm42.8.038-1.689 1.13.885.227 1.07-.497z" fill="#fff"/>
        <path d="M84.49 153.5c-.441-.442-.842-.764-.892-.715s-.509-.245-1.02-.655c-.653-.523-1.09-.728-1.48-.687-.571.058-1.37-.564-.913-.713.125-.042.183-.303.129-.581-.078-.396.072-.654.699-1.2.439-.38 1.1-.793 1.47-.918.396-.134.615-.316.532-.447-.088-.139-.016-.174.198-.094.185.07.468-.002.628-.158.159-.156.352-.223.429-.148.076.075.218.008.317-.148.154-.245.23-.244.535.005.318.26.34.245.215-.141-.095-.292-.039-.467.176-.547.174-.066.315-.031.315.077s.196.196.437.196c.365 0 .395-.05.182-.303-.144-.17-.166-.303-.051-.303.114 0 .323.136.463.303s.402.303.58.303c.254 0 .27-.055.079-.243-.463-.454-.25-.638.229-.197.262.242.695.44.962.44h.487l-.448-.468c-.644-.672-.554-.913.118-.317.312.276.752.635.979.795.374.266.388.263.146-.04-.237-.297-.18-.33.528-.293.436.022 1.08.24 1.43.484.424.282.92.438 1.43.447 1.45.005 1.73.166 1.68.94l-.048.69-1.04-.08c-.571-.044-1.23-.142-1.45-.216-.302-.1-.29-.074.051.1.72.373.547.56-.308.337-.424-.111-1.61-.194-2.63-.183-1.91.022-2.22.055-2.83.318-.197.083-.503.098-.679.032-.209-.078-.268-.04-.173.114.1.159.031.189-.214.098-.483-.182-.869.058-.5.312.191.132.093.153-.312.064-.41-.088-.709-.02-.979.217-.53.472-.489.761.23 1.56.34.38.618.761.618.846 0 .086.237.461.527.833.474.61.527 1.08.121 1.08-.083 0-.512-.362-.953-.804zm43.2-5c.037-.194.275-.443.53-.552s.462-.314.462-.454.127-.256.283-.256.712-.185 1.24-.412c.524-.228 1.25-.46 1.62-.516 1.039-.159 3.099-.15 3.5.016.198.082.691.089 1.099.014.475-.088.845-.044 1.051.12.171.14.493.282.715.315.223.033.734.28 1.141.55.402.267.851.443.996.39.398-.15.561.266.295.754-.202.37-.353.412-1.06.301-.456-.072-1.029-.234-1.27-.362-.476-.252-.581-.267-3.319-.469-2.591-.192-4.401-.17-4.921.06-2.189.971-2.459 1.03-2.359.501z"/>
        <path d="M75.69 146.6c0-.351 2.99-3.59 3.85-4.18.479-.326.987-.701 1.13-.832.452-.426 3.84-1.55 4.67-1.55.446 0 1.55-.141 2.46-.315 1.82-.348 5.47-.398 7.11-.097.578.107 2.08.34 3.34.517s2.4.414 2.54.527.55.238.92.278c.401.045.807.266 1 .55.262.371.371.412.512.188.116-.18.182.065.184.683.004 1.36-.431 1.73-1.569 1.33-.46-.159-.871-.388-.91-.507-.039-.12-.256-.218-.482-.218-.225 0-.62-.134-.875-.297-.257-.165-1.22-.49-2.14-.724-5.51-1.39-6.66-1.42-11.3-.238-1.82.463-3.38.801-3.46.75-.258-.158-1.73.662-4.12 2.29-1.27.868-2.43 1.68-2.57 1.8-.146.122-.264.138-.264.037zm48.8-4.01c-.15-.477.466-2.13.926-2.48.526-.399 3.421-1.33 4.151-1.33.363 0 1.5-.287 2.52-.638 2.29-.787 4.61-1.25 6.25-1.25 1.11 0 1.409.102 2.73.931 1.679 1.05 3.649 2.93 3.3 3.15-.125.077-.488-.038-.809-.254l-1.551-1.05c-.533-.363-1.019-.615-1.069-.559-.055.054-.515-.047-1.02-.226a6.032 6.032 0 0 0-1.89-.282c-.53.025-1.09-.033-1.24-.129-.177-.108-.231-.091-.146.046.13.212-1.4.504-2.95.567-.371.014-.959.236-1.31.493-.346.256-.733.467-.858.467s-.597.189-1.049.42c-.454.232-1 .42-1.22.42-.219 0-.814.31-1.32.686-1.79 1.33-3.2 1.75-3.44 1.02zm11-3.93c-.069-.07-.25-.078-.401-.017-.168.067-.118.117.125.127.222.01.347-.04.276-.11z"/>
    </g>
    <path id="line" d="M140.5 132.7c-.907.497 2.921.726.582.115l-.332-.078zm-59.3 3.92c-1.23.448-3.26 1.44-3.78 2.08 1.3-.586 2.66-1.2 3.78-2.08zm54.7.888c-2.901.96-5.69 2.24-8.49 3.45-1.05 1.1 2.37-.411 3.15-.668 2-.684 3.83-1.94 5.99-2 1.43-.332 2.9.059 4.3.304.778.442 3.84 2.17 2.08.75-1.27-1.16-3.04-1.29-4.6-1.83zm-45.2 2.43c-1.95.174-3.84.639-5.7 1.25-1.93.535-5.69 1.18-6.55 2.19 4.09-1.19 8.26-2.46 12.6-2.45 1.43-.062 2.88-.294 4.22.327 2.22.618 4.41 1.38 6.64 1.9.743-1.47-2.77-1.42-3.66-2.06-2.41-.956-5-.843-7.53-1.15zm2 4.48c-1.86.025-3.75-.16-5.54.457-1.46.27-2.52 1.52-3.73 2.29-1.58 1.41 1.56-.57 2.17-.487 2.06-.589 4.14-1.26 6.3-1.05 1.37.017 2.76-.145 4.05.396.635-.388-2.56-1.33-3.24-1.61zm39.6.523c-1.31.644-2.71 1.19-3.77 2.23 2.22-.331 4.27-1.68 6.57-1.23.94.149 5.37.949 2.74-.354-1.76-.859-3.66-.589-5.54-.644zm-8.49.713c-2.59 1.57-4.41 4.43-4.85 7.39l.292 3c.891-3.5 2.67-6.67 4.48-9.76.111-.199.06-.421.071-.635zm30.2.774c-1.05.295-1.95.698-2.62 1.57-.772.866-.861 2.14-2.19 2.36-.897.323-.221 1.63-.422 2.39-.01 4.41.123 8.83.025 13.2-.234 1.23-.724 4.2-1.02 3.83-.137-1.38-.548-1.89-.38-.222.693 1.12-.731 5.43-.58 2.32.067-.964-.323-4.61-.46-1.79.12 1.74.518 5.81-.419 5.81-.14-1.23.167-4.11-.329-4.29-.432 2.42.245 5.01-.566 7.33-.505 1.43-.22-2.29-.448-2.98.024-1.08-.516-4.95-.45-1.8-.175 2.43 1.01 4.97.033 7.28-.468 1.18-1.09 4.9-.843 1.76-.003-2.85.136-5.71-.143-8.54-.569 2.85-.366 5.86-.37 8.77.908 1.88-.368 4.13-.503 6.22-.56 2.81-.894 5.75-2.03 8.39-1.01 1.86-1.87 3.89-3.26 5.49-3.83 3.4-7.67 6.79-12 9.56-1.85 1.22-3.41 2.93-5.59 3.59-1.66.746-3.58.551-5.35.674-2.36-.177-4.77.052-7.12-.082-2.95-.827-6-1.48-8.64-3.13-5.01-3.37-10.4-6.13-15.6-9.12-3.33-2.84-6.99-5.49-9.08-9.44-2.11-4.13-2.9-8.75-3.95-13.2-.637-1.73-.379-3.98-1.26-5.18-1.21-.9-.218 1.94-1.61 1.9-.768.645-1.85.617-2.75.437-2.17-1.56-3.74-3.85-6.14-5.11-1.11-.732-2.42-1.34-2.8-2.75-1.09-2.3-1.36-4.95-2.91-7.02-.97-1.67-2.18-3.23-2.58-5.16-.66-1.26-.283-2.63-.198-3.98.434-.905.637-2.01 1.7-2.37.918-.783 2.19-.145 3.28-.222 1.88-.012 3.29 1.66 4.39 2.98.751.928 3.53 4.26 2.14 1.52-.968-1.68-2.33-3.13-3.71-4.49-1.23-.66-2.54-1.04-3.9-1.31-.242.036-1.65.379-2.32.532-.915.346-1.65 1.38-2.22 2.2-.479 1.01-1.07 1.99-.835 3.16-.156 2.4 1.2 4.56 2.17 6.68.618 1.25 1.59 2.32 1.75 3.78.468 2.21 1 4.62 2.81 6.14 1.24 1.6 3.43 1.69 4.97 2.86 1.54 1.55 2.86 3.78 5.12 4.38l3.11-.212c1.19 4.02 1.35 8.35 3.16 12.2.608 1.65 1.56 3.22 2.41 4.77 1.58 1.51 2.83 3.53 4.51 5.12 4.3 4.38 9.6 7.58 14.2 11.6 3.65 2.65 7.39 5.28 11.5 7.16 3.82 1.19 7.74 2.58 11.8 2.06 3.95-.034 7.44-2.11 11.2-3.13 2.81-.516 3.39 2.57 2.76 4.62-.125 3.63-.361 7.28-.276 10.9.268 2.05.212 4.17 1.06 6.09 1.21 3.21 2.54 6.41 4.58 9.19 1.21 1.74 2.17 3.68 3.84 5.03.518.695 4.36 4.432 4.36 4.432l.947.017s-.13-.184-.271-.398c-2.204-3.346-7.893-9.756-9.566-12.69-1.92-3.88-4.02-7.97-3.78-12.4.003-3.1-.27-6.21-.081-9.29.63-5.9 1.15-11.9 3.03-17.5.827-1.25 2.2-2.16 3.18-3.32 3.03-2.73 4.89-6.45 5.85-10.4 1.73-5.97 2.86-12.1 4.86-18 .54-.98 2.7.55 3.76-.762 1.29-.95 1.72-2.79 2.04-4.3.462-2.54 1.69-4.87 2.42-7.32.413-3.63.55-7.33.185-10.9.213-1.83.64-3.72.592-5.54-.32-.791-.732-1.48-1.62-1.69l-.468-.223zm-22.5.639c-1.95.761-4.18 1.16-5.43 3.05-1.13 1.11-3.5 4.43-.249 3.78 2.87.174 5.73 1.12 8.61.51 1.65-.32 3.26-1.19 4.47-2.35.783-.853 1.42-1.94 2.29-2.66 2.47-.143-.811-1.37-1.72-1.54-1.33-.457-2.66-.914-4.09-.757zm-42.6.431c-2.87.738-5.86 1.62-8.24 3.44-.659 1.12.996.675 1.58.382 1.26-.898 1.62.462 2.27 1.34 1.3 1.64 3.26 3.23 5.48 2.81 2.74-.111 5.55-.121 8.2-.824.95-.786 2.1-1.04 3.3-1.18 1.51.03 2.32-.301 1.03-1.51-.816-1.01-1.65-2.05-2.93-2.46-1.66-.629-3.33-1.46-5.09-1.75zm65 .124c1.86.248 1.39 2.3.999 3.55-.515 1.24-1.78 2.1-2.4 3.28-.585 1.79.449 3.51.64 5.24-.085 1.89-.294 3.77-.901 5.57a12.09 12.09 0 0 0-.624 4.56c-.281 1.4.562 3.03-.226 4.28-.116 1.71-5.01 3.18-3.18.572 1.12-2.82 2.17-5.71 2.88-8.65.136-2.54.307-5.08-.065-7.6-.149-2.44-.568-4.93-.596-7.35.723-1.46 1.63-3.33 3.47-3.45zm-21.3.777c2.35.097 4.88-.383 6.98.986-.401 1.25-1.5 2.21-2.51 2.98-1.25.608-2.49 1.25-3.92 1.24-1.55.452.067-.786.2-1.45-.013-.87.249-1.82.076-2.65zm-.697.236c.728 1.12 1.07 2.75.285 3.87-.561.751-1.31 1.09-2.24.991-1.14.104-2.52.408-3.17-.876-1.52-1.67 1.08-2.4 2.18-3.04.939-.437 1.92-.796 2.94-.947zm-26.6.183c.215 2.07 1.44 3.72 2.34 5.53.386.5.891 2.78 1.23 1.12.067-1.99-1.12-3.82-2.15-5.45-.448-.49-.596-1.41-1.41-1.19zm-14.3.498c1.12-.263 1.71.888 1.74 1.8.101.852.017 1.63-.791 2.1-1 1.32-3.06 1.5-4.5.85-1.11-.686-2.15-2.37-1.6-3.65.677-1.22 2.77-.668 3.97-1.07.393-.03.786-.042 1.18-.036zm2.09.066c2.34.129 4.55.917 6.76 1.63.3.608 1.11 1.56.303 2-2 .114-3.77 1.45-5.82 1.36-.531-.128-2.39.59-1.87-.208.434-.991 1.46-1.86 1.06-3.02-.067-.603-.168-1.21-.433-1.76zm35.7.484c-.051.013-.08.207-.111.245-.091.104-.175.203-.271.256-.187.102-.297.128-.412.2-.071.044-.151.02-.161.11-.1.944 1.61 2.12 2.56.97 1.06-1.01-.434-2.12-1.6-1.78zm-39.6.226c-.169.013-.462.095-.462.095l-.355.535-.58.51s-.111.495.05.86c.2.455.732.792 1.34.707.382-.127.91-.359 1.08-.787.302-.745-.047-1.8-1.08-1.92zm-4 .01c.125 1.22.278 2.82-.683.894-.702-.666.261-.565.683-.893zm15.6 1.43c1.57.78.106 2.1.051.344zm24.8.669c1.63.85-1.53 1.32-.401.506l.267-.327zm13.3.723c-.774.655-2.74 1.68-2.66 2.18.944-.503 2.24-1.14 2.66-2.18zm-54.6.605c.551 1.35 3.36 3.1 3.79 2.57a12.908 12.908 0 0 1-3.79-2.57zm69.6.439c.518 2.61.824 5.28.608 7.94-.077 1.4.1 2.85-.68 4.09-.601 1.41-1.1 2.85-1.6 4.3.093-1.65.14-3.3.78-4.85.757-2.01.682-4.18.978-6.28-.415-1.64-1.55-3.58-.172-5.06l.08-.122zm-100 2.19c-1.17-.317-2.48.37-2.27 1.67.072 1.93.277 4.04 1.59 5.57 1.7 2.25 2.62 4.91 3.42 7.57-.08 1.14 3 2.52 2.77 1.74-.862-.582-2.1-.84-2.31-2.01-.666-1.73-.722-3.68-1.88-5.2-.764-1.69-2.26-3.18-2.22-5.12-.154-1.04-.091-4.14 1.62-3.15-.063 1.11-.026 2.21.537 3.2.61.978.059 2.1.037 3.16 1.02-.521 1.04-1.54.813-2.56-.546-1.09-.638-2.48.518-3.27.783.564 3.41 1.54 1.51-.05-1.09-.718-2.16-1.7-3.56-1.53zm55.2 1.66c.141.809.154 4.45.836 2.51.029-.786.635-2.97-.835-2.51zm-49.4 2.41c-.757.699-1.3 1.52-1.46 2.55-.532 1.66-1.04 3.54-.116 5.16.254 1.33 1.48 2.04 2.31 2.99 1.34.137 2.83 1.29 4.06.579.92-1.21-2.42-.835-3.44-1.43-1.33-.512-1.97-2.04-2.61-3.24-.088-1.5.466-2.92.943-4.31.995-.49 1.31.468 1.75 1.18.111 1.14-.637 2.47-.263 3.54.412.969 1.31 1.28 2.3 1.39 2.82-.336-1.14-.97-1.58-1.75.615-1.35 1.79-3.24.05-4.41a14.769 14.769 0 0 1-1.94-2.26zm13.8 6.71c-.174 2.68-.267 5.44-.013 8.12.722-1.43.262-4.74.215-6.86-.045-.424-.052-.858-.203-1.26zm-1.03 1.39c.002.719-.129 4.11.311 2.24-.016-.755-.197-1.49-.312-2.24zm48.3.548c.156 2.02.861 3.96 1.96 5.65.125 1.01 1.16 2.23.368 3.16-.791 1.1-.699 2.19.223.605.653-.88 1.43-1.74 1.15-2.91-.061-1.92-1.91-3.22-2.64-4.88-.324-.56-.702-1.08-1.06-1.62zm-9.79.284c-.777 1.06-2.11 5.09-.618 2.15.262-.683.813-1.39.618-2.15zm-36.2.52a30.398 30.398 0 0 0 .233 7.18c.38-2.35.096-4.76-.119-7.11l-.114-.077zm35 .309c-.686.743-1.92 4.44-.556 1.75.212-.552.613-1.16.556-1.75zm-33.9.542c.736 3.49.379 7.23.827 10.8.674-1.35 0-4.93.03-7.14-.204-1.16.126-2.88-.858-3.67zm32.6.026c-.693 1.91-2.22 2.03-3.26 3.84-.67.707-.795 1.58-.694 2.52.022 1.16 1.15 2.57 2.4 2.48.297-1.27-1.36-2.16-1.06-3.3.525-1.65 1.75-2.94 2.31-4.45.081-.31.579-.81.316-1.08zm-30.2 1.51c-.161 3.88-.135 7.8.196 11.7a62.304 62.304 0 0 0-.124-11.5zm1.51 1.42c.006 3.91.183 7.89.496 11.8.5.902.115-2.47.151-3.32-.178-2.83-.141-5.7-.646-8.49zm62.2 3.58c-.304 2.38-.238 4.83-.036 7.22.298-2.35.337-4.87.036-7.22zm-20.7.195c-1.19.282-3.5 1.51-2.69 2.67.519-1.35 2.83-.943 2.96-2.34.081-.376.118-.35-.276-.332zm-39.7.325c.106 2.11.18 4.47.43 6.65.457-1.16.197-4.58-.19-6.49l-.109-.122zm30.8.418c-1.2.118-2.58-.341-3.51.635-1.49 1.41.947-.137 1.61.684.88.45 2.72-.511 2.89.833.913-.176.287-1.8-.686-1.94zm28.3 1.59c-.472 2.01-.568 4.44-.225 6.35.245-2.05.35-4.42.225-6.35zm-57.5.01c.18 1.48.529 3.68.783 4.74.09-1.56.001-3.37-.783-4.74zm56.1.777c-.214 1.71-.398 5.04.061 5.93.13-1.96.238-3.99-.061-5.93zm-53.9.182c.15.843-.138 4.36.502 3.73.051-1.25-.055-2.56-.503-3.73zm1.49.983c-.646 1.12.755 4.59.389 1.78-.127-.577-.092-1.26-.389-1.78zm50.5.547c-.653 1.14-.29 4.74.017 1.4.022-.463.104-.938-.018-1.4zm-19 .252c-.911.78-.8 2.23-.2 3.2 1.459 2.75 1.12-1.65.331-2.6l-.131-.594zm-30.2.033c-.325 1.3 1.06 2.59.277.574l-.102-.298-.174-.275zm24.3.834c-.033.826-.373 1.73-.231 2.51.846 2.08 1.75-.743 1.16-1.83-.103-.445-.472-.775-.934-.687zm6.72 4.86c-1.45.432-2.841 1.22-4.401.921-1.34-.107-2.509-.902-3.88-.675-2.81-.26-5.09 1.86-7.4 3.13-2.16 1.2-4.21 2.71-6.57 3.47 1.05.824 2.47.135 3.68.236 1.63-.03 3.3-.476 4.9-.473 4.07 2.1 8.87 2.94 13.4 2.2 1.95-.342 3.64-1.41 5.16-2.63 1.52.09 3.17-.329 4.52.543 2.37-.363-.839-2.3-1.79-2.9-1.51-1.2-3.02-2.52-4.71-3.43zm1.34 1.03c1.53.156 3.79 2.66.851 1.93-3.07-.532-6.1 2.07-9.14.565-2.231-.75-4.43.125-6.58.637-1.5.613-.398-.87.313-1.18 1.701-1.34 3.94-1.88 6.07-1.65 1.87.715 3.97 1.24 5.84.203.855-.295 1.75-.418 2.641-.513zm-11.8 4.2c1.65.077 3.35-.176 4.89.557 1.37.32 2.83-.306 4.23-.232 1.34.078 2.95-.408 4.17.093.506.855-2.02 1.34-2.82 1.72-1.87.662-3.92.33-5.87.403-2.24-.172-4.84-.265-6.57-1.82.546-.434 1.32-.477 1.96-.718zm-7.62.515c-.005.055-.156.026 0 0zm24.5 1.57c-1.36.64-2.62 1.78-4.03 2.51-3.02 2.11-6.89 1.39-10.3 1.48-2.25.066-4.41-.308-6.04-1.94-.695-.635-1.47-1.02-2.43-.84-1.07.193.234 1.34.833 1.58 2.34 1.68 4.509 3.77 7.429 4.39 2.46.93 4.95-.51 7.47-.234 1.38.105 2.53-.885 3.8-1.31 1.54-1.53 3.21-3.26 3.55-5.48-.015-.117-.14-.182-.245-.164zm-51.1 4.79c-.127 4.61-.047 9.21.164 13.8.009 2.32.301 4.66.129 6.98-.509 2.82-.883 5.69-1.69 8.45-.952 2.45-1.54 5.07-3.07 7.26-2.48 4.34-6.37 7.59-9.86 11.1-3 1.83-5.81 3.97-8.65 6.02-3.99 1.57-8.23 2.35-12.3 3.79-2.54.701-6.646 3.584-6.646 3.584l1.772.06s.144-.554 3.114-1.664c2.42-1.36 5.18-1.74 7.81-2.5 2.82-.783 5.88-1.29 8.08-3.37 2.78-1.83 5.69-3.5 8.37-5.48 2.29-2.38 4.68-4.67 6.9-7.1 2.44-3.33 4.17-7.09 5.39-11 .773-2.3 1.06-4.74 1.55-7.11-.076-5.17.084-10.4-.412-15.5-.176-2.43-.34-4.86-.68-7.27zm42.6 3.97c-1.61.085-3.3-.283-4.761.568-1.159.064-1.449 1.19-.083.893 1.651 0 3.331-.3 4.931.281 2.17.223 2.64-.557-.08-1.74zm-6.84 1.58c-1.74.496-.552 1.68 0 0zm-15 29.6c.503 2.36.499 4.87 1.8 6.99 3.43 5.83 6.11 12.2 10.8 17.2.889.223-1.271-2.71-1.69-3.54-3.25-4.85-6.12-9.95-9.18-14.9-1.37-1.65-.754-3.93-1.73-5.76zm1.21.613c-.326 1.2.654 5.02.895 4.91-.234-1.64-.609-3.32-.895-4.91zm1.2 2.11c.271 1.89.443 3.97 1.07 5.71-.125-1.92-.587-3.85-1.07-5.71zm1.46 2.4c.038 1.19 1.09 5.59.55 2.08-.163-.688-.215-1.46-.55-2.08zm1.19 1.8c.114 1.21.443 4.16.786 4.37-.15-1.47-.316-2.98-.786-4.37zm19.4 1.22c-1.209.806-.578 3.3-1.269 4.69-.709 3.46-1.551 6.89-2.081 10.4.579 1.09.841-2.5 1.181-3.2.889-3.91 2.08-7.84 2.17-11.9zm-19.7 1.25c-.286 1.07.297.603 0 0zm1.87.24c.14 1.2.467 4.77.747 4.38-.128-1.47-.269-2.98-.747-4.38zm1.329 2.71c.189 1.2.607 3.79 1.021 4.16-.249-1.39-.494-2.86-1.021-4.15zm1.32 1.54c.067 1.45.615 4.6.928 4.86-.237-1.63-.45-3.29-.928-4.86zm1.671 2.16c.245 1.81.298 4.14.757 5.65-.046-1.88-.176-3.85-.757-5.65zm1.25 2.93c.078 1.56.394 4.2.913 5.11-.197-1.72-.449-3.45-.912-5.11zm1.209 1.57c-.488.816.509 4.1.56 3.67-.295-1.19-.174-2.56-.56-3.67z"/>
    <g id="hair">
        <path d="m107.1 105.4-2.08-.51-2.67.331-.08-1.171-2.71-1.53-.976 1.245-2.15-.258-.711.508-3.02-.218-2.23.59-1.1.084-1.47 1.02-1.23.757-3.12 1.214-1.6.38-3.45 15.91-2.31 9.186-5.88 12.54-4.47 6.709-.993 5.465-.453 4.71-1.53 2.65-3.7 4.568-.962 5.516 1.58 1.56 2.54 1.927 2.72 1.876 3.65-1.346 3.63 14.58 2.37 4.833.452 16.11.036 9.492-2.9 9.849-.657 2.273-.23 4.66-1.63 6.382-6.08 13.46-1.9 1.469.738-8.83-.788-5.72-3.51 3.345-5.17 3.232-5.16 2.905-2.15-14.58-3.19-15.09-6.68-25.69-2.33-11.32-.363-12.64.116-8.422 1.97-4.772-.38-18.05.42-15.29 2.98-10.91 5.14-11.83 5.31-8.3 8.36-9.471 10-7.168 7.411-3.5c-1.138-.512 2.89-.633 4.156-1.144l3.126-.377 5.847.132.956-.479 2.6-2.916 3.82-.969 2.33.66.594 1.294.294-1.264 2.66-1.917 2.78-.73 3.28.577 1.46 1.488 3.41-1.529 3.77.071 2.65 1.682 3.43 3.436 7.26.015 6.04 3.446 3.3 4.69 7.4 13.05 5.67 6.82 3.11 7.78.582 9.992.259 5.822.777.307 3.02 5.25 4.95 11.32 2.66 10.7.362 8.413-.22 6.759.469.387 2.21 7.636 1.44 9.584.213 4.099-.051 9.104-.176 6.597 1.12 8.707-5.88-15.09.399 6.739-.154 4.455-1.52 10.91-3.85 12.23-5.14 9.299-4.77 6.79-5.09 6.637-3.3 6.108-1.75 4.23.07-5.933-3.8-5.771-2-7.035-1.99-3.12-3.27-8.686-.524-7.147 2.19-13.36 2.06-11.52 3.95-4.15 3.79-6.993 2.46-11.52 2.62-9.818 1.87.59 2.57-.598 1.28-1.866 1.1-4.262.966-3.945-6.19-10.4-12.4-23.45-2.74-10.81-2.4-16.11-1.79-4.027-2.45 1.642-1.82 1.325-6.17 1.08-5.61 1.184-2.24.63-.878-.57-.557.732-1.77.2z" fill="#e59e1d"/>
        <path d="m94.53 73.74-4.82 2.029-1.14 1.601.48 1.794-.565 1.672-1.02.92 2.4 1.153.234 1.488-2.62 1.55 7.72.954 2.99 1.234 2.02 2.865-.163 2.1-1.11.466.394 2.345-2.2.95-5.03.21-4.37 2.701-4.22 4.058-1.54 4.364 1.81-.537 2.044-.703 2.423-1.35 2.847-1.134 4.846-.281 2.921-.19.63-1.102 2.22 1.61 2.03.407 3.51 2.412 1.824-.153 4.165-1 4.579-.872 2.575-.404 4.237-.804 2.788-1.903 1.971-1.33-4.86-4.852-5.4-2.233-5.18 1.04-3.58 3.365-1.09 3.813-2.14-.626-.368-3.854-2.43 1.703 1.39-6.046-2.54 1.825 3.06-6.943-4.02 1.356 11.3-10.6-11.1 6.422 5.02-10.02-7.14 6.75 1.31-6.964-3.81 5.098.071-5.383zm59.9 91.56-.66 1.815-1.659 6.209-1.26 1.683-2.32.525-1.45-.073-.791 2.182-2.81 12.64-2.68 7.932-3.65 5.73-3.35 2.875-1.61 5.964-1.35 6.995-1.31 17.13 2.5 8.605-.917-8.105 2.05-5.679-.537 8.268 4.02 7.219-1.091-8.422 3.841-16.42-1.44 12.44 2 7.3 1.65-15.7 4.24-10.71 5.42-12.23.922-17.84.795 2.978 2.54 7.086.897-10.6.821 14.17 1.27-2.834-.232-9.258-2.23-9.339-.169-8.381zm-96.2 9.492-.639 9.289 3.32 18.96 3.81 11.52 1.84 7.606-.5-12.95-.88-8.279 4.63 16.62 2.09 10.5-.323-16.01-1.18-8.156 2.95 12.03 1.72 4.904-.364-13.26-.022-9.787-3.59-6.26-1.9-12.24-1.37-.171-1.091.72-1.767.588-2.146-1.622-2.603-2.458z" fill="#845924"/>
        <path d="m140.6 119.4.694 4.986 6.06 12.74 6.4 14.17-2.5.32-10.4-11.22 8.29 13.87 3.75 2.977 5.75 3.834-1.25-6.688-.582-4.537 3.6 4.262.02-9.665 4.53 4.863-2.54-7.188-2.949-6.382-4.29-5.383.477 4.252-6.35-6.423 2.01 9.37zm-84.5 6.444-7.63 9.706-3.74 12.54-2.26-13.97.976-7.993-6.19 11.83.173-7.025-2.14 4.935.39 29.87-1.13.01-1.64 11.83 1.15 13.46 2.05-14.27 2.63 9.359 3.79-13.15 1.18 7.973 8.95-11.72-.143 5.679 6.65-6.342 5.29-5.577.607-8.819 4.11-7.31 4.39-8.626-10.4 13.66-3.74 2.039 5.89-19.27-13.6 17.23 1.36-15.91z" fill="#fac74a"/>
        <path d="m104.4 71.29-.043.203c-2.52.246-5.03 1.255-6.66 3.314-.699-1.754-3.529-1.519-5.109-1.06-1.88.749-3.712 1.905-4.422 3.954-3.79.577-7.479 2.132-11.3 1.357-2.72.396-5.32 1.132-7.66 2.641-5.69 2.896-11.1 6.514-15.3 11.42-7.15 6.362-10.8 15.5-14.9 23.96a56.586 56.586 0 0 0-4.041 15.4c-.319 10.71-.457 21.31-.146 32.01-2.67 4.262-1.56 9.4-1.97 14.17-.502 12.23 3.009 24.16 5.899 35.99 4.14 14.68 7.84 29.57 8.77 44.86-1.07 1.397.532 7.535.508 3.457 1.32-3.222.086-6.82.034-10.18-1.99-14.27-5.361-28.34-9.441-42.11-1.97-8.279-4.25-16.62-4.92-25.18.148-5.995-.709-12.13.396-18.05 1.24-4.354.94.67 1.41 2.691 1.3 7.392 2.12 14.99 4.49 22.12 3 5.047 3.34 11.52 5.99 16.93 1.86 5.16 5.201 9.594 7.311 14.68 5.17 9.83 9.309 20.8 8.699 32.12.232 2.865-.515 5.64-.605 8.463.074-2.467 1.77-3.799 1.93-3.106 1.02-3.12 4.134-4.827 4.664-8.599.873-3.568 2.214-7.418 1.814-11.16-.912-9.105-2.158-17.56-4.058-26.53a745.066 745.066 0 0 1-4.61-13.05c.968.584-1.75-4.118-1.28-5.627-1.275-6.49-2.031-13.13-1.473-19.71.79.748 2.05 1.524 2.812 2.2 1.386 2.644 5.46 2.717 6.99.603-.19 1.743-.223 3.456.562 5.227.736 4.72 2.222 9.48 4.932 13.36 1.72 2.957 1.93-.702.215-2.305-2.98-5.648-3.841-12.13-5.131-18.35.263-.576.043-.268-.264-.504l-.004.004c-.066.56-.145 1.109-.217 1.656-.983.35-2.503 2.409-3.96 1.033-2.147-1.393-3.5-3.705-5.722-5.004.107-.826.222-1.65.375-2.473.243-1.166.502-2.325.758-3.484 1.87-1.455 3.596-3.418 4.936-5.314.586-1.083.299-3.38 1.021-5.398-.037-.47.387-.987.186-1.451-.24.125-.432.28-.604.447.012-.078.01-.17.024-.246.376-3.6 3.09-6.454 4.31-9.768 3.52-5.73 7.2-11.62 8.29-18.35 1.88-6.964 2.19-14.48 4.77-21.21.876-3.742 3.25-5.056 6.58-2.986-.58-.97-6.56-2.275-1.76-1.785 1.92.707 3.51 2.64 1.85.33 3.37 1.325 4.26.95 2.07-.213 1.65-.437 4.46 1.1 4.46 2.018.629-1.682-5.72-4.302-4.23-2.385-2.17-.2-8.39.576-3.89-2.11 4.01-3.682 9.72-3.396 14.4-1.57.68 3.078.864-1.03 1.529 2.497.648.184 1.078.47 1.422.791-.071-.107-.143-.172-.207-.394.707.137.682.663.466.677.476.618.614 1.37.51 2.178-.245-2.814 3.12 1.867.92-1.783-.632-2.202 3.951-8.615.424-3.2-.978 4.383-2.911-.627-1.051-2.632.72-2.15 1.08-4.527 2.9-6.057-3.02 1.641-2.91 7.005-4.41 8.932-1.72-.539.107-3.2-.319-3.242.158-3.099 2.629-5.28 4.97-6.902 3.68-2.63 8.5-3.415 12.7-1.498 2.786.871 5.32 2.506 7.004 4.898-.528-1.348-.811-2.54.984-.031 3.28 2.865 5.98 6.8 8.34 10.71 3.85 6.352 6.85 13.36 12 18.76 1.29 2.518 3.291 4.303 4.812 6.617a75.618 75.618 0 0 1 10.4 24.47c1.02 5.006 1.81 10.2.871 15.29-1.07-4.231-4.349-7.647-5.559-11.62-1.24-15.6-8.91-30.08-20-40.68-3.93-6.128-6.862-12.85-10.1-19.37-1.73-.728 2.4 4.883 2.76 6.953 1.23 2.671-6.139-8.767-2.299-2.518 1.85 3.181 4.25 6.055 5.12 9.715 3.89 11.62 8.45 23.25 14.7 33.75 4.98 7.545 9.998 15.09 14.2 23.04 2.77 7.504 4.28 15.5 5.56 23.35.034 6.597-.345 13.25-.125 19.78.848 4.272.384 3.467-.613.383-2.44-5.75-3.91-11.83-4.65-18.05-1.12-7.514-4.26-14.48-6.42-21.62a1119.735 1119.735 0 0 0-3.666-6.943c.1-.146.207-.297.336-.455a3.3 3.3 0 0 0-.45.242c-1.655-3.12-3.312-6.24-4.938-9.36-4-6.963-8.951-13.36-11.8-20.9-2.55-5.321-5.12-10.81-5.24-16.92-1.12-7.452-1.03-16.52-7.86-21.31-3.58-2.65-8.63-3.6-12.5-.993-3.31 2.15-5.26 6.394-5 10.4-1.45 3.752 2.55-3.996 3.13-5.006.782-1.896 3.99-3.172.81-2.193 1.85-1.611 4.06-3.577 6.49-3.924 3.62-.083 6.941 2.396 9.281 4.996 4.34 7.473 3.52 16.62 5.4 24.88 1.15 8.993 5.67 16.92 10.3 24.37 1.48 3.426 4.811 6.209 5.631 9.777.127 4.364.161 8.788-1.51 12.85-.65 2.447-1.38 3.764-2 6.312-.813 1.692-1.45 4.628-2.04 6.637-1.32 6.128-1.54 12.85-5.41 18.05-1.52 2.59-5.29 3.62-5.29 7.076-1.41 7.259-3.76 14.38-3.4 21.82-.207 4.517-.226 9.205 1.44 13.46.096 4.282 1.02 8.696 3.41 12.23-1.43-2.467-3.34-10.17-2.45-10.2 1.21 3.72 4.37 6.394 5.04 10.3 1.01 2.039 2.66 8.34 5.03 7.229-1.93-.064-2.85-3.712-3.82-5.547-.83-2.263-1.22-3.426.756-1.051 4.06 3.742-1.369-3.68-2.379-5.352-1.34-3.456-1.46-7.442-1.58-11.21-.108-9.064 1.449-18.05 3.699-26.81.906-2.335 1.131-4.641-.12-.846-3.56 11.83-5.84 24.47-3.4 36.71-1.56-2.977-3.45-6.067-3.8-9.44.47-6.27.81-12.64 2.4-18.66-2.02 5.025-2.381 10.6-2.811 16.01.172 3.567-.458.177-.324-1.51-.19-5.578-.318-11.11.662-16.72.502-3.875 1.07-7.954 2.56-11.52 3.96-3.692 7.73-7.922 8.75-13.46 1.683-5.817 2.753-11.82 4.663-17.54.049-.008.101-.01.142-.024 2.125-.08 4.318-1.222 5.166-3.28 1.467-1.528 1.762-3.645 2.426-5.55 1.1 2.37 2.225 4.742 3.301 7.107-2.3-2.824-2.13-2.59-.55-.08 2.16 3.803 2.069 8.37 2.939 12.54-.77 2.743-1.78 3.855-1.69-.166-.492-5.67-3.5-10.91-3.59-16.62-.18-2.661-.538 1.814-.32 2.793 1.08 6.27 3.87 12.44 3.25 18.86.217.993-.598 5.638-.607 3.7-.064-6.84-.191-13.97-3.961-19.98-1.87-3.2-.062 3.813-.248 4.74.833 9.779-3.65 19.07-7.63 27.63-4.05 8.198-8.24 16.62-9.02 25.9-.096 6.047-1.31 12.54 1.58 18.05-1.6-5.138-.659-10.6-.725-15.91.631-17.64 13.7-31.4 16.3-48.63.4-3.792.473-7.645-.45-11.42 3.81 6.312 3.69 14.07 3.36 21.21-1.58 9.626-5.59 18.66-9.53 27.43 5.58-7.81 8.1-17.54 10.9-26.71.46-1.192 1.55-9.644 2.42-5.647-.405 9.93-4.03 19.27-6.35 28.85-1.66 5.353-4.21 10.6-4.02 16.41 1.35-8.483 5.18-16.21 6.83-24.67 1.38-6.21 3.61-12.34 3.77-18.76 1.17 4.812.303 9.788.427 14.68-1.05 7.208-2.901 14.27-4.891 21.31 2.94-6.78 4.739-14.17 5.539-21.51.095-5.006.413-10.01-.393-14.99.14-2.406-1.04-5.13.533-7.22.3 2.499 1.43 6.392-.226 1.519.23 3.67 2.34 9.615 3.16 14.07 2.47 9.115.333 18.66-1.961 27.53-2.77 8.493-7.53 16.11-13 23.04-1.64 1.56-6.51 9.982-3.89 3.732 2.5-6.321 4.91-12.74 7.92-18.76-2.37 2.865-3.15 6.758-4.87 10.03-2.88 6.648-5.01 13.56-7.84 20.29-.976 4.139 3.289-5.771 4.279-6.883 3.18-5.903 8.15-10.6 11.5-16.42 3.85-6.168 6.852-12.95 8.102-20.19 1.51-5.771 1.59-11.83 2.18-17.74 1.38 4.598 3.58 8.953 5.27 13.36.91-2.987-.848-6.271-1.051-9.422-.245-12.64 1.01-25.79-3.22-37.93-1.72-3.6-.512-7.706-.802-11.52.094-6.444-1.96-12.74-4.01-18.76-1.85-5.475-5.07-10.4-7.66-15.4-.453-7.83.467-16.42-4.36-23.14-4.1-4.588-7.73-9.583-10.1-15.29-2.26-3.793-4.42-7.85-8.15-10.3-2.92-2.518-7.13-2.855-10.8-2.355-3-2.274-6.082-5.965-10.2-4.904-1.95.224-3.78 2.365-5.23.021-.786-.396-1.67-.475-2.52-.611zM129 92.9c.588 1.501 1.478 3.194.187.229-.055-.084-.13-.148-.187-.229zm-23.65 9.307a2.243 2.243 0 0 0-.26-.283c.096.145.188.288.26.283zm-.082-29.88c4.82.4.091 3.619-.803 3.996 2.22-3.222-3.999 3.028-4.438 4.598-1.26 2.294-3.22 7.332-1.65 1.551 1.8-1.805 4.73-7.351 4.56-8.574-.982 1.529-5.21 9.727-2.56 3.977 1.07-2.304 2.25-5.812-.448-1.938-1.69 3.171-1.89 2.07-1.69-.76 1.52-2.202 4.51-2.836 7.031-2.846zm6.594.393-.053.052c2.06.103 4.25-.188 5.81 1.488 1.63 1.397 5.5 3.66.788 3.293-4.01 1.346-1.5-.582-3.5.229-1.94.665-7.31 2.55-2.83.168 2.53-1.274 5.811-3.978 1.291-1.5-3.7 2.743-9.43 4.314-11.4 8.719-.579 3.018-3.28 5.586-1.9 1.09.647-3.1.541-1.651 1.51-1.54.411-.707 2.97-3.516 4.5-4.505 1.45-1.264 4.82-3.274 3.49-3.111 1.67-1.254 5.151-3.59.965-1.48-2.62 1.296-7.639 6.496-7.939 6.517 1.39-2.01 6.26-6.352 5.69-6.934-2.72 2.009-5.742 6.413-7.222 7.912 1.73-4.812 6.051-8.737 10.8-10.4zm-15.99 1.56c.99.305-.194 3.167-.565.053.24-.085.424-.096.565-.052zm-.838.173c.571 1.903 1.237 3.806.852 5.82-.511-2.182-2.47-6.576-.903-1.621.876 2.08 1.67 6.29-.02 1.57-.721-2.865-2.68-6.545-1.09-1.396 1.62 2.478-4.008-1.53-4.528-1.396 1.33-1.805 3.429-3.13 5.689-2.977zm1.326.1c2.631.243-.094 8.76 1.451 6.144.805-2.06 4.7-8.432 2.14-3.19-.502 1.855-2.85 4.363-2.18 5.78-1.73 4.017-.77-5.75-1.31-7.434zm28.29 3.196c3.671-.148 7.18 1.204 9.77 3.824 4.42 4.14 6.62 10.17 9.6 15.39 1.021 2.987 4.85 4.721 4.741 7.953-.017 5.22-.09 10.5 1.2 15.6-2.379-2.314-4.65-4.966-5-8.412-2.219-8.748-4.31-19.07-12.7-23.86-3.32-2.294-7.19-3.619-11.1-4.598 4.26 1.662 9.43 3.761 13.3 6.871 4.121 2.855 4.99 8.482 7.091 12.74.936 2.824 3.699 9.024 2.83 9.9-3.87-7.473-7.951-14.99-14-20.8-3.49-4.537-8.2-9.299-14.2-9.584 3.46-.5 1.97-.707-1.06-.293-3.55-.149-6.289 2.55-8.819 4.73-.912 1.305-4.92 7.363-3.88 3.162 1.77-2.12 3.68-6.17 6.46-6.312-2.78-1.315-5.75 4.456-7.24 6.607-1.73-1.896 2.03-6.627 4.44-7.504 3.67-2.427 7.738-4.16 12.2-4.252 1.69-.185-3.48-.346.036-.5 2.1-.217 4.161-.73 6.281-.619zm-36.71.85h.004c-.432 1.478 5.32 1.59 1.9 1.365-1.3.29-2.65.628-6.25-.149-2.95-.237 3.071-1.12 4.211-1.2zm1.154.082c2.76-.087 5.9 2.499 1.44.504-.023-.282-3.81-.518-1.44-.504zm13.4 0-.002.011c-2.51 3.568-1.65 4.495-3.21 8.36-.58 1.253-1.3-2.172-.48-1.315.789-2.569 1.812-5.099 3.692-7.057zm-6.002.517c.321.9-.065 1.733 0 0zm-17.25.952c1.01-.03 1.853.03 1.848.505-7.64 1.101-15.6 3.702-20.9 9.666 6.96-5.78 15.9-9.625 25-9.115 2.15.27-2.468.227-3.318.36-3.93.194-7.51 2.214-11 3.723-4.38.944-8.07 3.883-11.8 6.197-3.94 2.6-7.2 6.097-10.3 9.625-1.12 1.61-4.31 5.925-1.6 1.54 5.41-8.227 12.8-15.09 21.6-19.47 2.43-1.437 4.892-2.568 7.682-3.007l-.06.015c.665.115 1.842-.005 2.852-.035zm28.55.375c-1.83 2.233-5.15 3.579-1.06.726zm-16 .726c2.2-.05 6.58 3.671 2.03 1.041-.664-.37-1.45-.533-2.03-1.04zm-2.789 1.107c2.483.091 7.628 3.207 5.248 2.217-3.05-1.723-6.779-1.468-10.2-1.12-1.3.112-10.8 3.007-6.53.917 3.35-1.305 6.991-1.775 10.6-1.836l.009-.01c.216-.131.516-.18.871-.168zm26.2.85c5.252.306 9.817 3.536 13.33 7.404-2.09.632-5.289-3.713-8.309-3.58-5.46-1.835-11.3 1.325-14.8 5.557 1.388-4.461 6.12-7.018 9.777-9.381zm-1.46.111.023.037c-4.181 2.518-8.11 5.76-10.1 10.4-1.1.5-.496-.447.067-1.529.724-1.203 1.56-2.326 2.448-3.398.204-.151.53-.436 1.115-1.07-.303.224-.478.385-.678.559 1.575-1.8 3.371-3.377 5.484-4.521.507-.313 1.08-.358 1.64-.475zm-9.087.238c-.698 1.111-1.65.728 0 0zm-18.86.153.158.07c3.51.196 7.42-.262 10.1 2.64-1.66-.161-4.37-1.49-6.56-1.163-9.74-.808-18.9 4.925-25.3 11.93-7.38 8.248-14.1 17.74-16.9 28.75-.589 3.874 1.29-4.527 2.09-5.506 5.41-12.54 14-24.06 25.5-31.3 2.11-1.54 9.32-3.649 3.01-1.182-10.8 5.261-15.5 17.33-19.6 28.04-2.58 8.819-7.56 16.52-10.9 25.08-2.79 6.015-5.32 12.23-7 18.66-.814 4.486-.833 9.022-.573 13.56.29 6.668.103 13.36 1.221 19.98-2.49-8.004-3.511-16.52-4.971-24.78-.96-12.13-.344-24.27-.465-36.4.557-2.671 1.06-5.343 1.69-7.994-.01 1-.337 5.414.038 2.273 1.26-9.421 6.35-17.84 11.9-25.29 5.56-6.556 12.6-11.93 20.5-15.29-2.28 2.814-7.31 6.189-10.1 9.85-5.37 5.536-10.6 11.62-13.3 19.07-.943 4.874-2.709 9.603-3.379 14.48 2.69-5.485 3.058-11.83 5.908-17.33 2.58-4.7 6.851-8.217 9.701-12.74 5.15-7.81 14.1-11.73 22.5-14.48 1.54-.475 3.14-.696 4.73-.926zm-10.64 1.65c3.96-.227-3.28 1.764-4.18 2.59.753-.76 2.85-1.764 4.18-2.59zm14.1.238c4.17.176-1.84.153 0 0zm-2.59.002c1.22.19-2.75.148 0 0zm5.08.219c1.22.162-2.41.206 0 0zm-8.13.232c1.24.126-3.48.608 0 0zm7.78 1.254c2.36.324 7.05 1.173 7.45 2.07-4.6-1.652-9.54-.452-14 1.08 4.57-.601 9.29-2.22 13.8-.63 1.72.627 1.258 1.344 2.528 2.1-.036 2.06.49 2.425.42.247 1.35.936 2.03 5.884-.178 3.03-2.32-3.427-6.88-3.926-10.6-3.937 3.08-.012 4.33.836.422.793-7.12 2.396-14 6.974-17.3 14.07-4.24 8.187-6.819 17.13-8.969 26.1-3.13 4.721-7.71 8.137-11.8 11.93-1.89 1.04-4.989 3.436-1.199 1.061 4.38-2.569 8.158-5.985 11.9-9.4-2.11 7.055-4.57 14.07-6.75 21-3.5 7.637-7.098 15.29-9.898 23.25 3.65-8.218 7.39-16.52 11.2-24.67 4.58-9.869 6.25-20.9 11.7-30.38 2.02-5.587 3.671-11.42 6.191-16.72 3.7-5.842 7.96-12.23 15.1-13.66 2.25-.622 4.86-1.6 7.08-.642 1.3 1.09 3.22 1.784 4.16 3.1-.668 2.447-4.75-1.183-6.9-.6-7.31-.41-13 6.035-14.9 12.74-2.83 11.42-3.599 23.76-10.2 33.85-3.05 4.17-5.36 8.727-7.7 13.36-2.63 3.375-2.62 7.944-4.05 11.83-1.25 5.149-2.13 10.5-2.21 15.8 1.2 8.218 2.69 16.52 5.87 24.16.531 3.059.854 6.117 2.13 8.982 2.83 9.574 3.9 19.68 3.8 29.67-.222 2.692-.332 2.956-.3.063.06-10.3-1.75-20.49-5.33-30.08-1.27-3.63-3.9-12.13-4.76-12.64 2.91 9.9 6.908 19.58 8.728 29.77.293 4.557-1.279-4.69-2.189-5.434-3.23-8.687-9.119-15.91-13.3-24.06-4.25-10.18-7.95-21-8.27-32.12.463-8.095 1.47-16.21 3.36-24.06.658-1.162.456-4.098 2.08-5.953-.626-.618 1.83-6.506 3.11-9.004 5.2-9.237 8.35-19.37 13-28.85 3.87-7.015 9.52-13.56 17.4-15.8 3.02-1.274 6.16-1.111 9.35-1.08zm-17.3 2.46c-7.52 4.862-12.9 12.64-17 20.6-4.79 10.71-9.33 21.51-13 32.63 1.02-1.724 3.37-9.249 5.07-12.95 4.93-11.72 8.951-24.27 17.8-33.75 2.08-2.479 4.54-4.548 7.08-6.485zm8.221 1.478c-2.57.96-4.65 3.304-.875.676zm22.2 1.684c-.212 2.335-2.069 3.536-.218.358zm-10.11.307c-1.27.365-9.597 3.004-3.742.597 1.188-.535 2.465-.54 3.742-.597zm-16.44.443c-.052.044-.113.11-.166.156.074-.035.14-.082.215-.115zm-.166.156c-2.993 1.426-4.757 4.676-6.914 7.084-5.92 9.441-11.3 19.37-14.8 29.97 4.53-10.91 9.76-21.82 16.5-31.5 1.475-2.018 3.497-4.073 5.215-5.555zm37.71.834c-.94 1.5-4.7 2.54-.6.188zm6.52.82-.02.018c.006 0 .015-.007.02-.008zm-.02.018c-1.458.215-6.19 4.997-3.52 2.041 2.61-2.998-2.97 2.54-4.34 3.926-1.53 1.132-2.88 6.8-.792 1.773.866-1.907 4.13-4.77 1.25-1.324-2.45 2.131-2.51 7.626-.399 2.518 1.856-3.58 4.788-6.369 7.801-8.934zm1.052.883c-2.81.917-9.25 8.462-8.07 8.014 2.28-3.018 5.26-5.73 8.07-8.014zm-11.1.2c-1.01 2.986-2.961 4.19-.303.43l.098-.304zm4.025.243c-.01 0-.02.009-.03.008.012 0 .022-.006.033-.006zm-.03.008c-2.286.006-3.442 2.803-4.457 6.04-1.38 2.793-1.419 5.18.268.997 1.034-2.433 2.463-7.172 4.189-7.037zm-20.2 1.055-.01.002c3.1 1.611-3.97-.252.727.957 3.422.545 6.086 2.997 7.994 5.822.717-1.485-4.49-5.388-6.492-5.9-.734-.313-1.459-.66-2.219-.88zm8.712 6.781c-.003.006-.004.013-.008.02h.024zm-.008.02c-2.237-.225-5.14.488-.933.513.52-.078.803-.265.933-.513zm19.79-6.801c-2.6 1.417-5.559 3.313-6.629 6.27.12 3.395.771-1.763 1.02-.547-.506 1.63 1.84-3.1 3.19-3.182 1.62-1.234 5.83-3.425 1.27-1.396-3.02 1.774 1.89-1.224 1.15-1.143zm-21.21.027c2.59 1.886-1.72.139 0 0zm7.33.4c-1.12 2.478-2.42 3.936 0 0zm-17.4.508v.004l.006.002zm.006.006c1.658 1.424-5.662-.59-2.627.484 2.63-.026 8.78 2.754 7.58 1.51 1.15 2.57 2.432.821 4.042 3.568.041-2.192-4.11-4.557-6.6-4.77-.822-.19-1.577-.6-2.395-.792zm10.69.924c1.8.892.673 2.753 0 0zm22.5.566c-2.42-.01-9.63 6.812-3.93 2.51 1.23-.954 2.73-1.55 3.93-2.51zm-31.4.196c.902 2.233 6.062 4.516 1.791 1.365-.592-.458-1.12-1.02-1.79-1.365zm32.6.609c-1.66.507-5.13 3.904-1.22 1.223.583-.344 1.48-.32 1.22-1.223zm-15.98 1.172c-1.69 1.254-3.92 6.526-1.25 1.938l.686-.973zm-2.92.016c-.122 1.64-.829 2.518 0 0zm40.6 1.56v.061c4.92 5.414 5.2 13.05 5.26 19.98.954 5.7-2.419-.858-3.779-2.609-1.68-5.567-1.82-11.62-1.48-17.44zm-35.5.385c-.4 1.111-1.209 1.743 0 0zm-7.529.551c-1.29.074 2.97 1.06 0 0zm-18.2.408c-1.88.294-6.59 1.864-3.4 1.242-2.91 2.834.512-.373 2.08-.566.768-.648 3.12.522 1.33-.67zm49.1 6.21c1.81 1.855 1.571 3.872.291.976zm1.163 2.835c3.089 2.694 3.753 7.093 5.618 10.58 2.08 5.628 4.54 11.11 6.34 16.82-5.317-8.405-8.876-17.96-11.96-27.4zm3.249 3.67c10.66 10.06 17.13 24.43 18.53 39.08-3.53-5.546-7.94-10.71-9.7-17.23-2.86-7.337-5.515-14.73-8.829-21.85zm-96.9 34.7c-1.154 7.6-2.525 15.26-2.158 22.94 1.08 10.6 4.64 20.8 8.87 30.38 3.81 6.26 8.06 12.34 11.3 18.96 3.19 7.504 5.348 15.7 4.948 23.96.248 1.621-1.68 6.881-1.27 2.854.48-11.22-4.45-21.61-9.18-31.4-.707-1.63-4.92-7.535-4.67-6.424 4.87 7.983 8.68 16.62 11.7 25.49 1.27 5.241 1.951 10.81 1.221 16.21-.908 1.325-3.51 5.546-2.9 1.773.222-6.78-.551-13.66-2.84-19.98-3.02-9.156-7.94-17.54-12.4-26-3.89-9.584-7.15-19.78-6.72-30.28.097-3.293-.477-6.646.29-9.889-.805-2.467.826-9.053 1.531-12.74.318-2.157 1.258-3.967 2.277-5.852zm20.04 3.328c.254-.101.264.615-.19 2.771-.157 1.692-.448 3.365-1.11 4.916-.019.018-.032.038-.05.055-1.479 1.35-2.302 2.736-3.239 4.088.462-2.002.982-3.98 1.711-5.877.582-1.542 2.32-5.729 2.88-5.953zm86.88 5.291c.817 1.716 1.591 3.437 2.396 5.156-.79 1.74-.895 4.056-2.038 5.553-.287 2.074-2.21 3.38-4.026 3.35 1.178-2.248 2.104-5.655 2.994-8.299.764-1.825.508-3.833.675-5.76zm8.218 19.29c1.27 1.692 1.69 9.962.668 4.385-.233-1.458-.576-2.906-.668-4.385zm.753 9.695c.405 2.54-1.139 2.56 0 0zm-86.37 7.822c-.306 7.076.52 16.02.459 23.05-.421 3.324-.236-1.773-.317-3.027-.256-2.834.375-5.884-.478-8.586.026 2.396.176 7.688.137 11.11a26.042 26.042 0 0 1-1.91 11.62 59.714 59.714 0 0 0-1.18-14.99c-.776-3.946-1.27-9.9-2.21-12.64 1.01 10.71 4.07 21.21 2.75 32.12-.47 2.732-.318 6.912.237 2.141.29-2.896.087-3.69 1.27-5.586 1.76-4.72 2.85-9.749 2.48-14.79.07-6.179.453-13.75-.246-19.87zm-31.74 6.533.008.082c3.51 17.84 11.7 35.28 9.432 53.83.398 1.784-2.34 6.894.004 2.47 1.06-6.424.71-13.05.088-19.58-2.28-12.44-6.421-24.57-9.531-36.81zm7.248 18.54c1.68 8.044 3.91 16.11 4.65 24.26-.072 4.364.418 8.79-1.01 12.95 1.9-3.303 1.89-7.554 1.96-11.32-.912-8.789-2.66-17.64-5.59-25.9zm3.615 1.895.022.057-.016-.057zm.022.057c2.317 9.167 5.135 18.32 6.023 27.78.14 1.754-.968 7.992.263 3.832.7-7.596-1.95-14.99-3.5-22.33-.842-3.121-1.6-6.282-2.787-9.283zm91.28 8.244c-2.98 7.728-3.081 16.21-2.82 24.37.047 2.355.762 9.727.669 3.467-.413-9.319-.397-18.86 2.151-27.83z"/>
    </g>
</svg>
